<?xml version="1.0" encoding="UTF-8" standalone="no"?>
<svg
   xmlns:svg="http://www.w3.org/2000/svg"
   xmlns="http://www.w3.org/2000/svg"
   width="300.0"
   height="240.0"

>
    <g transform="scale(1.8147198213855575, -1.8147198213855575)   translate(-75.47817371673635,100.85181291961403)" stroke-width="0.551049251909581"  fill="none">
       <!-- hidden lines -->
       <g  stroke="rgb(160,160,160)" fill="none" stroke-dasharray="0.551049251909581,0.551049251909581" >
			<path d="M92.32394085179817,-112.85259385491909 L80.98866623583217,-119.3970177057854 " />
			<path d="M92.32394085179817,-111.87279795780566 L92.32394085179817,-112.85259385491909 " />
			<path d="M97.27368832010428,-118.15982163094914 L99.39500866366365,-116.93507675955772 " />
			<path d="M99.3950086636649,-198.58473485232935 L99.39500866366392,-116.93507675955755 " />
			<path d="M99.39500866366463,-198.58473485232952 L98.11505435738167,-199.3237168156124 " />
			<path d="M98.68790188247829,-193.76432006560506 L98.68790188247796,-166.36719875979526 " />
			<path d="M98.68790188247777,-150.89824956690074 L98.6879018824774,-118.97631821187667 " />
			<path d="M97.27368832010427,-118.15982163094901 L98.68790188247739,-118.9763182118767 " />
			<path d="M92.32394085179915,-194.50225194769087 L92.32394085179915,-196.12697502864984 " />
			<path d="M92.32394085179915,-196.12697502864984 L80.98866623583216,-202.67139887951672 " />
			<path d="M104.73498477610323,-122.46760314832359 L104.73498477610347,-144.79417557148506 " />
			<path d="M104.7349847761028,-144.79417557148508 L104.7349847761028,-146.42716873334055 " />
			<path d="M104.73498477610349,-146.4271687333405 L104.73498477610322,-122.46760314832359 " />
			<path d="M104.73498477610323,-122.46760314832356 L97.27368832010427,-118.15982163094898 " />
			<path d="M98.68790188247736,-118.97631821187672 L104.73498477610323,-122.46760314832358 " />
			<path d="M106.99772647590045,-146.10057010096943 L104.7349847761035,-144.79417557148508 " />
			<path d="M106.99772647590025,-188.96664059967418 L104.7349847761033,-187.66024607018983 " />
			<path d="M104.73498477610303,-162.87591382334875 L104.73498477610318,-187.66024607018971 " />
			<path d="M104.7349847761033,-187.6602460701898 L104.7349847761033,-189.2932392320453 " />
			<path d="M104.73498477610318,-189.29323923204518 L104.73498477610302,-162.87591382334875 " />
			<path d="M104.7349847761033,-189.2932392320453 L95.52103050369611,-194.61291821152068 " />
			<path d="M99.39500866366463,-198.58473485232952 L98.68790188247834,-198.1764865618658 " />
			<path d="M113.51884342064068,-126.42584143145086 L113.5177653411223,-126.35759981565931 L113.51453256361374,-126.28820582400864 L113.50914946927473,-126.21775350137526 L113.50162335344065,-126.14633832691837 L113.48018574624984,-126.00100773243857 L113.45033591429208,-125.85300159965254 L113.41223561639302,-125.70312198661749 L113.36609132136807,-125.55218110394242 L113.31215308915006,-125.40099691334844 L113.2507132156927,-125.2503886950634 L113.18210464899359,-125.10117260807127 L113.10669918482009,-124.95415726727592 L113.02490545191587,-124.81013936154693 L112.93716669760639,-124.66989933639353 L112.84395838580313,-124.53419716466279 L112.7457856204236,-124.4037682281809 L112.64318040818932,-124.27931933265536 L112.53669877563537,-124.16152487743362 L112.42691775595442,-124.05102320087454 L112.31443226200383,-123.94841312113755 L112.19985186242135,-123.85425069113512 L112.14196975907602,-123.81049867112354 L112.08379747831988,-123.76904618523396 L112.02541385702085,-123.72994941115296 L111.96689801846209,-123.69326133403386 L111.90832926511169,-123.65903167468963 L111.84978697114946,-123.62730682220969 L111.79135047489665,-123.59812977109196 L111.73309897129417,-123.57154006297547 L111.67511140457522,-123.54757373305223 L111.61746636127758,-123.52626326123129 L111.56024196374074,-123.50763752812091 L111.50351576423209,-123.4917217758887 L111.4473646398457,-123.47853757405268 L111.39186468831608,-123.46810279024953 L111.33709112488825,-123.46043156601993 L111.28311818038367,-123.45553429764338 L111.23001900060035,-123.45341762204895 L111.17786554718343,-123.45408440782064 L111.12672850010051,-123.45753375130982 L111.07667716185402,-123.46376097785988 L111.0277793635603,-123.47275764814145 L110.98010137302279,-123.48451156958966 L110.93370780492386,-123.49900681292787 L110.888661533257,-123.51622373375551 L110.84502360611802,-123.5361389991708 L110.8028531629709,-123.55872561939218 " />
			<path d="M110.80285316297089,-123.55872561939219 L110.75880722821847,-123.5862296759778 L110.71662786425408,-123.61680100434097 L110.67638241724976,-123.6503907924147 L110.63813514556654,-123.68694540867322 L110.60194711715556,-123.72640648776334 L110.56787611205328,-123.76871102369418 L110.53597653012625,-123.81379147043644 L110.50629930421293,-123.86157584977053 " />
			<path d="M112.6423002405424,-127.56123799650769 L112.69852133990643,-127.55942895461995 L112.7535119429627,-127.55434332967216 L112.80718424832526,-127.54598924168653 L112.85945255948354,-127.53438002931482 L112.91023342163062,-127.51953422854095 L112.95944575491237,-127.50147554308542 L113.0070109838845,-127.48023280655836 L113.05285316297098,-127.45583993642214 " />
			<path d="M113.05285316297098,-127.45583993642214 L113.10669918482014,-127.42162242463385 L113.15770526334795,-127.38279310096026 L113.20574852044363,-127.33944550864312 L113.25071321569274,-127.29168407582915 L113.292491025206,-127.23962386399339 L113.33098130258097,-127.18339029074609 L113.3660913213681,-127.12311882769067 L113.39773649845688,-127.0589546740608 L113.4258405978439,-126.9910524069227 L113.4503359142921,-126.91957560878544 L113.47116343643863,-126.84469647351634 L113.48827298895837,-126.7665953915109 L113.50162335344066,-126.68546051511655 L113.51118236768812,-126.60148730535707 L113.51692700319816,-126.51487806104997 L113.51884342064068,-126.42584143145086 " />
			<path d="M113.51884342064123,-169.29191193015652 L113.51776534112285,-169.22367031436497 L113.5145325636143,-169.15427632271428 L113.50914946927529,-169.0838240000809 L113.5016233534412,-169.01240882562402 L113.4801857462504,-168.86707823114423 L113.45033591429264,-168.7190720983582 L113.41223561639357,-168.56919248532316 L113.36609132136863,-168.41825160264807 L113.31215308915061,-168.2670674120541 L113.25071321569327,-168.11645919376906 L113.18210464899414,-167.96724310677692 L113.10669918482064,-167.82022776598157 L113.02490545191642,-167.67620986025258 L112.93716669760694,-167.5359698350992 L112.84395838580369,-167.40026766336842 L112.74578562042416,-167.26983872688655 L112.64318040818988,-167.14538983136103 L112.53669877563593,-167.0275953761393 L112.42691775595499,-166.9170936995802 L112.31443226200439,-166.8144836198432 L112.19985186242191,-166.72032118984077 L112.14196975907659,-166.6765691698292 L112.08379747832043,-166.63511668393963 L112.0254138570214,-166.59601990985863 L111.96689801846266,-166.55933183273953 L111.90832926511224,-166.52510217339528 L111.84978697115001,-166.49337732091533 L111.7913504748972,-166.46420026979763 L111.73309897129472,-166.43761056168114 L111.67511140457577,-166.4136442317579 L111.61746636127813,-166.39233375993695 L111.5602419637413,-166.37370802682656 L111.50351576423265,-166.35779227459435 L111.44736463984626,-166.34460807275832 L111.39186468831664,-166.33417328895518 L111.33709112488881,-166.3265020647256 L111.28311818038422,-166.32160479634902 L111.2300190006009,-166.3194881207546 L111.17786554718398,-166.32015490652628 L111.12672850010107,-166.32360425001548 L111.07667716185458,-166.32983147656554 L111.02777936356087,-166.3388281468471 L110.98010137302334,-166.35058206829532 L110.93370780492441,-166.3650773116335 L110.88866153325755,-166.38229423246116 L110.84502360611859,-166.40220949787644 L110.80285316297146,-166.42479611809785 " />
			<path d="M110.80285316297145,-166.42479611809785 L110.75880722821903,-166.45230017468344 L110.71662786425465,-166.48287150304662 L110.67638241725032,-166.51646129112035 L110.6381351455671,-166.55301590737886 L110.60194711715613,-166.59247698646897 L110.56787611205385,-166.6347815223998 L110.53597653012682,-166.67986196914208 L110.50629930421351,-166.72764634847616 " />
			<path d="M112.64230024054294,-170.42730849521334 L112.69852133990699,-170.4254994533256 L112.75351194296324,-170.4204138283778 L112.80718424832581,-170.41205974039218 L112.85945255948408,-170.40045052802046 L112.91023342163118,-170.3856047272466 L112.95944575491292,-170.3675460417911 L113.00701098388505,-170.34630330526403 L113.05285316297152,-170.3219104351278 " />
			<path d="M113.05285316297153,-170.3219104351278 L113.10669918482068,-170.2876929233395 L113.1577052633485,-170.24886359966592 L113.20574852044417,-170.2055160073488 L113.2507132156933,-170.1577545745348 L113.29249102520654,-170.10569436269904 L113.33098130258152,-170.04946078945173 L113.36609132136866,-169.9891893263963 L113.39773649845743,-169.92502517276645 L113.42584059784446,-169.85712290562836 L113.45033591429265,-169.7856461074911 L113.47116343643918,-169.710766972222 L113.48827298895893,-169.63266589021657 L113.50162335344122,-169.5515310138222 L113.51118236768868,-169.46755780406272 L113.51692700319873,-169.38094855975564 L113.51884342064123,-169.29191193015652 " />
			<path d="M116.04869327508817,-173.19386557853866 L115.87655705654124,-173.25553224687872 L115.70637966657706,-173.32108201216275 L115.5381941043805,-173.39050216360212 L115.37203298290007,-173.46377923989976 L115.20792852252397,-173.54089903186025 L115.0459125448322,-173.6218465851452 L114.88601646642597,-173.70660620317307 L114.72827129283588,-173.79516145016288 " />
			<path d="M114.72827129283579,-173.79516145016294 L114.5528620816008,-173.89964249746654 L114.38027483021808,-174.00891047698238 " />
			<path d="M116.04869327508737,-130.34266667241724 L115.89705510028203,-130.40012718830485 L115.74699795608201,-130.46067709871076 L115.59854527266202,-130.52430694927025 L115.45172022967351,-130.5910068047115 L115.30654575262548,-130.66076625040694 L115.16304450930475,-130.7335743939995 L115.02123890623665,-130.8094198671033 L114.88115108518645,-130.8882908270786 " />
			<path d="M114.88115108518635,-130.88829082707866 L114.70575498223977,-130.99279556571324 L114.53320875532052,-131.10213361457488 " />
			<path d="M115.22026615034211,-208.38958935626485 L115.17058133068869,-208.41688380341182 L115.11972171409762,-208.44207516412257 L115.06771793650016,-208.4651482640634 L115.01460132302738,-208.48608920486163 L114.9604038691411,-208.50488537247756 L114.90515822136095,-208.52152544480268 L114.8488976575994,-208.53599939847962 L114.79165606711632,-208.54829851493986 L114.73346793010543,-208.55841538565562 L114.67436829692468,-208.56634391660222 L114.6143927669832,-208.57207933192907 L114.55357746729761,-208.57561817683649 L114.49195903073041,-208.5769583196566 L114.42957457392372,-208.5760989531375 L114.36646167494162,-208.57304059492938 L114.30265835063452,-208.56778508727297 L114.2382030337392,-208.56033559588948 L114.17313454972845,-208.550696608074 L114.10749209342394,-208.53887392999238 L114.04131520538684,-208.52487468318378 L113.90751788195622,-208.49038151988108 L113.772064908908,-208.44730021521752 L113.63528260431855,-208.39573455582956 L113.4975004887403,-208.33580876790728 L113.359050491358,-208.26766721792262 L113.22026615034213,-208.19147406483802 " />
			<path d="M113.22026615034208,-208.19147406483728 L92.3239408517994,-196.1269750286496 " />
			<path d="M99.39500866366365,-116.93507675955772 L92.32394085179817,-112.85259385491909 " />
			<path d="M104.73498477610352,-146.42716873334055 L95.52103050369682,-151.74684771281562 " />
			<path d="M104.73498477610323,-122.4676031483236 L95.52103050369682,-127.78728212779853 " />
			<path d="M112.34574638178441,-127.86408822688601 L113.05285316297096,-127.45583993642214 " />
			<path d="M110.09574638178435,-123.96697390985605 L110.8028531629709,-123.55872561939218 " />
			<path d="M112.34574638178498,-170.73015872559165 L113.05285316297153,-170.32191043512776 " />
			<path d="M110.0957463817849,-166.83304440856168 L110.80285316297146,-166.4247961180978 " />
			<path d="M114.02116451164925,-174.20340974062682 L114.7282712928358,-173.79516145016296 " />
			<path d="M114.17404430399982,-131.2965391175425 L114.88115108518636,-130.88829082707863 " />

       </g>

       <!-- solid lines -->
       <g  stroke="rgb(0,0,0)" fill="none">
			<path d="M80.98866623583216,-119.3970177057854 L80.98866623583216,-118.41722180867197 " />
			<path d="M80.98866623583216,-118.41722180867197 L92.32394085179817,-111.87279795780566 " />
			<path d="M98.6879018824785,-198.33151579715468 L98.11505435738171,-199.3237168156124 " />
			<path d="M98.68790188247834,-198.33151579715454 L98.68790188247829,-193.76432006560506 " />
			<path d="M98.68790188247796,-166.36719875979526 L98.68790188247777,-150.89824956690074 " />
			<path d="M80.98866623583216,-202.67139887951674 L80.98866623583216,-201.04667579855777 " />
			<path d="M80.98866623583216,-201.04667579855777 L92.32394085179915,-194.5022519476909 " />
			<path d="M106.14919833847661,-202.63929731452868 L98.68790188247836,-198.3315157971545 " />
			<path d="M106.1491983384766,-202.6392973145287 L106.14919833847662,-204.92548774112632 " />
			<path d="M106.14919833847661,-204.92548774112635 L112.51315936915555,-208.59972235530114 " />
			<path d="M115.3415864939017,-206.9667291934464 L115.33817952955947,-207.12501653495596 L115.32796684420829,-207.27898852483526 L115.31097304110169,-207.4282742310743 L115.28723905979983,-207.57251401133095 L115.25682207754252,-207.7113603793406 L115.21979537150425,-207.8444788420412 L115.19883063085578,-207.90878933162904 L115.17624814226299,-207.97154870539637 L115.15206150857259,-208.03271915944316 L115.1262852989083,-208.09226384697524 L115.098935039895,-208.1501469004993 L115.07002720630602,-208.20633345342833 L115.03957921113941,-208.26078966108378 L115.0076093951289,-208.31348272108238 L114.97413701569623,-208.36438089309516 L114.93918223535117,-208.4134535179665 L114.90276610954635,-208.46067103618208 L114.86491057399428,-208.50600500567452 L114.82563843145404,-208.54942811895575 L114.78497333799585,-208.59091421956603 L114.74293978875141,-208.6304383178296 L114.69956310315908,-208.6679766059076 L114.65486940971228,-208.7035064721389 L114.60888563022075,-208.73700651466066 L114.5616394635938,-208.7684565542999 L114.51315936915559,-208.7978376467287 " />
			<path d="M114.51315936915557,-208.7978376467287 L114.46347454950215,-208.82513209387568 L114.41261493291108,-208.85032345458643 L114.36061115531362,-208.87339655452726 L114.30749454184084,-208.8943374953255 L114.25329708795456,-208.91313366294142 L114.19805144017441,-208.92977373526654 L114.14179087641286,-208.94424768894348 L114.08454928592978,-208.95654680540372 L114.0263611489189,-208.96666367611948 L113.96726151573814,-208.97459220706608 L113.90728598579666,-208.98032762239293 L113.84647068611108,-208.98386646730034 L113.78485224954387,-208.98520661012046 L113.72246779273718,-208.98434724360135 L113.65935489375508,-208.98128888539324 L113.59555156944798,-208.97603337773683 L113.53109625255266,-208.96858388635334 L113.4660277685419,-208.95894489853785 L113.4003853122374,-208.94712222045624 L113.3342084242003,-208.93312297364764 L113.20041110076968,-208.89862981034494 L113.06495812772147,-208.85554850568138 L112.92817582313201,-208.80398284629342 L112.79039370755376,-208.74405705837114 L112.65194371017147,-208.67591550838648 L112.51315936915559,-208.59972235530188 " />
			<path d="M115.3415864939017,-202.31015969957883 L115.34158649390176,-206.9667291934457 " />
			<path d="M115.34158649390196,-202.31015969957852 L115.1790789639286,-202.0644165851917 L115.0183144817006,-201.8172269131557 L114.85932081354697,-201.56863337666795 L114.70212541995187,-201.31867891139333 L114.5467554508116,-201.06740668804866 L114.39323774074556,-200.81486010494643 L114.24159880446143,-200.56108278049933 L114.09186483217577,-200.3061185456867 L113.94406168509059,-200.0500114364843 L113.79821489092666,-199.79280568625873 L113.65434963951466,-199.5345457181275 L113.51249077844437,-199.2752761372868 L113.3726628087733,-199.0150417233073 L113.23488988079482,-198.7538874224002 L113.09919578986728,-198.49185833965436 L112.96560397230398,-198.22899973124603 L112.83413750132557,-197.96535699662235 L112.70481908307487,-197.7009756706603 L112.57767105269521,-197.43590141580228 L112.45271537047287,-197.1701800141693 L112.32997361804419,-196.90385735965387 L112.20946699466812,-196.63697944999367 L112.09121631356479,-196.3695923788267 L111.97524199832078,-196.10174232773056 L111.86156407936171,-195.83347555824608 L111.75020219049264,-195.5648384038873 L111.64117556550707,-195.29587726213913 L111.53450303486493,-195.0266385864436 L111.4302030224404,-194.7571688781769 L111.32829354233974,-194.48751467861794 L111.22879219579002,-194.21772256090978 L111.13171616809919,-193.94783912201595 L111.03708222568785,-193.67791097467256 L110.94490671319352,-193.40798473933737 L110.85520555064764,-193.13810703613797 L110.76799423072595,-192.8683244768198 L110.68328781607275,-192.59868365669553 L110.60110093669925,-192.32923114659746 L110.5214477874569,-192.06001348483403 L110.4443421255856,-191.79107716915203 L110.36979726833772,-191.52246864870577 L110.29782609067799,-191.2542343160346 L110.22844102305976,-190.98642049905024 L110.16165404927818,-190.71907345303543 L110.09747670440036,-190.4522393526548 L110.03592007277312,-190.18596428397993 L109.97699478610855,-189.92029423652963 L109.92071102164778,-189.65527509532689 L109.86707850040318,-189.3909526329738 L109.81610648547951,-189.12737250174615 L109.7678037804739,-188.8645802257084 L109.72217872795547,-188.60262119285122 L109.67923920802436,-188.34154064725215 L109.63899263695079,-188.08138368126146 L109.60144596589413,-187.82219522771402 L109.56660567970232,-187.56402005216864 L109.5344777957919,-187.30690274517656 L109.50506786310864,-187.05088771457997 L109.47838096116924,-186.79601917784214 L109.45442169918394,-186.54234115441037 L109.43319421526051,-186.2898974581133 L109.41470217568951,-186.03873168959365 L109.3989487743111,-185.78888722877755 L109.38593673196334,-185.54040722738253 L109.37566829601236,-185.29333460146435 L109.36814523996415,-185.04771202400485 L109.36336886315823,-184.80358191754175 L109.36133999054333,-184.5609864468417 L109.3620589725348,-184.31996751161765 L109.36552568495414,-184.0805667392924 L109.37173952905047,-183.8428254778088 L109.3806994316039,-183.6067847884884 L109.3924038451109,-183.37248543893958 L109.4068507480516,-183.13996789601634 L109.42403764523888,-182.9092723188293 L109.44396156824943,-182.68043855180932 L109.4666190759363,-182.45350611782612 L109.49200625502334,-182.22851421136187 L109.52011872078107,-182.00550169174184 L109.55095161778391,-181.78450707642295 L109.58449962074889,-181.565568534341 L109.62075693545528,-181.34872387931856 L109.65971729974544,-181.1340105635339 L109.70137398460636,-180.9214656710525 L109.74571979533184,-180.711125911422 L109.79274707276507,-180.50302761333202 L109.84244769462157,-180.29720671833977 L109.89481307689198,-180.09369877466222 L109.94983417532464,-179.89253893103648 L110.00750148698765,-179.6937619306493 L110.0678050519102,-179.49740210513608 L110.13073445480276,-179.30349336865163 L110.19627882685599,-179.1120692120125 L110.26442684761787,-178.92316269691275 L110.335166746949,-178.73680645021363 L110.4084863070554,-178.5530326583086 L110.48437286459871,-178.3718730615641 L110.56281331288338,-178.19335894883758 L110.64379410412027,-178.0175211520736 L110.7273012517667,-177.8443900409786 L110.81332033294203,-177.67399551777558 L110.90183649091864,-177.50636701203962 L110.99283443768809,-177.341533475615 L111.0862984566014,-177.17952337761471 L111.18221240508358,-177.02036469950355 L111.28055971742177,-176.86408493026514 L111.38132340762627,-176.71071106165442 L111.48448607236433,-176.56026958353561 L111.59002989396592,-176.41278647930707 L111.6979366435011,-176.26828722141363 L111.80818768392845,-176.12679676694714 L111.92076397331392,-175.98833955333592 L112.03564606811965,-175.8529394941242 L112.15281412656216,-175.72061997484187 L112.27224791203929,-175.59140384896537 L112.3939267966254,-175.46531343397072 L112.517829764634,-175.34237050747888 L112.64393541624763,-175.22259630349438 L112.77222197121374,-175.1060115087381 L112.90266727260655,-174.99263625907415 L113.03524879065387,-174.8824901360323 L113.16994362662827,-174.7755921634258 L113.30672851680204,-174.67196080406598 L113.44557983646517,-174.57161395657303 L113.58647360400569,-174.47456895228504 L113.72938548505162,-174.38084255226445 L113.87429079667385,-174.2904509444032 L114.0211645116492,-174.20340974062685 " />
			<path d="M114.02116451164925,-174.20340974062682 L114.17890968523943,-174.11485449363695 L114.33880576364567,-174.03009487560905 L114.50082174133743,-173.9491473223241 L114.66492620171353,-173.87202753036365 L114.83108732319396,-173.798750454066 L114.99927288539052,-173.72933030262664 L115.1694502753547,-173.6637805373426 L115.34158649390157,-173.60211386900255 " />
			<path d="M115.34158649390116,-158.9205617878946 L115.34158649390135,-173.6021138690019 " />
			<path d="M115.34158649390119,-158.92056178789457 L115.18322465738636,-158.6776070777711 L115.02658910766215,-158.433275168388 L114.87170653134838,-158.18760768754169 L114.71860331640387,-157.9406464905752 L114.56730554763055,-157.69243365324715 L114.41783900222939,-157.44301146456303 L114.27022914540846,-157.19242241957042 L114.12450112604456,-156.9407092121187 L113.98067977239828,-156.6879147275854 L113.83878958788405,-156.4340820355694 L113.69885474689538,-156.17925438255318 L113.56089909068609,-155.92347518453465 L113.4249461233085,-155.66678801963025 L113.29101900760884,-155.40923662065026 L113.15914056128098,-155.150864867648 L113.02933325297887,-154.8917167804438 L112.90161919848845,-154.63183651112502 L112.77602015695972,-154.37126833652385 L112.65255752719949,-154.1100566506737 L112.53125234402567,-153.8482459572454 L112.41212527468345,-153.5858808619652 L112.29519661532406,-153.3230060650149 L112.18048628754697,-153.05966635341628 L112.06801383500564,-152.79590659340042 L111.95779842007794,-152.5317717227637 L111.84985882060118,-152.26730674321163 L111.74421342667307,-152.00255671269167 L111.64088023751832,-151.73756673771655 L111.53987685842223,-151.47238196567926 L111.44122049773107,-151.20704757716115 L111.3449279639203,-150.94160877823435 L111.25101566273078,-150.67611079275977 L111.15949959437377,-150.41059885468218 L111.07039535080477,-150.14511820032354 L110.98371811306716,-149.8797140606758 L110.89948264870569,-149.61443165369488 L110.81770330925053,-149.3493161765966 L110.73839402777206,-149.08441279815622 L110.66156831650713,-148.819766651013 L110.58723926455687,-148.5554228239806 L110.51541953565663,-148.29142635436526 L110.4461213660185,-148.02782222029253 L110.37935656224646,-147.7646553330442 L110.31513649932492,-147.50197052940663 L110.25347211868072,-147.2398125640316 L110.19437392631895,-146.97822610181146 L110.13785199103302,-146.71725571026917 L110.08391594268922,-146.45694585196546 L110.03257497058603,-146.19734087692322 L109.98383782188847,-145.9384850150717 L109.93771280013789,-145.68042236871074 L109.89420776383716,-145.42319690499687 L109.85333012511185,-145.16685244845254 L109.81508684844742,-144.9114326734995 L109.77948444950258,-144.65698109701776 L109.74652899399922,-144.40354107093165 L109.71622609668903,-144.15115577482356 L109.68858092039679,-143.89986820857737 L109.66359817514083,-143.64972118505239 L109.64128211733056,-143.40075732278905 L109.62163654904123,-143.15301903874806 L109.60466481736624,-142.90654854108334 L109.59036981384682,-142.66138782195117 L109.57875397397942,-142.41757865035555 L109.56981927680074,-142.17516256503202 L109.56356724455058,-141.93418086737051 L109.55999894241248,-141.69467461437856 L109.55911497833222,-141.4566846116864 L109.56091550291426,-141.2202514065947 L109.56540020939607,-140.98541528116633 L109.57256833370046,-140.75221624536331 L109.58241865456564,-140.5206940302303 L109.59494949375338,-140.2908880811253 L109.61015871633491,-140.06283755099932 L109.62804373105466,-139.83658129372563 L109.64860149077172,-139.6121578574801 L109.67182849297907,-139.3896054781737 L109.69772078040019,-139.16896207293792 L109.7262739416634,-138.9502652336648 L109.75748311205336,-138.73355222060223 L109.79134297433994,-138.5188599560057 L109.8278477596841,-138.3062250178479 L109.8669912486208,-138.0956836335865 L109.90876677211858,-137.88727167399222 L109.9531672127158,-137.68102464703713 L110.00018500573331,-137.47697769184524 L110.04981214056323,-137.27516557270556 L110.1020401620338,-137.07562267314924 L110.15686017184983,-136.87838299009147 L110.21426283010884,-136.68348012803935 L110.27423835689227,-136.49094729336645 L110.33677653393177,-136.30081728865545 L110.40186670635008,-136.1131225071093 L110.46949778447637,-135.92789492703233 L110.53965824573562,-135.74516610638202 L110.61233613661182,-135.56496717739225 L110.6875190746844,-135.3873288412692 L110.76519425073806,-135.2122813629608 L110.84534843094498,-135.0398545660001 L110.92796795911957,-134.8700778274244 L111.01303875904514,-134.70298007277 L111.10054633687213,-134.53858977114407 L111.19047578358743,-134.37693493037432 L111.28281177755453,-134.21804309223705 L111.37753858712392,-134.0619413277649 L111.4746400733134,-133.90865623263466 L111.5740996925576,-133.7582139226359 L111.67590049952676,-133.6106400292216 L111.78002515001363,-133.46595969514132 L111.88645590388856,-133.32419757015737 L111.99517462812187,-133.18537780684525 L112.10616279987335,-133.04952405647856 L112.21940150964798,-132.91665946499958 L112.33487146451768,-132.7868066690757 L112.45255299140824,-132.65998779224282 L112.57242604045122,-132.5362244411359 L112.6944701883998,-132.41553770180792 L112.8186646421085,-132.29794813613736 L112.94498824207564,-132.18347577832486 L113.0734194660485,-132.07214013148004 L113.20393643269009,-131.9639601642986 L113.33651690530712,-131.85895430783063 L113.4711382956387,-131.75714045234034 L113.60777766770461,-131.6585359442581 L113.74641174171312,-131.563157583225 L113.8870168980272,-131.47102161923073 L114.02956918118872,-131.38214374984486 L114.17404430399976,-131.29653911754252 " />
			<path d="M114.17404430399982,-131.2965391175425 L114.31413212505012,-131.21766815756715 L114.45593772811823,-131.14182268446336 L114.59943897143894,-131.0690145408708 L114.74461344848697,-130.99925509517536 L114.89143849147548,-130.9325552397341 L115.03989117489549,-130.86892538917462 L115.18994831909549,-130.8083754787687 L115.34158649390078,-130.7509149628811 " />
			<path d="M115.34158649390079,-129.24452477002325 L115.3415864939008,-130.75091496288107 " />
			<path d="M112.51315936915458,-124.34554528445692 L112.65194371017047,-124.42960648466196 L112.79039370755277,-124.52133322119325 L112.928175823131,-124.62050451630817 L113.06495812772047,-124.72688145767042 L113.20041110076869,-124.84020777391072 L113.3342084241993,-124.96021045200705 L113.46602776854091,-125.08660039499688 L113.59555156944698,-125.2190731184371 L113.7224677927362,-125.35730948393368 L113.84647068611008,-125.50097646797408 L113.96726151573715,-125.64972796421002 L114.0845492859288,-125.80320561725794 L114.19805144017343,-125.96103968600862 L114.30749454183987,-126.1228499343658 L114.4126149329101,-126.28824654726829 L114.5131593691546,-126.45683106978856 L114.60888563021979,-126.62819736704562 L114.69956310315811,-126.80193260261943 L114.78497333799488,-126.9776182331101 L114.86491057399333,-127.15483101644557 L114.93918223535022,-127.33314403150872 L115.00760939512796,-127.51212770662792 L115.0700272063051,-127.6913508544527 L115.12628529890736,-127.87038171072182 L115.17624814226207,-128.04878897442129 L115.21979537150332,-128.22614284682624 L115.2568220775416,-128.4020160669237 L115.28723905979892,-128.57598494072172 L115.31097304110078,-128.7476303619655 L115.3279668442074,-128.91653882180088 L115.33817952955857,-129.08230340495348 L115.34158649390082,-129.24452477002322 " />
			<path d="M112.51315936915455,-124.34554528445693 L106.99772647590017,-121.16120861883921 " />
			<path d="M106.99772647590045,-146.10057010096943 L106.99772647590018,-121.16120861883925 " />
			<path d="M112.81173663945412,-126.83408972191474 L112.81065855993575,-126.76584810612319 L112.80742578242719,-126.69645411447252 L112.80204268808818,-126.62600179183913 L112.7945165722541,-126.55458661738226 L112.77307896506329,-126.40925602290245 L112.74322913310553,-126.26124989011642 L112.70512883520647,-126.11137027708136 L112.65898454018152,-125.96042939440629 L112.6050463079635,-125.80924520381232 L112.54360643450616,-125.65863698552728 L112.47499786780705,-125.50942089853514 L112.39959240363353,-125.3624055577398 L112.31779867072932,-125.2183876520108 L112.23005991641983,-125.0781476268574 L112.13685160461658,-124.94244545512666 L112.03867883923705,-124.81201651864477 L111.93607362700277,-124.68756762311925 L111.82959199444883,-124.56977316789751 L111.71981097476788,-124.45927149133843 L111.60732548081728,-124.35666141160142 L111.49274508123482,-124.26249898159901 L111.43486297788948,-124.21874696158743 L111.37669069713333,-124.17729447569783 L111.3183070758343,-124.13819770161683 L111.25979123727555,-124.10150962449774 L111.20122248392515,-124.06727996515352 L111.14268018996292,-124.03555511267356 L111.08424369371009,-124.00637806155584 L111.02599219010762,-123.97978835343935 L110.96800462338868,-123.95582202351612 L110.91035958009104,-123.93451155169517 L110.8531351825542,-123.91588581858478 L110.79640898304555,-123.89997006635258 L110.74025785865915,-123.88678586451655 L110.68475790712954,-123.8763510807134 L110.62998434370171,-123.86867985648381 L110.57601139919713,-123.86378258810726 L110.52291221941381,-123.86166591251282 L110.47075876599688,-123.86233269828452 L110.41962171891397,-123.8657820417737 L110.36957038066748,-123.87200926832375 L110.32067258237376,-123.88100593860533 L110.27299459183625,-123.89275986005353 L110.22660102373732,-123.90725510339173 L110.18155475207044,-123.92447202421938 L110.13791682493148,-123.94438728963466 L110.09574638178435,-123.96697390985605 " />
			<path d="M110.09574638178435,-123.96697390985605 L110.04190035993518,-124.00119142164434 L109.99089428140738,-124.04002074531793 L109.9428510243117,-124.08336833763506 L109.89788632906257,-124.13112977044905 L109.85610851954932,-124.18318998228482 L109.81761824217435,-124.23942355553211 L109.78250822338721,-124.29969501858753 L109.75086304629843,-124.36385917221739 L109.72275894691141,-124.4317614393555 L109.69826363046322,-124.50323823749278 L109.67743610831668,-124.57811737276188 L109.66032655579694,-124.65621845476731 L109.64697619131465,-124.73735333116167 L109.63741717706719,-124.82132654092115 L109.63167254155714,-124.90793578522825 L109.62975612411464,-124.99697241482735 L109.63167254155715,-125.0882219326791 L109.63741717706719,-125.18146451070244 L109.64697619131466,-125.27647551935985 L109.66032655579696,-125.37302606880947 L109.6774361083167,-125.47088356032087 L109.69826363046323,-125.56981224662567 L109.72275894691144,-125.66957379985347 L109.75086304629846,-125.76992788568442 L109.78250822338724,-125.8706327423358 L109.81761824217438,-125.97144576298723 L109.85610851954935,-126.07212408024179 L109.89788632906262,-126.17242515121481 L109.94285102431174,-126.27210734184101 L109.99089428140742,-126.37093050899202 L110.04190035993523,-126.46865657900229 L110.0957463817844,-126.56505012120938 L110.15230262717192,-126.65987891512704 L110.21143284714894,-126.75291450988468 L110.27299459183631,-126.8439327745856 L110.33683955359892,-126.93271443825785 L110.40281392433171,-127.01904561809731 L110.47075876599695,-127.10271833473003 L110.54051039351975,-127.18353101325275 L110.61190076911994,-127.26128896884458 L110.68475790712961,-127.3358048757797 L110.75890628832175,-127.40689921871147 L110.83416728275148,-127.47440072514065 L110.9103595800911,-127.53814677802583 L110.98729962642268,-127.5979838075421 L111.06480206643543,-127.65376766104424 L111.14268018996299,-127.7053639503431 L111.22074638178442,-127.75264837545842 L111.29881257360584,-127.79550702406851 L111.3766906971334,-127.83383664593488 L111.45419313714616,-127.86754490164118 L111.53113318347773,-127.89655058504691 L111.60732548081735,-127.92078381892014 L111.68258647524706,-127.94018622327792 L111.75673485643922,-127.95471105602867 L111.82959199444889,-127.96432332557808 L111.90098237004906,-127.96899987512687 L111.97073399757188,-127.96872943845756 L112.03867883923711,-127.96351266707578 L112.10465320996991,-127.95336212864072 L112.16849817173251,-127.93830227668855 L112.23005991641988,-127.9183693917217 L112.28919013639688,-127.89361149380599 L112.34574638178441,-127.86408822688603 " />
			<path d="M112.34574638178441,-127.86408822688603 L112.39959240363358,-127.82987071509774 L112.45059848216138,-127.79104139142414 L112.49864173925707,-127.74769379910701 L112.54360643450619,-127.69993236629304 L112.58538424401944,-127.64787215445727 L112.62387452139441,-127.59163858120996 L112.65898454018155,-127.53136711815455 L112.69062971727033,-127.46720296452469 L112.71873381665733,-127.39930069738658 L112.74322913310554,-127.32782389924931 L112.76405665525208,-127.25294476398021 L112.78116620777182,-127.17484368197478 L112.79451657225411,-127.09370880558042 L112.80407558650157,-127.00973559582094 L112.80982022201161,-126.92312635151384 L112.81173663945412,-126.83408972191474 " />
			<path d="M112.8117366394547,-169.70016022062038 L112.81065855993631,-169.63191860482883 L112.80742578242776,-169.56252461317814 L112.80204268808875,-169.49207229054477 L112.79451657225466,-169.42065711608788 L112.77307896506386,-169.2753265216081 L112.7432291331061,-169.12732038882206 L112.70512883520703,-168.97744077578702 L112.65898454018209,-168.82649989311193 L112.60504630796407,-168.67531570251796 L112.54360643450673,-168.52470748423292 L112.47499786780762,-168.37549139724078 L112.3995924036341,-168.22847605644543 L112.31779867072989,-168.08445815071644 L112.2300599164204,-167.94421812556305 L112.13685160461715,-167.8085159538323 L112.03867883923762,-167.6780870173504 L111.93607362700334,-167.5536381218249 L111.8295919944494,-167.43584366660315 L111.71981097476845,-167.32534199004405 L111.60732548081785,-167.22273191030706 L111.49274508123538,-167.12856948030463 L111.43486297789005,-167.08481746029307 L111.3766906971339,-167.0433649744035 L111.31830707583487,-167.00426820032249 L111.25979123727612,-166.9675801232034 L111.20122248392572,-166.93335046385914 L111.14268018996349,-166.9016256113792 L111.08424369371066,-166.8724485602615 L111.02599219010818,-166.845858852145 L110.96800462338925,-166.82189252222176 L110.91035958009161,-166.8005820504008 L110.85313518255477,-166.78195631729042 L110.79640898304612,-166.7660405650582 L110.74025785865972,-166.75285636322218 L110.6847579071301,-166.74242157941904 L110.62998434370228,-166.73475035518945 L110.5760113991977,-166.72985308681288 L110.52291221941438,-166.72773641121847 L110.47075876599745,-166.72840319699014 L110.41962171891454,-166.73185254047934 L110.36957038066805,-166.7380797670294 L110.32067258237433,-166.74707643731097 L110.27299459183682,-166.75883035875918 L110.22660102373789,-166.77332560209737 L110.18155475207101,-166.79054252292502 L110.13791682493205,-166.8104577883403 L110.09574638178492,-166.8330444085617 " />
			<path d="M110.09574638178492,-166.8330444085617 L110.04190035993575,-166.86726192035 L109.99089428140795,-166.90609124402357 L109.94285102431226,-166.9494388363407 L109.89788632906314,-166.9972002691547 L109.85610851954989,-167.04926048099045 L109.81761824217492,-167.10549405423777 L109.78250822338778,-167.16576551729318 L109.750863046299,-167.22992967092304 L109.72275894691198,-167.29783193806114 L109.69826363046379,-167.3693087361984 L109.67743610831725,-167.4441878714675 L109.66032655579751,-167.52228895347295 L109.64697619131522,-167.6034238298673 L109.63741717706776,-167.68739703962677 L109.6316725415577,-167.7740062839339 L109.6297561241152,-167.863042913533 L109.63167254155772,-167.95429243138474 L109.63741717706776,-168.04753500940808 L109.64697619131523,-168.14254601806547 L109.66032655579752,-168.2390965675151 L109.67743610831727,-168.3369540590265 L109.6982636304638,-168.43588274533133 L109.72275894691201,-168.5356442985591 L109.75086304629903,-168.63599838439006 L109.78250822338781,-168.73670324104145 L109.81761824217494,-168.83751626169288 L109.85610851954992,-168.93819457894742 L109.89788632906318,-169.03849564992046 L109.9428510243123,-169.13817784054663 L109.99089428140799,-169.23700100769764 L110.0419003599358,-169.33472707770792 L110.09574638178496,-169.43112061991502 L110.15230262717249,-169.52594941383268 L110.21143284714951,-169.61898500859033 L110.27299459183688,-169.71000327329122 L110.33683955359949,-169.7987849369635 L110.40281392433228,-169.88511611680295 L110.47075876599752,-169.96878883343567 L110.54051039352032,-170.0496015119584 L110.61190076912051,-170.1273594675502 L110.68475790713018,-170.20187537448533 L110.75890628832232,-170.2729697174171 L110.83416728275205,-170.3404712238463 L110.91035958009167,-170.40421727673146 L110.98729962642325,-170.46405430624773 L111.064802066436,-170.51983815974987 L111.14268018996356,-170.57143444904872 L111.22074638178499,-170.61871887416407 L111.29881257360641,-170.66157752277417 L111.37669069713397,-170.69990714464052 L111.45419313714673,-170.73361540034682 L111.5311331834783,-170.76262108375255 L111.60732548081792,-170.7868543176258 L111.68258647524763,-170.80625672198354 L111.75673485643979,-170.8207815547343 L111.82959199444946,-170.8303938242837 L111.90098237004963,-170.8350703738325 L111.97073399757245,-170.8347999371632 L112.03867883923768,-170.82958316578143 L112.10465320997048,-170.81943262734634 L112.16849817173308,-170.80437277539417 L112.23005991642044,-170.78443989042734 L112.28919013639745,-170.75968199251162 L112.34574638178498,-170.73015872559165 " />
			<path d="M112.34574638178498,-170.73015872559165 L112.39959240363414,-170.69594121380337 L112.45059848216195,-170.65711189012978 L112.49864173925764,-170.61376429781265 L112.54360643450676,-170.56600286499867 L112.58538424402,-170.5139426531629 L112.62387452139498,-170.45770907991562 L112.65898454018212,-170.3974376168602 L112.6906297172709,-170.3332734632303 L112.7187338166579,-170.26537119609222 L112.74322913310611,-170.19389439795495 L112.76405665525265,-170.11901526268585 L112.78116620777239,-170.04091418068043 L112.79451657225468,-169.95977930428606 L112.80407558650214,-169.87580609452658 L112.80982022201218,-169.7891968502195 L112.8117366394547,-169.70016022062038 " />
			<path d="M104.73498477610302,-161.2429206614933 L106.99772647589997,-162.54931519097764 " />
			<path d="M106.99772647589997,-162.54931519097764 L106.99772647590028,-188.96664059967415 " />
			<path d="M104.73498477610302,-161.2429206614933 L104.73498477610303,-162.87591382334875 " />
			<path d="M104.734984776103,-162.87591382334872 L104.734984776103,-161.24292066149323 " />
			<path d="M95.52103050369608,-168.19559280282462 L95.52103050369594,-194.61291821152042 " />
			<path d="M104.73498477610302,-162.87591382334875 L95.52103050369611,-168.19559280282397 " />
			<path d="M100.23637470094118,-202.49151331943824 L100.23637470094118,-200.54846168700396 " />
			<path d="M100.23637470094103,-202.49151331943852 L104.7349847761035,-205.08878705731271 " />
			<path d="M104.73498477610352,-205.0887870573127 L106.14919833847694,-202.63929731452887 " />
			<path d="M100.23637470094131,-200.54846168700396 L98.11505435738167,-199.32371681561239 " />
			<path d="M98.68790188247834,-198.1764865618658 L92.32394085179915,-194.5022519476909 " />
			<path d="M90.18105439125728,-206.35390357458797 L80.98866623583216,-201.04667579855777 " />
			<path d="M100.23637470094133,-200.54846168700402 L90.18105439125752,-206.35390357458806 " />
			<path d="M110.50629930421293,-123.86157584977053 L110.47945991598186,-123.91087098778335 L110.45483424197683,-123.9626060705403 L110.43245991990773,-124.0167020264985 L110.41237114653374,-124.07307617577285 L110.39459862539722,-124.1316423565033 L110.37916951989662,-124.1923110565441 L110.3661074117701,-124.25498955027348 L110.35543226505347,-124.31958204031493 L110.34716039556713,-124.3859898039532 L110.34130444597923,-124.45411134402141 L110.33787336648267,-124.52384254402867 L110.33687240111558,-124.5950768272909 L110.33830307974655,-124.667705319822 L110.34216321573625,-124.7416170167361 L110.34844690927949,-124.81669895190656 L110.35714455642251,-124.8928363706227 L110.36824286374156,-124.9699129049801 L110.38172486866043,-125.04781075173648 L110.39756996537601,-125.12641085236135 L110.41575393635202,-125.20559307500426 L110.43624898933294,-125.28523639810352 L110.45902379982145,-125.36521909535469 L110.48404355895465,-125.44541892175619 L110.51127002670565,-125.52571330044776 L110.54066159032934,-125.60597951005609 L110.57217332796306,-125.6860948722613 L110.60575707728486,-125.7659369392976 L110.64136150912445,-125.84538368110171 L110.71841174486121,-126.00260627540824 L110.80285316297096,-126.15680183074552 L110.89416972198882,-126.30702802162878 L110.99180336483879,-126.45236678029765 L111.04280404556926,-126.5229244936601 L111.09515742925247,-126.59192990724526 L111.1487834993387,-126.65927755365605 L111.20360029411316,-126.72486449921529 L111.25952403196567,-126.78859050128875 L111.31646923944186,-126.85035816149542 L111.37434888188031,-126.91007307457042 L111.43307449643564,-126.96764397265343 L111.49255632728452,-127.0229828647818 L111.55270346280787,-127.07600517137534 L111.61342397453956,-127.12662985350721 L111.6746250576692,-127.17477953676321 L111.73621317288445,-127.22038062950028 L111.79809418933574,-127.26336343532355 L111.86017352850533,-127.30366225960974 L111.92235630876036,-127.34121550991436 L111.98454749036937,-127.37596579010928 L112.0466520207603,-127.40785998810647 L112.10857497979825,-127.43684935703418 L112.17022172486067,-127.46288958974135 L112.23149803548858,-127.48594088651633 L112.29231025739242,-127.5059680159165 L112.35256544559262,-127.52294036861568 L112.41217150647608,-127.53683200418739 L112.4710373385514,-127.54762169075181 L112.52907297168775,-127.55529293742661 L112.58618970462469,-127.55983401953141 L112.64230024054238,-127.56123799650769 " />
			<path d="M110.50629930421351,-166.72764634847616 L110.47945991598245,-166.776941486489 L110.4548342419774,-166.8286765692459 L110.4324599199083,-166.88277252520413 L110.4123711465343,-166.93914667447848 L110.39459862539779,-166.99771285520893 L110.37916951989718,-167.05838155524972 L110.36610741177067,-167.1210600489791 L110.35543226505402,-167.18565253902054 L110.34716039556768,-167.2520603026588 L110.34130444597979,-167.32018184272704 L110.33787336648322,-167.3899130427343 L110.33687240111614,-167.4611473259965 L110.3383030797471,-167.53377581852763 L110.34216321573679,-167.6076875154417 L110.34844690928004,-167.68276945061217 L110.35714455642307,-167.7589068693283 L110.3682428637421,-167.83598340368573 L110.38172486866097,-167.9138812504421 L110.39756996537656,-167.99248135106697 L110.41575393635257,-168.07166357370988 L110.43624898933348,-168.15130689680913 L110.45902379982199,-168.2312895940603 L110.4840435589552,-168.3114894204618 L110.51127002670619,-168.3917837991534 L110.54066159032988,-168.4720500087617 L110.5721733279636,-168.55216537096692 L110.6057570772854,-168.63200743800323 L110.64136150912499,-168.71145417980733 L110.71841174486175,-168.86867677411388 L110.8028531629715,-169.02287232945113 L110.89416972198936,-169.1730985203344 L110.99180336483933,-169.3184372790033 L111.0428040455698,-169.38899499236572 L111.095157429253,-169.45800040595088 L111.14878349933925,-169.5253480523617 L111.2036002941137,-169.59093499792093 L111.2595240319662,-169.65466099999438 L111.3164692394424,-169.71642866020105 L111.37434888188085,-169.77614357327607 L111.43307449643618,-169.83371447135906 L111.49255632728504,-169.88905336348742 L111.55270346280841,-169.94207567008098 L111.6134239745401,-169.99270035221286 L111.67462505766974,-170.04085003546885 L111.73621317288499,-170.08645112820594 L111.79809418933628,-170.1294339340292 L111.86017352850587,-170.16973275831538 L111.9223563087609,-170.20728600862 L111.9845474903699,-170.24203628881492 L112.04665202076085,-170.2739304868121 L112.10857497979879,-170.30291985573982 L112.17022172486121,-170.328960088447 L112.23149803548912,-170.35201138522197 L112.29231025739297,-170.37203851462215 L112.35256544559317,-170.38901086732133 L112.41217150647662,-170.40290250289303 L112.47103733855194,-170.41369218945746 L112.52907297168831,-170.42136343613228 L112.58618970462523,-170.42590451823705 L112.64230024054294,-170.42730849521334 " />
			<path d="M115.34158649390129,-173.6021138690019 L116.04869327508784,-173.193865578538 " />
			<path d="M114.38027483021808,-174.00891047698238 L114.24078762352795,-174.10213269919416 L114.1032525989517,-174.19854471247191 L113.96769263135947,-174.29813048153812 L113.83413026712932,-174.40087344325516 L113.70258772039725,-174.50675650938012 L113.57308686936256,-174.6157620694069 L113.44564925264903,-174.7278719934952 L113.32029606572267,-174.84306763548582 L113.19704815736645,-174.96132983600205 L113.07592602621267,-175.08263892563608 L112.95694981733372,-175.20697472822053 L112.8401393188915,-175.33431656418418 L112.7255139588462,-175.46464325399126 L112.61309280172512,-175.59793312166425 L112.5028945454518,-175.73416399838885 L112.39493751823616,-175.8733132262012 L112.28923967552623,-176.0153576617563 L112.18581859702167,-176.16027368017728 L112.08469148374999,-176.3080371789847 L111.98587515520572,-176.4586235821052 L111.88938604655281,-176.61200784395908 L111.79524020589135,-176.76816445362584 L111.70345329158822,-176.92706743908724 L111.61404056967301,-177.08869037154687 L111.52701691129877,-177.25300636982587 L111.44239679026877,-177.41998810483378 L111.36019428062917,-177.58960780411397 L111.28042305432817,-177.76183725646266 L111.20309637894215,-177.9366478166212 L111.12822711546902,-178.11401041004012 L111.0558277161891,-178.29389553771506 L110.9859102225941,-178.47627328109286 L110.91848626338437,-178.6611133070477 L110.85356705253481,-178.84838487292623 L110.79116338742975,-179.03805683166047 L110.73128564706712,-179.23009763694833 L110.67394379033226,-179.4244753485004 L110.61914735434148,-179.62115763735233 L110.56690545285589,-179.8201117912416 L110.5172267747656,-180.02130472004845 L110.47011958264456,-180.2247029612993 L110.42559171137633,-180.4302726857323 L110.38365056685097,-180.6379797029238 L110.34430312473337,-180.8477894669749 L110.30755592930291,-181.05966708225722 L110.27341509236513,-181.27357730921665 L110.24188629223517,-181.4894845702344 L110.21297477279334,-181.70735295554442 L110.18668534261303,-181.92714622920573 L110.1630223741608,-182.14882783512937 L110.14198980306932,-182.37236090315827 L110.12359112748265,-182.59770825519965 L110.10782940747453,-182.82483241140838 L110.09470726453938,-183.05369559642065 L110.08422688115627,-183.28425974563692 L110.07639000042602,-183.51648651155259 L110.07119792578115,-183.7503372701362 L110.06865152076925,-183.9857731272533 L110.0687512089092,-184.2227549251353 L110.07149697362087,-184.4612432488922 L110.07688835822773,-184.70119843306824 L110.08492446603299,-184.94258056823887 L110.09560396046852,-185.1853495076486 L110.10892506531737,-185.42946487388818 L110.124885565009,-185.67488606561028 L110.1434828049879,-185.9215722642822 L110.16471369215506,-186.1694824409749 L110.1885746953824,-186.41857536318685 L110.21506184610007,-186.66880960170198 L110.24417073895651,-186.9201435374801 L110.27589653255117,-187.172535368579 L110.31023395023972,-187.42594311710693 L110.34717728101164,-187.68032463620452 L110.38672038044008,-187.93563761705448 L110.42885667170387,-188.1918395959185 L110.47357914668127,-188.44888796119994 L110.52088036711567,-188.7067399605307 L110.57075246585265,-188.96535270788223 L110.62318714814846,-189.2246831906979 L110.67817569304964,-189.48468827704727 L110.73570895484346,-189.74532472279947 L110.79577736457905,-190.00654917881582 L110.8583709316589,-190.2683181981596 L110.9234792455005,-190.53058824332203 L110.99109147726786,-190.79331569346363 L111.06119638167252,-191.0564568516692 L111.1337822988439,-191.31996795221542 L111.20883715626857,-191.58380516785007 L111.28634847079817,-191.84792461708136 L111.36630335072556,-192.11228237147628 L111.44868849792904,-192.3768344629669 L111.53349021008403,-192.641536891163 L111.62069438294208,-192.9063456306704 L111.71028651267672,-193.17121663841309 L111.8022516982957,-193.43610586095863 L111.89657464411934,-193.70096924184512 L111.99323966232451,-193.9657627289086 L112.09223067555384,-194.23044228160995 L112.1935312195897,-194.49496387835953 L112.29712444609257,-194.7592835238391 L112.4029931254032,-195.02335725631895 L112.5111196494083,-195.28714115496973 L112.62148603446911,-195.55059134716737 L112.73407392441248,-195.81366401578993 L112.84886459358381,-196.07631540650527 L112.96583894996152,-196.33850183504845 L113.08497753833252,-196.6001796944871 L113.20626054352789,-196.86130546247423 L113.32966779371866,-197.12183570848694 L113.45517876377068,-197.38172710104968 L113.58277257865848,-197.64093641494122 L113.71242801693711,-197.8994205383839 L113.8441235142718,-198.15713648021398 L113.97783716702443,-198.41404137703194 L114.11354673589665,-198.67009250033146 L114.2512296496287,-198.9252472636062 L114.39086300875343,-199.17946322943266 L114.53242358940497,-199.43269811652843 L114.67588784718139,-199.6849098067845 L114.82123192106049,-199.93605635227024 L114.9684316373685,-200.18609598221025 L115.11746251380056,-200.43498710993165 L115.26829976349268,-200.68268833978092 L115.42091829914426,-200.92915847400866 L115.57529273719067,-201.17435651962174 L115.73139740202497,-201.41824169520117 L115.8892063302684,-201.66077343768498 L116.04869327508847,-201.9019114091146 " />
			<path d="M115.34158649390164,-202.3101596995788 L116.0486932750882,-201.90191140911492 " />
			<path d="M116.04869327508771,-158.51231349743074 L116.0486932750879,-173.19386557853804 " />
			<path d="M115.34158649390115,-158.92056178789457 L116.0486932750877,-158.51231349743068 " />
			<path d="M115.34158649390079,-130.75091496288107 L116.04869327508735,-130.34266667241718 " />
			<path d="M114.53320875532052,-131.10213361457488 L114.39608774005333,-131.19386365651258 L114.26087304937897,-131.28870769310637 L114.127586853448,-131.38665017348262 L113.99625100620996,-131.4876750387388 L113.86688704183022,-131.59176572457656 L113.73951617115914,-131.69890516401776 L113.61415927825422,-131.80907579020266 L113.490836916956,-131.92225953927033 L113.36956930751795,-132.0384378533204 L113.25037633329109,-132.15759168345585 L113.1332775374639,-132.2797014929064 L113.01829211985793,-132.40474726023174 L112.90543893377979,-132.5327084826043 L112.79473648292989,-132.66356417917092 L112.68620291836851,-132.79729289449298 L112.57985603553973,-132.93387270206435 L112.47571327135365,-133.07328120790632 L112.37379170132736,-133.21549555423957 L112.2741080367852,-133.3604924232319 L112.17667862211874,-133.50824804082146 L112.08151943210693,-133.65873818061485 L111.98864606929678,-133.81193816785935 L111.89807376144518,-133.96782288348868 L111.80981735902206,-134.12636676824147 L111.72389133277558,-134.28754382685216 L111.6403097713593,-134.45132763231314 L111.5590863790223,-134.61769133020786 L111.4802344733622,-134.786607643114 L111.40376698314144,-134.95804887507572 L111.3296964461676,-135.1319869161451 L111.2580350072376,-135.30839324699082 L111.18879441614635,-135.4872389435744 L111.12198602576038,-135.66849468189264 L111.0576207901562,-135.85213074278573 L110.99570926282442,-136.03811701680993 L110.93626159493927,-136.2264230091745 L110.87928753369417,-136.41701784474168 L110.82479642070362,-136.60987027308906 L110.77279719047155,-136.80494867363348 L110.72329836892627,-137.0022210608156 L110.67630807202264,-137.20165508934434 L110.63183400441133,-137.40321805950038 L110.58988345817555,-137.60687692249755 L110.55046331163541,-137.81259828590171 L110.51358002822013,-138.0203484191058 L110.47923965540832,-138.2300932588604 L110.44744782373634,-138.44179841485885 L110.41820974587519,-138.655429175376 L110.39153021577576,-138.8709505129596 L110.36741360788284,-139.0883270901734 L110.34586387641787,-139.30752326539138 L110.32688455473057,-139.52850309864144 L110.31047875471964,-139.75123035749832 L110.29664916632251,-139.97566852302435 L110.28539805707427,-140.20178079575717 L110.27672727173591,-140.42953010174347 L110.27063823199182,-140.65887909861772 L110.26713193621673,-140.88979018172492 L110.26620895931194,-141.1222254902864 L110.26786945261117,-141.35614691360755 L110.2721131438556,-141.5915160973265 L110.27893933723865,-141.82829444970284 L110.28834691352002,-142.06644314794525 L110.30033433020911,-142.30592314457698 L110.3148996218181,-142.54669517383806 L110.33204040018407,-142.7887197581236 L110.35175385486065,-143.0319572144565 L110.37403675357879,-143.276367660994 L110.39888544277679,-143.5219110235669 L110.42629584819923,-143.7685470422501 L110.45626347556515,-144.0162352779638 L110.4887834113048,-144.26493511910394 L110.52385032336538,-144.51460578820107 L110.56145846208524,-144.76520634860623 L110.60160166113666,-145.0166957112031 L110.64427333853683,-145.2690326411451 L110.68946649772712,-145.52217576461615 L110.73717372872022,-145.7760835756148 L110.78738720931507,-146.0307144427593 L110.84009870637946,-146.28602661611382 L110.89529957719996,-146.5419782340338 L110.95298077089896,-146.79852733002966 L111.01313282991865,-147.0556318396478 L111.07574589157181,-147.31324960736754 L111.14080968965884,-147.57133839351306 L111.20831355615104,-147.8298558811792 L111.27824642293979,-148.08875968316977 L111.3505968236513,-148.34800734894742 L111.42535289552666,-148.6075563715941 L111.5025023813669,-148.8673641947804 L111.58203263154267,-149.1273882197434 L111.66393060606838,-149.38758581227117 L111.7481828767402,-149.6479143096931 L111.83477562933783,-149.9083310278752 L111.92369466588949,-150.16879326821845 L112.01492540699986,-150.42925832466 L112.10845289424057,-150.68968349067526 L112.20426179260281,-150.9500260662801 L112.30233639301167,-151.21024336503217 L112.40266061490192,-151.47029272102986 L112.50521800885454,-151.73013149590787 L112.60999175929382,-151.98971708582832 L112.71696468724456,-152.2490069284662 L112.82611925314868,-152.50795850998796 L112.93743755974111,-152.76652937202226 L113.05090135498426,-153.02467711862153 L113.16649203506068,-153.2823594232132 L113.28419064742334,-153.53953403553987 L113.40397789390325,-153.79615878858667 L113.52583413387349,-154.05219160549504 L113.64973938746964,-154.30759050646182 L113.77567333886572,-154.56231361562234 L113.9036153396052,-154.81631916791653 L114.03354441198658,-155.0695655159368 L114.16543925250295,-155.3220111367566 L114.29927823533498,-155.57361463873875 L114.43503941589672,-155.82433476832202 L114.57270053443372,-156.07413041678518 L114.7122390196728,-156.32296062698742 L114.85363199252282,-156.57078460008356 L114.9968562698261,-156.8175617022137 L115.14188836815956,-157.06325147116567 L115.28870450768504,-157.3078136230092 L115.43728061604843,-157.55120805870106 L115.58759233232655,-157.79339487065977 L115.73961501102147,-158.03433434930895 L115.89332372610141,-158.27398698958825 L116.04869327508769,-158.51231349743065 " />
			<path d="M116.04869327508735,-128.8362764795594 L116.04869327508736,-130.3426666724172 " />
			<path d="M113.22026615034112,-123.93729699399306 L113.35905049135701,-124.0213581941981 L113.4975004887393,-124.11308493072939 L113.63528260431755,-124.21225622584431 L113.77206490890701,-124.31863316720656 L113.90751788195523,-124.43195948344686 L114.04131520538584,-124.55196216154319 L114.17313454972745,-124.67835210453302 L114.30265835063352,-124.81082482797324 L114.42957457392274,-124.94906119346982 L114.55357746729662,-125.09272817751022 L114.67436829692369,-125.24147967374616 L114.79165606711534,-125.39495732679408 L114.90515822135997,-125.55279139554476 L115.01460132302641,-125.71460164390194 L115.11972171409664,-125.87999825680443 L115.22026615034113,-126.0485827793247 L115.31599241140633,-126.21994907658176 L115.40666988434465,-126.39368431215557 L115.49208011918142,-126.56936994264625 L115.57201735517987,-126.74658272598171 L115.64628901653676,-126.92489574104486 L115.7147161763145,-127.10387941616406 L115.77713398749162,-127.28310256398883 L115.8333920800939,-127.46213342025796 L115.88335492344861,-127.64054068395743 L115.92690215268986,-127.81789455636239 L115.96392885872814,-127.99376777645982 L115.99434584098546,-128.16773665025786 L116.01807982228732,-128.33938207150163 L116.03507362539392,-128.50829053133702 L116.04528631074513,-128.67405511448962 L116.04869327508736,-128.83627647955936 " />
			<path d="M116.04869327508824,-206.55848090298255 L116.04528631074601,-206.7167682444921 L116.03507362539483,-206.8707402343714 L116.01807982228823,-207.02002594061045 L115.99434584098637,-207.1642657208671 L115.96392885872906,-207.30311208887673 L115.92690215269079,-207.43623055157735 L115.90593741204232,-207.50054104116518 L115.88335492344953,-207.5633004149325 L115.85916828975913,-207.6244708689793 L115.83339208009484,-207.68401555651138 L115.80604182108154,-207.74189861003543 L115.77713398749256,-207.79808516296447 L115.74668599232595,-207.85254137061992 L115.71471617631543,-207.90523443061852 L115.68124379688277,-207.9561326026313 L115.64628901653771,-208.00520522750264 L115.60987289073289,-208.05242274571822 L115.57201735518082,-208.09775671521066 L115.53274521264058,-208.1411798284919 L115.49208011918239,-208.18266592910217 L115.45004656993795,-208.22219002736574 L115.40666988434562,-208.25972831544374 L115.36197619089882,-208.29525818167505 L115.3159924114073,-208.3287582241968 L115.26874624478035,-208.36020826383603 L115.22026615034213,-208.38958935626485 " />
			<path d="M116.04869327508825,-201.90191140911497 L116.04869327508831,-206.55848090298184 " />
			<path d="M113.22026615034082,-123.93729699399324 L92.32394085179817,-111.87279795780566 " />
			<path d="M91.0224204285339,-207.81119229891368 L90.18105439125742,-206.35390357458792 " />
			<path d="M100.23637470094106,-202.4915133194377 L91.02242042853365,-207.8111922989132 " />
			<path d="M95.52103050369608,-210.40846603678804 L91.02242042853361,-207.81119229891382 " />
			<path d="M104.73498477610352,-205.0887870573119 L95.52103050369611,-210.4084660367874 " />
			<path d="M95.52103050369608,-211.06166330153025 L95.52103050369608,-210.40846603678804 " />
			<path d="M106.14919833847661,-204.92548774112635 L95.52103050369611,-211.0616633015296 " />
			<path d="M80.98866623583237,-202.67139887951743 L95.52103050369608,-211.06166330153025 " />
			<path d="M96.36955864112042,-127.29738417924182 L80.98866623583216,-118.41722180867197 " />
			<path d="M106.99772647590017,-121.16120861883921 L96.36955864112066,-127.29738417924189 " />
			<path d="M96.36955864112065,-152.23674566137223 L96.36955864112066,-127.29738417924187 " />
			<path d="M106.99772647590045,-146.10057010096943 L96.36955864112066,-152.23674566137225 " />
			<path d="M95.52103050369679,-151.7468477128156 L96.36955864112063,-152.23674566137223 " />
			<path d="M95.52103050369682,-127.78728212779853 L95.52103050369679,-151.74684771281562 " />
			<path d="M80.98866623583237,-119.39701770578527 L95.52103050369678,-127.7872821277985 " />
			<path d="M96.36955864112063,-168.68549075138162 L95.52103050369678,-168.195592802825 " />
			<path d="M106.99772647589997,-162.54931519097764 L96.36955864111997,-168.6854907513806 " />
			<path d="M96.36955864112063,-195.1028161600775 L96.36955864112063,-168.68549075138165 " />
			<path d="M106.99772647590025,-188.96664059967418 L96.36955864111997,-195.1028161600773 " />
			<path d="M95.52103050369608,-194.61291821152048 L96.36955864112063,-195.1028161600775 " />
			<path d="M115.34158649390079,-129.24452477002325 L116.04869327508735,-128.83627647955936 " />
			<path d="M112.51315936915455,-124.34554528445693 L113.2202661503411,-123.93729699399306 " />
			<path d="M115.34158649390172,-206.96672919344567 L116.04869327508827,-206.55848090298178 " />
			<path d="M114.51315936915556,-208.7978376467287 L115.2202661503421,-208.38958935626482 " />

       </g>
    </g>
    
</svg>
