<?xml version="1.0" encoding="UTF-8" standalone="no"?>
<svg
   xmlns:svg="http://www.w3.org/2000/svg"
   xmlns="http://www.w3.org/2000/svg"
   width="300.0"
   height="240.0"

>
    <g transform="scale(1.9127525249231683, -1.9127525249231683)   translate(-95.01457078151061,95.81088149359823)" stroke-width="1.30702"  fill="none">
       <!-- hidden lines -->
       <g  stroke="rgb(160,160,160)" fill="none" stroke-dasharray="1.30702,1.30702" >
			<path d="M110.95293911029401,-193.53519335037146 L111.04355890215766,-193.4411950318159 L111.13127966568162,-193.34384679032323 L111.2157067528767,-193.2436618615308 L111.29644551575369,-193.14115348107603 L111.37310130632343,-193.03683488459635 L111.44527947659671,-192.93121930772915 L111.512602334541,-192.8247838668636 L111.57687028176557,-192.71349115818398 L111.6389660547909,-192.59567559553142 L111.69812862142989,-192.47325916373237 L111.75359694949539,-192.34816384761328 L111.80461000680032,-192.22231163200058 L111.85040676115752,-192.09762450172067 L111.89022618037988,-191.97602444160006 L111.92470604845056,-191.85518255501816 L111.95646616279838,-191.72813210759173 L111.98503425128631,-191.59857456691654 L112.00980032252129,-191.47065562552936 L112.03015438511024,-191.34852097596712 L112.04641505685186,-191.23182345416635 L112.06015477662098,-191.11440458604818 L112.071610018488,-190.99676942796657 L112.08847230727704,-190.76355983408402 L112.09861240074163,-190.5376138568606 L112.10385341440401,-190.32398595610056 L112.1069116359226,-189.9457221738873 " />
			<path d="M112.10753751643992,-189.9751699751196 L112.1069116359226,-189.9457221738873 " />
			<path d="M112.1075375164402,-189.9751699751195 L112.1075375164402,-192.37894092434416 " />
			<path d="M110.10753751644003,-194.1868387274656 L110.17059018354969,-194.14962352751326 L110.23358016642193,-194.1108218740578 L110.29644484313732,-194.07047234202665 L110.35912171635037,-194.02861504518128 L110.42154847542173,-193.98529159623772 L110.48366305836471,-193.940545065497 L110.54540371354467,-193.89441993802677 L110.60670906106976,-193.84696206943593 L110.66751815381222,-193.79821864028693 L110.72777053799935,-193.748238109191 L110.787406313314,-193.69707016463278 L110.84636619244498,-193.64476567557196 L110.90459156002785,-193.59137664087177 L110.96202453091783,-193.5369561376038 " />
			<path d="M110.96202453091784,-193.53695613760385 L110.96137628326608,-193.5368318688861 L110.96072792590182,-193.53670734708004 L110.96007945890835,-193.53658257220155 L110.95943088236902,-193.53645754426677 L110.95878219636717,-193.53633226329168 L110.9581334009861,-193.53620672929242 L110.95748449630925,-193.53608094228517 L110.95683548241992,-193.53595490228605 L110.95618635940157,-193.53582860931118 L110.95553712733759,-193.53570206337696 L110.95488778631139,-193.5355752644995 L110.9542383364064,-193.53544821269512 L110.95358877770607,-193.53532090798018 L110.95293911029391,-193.53519335037103 " />
			<path d="M112.2881748022049,-189.69724656672284 L112.34797678579899,-189.733233920378 L112.4076717873105,-189.77207821952166 " />
			<path d="M110.95293911029411,-193.53519335037151 L110.94408141512403,-193.45652442124296 L110.93233676161489,-193.37672977717924 L110.91772943891557,-193.2959744416939 L110.90028965646862,-193.21442542510908 L110.88005348153406,-193.13225137916083 L110.85706276459861,-193.04962224821006 L110.83136505282452,-192.96670891778024 L110.80301349171724,-192.88368286114846 L110.77206671521496,-192.8007157847212 L110.73858872442774,-192.7179792729278 L110.70264875527651,-192.6356444333663 L110.66432113530617,-192.55388154293536 L110.62368512996855,-192.47285969568404 L110.58082477869338,-192.39274645310817 L110.53582872108605,-192.31370749761578 L110.48879001361183,-192.23590628987895 L110.43980593714562,-192.15950373078041 L110.388977795785,-192.08465782865395 L110.33641070734302,-192.01152337250693 L110.28221338595381,-191.94025161190078 L110.22649791724052,-191.87098994415143 L110.16937952651081,-191.80388160949644 L110.11097634045902,-191.7390653948595 L110.05140914286811,-191.67667534682488 L109.99080112481637,-191.61684049441533 L109.92927762990561,-191.55968458224672 L109.86696589503775,-191.5053258146116 L109.80399478727585,-191.4538766110206 L109.74049453733379,-191.4054433737072 L109.67659647024577,-191.36012626757702 L109.6124327337727,-191.31801901305673 L109.54813602510706,-191.27920869227034 " />
			<path d="M112.40767178731048,-189.77207821952197 L112.10691163592259,-189.94572217388728 " />
			<path d="M110.9620245309178,-191.1841156541781 L110.9620245309178,-193.5369561376037 " />
			<path d="M111.10344588715557,-190.51743383491595 L111.10120240132628,-190.61257545639333 L111.09447841480221,-190.70485210330273 L111.08329332181054,-190.79399761891642 L111.06767938390225,-190.87975487773716 L111.04768163689907,-190.96187652713397 L111.02335776099511,-191.04012570079016 L110.99477791438781,-191.11427670190477 L110.96202453091831,-191.18411565417787 " />
			<path d="M111.10344588715512,-112.13376206585453 L111.10344588715508,-190.51743383491618 " />
			<path d="M110.96202453091735,-111.30378093040719 L110.99477791438686,-111.41144023220629 L111.02335776099417,-111.51859239758518 L111.04768163689815,-111.62492836384315 L111.06767938390134,-111.73014142247095 L111.08329332180963,-111.83392810380062 L111.0944784148013,-111.93598905231364 L111.10120240132537,-112.03602989008245 L111.10344588715468,-112.13376206585478 " />
			<path d="M110.9620245309178,-108.96941062911029 L110.9620245309178,-111.30378093040693 " />
			<path d="M109.54781096854471,-109.62936292800394 L109.61720313905265,-109.66745950454624 L109.6864281377438,-109.70153027953857 L109.75531919553292,-109.73149317349973 L109.82371034782766,-109.75727600319371 L109.89143683435175,-109.77881665552547 L109.95833549606706,-109.79606323717682 L110.02424516823787,-109.80897419962194 L110.0890070686909,-109.81751843922142 L110.15246518033551,-109.82167537215368 L110.21446662702245,-109.82143498400318 L110.27486204183599,-109.81679785388604 L110.3335059269318,-109.80777515305488 L110.39025700405412,-109.79438861798627 L110.44497855488734,-109.77667049801575 L110.49753875042246,-109.75466347764623 L110.5478109685447,-109.72842057371737 " />
			<path d="M110.54781096854471,-109.72842057371737 L110.5897587513997,-109.70207918057174 L110.62979099222754,-109.67260196994734 L110.66783409478761,-109.64004313346177 L110.7038181197192,-109.60446252806818 L110.73767691311981,-109.56592556601287 L110.76934822816402,-109.52450309457976 L110.79877383953954,-109.48027126584309 L110.82589965049009,-109.43331139666753 L110.85067579226818,-109.3837098192134 L110.87305671581498,-109.33155772222139 L110.89300127549886,-109.27695098336913 L110.91047280475847,-109.21998999300722 L110.9254391835115,-109.16077946959922 L110.93787289720493,-109.09942826720473 L110.94775108739852,-109.0360491753594 L110.95505559378827,-108.97075871171994 " />
			<path d="M107.90743723037588,-115.69945034282391 L107.80263304511112,-115.63091269737004 L107.69810800423184,-115.55863306491528 L107.59397110092728,-115.48268681484092 L107.49033092365737,-115.40315313988333 L107.38729554292235,-115.32011497355602 L107.28497239857263,-115.23365890367089 L107.18346818777611,-115.14387508204906 L107.0828887537601,-115.05085713051533 L106.98333897544352,-114.95470204327425 L106.88492265807473,-114.85551008576975 L106.78774242498895,-114.75338469013354 L106.69189961059797,-114.64843234733165 L106.59749415472409,-114.5407624961212 L106.50462449838805,-114.43048740893352 L106.41338748116007,-114.3177220748023 L106.32387824018048,-114.20258407945919 L106.2361901109559,-114.08519348272154 L106.15041453003384,-113.96567269330043 L106.06664093965749,-113.84414634115932 L105.98495669450007,-113.72074114755644 L105.90544697057607,-113.59558579290666 L105.82819467642408,-113.4688107826003 L105.75328036665427,-113.34054831091899 L105.68078215795018,-113.2109321231905 L105.61077564761288,-113.08009737632617 L105.54333383473202,-112.94818049788638 L105.47852704406633,-112.81531904382118 L105.4164228527125,-112.68165155503412 L105.35708601963958,-112.5473174129192 L105.30057841816158,-112.41245669402129 L105.24695897141932,-112.27721002397165 L105.19628359093849,-112.14171843085107 " />
			<path d="M109.25082612044635,-118.1060003281379 L109.24922955247217,-118.02750512474073 L109.24444345342143,-117.9473435968285 L109.23647862977012,-117.86569674015972 L109.22535306519866,-117.78274890419904 L109.21109187998671,-117.69868737587672 L109.19372727429439,-117.61370195671574 L109.17329845545794,-117.52798453428122 L109.14985154946395,-117.44172864891968 L109.12343949680204,-117.35512905676676 L109.09412193293115,-117.26838129000947 L109.06196505362932,-117.18168121539658 L109.02704146553113,-117.09522459199327 L108.98943002218991,-117.00920662917918 L108.94921564603534,-116.92382154588739 L108.9064891366281,-116.8392621320799 L108.86134696564456,-116.75571931344939 L108.8138910590546,-116.6733817203304 L108.76422856698414,-116.59243526179317 L108.7124716217822,-116.51306270588174 L108.65873708483848,-116.43544326694416 L108.60314628272359,-116.35975220098658 L108.5458247332471,-116.28616040996474 L108.48690186205242,-116.21483405590656 L108.42651071038823,-116.14593418573683 L108.36478763471612,-116.07961636765128 L108.3018719988331,-116.01603033986102 L108.23790585920355,-115.95531967250038 L108.17303364421188,-115.89762144346166 L108.10740182805917,-115.8430659288886 L108.04115860004093,-115.79177630902738 L107.97445352995224,-115.74386839009944 L107.9074372303759,-115.69945034282394 " />
			<path d="M109.25082612044635,-182.4594550566531 L109.25082612044635,-118.10600032813788 " />
			<path d="M107.90743723037589,-183.31479316735 L107.97224970728756,-183.34673370814068 L108.0367757747334,-183.37507658150002 L108.10087918039156,-183.39976193902172 L108.16442456442678,-183.4207376554576 L108.22727774531431,-183.4379594387846 L108.28930600317562,-183.45139092373117 L108.3503783600279,-183.46100374856567 L108.41036585635526,-183.46677761498455 L108.46914182341771,-183.46870033097403 L108.52658215072323,-183.46676783655445 L108.58256554809758,-183.46098421235342 L108.63697380179896,-183.45136167098917 L108.6896920241364,-183.43792053128254 L108.74060889606505,-183.42068917535198 L108.78961690224583,-183.3997039886825 L108.83661255807326,-183.37500928329425 " />
			<path d="M108.83661255807327,-183.37500928329425 L108.88447568860586,-183.3445937172602 L108.92981442507502,-183.3100787628837 L108.9725195424934,-183.2715475697129 L109.01248816049262,-183.22909296276714 L109.04962399117107,-183.18281721891313 L109.08383757105993,-183.1328318204711 L109.1150464766485,-183.07925718664404 L109.14317552294963,-183.0222223834175 L109.16815694462699,-182.96186481262808 L109.18993055924761,-182.8983298809505 L109.20844391226674,-182.8317706496002 L109.2236524033954,-182.76234746559538 L109.23551939404634,-182.69022757546705 L109.24401629559964,-182.6155847223475 L109.24912263827524,-182.53859872740787 L109.25082612044635,-182.4594550566531 " />
			<path d="M106.46409613625157,-189.4986374322481 L106.38346603605186,-189.39742852501877 L106.30422971634937,-189.29437094540302 L106.22645264642857,-189.18954984508406 L106.15019908986373,-189.0830518328603 L106.07553205142094,-188.97496490308436 L106.00251322500013,-188.86537836295753 L105.93120294266036,-188.75438275873935 L105.86166012477018,-188.64206980093354 L105.79394223132451,-188.52853228851166 L105.72810521446812,-188.41386403223788 L105.66420347226493,-188.2981597771574 L105.60228980375149,-188.181515124313 L105.54241536531151,-188.06402645175436 L105.48462962840783,-187.94579083490544 L105.42898033870632,-187.82690596635553 L105.375513476626,-187.7074700751403 L105.32427321934739,-187.58758184557985 L105.27530190431114,-187.4673403357405 L105.22863999423646,-187.34684489558745 L105.18432604368866,-187.22619508489691 L105.14239666722338,-187.10549059099412 L105.1028865091336,-186.9848311463866 L105.06582821482473,-186.86431644635965 L105.03125240384122,-186.744046066603 L104.99918764456702,-186.62411938093578 L104.96966043062088,-186.5046354791987 L104.94269515896595,-186.38569308538078 L104.9183141097516,-186.26739047604818 L104.89653742790449,-186.1498253991429 L104.87738310648365,-186.03309499321827 L104.8608669718137,-185.91729570717777 L104.84700267040832,-185.80252322058382 L104.83580165769469,-185.6888723646023 L104.8272731885485,-185.57643704364787 L104.82142430964703,-185.46531015779513 L104.81825985364677,-185.35558352601961 L104.8177824351905,-185.24734781033212 L104.81999244874687,-185.1406924408688 L104.82488806828451,-185.0357055419993 L104.83246524878075,-184.93247385951355 L104.8427177295639,-184.83108268894796 L104.85563703948607,-184.73161580510944 L104.87121250392255,-184.63415539285643 L104.88943125359174,-184.53878197919317 L104.91027823518841,-184.4455743667341 L104.9337362238216,-184.35460956859288 L104.95978583724667,-184.26596274475003 L104.98840555188002,-184.17970713995177 L105.01957172058299,-184.09591402319128 L105.05325859220041,-184.01465262882243 L105.08943833283755,-183.9359900993547 L105.12808104885798,-183.85999142997636 L105.16915481158333,-183.78671941485203 L105.21262568367445,-183.71623459523886 L105.25845774717219,-183.64859520946393 L105.30661313317486,-183.58385714480474 L105.35705205312745,-183.5220738913122 L105.4097328316971,-183.46329649761418 L105.46461194120744,-183.40757352873644 L105.52164403760358,-183.35495102597562 L105.58078199791768,-183.3054724688575 L105.64197695920457,-183.25917873921176 L105.70517835891485,-183.21610808739348 L105.77033397667239,-183.1762961006783 " />
			<path d="M105.7703339766724,-183.1762961006783 L105.82378593025274,-183.14683777922946 L105.87842398507549,-183.11949827828536 L105.93421929409915,-183.09429203217613 L105.99114239929125,-183.0712323489455 L106.0491632471811,-183.05033140332486 L106.10825120472713,-183.03160023030526 L106.16837507548998,-183.0150487193113 L106.22950311610322,-183.00068560897995 L106.29160305303282,-182.98851848254677 L106.35464209961634,-182.9785537638422 L106.41858697337335,-182.97079671390006 L106.48340391357732,-182.96525142817987 L106.5490586990802,-182.96192083440457 L106.61551666637999,-182.96080669101482 L106.68274272792196,-182.96190958624058 L106.75070139062362,-182.96522893779056 L106.8193567746139,-182.97076299315958 L106.88867263217648,-182.97850883055398 L106.9586123668874,-182.98846236043406 L107.0291390529367,-183.00061832767332 L107.100215454624,-183.01497031433297 L107.1718040460177,-183.03151074305043 L107.31636636205897,-183.0711208447025 L107.46252074533996,-183.11936499250498 L107.6099585783537,-183.17614131480482 L107.75836853347909,-183.24132992353128 L107.90743723037586,-183.31479316734985 " />
			<path d="M109.54813602510703,-191.27920869227034 L106.46409613625158,-189.4986374322481 " />
			<path d="M105.8894574904733,-111.74151429335942 L105.94532835304851,-111.92861926215603 L106.00943579205773,-112.11616496705548 L106.08153132541908,-112.30342447608355 L106.16133550899157,-112.4896719665685 L106.24853901970778,-112.67418553844854 L106.34280385451808,-112.85625001237499 L106.44376464049905,-113.03515970176574 L106.55103005104839,-113.21022114806472 L106.66418432267686,-113.380755808605 L106.78278886651829,-113.54610268665763 L106.90638396831125,-113.705620893472 L107.03449057026339,-113.85869213237704 L107.16661212789174,-114.0047230953151 L107.3022365346419,-114.14314776251915 L107.44083810682625,-114.27342959642004 L107.51108784178558,-114.33535785868948 L107.58187962118733,-114.39506362127983 L107.65314483071626,-114.45248901490103 L107.7248143971891,-114.50757838049078 L107.79681885550316,-114.5602783231616 L107.86908841596474,-114.6105377639533 L107.94155303193219,-114.65830798934093 L108.014142467708,-114.70354269844984 L108.08678636661415,-114.74619804793244 L108.15941431918475,-114.786232694463 L108.2319559314097,-114.82360783480925 L108.30434089296355,-114.85828724344216 L108.37649904535316,-114.89023730764713 L108.44836044991816,-114.91942706010288 L108.51985545561847,-114.94582820889622 L108.59091476654288,-114.96941516494377 L108.66146950907357,-114.99016506679394 L108.73145129864122,-115.0080578027852 L108.80079230600617,-115.02307603053913 L108.86942532300135,-115.03520519376934 L108.93728382767317,-115.04443353639012 L109.00430204875735,-115.05075211391076 L109.0704150294272,-115.0541548021051 L109.13555869025235,-115.05463830294725 L109.19966989130728,-115.05220214780823 L109.2626864933691,-115.04684869791018 L109.32454741814544,-115.03858314203775 L109.38519270747409,-115.02741349150895 L109.44456358143688,-115.0133505724102 L109.50260249533164,-114.99640801510328 L109.5592531954469,-114.97660224101422 L109.61446077358526,-114.95395244671693 L109.66817172028276,-114.92848058532714 L109.72033397667239,-114.90021134522453 " />
			<path d="M109.7203339766724,-114.90021134522453 L109.77089698494176,-114.86917212612369 L109.81981173733574,-114.83539301251724 L109.86703082365688,-114.79890674451664 L109.91250847721724,-114.7597486861192 L109.95620061919749,-114.71795679093174 L109.99806490136977,-114.67357156538445 L110.03806074714343,-114.62663602947038 L110.07614939089352,-114.57719567504869 L110.11229391553402,-114.525298421752 L110.14645928829945,-114.47099457054081 L110.17861239469997,-114.41433675494963 L110.20872207061744,-114.35537989007247 L110.23675913251087,-114.2941811193368 L110.26269640570237,-114.23079975911779 L110.28650875071594,-114.16529724124648 L110.3081730876437,-114.09773705346747 L110.32766841851587,-114.02818467790397 L110.34497584765293,-113.95670752758983 L110.36007859998001,-113.8833748811301 L110.37296203728604,-113.80825781555325 L110.3836136724117,-113.73142913742045 L110.39202318135246,-113.65296331225841 L110.39818241326506,-113.57293639238436 L110.40208539836766,-113.49142594319295 L110.40372835372597,-113.40851096797668 L110.4031096869198,-113.3242718313527 L110.4002299975866,-113.23879018137002 L110.39509207684013,-113.15214887037291 L110.3877009045653,-113.06443187469701 L110.37806364459144,-112.97572421327588 L110.36618963774876,-112.8861118652373 L110.35209039281494,-112.79568168656863 L110.33577957536025,-112.70452132593243 L110.31727299450236,-112.61271913971382 L110.27374640278472,-112.42754574024727 L110.2216793278507,-112.24087922502639 L110.16127358302141,-112.05344311826364 L110.09276330251696,-111.86596392712806 L110.01641403394606,-111.67916832578486 L109.93252170903673,-111.49378033878762 L109.84141149659735,-111.31051853474048 L109.74343654215384,-111.1300932411079 L109.63897659914875,-110.95320379096697 L109.52843655700696,-110.78053581237448 L109.41224487177394,-110.61275857085502 L109.29085190540911,-110.4505223753105 L109.1647281801713,-110.29445605740615 L109.03436255486231,-110.14516453420288 L108.90026032999776,-110.00322646348312 " />
			<path d="M105.7368815987568,-185.81279359955596 L105.73846278205042,-185.91288130271687 L105.74320418906296,-186.01465915713788 L105.7510993940935,-186.1179892303335 L105.76213769731682,-186.2227314862036 L105.77630413928415,-186.32874397481447 L105.79357952119668,-186.43588302477397 L105.81394043092435,-186.54400343793915 L105.83735927473472,-186.65295868619347 L105.8638043146888,-186.76260111002617 L105.89323971165334,-186.8727821186449 L105.92562557387106,-186.98335239135062 L105.96091801102325,-187.09416207990165 L105.99906919371125,-187.20506101159256 L106.04002741827634,-187.31589889277282 L106.08373717687012,-187.42652551252948 L106.13013923268046,-187.53679094625755 L106.17917070021106,-187.6465457588425 L106.23076513050583,-187.75564120717934 L106.28485260120249,-187.86392944175378 L106.34135981129363,-187.97126370701253 L106.40021018046637,-188.07749854025087 L106.46132395288647,-188.18248996874837 L106.5246183052858,-188.28609570488487 L106.59000745920706,-188.38817533897335 L106.65740279725333,-188.48859052954722 L106.72671298318515,-188.5872051908451 L106.79784408570218,-188.68388567723838 L106.87069970574179,-188.77850096435188 L106.94518110712205,-188.87092282663212 L107.02118735035206,-188.96102601112267 L107.09861542942822,-189.04868840721053 L107.17736041143118,-189.13379121211455 L107.25731557873414,-189.21621909189034 L107.3383725736299,-189.29586033773452 L107.42042154518053,-189.37260701737597 L107.50335129809076,-189.4463551213488 L107.5870494434033,-189.51700470394937 L107.67140255081173,-189.58446001868566 L107.75629630238488,-189.648629648036 L107.8416156474939,-189.70942662734072 L107.92724495873247,-189.7667685626595 L108.01306818861865,-189.82057774243418 L108.0989690268659,-189.87078124280572 L108.1848310580105,-189.917311026443 L108.27053791918131,-189.96010403474898 L108.35597345779827,-189.99910227331983 L108.44102188898606,-190.03425289054059 L108.52556795248925,-190.0655082492113 L108.60949706887662,-190.09282599110654 L108.69269549482263,-190.11616909438044 L108.77505047725602,-190.13550592373994 L108.85645040616612,-190.1508102733179 L108.93678496586027,-190.162061402188 L109.015945284467,-190.16924406247358 L109.09382408148252,-190.1723485200121 L109.17031581316068,-190.17137056754694 L109.24531681554896,-190.16631153042948 L109.31872544497713,-190.15717826482273 L109.39044221580792,-190.14398314840975 L109.46036993526295,-190.12674406361904 L109.52841383514138,-190.1054843733897 L109.59448170025279,-190.08023288950915 L109.65848399338994,-190.05102383356672 L109.72033397667239,-190.01789679057535 " />
			<path d="M109.7203339766724,-190.01789679057535 L109.79930814205117,-189.9677111066192 L109.8741170572253,-189.91076143189792 L109.94458050096564,-189.84718496316614 L110.01052872066434,-189.77713486170563 L110.07180284128378,-189.7007798843465 L110.1282552481004,-189.61830397691713 L110.17974994232155,-189.52990583110252 L110.22616286871842,-189.4357984057787 L110.26738221448605,-189.33620841397618 L110.30330867861008,-189.23137577670818 L110.33385571109167,-189.12155304498015 L110.35894972145394,-189.0070047913722 L110.37853025602799,-188.88800697266046 L110.39255014359094,-188.76484626501323 L110.40097560900567,-188.63781937336282 L110.40378635458801,-188.50723231661743 L110.40097560900567,-188.3733996904349 L110.39255014359094,-188.236643909334 L110.37853025602799,-188.0972944299698 L110.35894972145394,-187.95568695744367 L110.33385571109167,-187.81216263656032 L110.30330867861008,-187.66706722997992 L110.26738221448605,-187.52075028524584 L110.22616286871842,-187.37356429269377 L110.17974994232155,-187.22586383627174 L110.12825524810042,-187.0780047393163 L110.07180284128378,-186.93034320734296 L110.01052872066434,-186.78323496991584 L109.94458050096564,-186.6370344236641 L109.8741170572253,-186.4920937785093 L109.79930814205117,-186.34876220916087 L109.7203339766724,-186.2073850139238 L109.63738481677069,-186.0683027828446 L109.55066049413776,-185.93185057720004 L109.46036993526295,-185.79835712230536 L109.36673065801112,-185.66814401558605 L109.26996824760302,-185.54152495182151 L109.17031581316068,-185.41880496742687 L109.06801342612722,-185.30027970559354 L108.96330754191362,-185.18623470405885 L108.85645040616612,-185.0769447072207 L108.74769944708429,-184.97267300425406 L108.63731665525404,-184.8736707948246 L108.52556795248925,-184.78017658392633 L108.41272255120295,-184.69241560730248 L108.2990523058509,-184.61059928883267 L108.1848310580105,-184.53492473119437 L108.0703339766724,-184.4655742410252 L107.9558368953343,-184.4027148897304 L107.8416156474939,-184.34649811099305 L107.72794540214186,-184.29705933595716 L107.61510000085555,-184.2545176669621 L107.50335129809076,-184.21897559061466 L107.3929685062605,-184.19051873088995 L107.28421754717868,-184.1692156428555 L107.17736041143118,-184.15511764751636 L107.07265452721758,-184.14825870817813 L106.97035214018412,-184.14865534862645 L106.87069970574179,-184.15630661331974 L106.77393729533368,-184.17119406969115 L106.68029801808186,-184.19328185255435 L106.59000745920706,-184.22251675050572 L106.50328313657411,-184.25882833411544 L106.42033397667241,-184.30212912559804 " />
			<path d="M106.4203339766724,-184.30212912559804 L106.34135981129363,-184.3523148095542 L106.2665508961195,-184.40926448427547 L106.19608745237916,-184.47284095300725 L106.13013923268046,-184.54289105446776 L106.06886511206102,-184.6192460318269 L106.01241270524439,-184.70172193925626 L105.96091801102325,-184.79012008507087 L105.91450508462638,-184.88422751039468 L105.87328573885875,-184.9838175021972 L105.83735927473472,-185.08865013946522 L105.80681224225313,-185.19847287119325 L105.78171823189086,-185.3130211248012 L105.76213769731682,-185.43201894351293 L105.74811780975386,-185.55517965116016 L105.73969234433913,-185.68220654281058 L105.7368815987568,-185.81279359955593 " />
			<path d="M100.24263864167652,-199.88234074833878 L110.10753751644002,-194.18683872746544 " />
			<path d="M100.24263864167645,-197.37295598287903 L110.96202453091777,-191.18411565417787 " />
			<path d="M112.10753751644002,-189.68804844529737 L112.10753751644002,-189.74963327790536 L112.10753751644002,-189.80687692234775 L112.10753751644003,-189.8597288745319 L112.10753751644003,-189.90814250500364 L112.10753751644003,-189.95207510008714 L112.10753751644,-189.9914878995693 L112.10753751644003,-190.02634613089688 L112.10753751644003,-190.05661903985498 L112.10753751644003,-190.08227991770036 L112.10753751644002,-190.10330612472583 L112.10753751644003,-190.11967911023424 L112.10753751644002,-190.13138442890533 L112.10753751644003,-190.13841175354034 L112.10753751644003,-190.14075488417313 " />
			<path d="M112.10753751644003,-190.14075488417313 L112.10753751644002,-190.13990565956078 L112.10753751644002,-190.13735825727258 L112.10753751644003,-190.13311349186824 L112.10753751644003,-190.1271727206578 L112.10753751644002,-190.11953784326758 L112.10753751644003,-190.11021130103296 L112.10753751644002,-190.09919607621754 L112.10753751644002,-190.08649569105958 L112.10753751644002,-190.0721142066458 L112.10753751644002,-190.05605622161272 L112.10753751644003,-190.03832687067617 L112.10753751644003,-190.01893182298954 L112.10753751644002,-189.99787728033087 L112.10753751644002,-189.97516997511983 " />
			<path d="M112.10753751643999,-186.9748882819577 L112.10753751643999,-189.68804844529717 " />
			<path d="M112.10753751644003,-184.38521362849292 L112.10753751644003,-184.57431525571963 L112.10753751644002,-184.76374125866184 L112.10753751644002,-184.95325050286382 L112.10753751644002,-185.14260174790581 L112.10753751644002,-185.33155395449705 L112.10753751644002,-185.51986659131228 L112.10753751644002,-185.7072999411825 L112.10753751644002,-185.8936154062483 L112.10753751644002,-186.0785758116891 L112.10753751644003,-186.2619457076405 L112.10753751644003,-186.4434916689161 L112.10753751644003,-186.62298259215154 L112.10753751644002,-186.80018998999344 L112.10753751644003,-186.97488828195767 " />
			<path d="M112.10753751644,-184.38521362849275 L112.10753751644,-115.00448667976183 " />
			<path d="M112.10753751644003,-114.57036299994662 L112.10753751644002,-114.63194783255462 L112.10753751644003,-114.689191476997 L112.10753751644003,-114.7420434291811 L112.10753751644002,-114.79045705965287 L112.10753751644002,-114.83438965473634 L112.10753751644003,-114.87380245421852 L112.10753751644003,-114.90866068554611 L112.10753751644002,-114.93893359450419 L112.10753751644002,-114.96459447234957 L112.10753751644002,-114.98562067937499 L112.10753751644002,-115.00199366488343 L112.10753751644003,-115.01369898355453 L112.10753751644002,-115.02072630818952 L112.10753751644003,-115.02306943882232 " />
			<path d="M112.10753751644003,-115.02306943882232 L112.10753751644003,-115.02297457377557 L112.10753751644,-115.02268998202395 L112.10753751644002,-115.022215673733 L112.10753751644002,-115.0215516658449 L112.10753751644002,-115.02069798207789 L112.10753751644002,-115.01965465292538 L112.10753751644002,-115.0184217156549 L112.10753751644002,-115.01699921430671 L112.10753751644003,-115.01538719969224 L112.10753751644002,-115.01358572939237 L112.10753751644003,-115.01159486775526 L112.10753751644002,-115.00941468589409 L112.10753751644002,-115.0070452616845 L112.10753751644003,-115.00448667976185 " />
			<path d="M112.10753751643996,-111.85720283660686 L112.10753751643996,-114.57036299994658 " />
			<path d="M110.64747600747376,-114.11748821727647 L110.71449230705011,-114.16190626455196 L110.7811973771388,-114.20981418347992 L110.84744060515703,-114.26110380334114 L110.91307242130975,-114.3156593179142 L110.97794463630142,-114.37335754695292 L111.04191077593094,-114.43406821431356 L111.10482641181399,-114.49765424210382 L111.1665494874861,-114.56397206018937 L111.22694063915029,-114.6328719303591 L111.28586351034495,-114.70419828441727 L111.34318505982145,-114.7777900754391 L111.39877586193634,-114.8534811413967 L111.45251039888007,-114.93110058033427 L111.50426734408201,-115.01047313624571 L111.55392983615246,-115.09141959478293 L111.60138574274242,-115.17375718790193 L111.64652791372596,-115.25730000653243 L111.6892544231332,-115.34185942033993 L111.72946879928777,-115.4272445036317 L111.76708024262899,-115.5132624664458 L111.80200383072719,-115.5997190898491 L111.83416071002901,-115.68641916446201 L111.8634782738999,-115.7731669312193 L111.88989032656181,-115.85976652337222 L111.9133372325558,-115.94602240873374 L111.93376605139225,-116.03173983116828 L111.95113065708458,-116.11672525032925 L111.96539184229653,-116.20078677865158 L111.97651740686798,-116.28373461461226 L111.98448223051929,-116.36538147128104 L111.98926832957004,-116.44554299919326 L111.99086489754421,-116.5240382025904 " />
			<path d="M108.51037275377027,-106.47664852978001 L108.42900841906476,-106.52707206468374 L108.35073560759295,-106.58260186052966 L108.27565593430374,-106.6431658276961 L108.20386686876573,-106.70868534112387 L108.13546160863069,-106.7790753423887 L108.07052895864302,-106.85424445012522 L108.009153215352,-106.93409507865968 L107.95141405767683,-107.01852356469718 L107.89738644346619,-107.10742030189887 L107.84714051218683,-107.2006698831746 L107.80074149386746,-107.29815125050612 L107.75824962441617,-107.39973785210651 L107.71972006742122,-107.5052978067115 L107.68520284253684,-107.61469407478984 L107.65474276054697,-107.72778463645 L107.62837936519122,-107.84442267581264 L107.60614688182861,-107.96445677160912 L107.58807417300561,-108.08773109375896 L107.57418470098646,-108.21408560567072 L107.56449649729404,-108.343356272004 L107.55902213930104,-108.47537527162261 L107.5577687339019,-108.60997121546241 L107.56073790828647,-108.74696936903132 L107.56792580782763,-108.8861918792522 L107.57932310108536,-109.02745800535439 L107.59491499192102,-109.17058435351422 L107.61468123870581,-109.31538511493953 L107.63859618059894,-109.46167230708951 L107.66662877086074,-109.60925601771652 L107.69874261715812,-109.75794465141296 L107.7348960288096,-109.90754517834337 L107.77504207090881,-110.05786338483873 L107.81912862525607,-110.2087041255275 L107.86709845801907,-110.35987157667638 L107.91888929403461,-110.51116949041155 L107.97443389765527,-110.66240144949074 L108.03366016003567,-110.81337112229498 L108.09649119274529,-110.96388251770931 L108.16284542758618,-111.11374023956145 L108.23263672248606,-111.262749740288 L108.30577447332924,-111.41071757349908 L108.38216373158025,-111.55745164511336 L108.46170532754748,-111.70276146273747 L108.54429599912676,-111.84645838296616 L108.62982852585782,-111.98835585628198 L108.71819186811946,-112.12826966923672 L108.80927131128294,-112.26601818360007 L108.90294861463614,-112.40142257216515 L108.9991021648856,-112.53430705090466 L109.09760713403658,-112.6644991071764 L109.19833564144673,-112.7918297236818 L109.3011569198427,-112.91613359788668 L109.40593748508412,-113.03724935661957 L109.51254130945482,-113.15501976556877 L109.62082999825597,-113.2692919334063 L109.73066296947226,-113.37991751027377 L109.84189763627757,-113.4867528803724 L109.95438959214333,-113.58965934840722 L110.06799279830928,-113.68850331964339 L110.18255977337321,-113.78315647334094 L110.29794178475352,-113.87349592934267 L110.41398904177612,-113.95940440759904 L110.53055089013496,-114.0407703804229 L110.64747600747373,-114.11748821727643 " />
			<path d="M111.99086489754421,-180.87749293110562 L111.9891614153731,-180.9566366018604 L111.9840550726975,-181.03362259680006 L111.9755581711442,-181.10826544991957 L111.96369118049327,-181.1803853400479 L111.94848268936461,-181.24980852405272 L111.92996933634548,-181.31636775540304 L111.90819572172485,-181.3799026870806 L111.8832143000475,-181.44026025787005 L111.85508525374637,-181.4972950610966 L111.8238763481578,-181.55086969492362 L111.78966276826893,-181.60085509336568 L111.75252693759047,-181.6471308372197 L111.71255831959127,-181.68958544416543 L111.66985320217287,-181.72811663733623 L111.62451446570371,-181.76263159171276 L111.57665133517114,-181.79304715774677 " />
			<path d="M111.57665133517112,-181.79304715774677 L111.52965567934369,-181.817741863135 L111.4806476731629,-181.8387270498045 L111.42973080123426,-181.85595840573507 L111.37701257889681,-181.8693995454417 L111.32260432519544,-181.87902208680595 L111.2666209278211,-181.88480571100698 L111.20918060051557,-181.88673820542655 L111.1504046334531,-181.88481548943707 L111.09041713712577,-181.8790416230182 L111.02934478027348,-181.8694287981837 L110.96731652241216,-181.8559973132371 L110.90446334152465,-181.83877552991012 L110.84091795748942,-181.81779981347424 L110.77681455183127,-181.79311445595255 L110.71228848438543,-181.7647715825932 L110.64747600747376,-181.7328310418025 " />
			<path d="M111.99086489754421,-116.52403820259043 L111.99086489754421,-180.87749293110565 " />
			<path d="M110.96202453091777,-111.30378093040689 L100.24263864167553,-117.49262125910857 " />
			<path d="M112.10753751643999,-115.00448667976183 L112.91010371308673,-114.54112487008534 " />
			<path d="M112.91010371308674,-114.54112487008537 L112.96160490730972,-114.51951793018023 L113.01216482366685,-114.49613489631119 L113.06176133952013,-114.47098599979253 L113.11037275377026,-114.44408224459684 " />
			<path d="M113.11037275377026,-189.56176768994763 L113.03083461768414,-189.60461741406573 L112.9487283548647,-189.64281011909716 L112.86414892721696,-189.67630163238204 L112.77719415704208,-189.70505321853287 L112.68796461389881,-189.72903162423506 L112.59656349828741,-189.74820911670662 L112.5030965222907,-189.7625635157733 L112.40767178731032,-189.77207821952152 " />
			<path d="M112.91010371308673,-114.55970762914583 L112.91010371308673,-114.54112487008533 " />
			<path d="M109.20413491334946,-187.91667530670063 L112.2881748022049,-189.69724656672287 " />
			<path d="M110.64747600747374,-181.73283104180237 L110.49840731057695,-181.65936779798383 L110.34999735545156,-181.59417918925735 L110.20255952243784,-181.5374028669575 L110.05640513915685,-181.48915871915503 L109.91184282311558,-181.44954861750296 L109.84025423172189,-181.43300818878552 L109.76917783003458,-181.41865620212585 L109.69865114398527,-181.40650023488658 L109.62871140927436,-181.3965467050065 L109.55939555171177,-181.3888008676121 L109.4907401677215,-181.38326681224308 L109.42278150501986,-181.3799474606931 L109.35555544347788,-181.37884456546735 L109.28909747617809,-181.3799587088571 L109.22344269067521,-181.3832893026324 L109.15862575047124,-181.38883458835258 L109.09468087671424,-181.39659163829472 L109.03164183013071,-181.4065563569993 L108.96954189320111,-181.41872348343247 L108.90841385258786,-181.43308659376382 L108.84828998182502,-181.44963810475775 L108.78920202427899,-181.46836927777738 L108.73118117638913,-181.48927022339802 L108.67425807119704,-181.51232990662862 L108.61846276217338,-181.53753615273789 L108.56382470735063,-181.56487565368195 L108.51037275377031,-181.59433397513078 " />
			<path d="M108.5103727537703,-181.59433397513078 L108.44521713601274,-181.63414596184597 L108.38201573630246,-181.67721661366429 L108.32082077501558,-181.72351034330998 L108.26168281470146,-181.77298890042812 L108.20465071830533,-181.82561140318893 L108.14977160879498,-181.88133437206668 L108.09709083022534,-181.94011176576473 L108.04665191027274,-182.00189501925726 L107.99849652427007,-182.06663308391643 L107.95266446077233,-182.13427246969135 L107.9091935886812,-182.20475728930455 L107.86811982595586,-182.27802930442886 L107.82947710993541,-182.3540279738072 L107.79329736929829,-182.43269050327493 L107.75961049768087,-182.51395189764378 L107.72844432897789,-182.59774501440427 L107.69982461434454,-182.68400061920252 L107.67377500091946,-182.77264744304537 L107.6503170122863,-182.86361224118662 L107.62947003068962,-182.95681985364567 L107.61125128102043,-183.05219326730892 L107.59567581658393,-183.14965367956194 L107.58275650666177,-183.24912056340045 L107.57250402587862,-183.35051173396607 L107.56492684538237,-183.4537434164518 L107.56003122584474,-183.5587303153213 L107.55782121228836,-183.6653856847846 L107.55829863074463,-183.7736214004721 L107.5614630867449,-183.88334803224762 L107.56731196564637,-183.99447491810037 L107.57584043479255,-184.1069102390548 L107.58704144750618,-184.22056109503632 L107.60090574891157,-184.33533358163027 L107.61742188358151,-184.45113286767076 L107.63657620500236,-184.5678632735954 L107.65835288684947,-184.68542835050067 L107.68273393606381,-184.80373095983327 L107.70969920771874,-184.92267335365122 L107.73922642166487,-185.04215725538828 L107.77129118093907,-185.1620839410555 L107.8058669919226,-185.28235432081217 L107.84292528623146,-185.4028690208391 L107.88243544432125,-185.52352846544662 L107.92436482078652,-185.6442329593494 L107.96867877133431,-185.76488277003997 L108.015340681409,-185.88537821019298 L108.06431199644526,-186.00561972003237 L108.11555225372385,-186.1255079495928 L108.16901911580419,-186.24494384080802 L108.2246684055057,-186.36382870935796 L108.28245414240938,-186.48206432620688 L108.34232858084934,-186.5995529987655 L108.4042422493628,-186.71619765160992 L108.46814399156598,-186.8319019066904 L108.53398100842237,-186.94657016296418 L108.60169890186805,-187.06010767538604 L108.67124171975821,-187.17242063319188 L108.742552002098,-187.28341623741005 L108.8155708285188,-187.39300277753688 L108.8902378669616,-187.50108970731281 L108.96649142352643,-187.60758771953658 L109.04426849344722,-187.7124088198555 L109.12350481314971,-187.8154663994713 L109.20413491334942,-187.91667530670063 " />
			<path d="M108.47692037585466,-184.23083147400848 L108.479731121437,-184.1002444172631 L108.48815658685173,-183.97321752561268 L108.50217647441468,-183.85005681796545 L108.52175700898873,-183.73105899925372 L108.546851019351,-183.61651074564577 L108.57739805183259,-183.50668801391774 L108.61332451595662,-183.40185537664973 L108.65454386172425,-183.3022653848472 L108.70095678812112,-183.2081579595234 L108.75245148234225,-183.11975981370878 L108.80890388915888,-183.0372839062794 L108.87017800977833,-182.96092892892028 L108.93612622947703,-182.89087882745977 L109.00658967321736,-182.827302358728 L109.0813985883915,-182.77035268400672 L109.16037275377026,-182.72016700005057 " />
			<path d="M109.16037275377026,-182.72016700005057 L109.24332191367198,-182.67686620856796 L109.33004623630491,-182.64055462495824 L109.42033679517972,-182.61131972700687 L109.51397607243155,-182.58923194414368 L109.61073848283965,-182.57434448777227 L109.71039091728198,-182.56669322307897 L109.81269330431545,-182.56629658263066 L109.91739918852903,-182.57315552196889 L110.02425632427655,-182.58725351730803 L110.13300728335838,-182.60855660534247 L110.24339007518863,-182.63701346506718 L110.35513877795341,-182.67255554141462 L110.46798417923972,-182.71509721040968 L110.58165442459176,-182.76453598544558 L110.69587567243217,-182.8207527641829 L110.81037275377027,-182.88361211547772 L110.92486983510837,-182.9529626056469 L111.03909108294876,-183.0286371632852 L111.15276132830081,-183.110453481755 L111.26560672958712,-183.19821445837886 L111.3773554323519,-183.2917086692771 L111.48773822418215,-183.39071087870659 L111.59648918326398,-183.49498258167318 L111.70334631901149,-183.60427257851137 L111.80805220322509,-183.71831758004606 L111.91035459025855,-183.8368428418794 L112.01000702470088,-183.95956282627404 L112.10676943510899,-184.08618189003857 L112.20040871236081,-184.21639499675788 L112.29069927123561,-184.34988845165256 L112.37742359386856,-184.48634065729712 L112.46037275377026,-184.62542288837633 L112.53934691914904,-184.7668000836134 L112.61415583432317,-184.9101316529618 L112.68461927806351,-185.0550722981166 L112.7505674977622,-185.20127284436836 L112.81184161838165,-185.34838108179548 L112.86829402519827,-185.49604261376882 L112.91978871941942,-185.64390171072424 L112.96620164581628,-185.79160216714627 L113.00742099158391,-185.93878815969833 L113.04334745570794,-186.08510510443244 L113.07389448818952,-186.2302005110128 L113.0989884985518,-186.3737248318962 L113.11856903312585,-186.51533230442232 L113.1325889206888,-186.65468178378651 L113.14101438610354,-186.79143756488742 L113.14382513168587,-186.92527019106996 L113.14101438610354,-187.05585724781534 L113.1325889206888,-187.18288413946576 L113.11856903312585,-187.306044847113 L113.0989884985518,-187.42504266582472 L113.07389448818954,-187.53959091943267 L113.04334745570794,-187.6494136511607 L113.00742099158391,-187.7542462884287 L112.96620164581628,-187.85383628023123 L112.91978871941942,-187.94794370555505 L112.86829402519828,-188.03634185136966 L112.81184161838165,-188.11881775879903 L112.7505674977622,-188.19517273615816 L112.68461927806351,-188.26522283761867 L112.61415583432317,-188.32879930635045 L112.53934691914904,-188.3857489810717 L112.46037275377029,-188.43593466502784 " />
			<path d="M112.46037275377027,-188.43593466502787 L112.3985227704878,-188.46906170801924 L112.33452047735065,-188.49827076396167 L112.26845261223924,-188.5235222478422 L112.20040871236081,-188.54478193807157 L112.13048099290579,-188.56202102286227 L112.058764222075,-188.57521613927526 L111.98535559264683,-188.584349404882 L111.91035459025855,-188.58940844199947 L111.83386285858039,-188.59038639446462 L111.75598406156486,-188.5872819369261 L111.67682374295813,-188.5800992766405 L111.59648918326398,-188.5688481477704 L111.51508925435388,-188.55354379819246 L111.4327342719205,-188.53420696883296 L111.34953584597449,-188.51086386555906 L111.26560672958712,-188.4835461236638 L111.18106066608392,-188.4522907649931 L111.09601223489614,-188.41714014777236 L111.01057669627917,-188.3781419092015 L110.92486983510837,-188.33534890089553 L110.83900780396377,-188.28881911725824 L110.75310696571651,-188.2386156168867 L110.66728373583034,-188.18480643711206 L110.58165442459176,-188.12746450179324 L110.49633507948275,-188.06666752248853 L110.4114413279096,-188.00249789313818 L110.32708822050117,-187.9350425784019 L110.24339007518863,-187.86439299580132 L110.1604603222784,-187.7906448918285 L110.07841135072776,-187.71389821218705 L109.997354355832,-187.63425696634286 L109.91739918852905,-187.55182908656707 L109.83865420652609,-187.46672628166306 L109.76122612744993,-187.3790638855752 L109.68521988421992,-187.28896070108468 L109.61073848283965,-187.1965388388044 L109.53788286280005,-187.1019235516909 L109.46675176028302,-187.00524306529763 L109.39744157435119,-186.90662840399975 L109.33004623630492,-186.80621321342588 L109.26465708238366,-186.7041335793374 L109.20136272998434,-186.6005278432009 L109.14024895756424,-186.4955364147034 L109.0813985883915,-186.38930158146505 L109.02489137830035,-186.2819673162063 L108.9708039076037,-186.17367908163186 L108.91920947730893,-186.06458363329503 L108.87017800977833,-185.95482882071008 L108.82377595396798,-185.844563386982 L108.7800661953742,-185.73393676722534 L108.73910797080912,-185.62309888604509 L108.70095678812112,-185.5121999543542 L108.66566435096892,-185.40139026580314 L108.6332784887512,-185.29081999309741 L108.60384309178667,-185.1806389844787 L108.57739805183259,-185.070996560646 L108.55397920802221,-184.96204131239168 L108.53361829829454,-184.8539208992265 L108.51634291638202,-184.74678184926702 L108.50217647441468,-184.64076936065612 L108.49113817119138,-184.53602710478603 L108.48324296616083,-184.4326970315904 L108.47850155914828,-184.3309191771694 L108.47692037585466,-184.23083147400848 " />
			<path d="M108.47692037585466,-109.11314602865767 L108.479731121437,-108.9825589719123 L108.48815658685173,-108.85553208026188 L108.50217647441468,-108.73237137261465 L108.52175700898873,-108.61337355390293 L108.546851019351,-108.49882530029497 L108.57739805183259,-108.38900256856695 L108.61332451595662,-108.28416993129895 L108.65454386172425,-108.18457993949639 L108.70095678812112,-108.09047251417259 L108.75245148234225,-108.00207436835798 L108.80890388915888,-107.9195984609286 L108.87017800977833,-107.84324348356948 L108.93612622947703,-107.77319338210899 L109.00658967321736,-107.70961691337719 L109.0813985883915,-107.65266723865592 L109.16037275377026,-107.60248155469978 " />
			<path d="M109.16037275377026,-107.60248155469978 L109.24332191367198,-107.55918076321716 L109.33004623630491,-107.52286917960744 L109.42033679517972,-107.49363428165607 L109.51397607243155,-107.47154649879289 L109.61073848283965,-107.45665904242145 L109.71039091728198,-107.44900777772817 L109.81269330431545,-107.44861113727985 L109.91739918852903,-107.45547007661808 L110.02425632427655,-107.46956807195723 L110.13300728335838,-107.49087115999167 L110.24339007518863,-107.5193280197164 L110.35513877795341,-107.55487009606381 L110.46798417923972,-107.59741176505888 L110.58165442459176,-107.64685054009477 L110.69587567243217,-107.70306731883213 L110.81037275377027,-107.76592667012692 L110.92486983510837,-107.83527716029607 L111.03909108294876,-107.9109517179344 L111.15276132830081,-107.99276803640421 L111.26560672958712,-108.08052901302806 L111.3773554323519,-108.17402322392631 L111.48773822418215,-108.27302543335578 L111.59648918326398,-108.3772971363224 L111.70334631901149,-108.48658713316057 L111.80805220322509,-108.60063213469526 L111.91035459025855,-108.71915739652859 L112.01000702470088,-108.84187738092324 L112.10676943510899,-108.96849644468777 L112.20040871236081,-109.09870955140708 L112.29069927123561,-109.23220300630176 L112.37742359386856,-109.3686552119463 L112.46037275377026,-109.50773744302553 L112.53934691914904,-109.6491146382626 L112.61415583432317,-109.79244620761101 L112.68461927806351,-109.93738685276581 L112.7505674977622,-110.08358739901756 L112.81184161838165,-110.23069563644468 L112.86829402519827,-110.37835716841802 L112.91978871941942,-110.52621626537345 L112.96620164581628,-110.67391672179548 L113.00742099158391,-110.82110271434755 L113.04334745570794,-110.96741965908163 L113.07389448818952,-111.11251506566202 L113.0989884985518,-111.25603938654541 L113.11856903312585,-111.39764685907153 L113.1325889206888,-111.53699633843571 L113.14101438610354,-111.67375211953662 L113.14382513168587,-111.80758474571917 L113.14101438610354,-111.93817180246454 L113.1325889206888,-112.06519869411494 L113.11856903312585,-112.18835940176218 L113.0989884985518,-112.3073572204739 L113.07389448818954,-112.42190547408187 L113.04334745570794,-112.53172820580988 L113.00742099158391,-112.63656084307789 L112.96620164581628,-112.73615083488045 L112.91978871941942,-112.83025826020425 L112.86829402519828,-112.91865640601885 L112.81184161838165,-113.00113231344824 L112.7505674977622,-113.07748729080735 L112.68461927806351,-113.14753739226785 L112.61415583432317,-113.21111386099965 L112.53934691914904,-113.26806353572093 L112.46037275377029,-113.31824921967706 " />
			<path d="M112.46037275377027,-113.31824921967707 L112.40821049738062,-113.34651845977967 L112.35449955068313,-113.37199032116946 L112.29929197254476,-113.39464011546676 L112.24264127242951,-113.41444588955582 L112.18460235853475,-113.43138844686274 L112.12523148457196,-113.44545136596149 L112.06458619524331,-113.45662101649029 L112.00272527046697,-113.46488657236272 L111.93970866840515,-113.47024002226077 L111.87559746735022,-113.47267617739979 L111.81045380652506,-113.47219267655764 L111.74434082585522,-113.46878998836331 L111.67732260477104,-113.46247141084265 L111.60946410009922,-113.45324306822188 L111.54083108310404,-113.44111390499167 L111.47149007573908,-113.42609567723774 L111.40150828617143,-113.40820294124647 L111.33095354364075,-113.3874530393963 L111.25989423271633,-113.36386608334875 L111.18839922701602,-113.33746493455541 L111.11653782245102,-113.30827518209966 L111.04437967006142,-113.2763251178947 L110.97199470850757,-113.24164570926179 L110.89945309628261,-113.20427056891553 L110.82682514371201,-113.16423592238498 L110.75418124480586,-113.12158057290237 L110.68159180903005,-113.07634586379346 L110.6091271930626,-113.02857563840584 L110.53685763260103,-112.97831619761413 L110.46485317428697,-112.92561625494332 L110.39318360781412,-112.87052688935357 L110.32191839828519,-112.81310149573237 L110.25112661888345,-112.75339573314201 L110.18087688392411,-112.69146747087258 L110.04227531173977,-112.56118563697169 L109.9066509049896,-112.42276096976764 L109.77452934736125,-112.27673000682958 L109.64642274540911,-112.12365876792454 L109.52282764361615,-111.96414056111017 L109.40422309977473,-111.79879368305754 L109.29106882814625,-111.62825902251726 L109.18380341759692,-111.45319757621827 L109.08284263161595,-111.27428788682752 L108.98857779680566,-111.09222341290108 L108.90137428608944,-110.90770984102103 L108.82157010251694,-110.72146235053609 L108.7494745691556,-110.53420284150803 L108.68536713014637,-110.34665713660857 L108.62949626757117,-110.15955216781195 " />
			<path d="M108.52081713700626,-109.65866298329338 L108.50164632086324,-109.51862867956619 L108.4879204939479,-109.38081540391545 L108.4796720277784,-109.2455481804716 L108.47692037585466,-109.11314602865768 " />
			<path d="M109.20413491334945,-187.91667530670063 L106.46409613625158,-189.4986374322481 " />
			<path d="M108.83661255807326,-183.3750092832943 L111.57665133517112,-181.79304715774683 " />
			<path d="M112.01964899821402,-108.87865449108425 L110.5478109685447,-109.72842057371736 " />
			<path d="M108.51037275377028,-181.59433397513084 L105.77033397667242,-183.17629610067831 " />
			<path d="M109.16037275377026,-107.60248155469976 L106.4203339766724,-109.18444368024723 " />
			<path d="M112.46037275377027,-113.31824921967707 L109.7203339766724,-114.90021134522453 " />
			<path d="M109.16037275377026,-182.7201670000506 L106.4203339766724,-184.30212912559807 " />
			<path d="M112.46037275377027,-188.43593466502793 L109.7203339766724,-190.0178967905754 " />

       </g>

       <!-- solid lines -->
       <g  stroke="rgb(0,0,0)" fill="none">
			<path d="M112.10753751643999,-192.3789409243442 L112.09496193622648,-192.56903866281309 L112.05739334080364,-192.77126684116644 L111.99530417705674,-192.98308232272598 L111.90947525224483,-193.20182140491278 L111.80098591489657,-193.42473331685306 L111.67120048137606,-193.64901481191765 L111.5217510788131,-193.87184542017496 L111.35451712015747,-194.09042291743677 L111.17160166947068,-194.30199856485348 L110.97530499467513,-194.50391167589967 L110.76809564035034,-194.69362307605132 L110.55257938435264,-194.86874703437837 L110.33146646864662,-195.02708126549553 L110.10753751644,-195.1666346245789 " />
			<path d="M110.95571200780917,-108.96334151964479 L110.95616324544788,-108.96377462922422 L110.95661443040923,-108.9642078001789 L110.95706556266516,-108.9646410324819 L110.9575166421877,-108.96507432610629 L110.95796766894884,-108.96550768102526 L110.95841864292059,-108.96594109721184 L110.95886956407494,-108.96637457463916 L110.95932043238392,-108.96680811328031 L110.95977124781955,-108.96724171310836 L110.9602220103538,-108.96767537409642 L110.96067271995874,-108.96810909621757 L110.96112337660637,-108.96854287944487 L110.96157398026872,-108.9689767237514 L110.9620245309178,-108.96941062911021 " />
			<path d="M110.95505559378827,-108.97075871171992 L110.95571200780894,-108.9633415196446 " />
			<path d="M106.4640961362516,-107.84897933947546 L109.54781096854471,-109.62936292800394 " />
			<path d="M105.19628359093848,-112.14171843085107 L105.13799505054335,-111.9747181020481 L105.08434440205446,-111.80782470670218 L105.03541650125234,-111.64130220936413 L104.99128873425124,-111.47541398795923 L104.95203089510244,-111.31042241721931 L104.91770507540552,-111.14658845370155 L104.88836556610208,-110.98417122305015 L104.8640587716072,-110.8234276101541 L104.84482313641463,-110.6646118528488 L104.83068908429154,-110.5079751398044 L104.82167897015921,-110.35376521323697 L104.81780704473577,-110.20222597707036 L104.81907943199667,-110.05359711116924 L104.82549411948878,-109.90811369225274 L104.83704096151342,-109.76600582208881 L104.85370169517313,-109.62749826355699 L104.87544996925689,-109.49281008515545 L104.90225138591816,-109.36215431451441 L104.93406355507977,-109.2357376014641 L104.97083616147954,-109.1137598911899 L105.0125110442507,-108.996414107992 L105.0590222889112,-108.88388585014938 L105.11029633161642,-108.77635309637103 L105.16625207551034,-108.67398592429832 L105.22680101899127,-108.57694624150432 L105.29184739568908,-108.48538752941484 L105.36128832593276,-108.39945460055684 L105.43501397946856,-108.31928336951768 L105.51290774917146,-108.24500063797787 L105.59484643547509,-108.17672389415686 L105.68070044122867,-108.11456112698964 L105.77033397667239,-108.05861065532747 " />
			<path d="M105.7703339766724,-108.05861065532746 L105.84893415580554,-108.01623158793083 L105.93004426621295,-107.97840155487731 L106.01357266261725,-107.94516329983787 L106.09942496735061,-107.91655437829222 L106.18750417699086,-107.89260711509526 L106.27771077196442,-107.87334856795368 L106.36994282899225,-107.85880049685385 L106.46409613625156,-107.8489793394754 " />
			<path d="M105.7368815987568,-110.69510815420513 L105.739291624996,-110.81892809157185 L105.74651672548777,-110.94527512118519 L105.75854197583773,-111.07388825665475 L105.7753425363113,-111.20450183065078 L105.79688370314338,-111.33684604367492 L105.82312098022359,-111.47064752136646 L105.85400017100883,-111.60562987919309 L105.8894574904733,-111.7415142933594 " />
			<path d="M108.90026032999775,-110.00322646348309 L108.82143351935066,-109.92493616855486 L108.7416384119438,-109.84937555599397 L108.66097787742301,-109.77664203645259 L108.57955590111881,-109.70682937597275 L108.49747744999148,-109.64002757510579 L108.4148483373104,-109.57632275288607 L108.33177508624269,-109.51579703580872 L108.2483647925263,-109.45852845195444 L108.16472498640532,-109.40459083039784 L108.08096349400485,-109.35405370602908 L107.99718829832459,-109.30698222991136 L107.9135074000301,-109.26343708528997 L107.83002867822138,-109.22347440936117 L107.74685975135812,-109.1871457209017 L107.66410783852089,-109.15449785385205 L107.58187962118733,-109.12557289693962 L107.5002811057013,-109.10040813941897 L107.41941748661252,-109.07903602299959 L107.33939301106248,-109.06148410002297 L107.26031084439214,-109.04777499794282 L107.18227293714382,-109.03792639015444 L107.10537989362955,-109.03195097321064 L107.02973084223464,-109.0298564504537 L106.95542330762416,-109.03164552208446 L106.88255308501688,-109.03731588168122 L106.81121411668865,-109.0468602191732 L106.74149837086465,-109.06026623026445 L106.6734957231565,-109.07751663229618 L106.60729384069712,-109.09858918652714 L106.54297806912264,-109.12345672680314 L106.48063132254721,-109.15208719457895 L106.42033397667241,-109.18444368024723 " />
			<path d="M106.4203339766724,-109.18444368024723 L106.34135981129363,-109.23462936420339 L106.2665508961195,-109.29157903892465 L106.19608745237916,-109.35515550765645 L106.13013923268046,-109.42520560911694 L106.06886511206102,-109.50156058647606 L106.01241270524439,-109.58403649390544 L105.96091801102325,-109.67243463972005 L105.91450508462638,-109.76654206504385 L105.87328573885875,-109.86613205684641 L105.83735927473472,-109.97096469411441 L105.80681224225313,-110.08078742584243 L105.78171823189086,-110.1953356794504 L105.76213769731682,-110.31433349816211 L105.74811780975386,-110.43749420580934 L105.73969234433913,-110.56452109745976 L105.7368815987568,-110.69510815420513 " />
			<path d="M100.24263864167645,-197.37295598287906 L100.24263864167648,-199.8823407483388 " />
			<path d="M110.10753751643998,-110.28600055201737 L110.3314664686466,-110.16698302942903 L110.55257938435261,-110.06999805773785 L110.76809564035031,-109.99626527923486 L110.9753049946751,-109.94671192639045 L111.17160166947065,-109.92196116136819 L111.35451712015745,-109.92232423939893 L111.52175107881308,-109.9477965945658 L111.67120048137605,-109.99805789722318 L111.80098591489656,-110.07247608232785 L111.90947525224483,-110.17011529802366 L111.99530417705672,-110.28974767452169 L112.05739334080364,-110.42986876527512 L112.09496193622648,-110.58871646626757 L112.10753751644,-110.7642931754935 " />
			<path d="M112.1075375164397,-110.76429317549352 L112.1075375164397,-108.30018433766597 " />
			<path d="M112.10752460504357,-108.28395328371305 L112.10753751643993,-108.30018433766593 " />
			<path d="M112.10752460504357,-108.28395328371313 L112.10650317342179,-108.51590893426096 L112.10391840370488,-108.61319221848709 L112.09846533667191,-108.69532780389613 L112.08863097364379,-108.76202907968955 L112.08169705475714,-108.78983729170916 L112.07322065006834,-108.81408302980064 L112.06305326391205,-108.8348656514565 L112.05104640062294,-108.85228451416916 L112.03692762176959,-108.86649603205234 L112.01941083379165,-108.87819234030178 " />
			<path d="M112.01941083379165,-108.8781923403018 L111.99194787884402,-108.889892364547 L111.95969641763426,-108.8979742152609 L111.92348226393133,-108.90259125697196 L111.88265481496231,-108.904131398792 L111.77813272420723,-108.90198334277443 L111.64967416327579,-108.89761212189856 L111.5058874048141,-108.89660671332837 L111.42741436035219,-108.89906947843808 L111.34287533552045,-108.90427989678656 L111.25285295908458,-108.91277513922766 L111.1579298598103,-108.92509237661518 L111.05868866646325,-108.94176877980293 L110.9557120078092,-108.96334151964474 " />
			<path d="M110.96202453091777,-108.96941062911033 L110.9045915600278,-108.9813080082497 L110.84636619244492,-108.99515183684477 L110.78740631331394,-109.0109283519593 L110.72777053799929,-109.02862186926357 L110.66751815381218,-109.04821479862716 L110.60670906106972,-109.06968766160622 L110.54540371354463,-109.0930191108081 L110.48366305836467,-109.1181859511141 L110.42154847542169,-109.14516316273888 L110.35912171635033,-109.17392392610427 L110.29644484313728,-109.20443964850192 L110.23358016642189,-109.23667999251907 L110.17059018354965,-109.27061290619869 L110.10753751643999,-109.30620465490409 " />
			<path d="M112.10753751644,-108.30018433766591 L112.10753751644002,-108.55224077673816 L112.10753751644002,-108.80707002350583 L112.10753751644,-109.06406252937842 L112.10753751644002,-109.32260357127491 L112.10753751644003,-109.58207472203414 L112.10753751644003,-109.84185532968532 L112.10753751644002,-110.10132400204041 L112.10753751644002,-110.35986009305701 L112.10753751644002,-110.61684518741635 L112.10753751644002,-110.87166457976566 L112.10753751644003,-111.12370874508612 L112.10753751644002,-111.37237479666962 L112.10753751644002,-111.61706792821684 L112.10753751644003,-111.85720283660682 " />
			<path d="M112.10753751643999,-110.76429317549355 L112.10753751643999,-192.3789409243442 " />
			<path d="M101.09116677909937,-115.49160462433458 L110.10753751643996,-110.28600055201737 " />
			<path d="M101.09116677910035,-200.3722386968954 L101.09116677909934,-115.4916046243346 " />
			<path d="M101.09116677910036,-200.3722386968954 L110.10753751644,-195.16663462457873 " />
			<path d="M100.24263864167553,-115.00170667577788 L110.10753751643998,-109.30620465490401 " />
			<path d="M101.09116677909935,-115.49160462433453 L100.24263864167551,-115.0017066757779 " />
			<path d="M112.10753751643995,-111.85720283660685 L113.84348466425297,-110.85495328351804 " />
			<path d="M113.84348466425304,-110.85495328351804 L113.7901826351963,-110.6748895448341 L113.73137255174836,-110.49442926718439 L113.66716312189776,-110.31390602387202 L113.59767303409981,-110.13365350458949 L113.52303073788605,-109.9540048986072 L113.4433742064305,-109.77529227888701 L113.35885068151214,-109.59784598825914 L113.26961640134449,-109.4219940287973 L113.1758363117759,-109.24806145552043 L113.07768376139391,-109.07636977554213 L112.9753401810977,-108.90723635377812 L112.8689947487306,-108.74097382631037 L112.75884403939268,-108.57788952249243 L112.64509166207998,-108.41828489686385 L112.52794788332166,-108.26245497192407 L112.40762923851116,-108.11068779279564 " />
			<path d="M112.10752460504357,-108.28395328371312 L112.40762923851118,-108.11068779279555 " />
			<path d="M112.10753751643995,-114.57036299994658 L113.84348466425297,-113.56811344685778 " />
			<path d="M113.84348466425298,-113.56811344685778 L113.84348466425298,-110.85495328351804 " />
			<path d="M106.46409613625158,-107.84897933947546 L109.20413491334945,-106.267017213928 " />
			<path d="M109.20413491334944,-106.26701721392794 L109.10998160609012,-106.27683837130638 L109.01774954906229,-106.29138644240622 L108.92754295408872,-106.3106449895478 L108.83946374444847,-106.33459225274476 L108.75361143971512,-106.36320117429041 L108.67008304331081,-106.39643942932985 L108.5889729329034,-106.43426946238337 L108.51037275377028,-106.47664852978 " />
			<path d="M112.40762923851119,-108.11068779279547 L112.34779336419778,-108.08054167426513 L112.28784974564257,-108.04740080245648 " />
			<path d="M100.24263864167547,-115.00170667577791 L100.2426386416755,-117.4926212591086 " />
			<path d="M113.11037275377026,-114.44408224459683 L113.16936859635688,-114.40822698869168 L113.2267709462983,-114.36970496741431 L113.28254102852729,-114.32854220224239 L113.33664117056718,-114.28476649846593 L113.38903482797947,-114.23840742640495 L113.43968660904952,-114.18949630143484 L113.48856229869345,-114.13806616283297 L113.53562888157035,-114.08415175146074 L113.58085456438397,-114.02778948629624 L113.62420879735902,-113.96901743983348 L113.66566229487736,-113.90787531236444 L113.70518705526041,-113.84440440516175 L113.7427563796841,-113.77864759257986 L113.77834489021384,-113.71064929309345 L113.81192854694726,-113.64045543929309 L113.84348466425301,-113.56811344685784 " />
			<path d="M113.84348466425307,-188.6857988922085 L113.8119285469473,-188.75814088464378 L113.77834489021389,-188.82833473844417 L113.74275637968414,-188.89633303793056 L113.70518705526047,-188.96208985051248 L113.66566229487741,-189.02556075771517 L113.62420879735906,-189.08670288518422 L113.58085456438401,-189.145474931647 L113.53562888157039,-189.20183719681148 L113.48856229869348,-189.25575160818374 L113.43968660904955,-189.30718174678563 L113.38903482797949,-189.35609287175572 L113.33664117056719,-189.40245194381671 L113.2825410285273,-189.4462276475932 L113.2267709462983,-189.4873904127651 L113.16936859635688,-189.52591243404248 L113.11037275377028,-189.56176768994763 " />
			<path d="M112.10753751644,-189.68804844529723 L113.84348466425297,-188.68579889220845 " />
			<path d="M113.84348466425295,-188.6857988922084 L113.84348466425295,-185.9726387288689 " />
			<path d="M112.10753751644,-186.9748882819577 L113.84348466425297,-185.97263872886893 " />
			<path d="M113.84348466425305,-185.97263872886893 L113.80533355990195,-185.84194608302377 L113.76426343115699,-185.71099623292005 L113.72031430682505,-185.5799168082102 L113.67352902171241,-185.44883556483603 L113.62395317487608,-185.31788026051174 L113.57163508518087,-185.18717853020578 L113.5166257442056,-185.0568577617418 L113.45897876654445,-184.92704497164087 L113.39875033755173,-184.79786668132522 L113.33599915858107,-184.66944879380495 L113.2707863897725,-184.5419164709672 L113.20317559044285,-184.4153940115876 L113.13323265713817,-184.2900047301832 L113.06102575940778,-184.1658708368244 L112.98662527336329,-184.04311331802373 L112.91010371308676,-183.9218518188166 " />
			<path d="M112.10753751643999,-184.38521362849278 L112.91010371308673,-183.9218518188163 " />
			<path d="M112.91010371308673,-183.92185181881626 L112.91010371308673,-114.55970762914583 " />
			<path d="M112.28784974564257,-108.04740080245648 L109.20413491334946,-106.267017213928 " />
			<path d="M108.62949626757117,-110.15955216781195 L108.59632386608449,-110.03295578548634 L108.56711951773612,-109.90712541335174 L108.54193556301718,-109.78228656657443 L108.52081713700626,-109.6586629832934 " />
			<path d="M100.24263864167551,-117.49262125910859 L100.27539202514502,-117.6002805609077 L100.30397187175234,-117.7074327262866 L100.32829574765633,-117.81376869254458 L100.34829349465952,-117.91898175117238 L100.36390743256781,-118.02276843250206 L100.3750925255595,-118.12482938101509 L100.38181651208356,-118.2248702187839 L100.38405999791287,-118.32260239455624 " />
			<path d="M100.38405999791281,-118.32260239455626 L100.38405999791371,-196.70627416361714 " />
			<path d="M100.38405999791375,-196.70627416361717 L100.38181651208446,-196.80141578509455 L100.37509252556039,-196.89369243200395 L100.36390743256872,-196.98283794761764 L100.34829349466044,-197.06859520643835 L100.32829574765726,-197.15071685583519 L100.30397187175329,-197.22896602949137 L100.275392025146,-197.303117030606 L100.2426386416765,-197.3729559828791 " />
			<path d="M101.09116677910035,-200.3722386968954 L100.24263864167649,-199.88234074833878 " />
			<path d="M110.10753751643976,-109.30620465490406 L110.10753751643976,-110.28600055201736 " />
			<path d="M112.28784974564256,-108.04740080245648 L110.10753751643976,-109.30620465490415 " />
			<path d="M108.51037275377028,-106.47664852978001 L105.77033397667242,-108.05861065532747 " />
			<path d="M112.10753751791376,-115.02306943797143 L113.11037275377026,-114.44408224459684 " />
			<path d="M112.10753751957644,-190.1407548823623 L113.11037275377026,-189.56176768994766 " />

       </g>
    </g>
    
</svg>
