<?xml version="1.0" encoding="UTF-8" standalone="no"?>
<svg
   xmlns:svg="http://www.w3.org/2000/svg"
   xmlns="http://www.w3.org/2000/svg"
   width="300.0"
   height="240.0"

>
    <g transform="scale(1.485769195034344, -1.485769195034344)   translate(-18.513707659637102,68.34716608447617)" stroke-width="1.68263"  fill="none">
       <!-- hidden lines -->
       <g  stroke="rgb(160,160,160)" fill="none" stroke-dasharray="1.68263,1.68263" >
			<path d="M83.97034447946491,-198.67096869206048 L91.41759309892163,-194.37129769689508 " />
			<path d="M91.41759309892163,-193.1465528255035 L91.41759309892163,-194.3712976968951 " />
			<path d="M91.41759309892163,-193.1465528255035 L82.90968430768511,-198.0585962563647 " />
			<path d="M40.15235146289692,-164.773296638265 L30.23022910928728,-170.50183665005392 " />
			<path d="M40.15235146289692,-164.773296638265 L91.41759309892163,-194.37129769689508 " />
			<path d="M94.98938050332593,-189.49324917843037 L35.166350496119485,-154.95440670003066 " />
			<path d="M26.65844170488304,-159.86645013089188 L35.16635049611956,-154.9544067000307 " />
			<path d="M35.16635049611956,-150.46367550492818 L25.244228142509925,-156.1922155167171 " />
			<path d="M35.16635049611956,-150.4636755049282 L96.40359406569905,-185.8190145642556 " />
			<path d="M94.98938050332596,-178.06229704544222 L35.166350496119556,-143.52345456704253 " />
			<path d="M26.65844170488304,-148.43549799790375 L35.16635049611956,-143.52345456704256 " />
			<path d="M35.16635049611956,-139.03272337194005 L25.244228142509925,-144.761263383729 " />
			<path d="M35.16635049611956,-139.03272337194005 L96.40359406569905,-174.38806243126746 " />
			<path d="M94.98938050332596,-166.63134491245404 L35.166350496119556,-132.09250243405435 " />
			<path d="M26.65844170488304,-137.00454586491557 L35.16635049611956,-132.09250243405438 " />
			<path d="M35.16635049611956,-127.60177123895187 L25.244228142509925,-133.3303112507408 " />
			<path d="M35.16635049611956,-127.60177123895187 L96.40359406569905,-162.95711029827928 " />
			<path d="M94.98938050332593,-155.2003927794659 L35.166350496119556,-120.6615503010662 " />
			<path d="M26.658441704883025,-125.5735937319274 L35.16635049611956,-120.6615503010662 " />
			<path d="M35.16635049611956,-116.1708191059637 L25.244228142509925,-121.89935911775262 " />
			<path d="M35.16635049611956,-116.1708191059637 L96.40359406569905,-151.5261581652911 " />
			<path d="M94.9893805033259,-143.7694406464777 L35.166350496119556,-109.23059816807805 " />
			<path d="M26.658441704883025,-114.14264159893924 L35.16635049611956,-109.23059816807803 " />
			<path d="M35.16635049611956,-104.73986697297553 L25.244228142509925,-110.46840698476446 " />
			<path d="M35.16635049611956,-104.73986697297553 L96.40359406569905,-140.09520603230294 " />
			<path d="M94.98938050332593,-132.33848851348955 L35.166350496119556,-97.79964603508986 " />
			<path d="M26.658441704883025,-102.71168946595107 L35.16635049611956,-97.79964603508986 " />
			<path d="M35.16635049611956,-93.30891483998737 L25.244228142509925,-99.03745485177629 " />
			<path d="M35.16635049611956,-93.30891483998737 L96.40359406569905,-128.6642538993148 " />
			<path d="M31.644442671660386,-94.15940633331154 L40.15235146289692,-89.24736290245033 " />
			<path d="M40.15235146289692,-90.47210777384193 L40.15235146289692,-89.24736290245033 " />
			<path d="M40.15235146289692,-90.47210777384193 L30.23022910928728,-96.20064778563086 " />
			<path d="M90.00337953654852,-118.02886738015269 L40.15235146289691,-89.24736290245033 " />
			<path d="M40.15235146289692,-87.61436974059488 L30.23022910928728,-93.34290975238382 " />
			<path d="M40.15235146289692,-87.61436974059488 L91.41759309892163,-117.21237079922497 " />
			<path d="M35.16635049611956,-90.45117680674032 L25.244228142509925,-96.17971681852924 " />
			<path d="M35.16635049611956,-90.45117680674032 L96.40359406569902,-125.8065158660677 " />
			<path d="M94.98938050332593,-129.4807504802425 L35.166350496119556,-94.94190800184282 " />
			<path d="M26.65844170488304,-99.85395143270402 L35.16635049611956,-94.94190800184283 " />
			<path d="M35.16635049611956,-101.8821289397285 L25.244228142509925,-107.61066895151743 " />
			<path d="M35.16635049611956,-101.8821289397285 L96.40359406569905,-137.2374679990559 " />
			<path d="M94.98938050332596,-140.91170261323066 L35.166350496119556,-106.37286013483097 " />
			<path d="M26.658441704883025,-111.28490356569219 L35.16635049611956,-106.37286013483099 " />
			<path d="M35.16635049611956,-113.31308107271666 L25.244228142509925,-119.04162108450558 " />
			<path d="M35.16635049611956,-113.31308107271666 L96.40359406569905,-148.66842013204405 " />
			<path d="M94.98938050332596,-152.34265474621884 L35.166350496119556,-117.80381226781915 " />
			<path d="M26.658441704883025,-122.71585569868036 L35.16635049611956,-117.80381226781915 " />
			<path d="M35.16635049611956,-124.74403320570482 L25.244228142509925,-130.47257321749376 " />
			<path d="M35.16635049611956,-124.74403320570482 L96.40359406569905,-160.09937226503223 " />
			<path d="M94.9893805033259,-163.773606879207 L35.166350496119556,-129.23476440080734 " />
			<path d="M26.658441704883003,-134.14680783166853 L35.16635049611956,-129.2347644008073 " />
			<path d="M35.16635049611956,-136.17498533869298 L25.244228142509925,-141.9035253504819 " />
			<path d="M35.16635049611956,-136.174985338693 L96.40359406569905,-171.5303243980204 " />
			<path d="M94.98938050332593,-175.20455901219518 L35.166350496119556,-140.6657165337955 " />
			<path d="M26.65844170488304,-145.57775996465668 L35.16635049611956,-140.6657165337955 " />
			<path d="M35.16635049611956,-147.60593747168116 L25.244228142509925,-153.3344774834701 " />
			<path d="M35.16635049611956,-147.60593747168116 L96.40359406569905,-182.96127653100856 " />
			<path d="M94.98938050332596,-186.63551114518333 L35.166350496119556,-152.09666866678364 " />
			<path d="M26.65844170488304,-157.00871209764486 L35.16635049611956,-152.09666866678367 " />
			<path d="M35.16635049611956,-159.03688960466934 L25.244228142509925,-164.76542961645828 " />
			<path d="M96.40359406569905,-194.39222866399672 L35.16635049611956,-159.0368896046693 " />
			<path d="M35.166350496119556,-154.9544067000307 L35.16635049611956,-153.32141353817525 " />
			<path d="M35.16635049611956,-153.32141353817525 L25.244228142509925,-159.0499535499642 " />
			<path d="M35.16635049611956,-152.09666866678364 L35.16635049611956,-150.46367550492818 " />
			<path d="M26.65844170488304,-154.1509740643978 L35.16635049611956,-149.2389306335366 " />
			<path d="M35.16635049611956,-149.23893063353663 L35.16635049611956,-147.6059374716812 " />
			<path d="M26.65844170488304,-151.29323603115077 L35.16635049611956,-146.38119260028958 " />
			<path d="M35.16635049611956,-146.38119260028958 L35.16635049611956,-144.7481994384341 " />
			<path d="M35.16635049611956,-144.74819943843409 L25.244228142509925,-150.47673945022302 " />
			<path d="M35.16635049611956,-143.52345456704253 L35.16635049611956,-141.8904614051871 " />
			<path d="M35.16635049611956,-141.89046140518707 L25.244228142509925,-147.619001416976 " />
			<path d="M35.16635049611956,-140.66571653379552 L35.16635049611956,-139.03272337194008 " />
			<path d="M26.65844170488304,-142.72002193140966 L35.16635049611956,-137.80797850054847 " />
			<path d="M35.16635049611956,-137.80797850054847 L35.16635049611956,-136.174985338693 " />
			<path d="M26.65844170488304,-139.8622838981626 L35.16635049611956,-134.9502404673014 " />
			<path d="M35.16635049611956,-134.9502404673014 L35.16635049611957,-133.31724730544596 " />
			<path d="M35.16635049611956,-133.31724730544596 L25.244228142509925,-139.0457873172349 " />
			<path d="M35.16635049611957,-132.09250243405438 L35.16635049611957,-130.45950927219891 " />
			<path d="M35.16635049611956,-130.45950927219891 L25.244228142509925,-136.18804928398785 " />
			<path d="M35.16635049611957,-129.2347644008073 L35.16635049611957,-127.60177123895187 " />
			<path d="M26.658441704883025,-131.28906979842148 L35.16635049611956,-126.37702636756029 " />
			<path d="M35.16635049611957,-126.37702636756029 L35.16635049611957,-124.74403320570484 " />
			<path d="M26.658441704883014,-128.43133176517443 L35.16635049611956,-123.51928833431323 " />
			<path d="M35.16635049611957,-123.51928833431326 L35.16635049611957,-121.8862951724578 " />
			<path d="M35.16635049611956,-121.88629517245779 L25.244228142509925,-127.61483518424672 " />
			<path d="M35.16635049611957,-120.6615503010662 L35.16635049611957,-119.02855713921076 " />
			<path d="M35.16635049611956,-119.02855713921075 L25.244228142509925,-124.75709715099967 " />
			<path d="M35.16635049611957,-117.80381226781918 L35.16635049611958,-116.17081910596373 " />
			<path d="M26.658441704883025,-119.85811766543331 L35.16635049611956,-114.94607423457211 " />
			<path d="M35.16635049611957,-114.94607423457212 L35.16635049611958,-113.31308107271667 " />
			<path d="M26.658441704883025,-117.00037963218628 L35.16635049611956,-112.08833620132508 " />
			<path d="M35.16635049611958,-112.08833620132508 L35.16635049611958,-110.45534303946962 " />
			<path d="M35.16635049611956,-110.45534303946962 L25.244228142509925,-116.18388305125855 " />
			<path d="M35.16635049611958,-109.23059816807803 L35.16635049611958,-107.59760500622258 " />
			<path d="M35.16635049611956,-107.59760500622258 L25.244228142509925,-113.3261450180115 " />
			<path d="M35.16635049611958,-106.37286013483099 L35.16635049611958,-104.73986697297553 " />
			<path d="M26.658441704883014,-108.42716553244514 L35.16635049611956,-103.51512210158394 " />
			<path d="M35.16635049611958,-103.51512210158396 L35.16635049611958,-101.88212893972852 " />
			<path d="M26.658441704883014,-105.5694274991981 L35.16635049611956,-100.6573840683369 " />
			<path d="M35.16635049611958,-100.65738406833692 L35.16635049611958,-99.02439090648147 " />
			<path d="M35.16635049611956,-99.02439090648146 L25.244228142509925,-104.75293091827038 " />
			<path d="M35.16635049611958,-97.79964603508988 L35.166350496119584,-96.16665287323443 " />
			<path d="M35.16635049611956,-96.16665287323441 L25.244228142509925,-101.89519288502333 " />
			<path d="M35.166350496119584,-94.94190800184283 L35.166350496119584,-93.30891483998738 " />
			<path d="M26.65844170488304,-96.99621339945698 L35.16635049611956,-92.08416996859579 " />
			<path d="M35.166350496119584,-92.08416996859579 L35.166350496119584,-90.45117680674034 " />
			<path d="M38.7018844020523,-82.18892355903108 L35.16635049611956,-84.2301650113504 " />
			<path d="M38.70188440205234,-82.18892355903111 L38.701884402052286,-161.99191507634802 " />
			<path d="M38.70188440205223,-161.99191507634796 L35.16635049611949,-164.0331565286673 " />
			<path d="M35.166350496119534,-159.03688960466928 L35.16635049611953,-164.03315652866732 " />
			<path d="M26.65844170488298,-162.7241881641389 L35.16635049611949,-157.8121447332777 " />
			<path d="M35.166350496119556,-157.81214473327776 L35.166350496119556,-156.1791515714223 " />
			<path d="M35.16635049611956,-156.17915157142227 L25.244228142509925,-161.9076915832112 " />
			<path d="M31.644442671660396,-171.31833323098166 L40.15235146289692,-166.40628980012048 " />
			<path d="M40.15235146289692,-167.63103467151205 L40.15235146289692,-166.40628980012045 " />
			<path d="M40.15235146289692,-167.63103467151205 L30.23022910928728,-173.35957468330096 " />
			<path d="M91.41759309892163,-196.00429085875055 L85.38455804183803,-199.4874652729882 " />
			<path d="M91.41759309892163,-196.00429085875055 L40.15235146289691,-166.40628980012048 " />
			<path d="M35.16635049611956,-96.16665287323441 L96.40359406569905,-131.5219919325618 " />
			<path d="M35.16635049611956,-107.59760500622258 L96.40359406569905,-142.95294406554999 " />
			<path d="M35.16635049611956,-119.02855713921075 L96.40359406569905,-154.38389619853814 " />
			<path d="M35.16635049611956,-130.45950927219891 L96.40359406569905,-165.81484833152632 " />
			<path d="M35.16635049611956,-141.8904614051871 L96.40359406569905,-177.2458004645145 " />
			<path d="M35.16635049611949,-153.32141353817522 L96.40359406569905,-188.67675259750266 " />
			<path d="M40.15235146289692,-167.63103467151205 L91.41759309892163,-197.22903573014213 " />
			<path d="M86.44521821361784,-200.099837708684 L91.41759309892163,-197.22903573014213 " />
			<path d="M91.41759309892163,-193.1465528255035 L40.15235146289691,-163.54855176687343 " />
			<path d="M31.644442671660375,-168.4605951977346 L40.15235146289692,-163.5485517668734 " />
			<path d="M94.98938050332593,-183.77777311193628 L35.166350496119556,-149.2389306335366 " />
			<path d="M94.98938050332596,-172.34682097894813 L35.166350496119556,-137.80797850054844 " />
			<path d="M94.98938050332596,-160.91586884595995 L35.166350496119556,-126.37702636756026 " />
			<path d="M94.98938050332593,-149.4849167129718 L35.166350496119556,-114.94607423457211 " />
			<path d="M94.9893805033259,-138.0539645799836 L35.166350496119556,-103.51512210158396 " />
			<path d="M94.98938050332596,-126.62301244699545 L35.16635049611957,-92.08416996859579 " />
			<path d="M40.15235146289692,-90.47210777384193 L91.41759309892163,-120.07010883247202 " />
			<path d="M35.16635049611956,-99.02439090648146 L96.40359406569905,-134.37972996580885 " />
			<path d="M94.98938050332593,-135.1962265467366 L35.166350496119556,-100.65738406833691 " />
			<path d="M35.16635049611956,-110.45534303946962 L96.40359406569905,-145.81068209879703 " />
			<path d="M94.98938050332596,-146.62717867972475 L35.166350496119556,-112.08833620132506 " />
			<path d="M35.16635049611956,-121.88629517245779 L96.40359406569905,-157.24163423178518 " />
			<path d="M94.98938050332596,-158.05813081271293 L35.166350496119556,-123.51928833431325 " />
			<path d="M35.16635049611956,-133.31724730544596 L96.40359406569905,-168.67258636477337 " />
			<path d="M94.98938050332593,-169.48908294570109 L35.166350496119556,-134.9502404673014 " />
			<path d="M35.16635049611956,-144.7481994384341 L96.40359406569905,-180.10353849776152 " />
			<path d="M94.98938050332596,-180.92003507868924 L35.166350496119556,-146.38119260028955 " />
			<path d="M35.16635049611949,-156.17915157142224 L96.40359406569905,-191.53449063074967 " />
			<path d="M94.9893805033259,-192.3509872116774 L35.166350496119485,-157.8121447332777 " />
			<path d="M36.44004086166754,-165.6918552918087 L91.27706990209656,-197.35202876985974 " />
			<path d="M39.97557476760028,-163.65061383948938 L98.66543760608374,-197.53522194799004 " />
			<path d="M91.41759309892163,-196.00429085875055 L91.41759309892163,-197.22903573014213 " />
			<path d="M40.15235146289692,-164.773296638265 L40.15235146289692,-163.5485517668734 " />
			<path d="M40.15235146289692,-87.61436974059488 L40.15235146289692,-86.38962486920329 " />
			<path d="M35.20260399459108,-89.24736290245033 L90.00337953654854,-120.88660541339974 " />
			<path d="M35.16635049611945,-164.0331565286673 L35.212509408279026,-164.16104439662757 L35.264693962887996,-164.28843067760042 L35.322647999123284,-164.4146900644461 L35.38608703523097,-164.53920278166402 L35.4546996649755,-164.66135762771444 L35.5281490862544,-164.78055497525284 L35.606074754374895,-164.89620971454926 L35.68809415187689,-165.00775412564454 L35.77380466621479,-165.11464066514446 L35.86278556608094,-165.2163446539723 L35.9546000666696,-165.31236685288596 L36.04879747374341,-165.40223591311778 L36.14491539597781,-165.4855106901067 L36.24248201472344,-165.56178240896566 L36.341018400045,-165.63067667105454 L36.44004086166753,-165.6918552918087 " />
			<path d="M39.162401969235745,-163.99762488638368 L39.160826248227465,-164.07083278183183 L39.15610288125254,-164.142044827151 L39.14824324731573,-164.21108946628658 L39.13726628096362,-164.27780036465526 L39.12319842666962,-164.34201680985973 L39.106073575126906,-164.40358409885877 L39.08593298160283,-164.46235391066054 L39.062825166551285,-164.51818466364074 L39.03680579872273,-164.5709418566253 L39.0079375610533,-164.62049839291532 L38.9762899996561,-164.66673488647422 L38.94193935627854,-164.70953994953916 L38.904968384629264,-164.748810460964 L38.86546615101726,-164.78445181464696 L38.82352781978328,-164.81637814744525 L38.779254424040644,-164.84451254602672 " />
			<path d="M38.77925442404063,-164.84451254602672 L38.73275262227756,-164.86878723216094 L38.68413444140757,-164.88914372600274 L38.63351700688685,-164.9055329869755 L38.5810222605487,-164.91791553191393 L38.52677666683507,-164.92626153018276 L38.470910908132545,-164.93055087554112 L38.413559569947125,-164.93077323458033 L38.35486081667587,-164.92692807161797 L38.29495605875681,-164.91902464998847 L38.233989611998815,-164.90708200972674 L38.17210834991216,-164.89112892169922 L38.10946134987736,-164.87120381829234 L38.04619953400473,-164.8473547008254 L37.98247530554979,-164.81963902391135 L37.918442181760476,-164.78812355704343 L37.85425442404063,-164.7528842237418 L37.79006666632079,-164.714005918647 L37.726033542531475,-164.67158230300126 L37.66230931407654,-164.6257155790106 L37.59904749820391,-164.57651624363058 L37.53640049816911,-164.52410282236943 L37.47451923608245,-164.4686015837499 L37.413552789324456,-164.41014623511708 L37.3536480314054,-164.34887760052598 L37.29494927813414,-164.2849432814838 L37.237597939948714,-164.21849730136512 L37.1817321812462,-164.149699734356 L37.127486587532566,-164.07871631982132 L37.07499184119442,-164.00571806302415 L37.024374406673694,-163.93088082315896 L36.97575622580371,-163.85438488969154 L36.929254424040636,-163.7764145480259 L36.884981028297986,-163.69715763554453 L36.84304269706401,-163.61680508909166 L36.803540463452,-163.5355504849897 L36.76656949180273,-163.45358957269707 L36.73221884842516,-163.37111980323036 L36.70057128702796,-163.2883398534877 L36.671703049358534,-163.20544914761876 L36.64568368152999,-163.1226473765943 L36.622575866478435,-163.04013401713328 L36.60243527295436,-162.958107851146 L36.58531042141165,-162.87676648685093 L36.57124256711764,-162.79630588271934 L36.56026560076553,-162.7169198753941 L36.55240596682873,-162.6387997127202 L36.5476825998538,-162.56213359301213 L36.54610687884552,-162.48710621166737 L36.5476825998538,-162.41389831621922 L36.55240596682873,-162.34268627090003 L36.56026560076553,-162.27364163176446 L36.57124256711764,-162.20693073339578 L36.58531042141165,-162.1427142881913 L36.60243527295436,-162.08114699919227 L36.622575866478435,-162.0223771873905 L36.64568368152999,-161.9665464344103 L36.671703049358534,-161.91378924142575 L36.70057128702796,-161.86423270513572 L36.73221884842516,-161.81799621157683 L36.76656949180273,-161.77519114851188 L36.803540463452,-161.73592063708705 L36.84304269706401,-161.7002792834041 L36.884981028297986,-161.6683529506058 L36.92925442404063,-161.64021855202432 " />
			<path d="M36.929254424040636,-161.64021855202432 L36.96392789951717,-161.62164733095338 L36.999807972942534,-161.6052725571675 L37.03684601853529,-161.59111642226475 L37.07499184119442,-161.57919811107556 L37.11419374452527,-161.5695337756626 L37.1543986009001,-161.56213651343108 L37.19555192345832,-161.5570163493788 L37.23759793994872,-161.55418022250993 L37.280479668313745,-161.55363197643098 L37.324138993913365,-161.55537235414195 L37.368516748283795,-161.55939899702935 L37.413552789324456,-161.56570644806257 L37.459186082804365,-161.5742861591896 L37.50535478507763,-161.58512650292147 L37.551996326895846,-161.59821278809017 L37.59904749820391,-161.6135272797587 L37.6941231997731,-161.6507548723039 L37.79006666632079,-161.6966075410076 L37.886357971888955,-161.75083680628526 L37.98247530554979,-161.81314879504978 L38.07789779914434,-161.8832058332352 L38.17210834991216,-161.96062827568161 L38.264596422715975,-162.04499656346536 L38.35486081667587,-162.13585349752506 L38.442412381220215,-162.23270671626292 L38.52677666683507,-162.33503136369504 L38.60749649614713,-162.44227293369127 L38.68413444140757,-162.55385027489208 L38.75627519495093,-162.66915874001822 L38.82352781978328,-162.78757346250651 L38.885527868103715,-162.908452742716 L38.94193935627854,-163.03114152535397 L38.9924565855657,-163.15497494927723 L39.03680579872273,-163.27928195043228 L39.07474666352101,-163.40338889840956 L39.106073575126906,-163.52662324690505 L39.13061677029218,-163.6483171783069 L39.14824324731573,-163.76781122265695 L39.158857486791376,-163.8844578313756 L39.162401969235745,-163.99762488638365 " />
			<path d="M93.00636040037695,-196.3536224351705 L92.94624726184067,-196.27133029642462 L92.888522553056,-196.18662518402002 L92.83336545745055,-196.0997700313295 L92.7809471883168,-196.01103444567198 L92.73143045734841,-195.92069387142334 L92.68496896956644,-195.82902873500913 L92.64170694620316,-195.73632357443185 L92.6017786770245,-195.64286615603595 L92.56530810348085,-195.5489465812514 L92.53240843398004,-195.45485638608915 L92.50318179247687,-195.36088763618326 L92.47771890146973,-195.2673320201893 L92.4560988003888,-195.17447994435264 L92.4383886002494,-195.0826196310578 L92.4246432753326,-194.99203622415644 L92.41490549253936,-194.9030109038515 L92.40920547894807,-194.81582001388514 L92.40756092798662,-194.73073420373916 L92.4099769445102,-194.64801758851127 L92.41644602895526,-194.5679269290748 L92.42694810061894,-194.49071083506635 L92.44145055999164,-194.41660899317623 L92.45990838994928,-194.34585142313594 L92.48226429549099,-194.2786577637137 L92.50844888158879,-194.21523659093293 L92.53838086859682,-194.15578477063076 L92.57196734455171,-194.10048684736643 L92.6091040535809,-194.04951447157597 L92.64967571952353,-194.00302586675156 L92.69355640375957,-193.96116533829948 L92.74060989613615,-193.92406282560148 L92.79069013777791,-193.8918334986695 " />
			<path d="M92.79069013777791,-193.8918334986695 L92.84364167446877,-193.86457740064606 L92.89930013919775,-193.84237913726017 L92.9574927623711,-193.82530761420233 L93.01803890810689,-193.81341582323438 L93.08075063494726,-193.80674067769738 L93.14543327924812,-193.805302897929 L93.21188605943505,-193.8091069469454 L93.27990269924992,-193.81814101658753 L93.34927206805366,-193.8323770641749 L93.4197788361974,-193.851770899553 L93.49120414342784,-193.87626232226395 L93.56332627825198,-193.90577530841506 L93.63592136615235,-193.94021824666464 L93.70876406451654,-193.97948422259321 L93.78162826212385,-194.02345135057664 L93.85428778101765,-194.0719831521318 L93.92651707858512,-194.12492897955974 L93.99809194766465,-194.18212448357164 L94.06879021250788,-194.2433921234459 L94.13839241843607,-194.3085417181327 L94.20668251304998,-194.37737103659563 L94.27344851687877,-194.44966642555764 L94.33848318138593,-194.52520347270257 L94.40158463229014,-194.60374770327422 L94.46255699620376,-194.68505530791006 L94.52121100864396,-194.76887389945043 L94.57736460152906,-194.85494329637433 L94.63084346833665,-194.94299633042962 L94.6814816051689,-195.03275967595064 L94.72912182604571,-195.12395469828917 L94.77361625082618,-195.21629831872505 L94.81482676424373,-195.3095038931716 " />
			<path d="M39.162401969235745,-88.87993944103285 L39.160826248227465,-88.95314733648101 L39.15610288125254,-89.02435938180018 L39.14824324731573,-89.09340402093575 L39.13726628096362,-89.16011491930445 L39.12319842666962,-89.22433136450891 L39.106073575126906,-89.28589865350796 L39.08593298160283,-89.34466846530971 L39.062825166551285,-89.40049921828994 L39.03680579872273,-89.45325641127448 L39.0079375610533,-89.5028129475645 L38.9762899996561,-89.54904944112339 L38.94193935627854,-89.59185450418835 L38.904968384629264,-89.63112501561318 L38.86546615101726,-89.66676636929616 L38.82352781978328,-89.69869270209445 L38.779254424040644,-89.72682710067592 " />
			<path d="M38.77925442404063,-89.72682710067592 L38.726912286765256,-89.75380531943897 L38.67192175472782,-89.77583937065081 L38.61444971651459,-89.79286238404272 L38.554670591736595,-89.80482269714601 L38.492765801690425,-89.81168401208042 L38.42892321876997,-89.81342550571323 L38.36333659629988,-89.81004189285441 L38.29620498052135,-89.80154344229653 L38.227732106514516,-89.7879559456504 L38.15812577989096,-89.76932063907103 L38.087597246132674,-89.74569407811184 L38.01636054949156,-89.7171479660863 L37.94463188339497,-89.68376893645843 L37.872628934328866,-89.64565828992238 L37.8005702211897,-89.60293168696889 L37.72867443211015,-89.55571879687191 L37.65715976077106,-89.50416290416044 L37.5862432442142,-89.44842047376997 L37.51614010416507,-89.38866067619331 L37.44706309386505,-89.32506487407169 L37.37922185239501,-89.2578260717845 L37.312822268449985,-89.187148329708 L37.2480658554957,-89.11324614492045 L37.1851491402034,-89.03634380023358 L37.12426306601876,-88.95667468352543 L37.06559241367528,-88.87448057944083 L37.0093152404105,-88.79001093560872 L36.95560233958715,-88.70352210560343 L36.90461672235918,-88.61527657094737 L36.856513122955626,-88.52554214451631 L36.811437529083854,-88.4345911577646 L36.76952673887726,-88.34269963423738 " />
			<path d="M38.58542871861074,-87.29428813741626 L38.65030586313184,-87.38564132872996 L38.7122115521274,-87.47975316193984 L38.770914707563264,-87.5762723417488 L38.826196205640365,-87.67483858685331 L38.87784969472757,-87.77508397478093 L38.92568236561932,-87.87663431525041 L38.969515671242846,-87.97911054692794 L39.00918599312853,-88.08213015236565 L39.04454525215563,-88.18530858584099 L39.075461461293585,-88.28826070876715 L39.10181921827571,-88.39060222731652 L39.1235201363662,-88.49195112689071 L39.14048321161255,-88.591929098083 L39.15264512521247,-88.69016294881013 L39.159960479866776,-88.7862859973425 L39.162401969235745,-88.87993944103283 " />
			<path d="M98.55937158890576,-119.09031293535872 L98.55779586789748,-119.16352083080689 L98.55307250092255,-119.23473287612606 L98.54521286698575,-119.30377751526163 L98.53423590063363,-119.37048841363033 L98.52016804633963,-119.43470485883479 L98.50304319479693,-119.49627214783384 L98.48290260127284,-119.55504195963559 L98.4597947862213,-119.61087271261582 L98.43377541839274,-119.66362990560036 L98.40490718072333,-119.71318644189037 L98.37325961932612,-119.75942293544927 L98.33890897594856,-119.80222799851423 L98.30193800429929,-119.84149850993906 L98.26243577068728,-119.87713986362203 L98.2204974394533,-119.90906619642033 L98.17622404371066,-119.9372005950018 " />
			<path d="M98.17622404371065,-119.9372005950018 L98.12972224194758,-119.96147528113599 L98.08110406107758,-119.9818317749778 L98.03048662655686,-119.99822103595054 L97.97799188021872,-120.010603580889 L97.92374628650508,-120.01894957915782 L97.86788052780257,-120.02323892451618 L97.81052918961714,-120.02346128355538 L97.75183043634588,-120.01961612059304 L97.69192567842683,-120.01171269896352 L97.63095923166883,-119.9997700587018 L97.56907796958217,-119.9838169706743 L97.50643096954737,-119.9638918672674 L97.44316915367475,-119.94004274980048 L97.37944492521981,-119.91232707288641 L97.3154118014305,-119.88081160601851 L97.25122404371065,-119.84557227271688 L97.1870362859908,-119.80669396762205 L97.12300316220148,-119.76427035197632 L97.05927893374655,-119.71840362798567 L96.99601711787393,-119.66920429260563 L96.93337011783913,-119.61679087134449 L96.87148885575247,-119.56128963272494 L96.81052240899447,-119.50283428409215 L96.75061765107542,-119.44156564950104 L96.69191889780416,-119.37763133045887 L96.63456755961873,-119.31118535034018 L96.57870180091622,-119.24238778333107 L96.52445620720258,-119.1714043687964 L96.47196146086443,-119.09840611199921 L96.42134402634372,-119.023568872134 L96.37272584547372,-118.94707293866661 L96.32622404371065,-118.86910259700099 L96.281950647968,-118.7898456845196 L96.24001231673402,-118.7094931380667 L96.20051008312201,-118.62823853396476 L96.16353911147274,-118.54627762167212 L96.12918846809518,-118.4638078522054 L96.09754090669797,-118.38102790246278 L96.06867266902856,-118.29813719659383 L96.0426533012,-118.21533542556935 L96.01954548614846,-118.13282206610835 L95.99940489262437,-118.05079590012105 L95.98228004108167,-117.96945453582599 L95.96821218678767,-117.8889939316944 L95.95723522043555,-117.80960792436915 L95.94937558649875,-117.73148776169528 L95.94465221952382,-117.6548216419872 L95.94307649851554,-117.57979426064244 L95.94465221952382,-117.50658636519428 L95.94937558649875,-117.43537431987511 L95.95723522043555,-117.36632968073954 L95.96821218678767,-117.29961878237084 L95.98228004108167,-117.23540233716638 L95.99940489262437,-117.17383504816733 L96.01954548614846,-117.11506523636558 L96.0426533012,-117.05923448338535 L96.06867266902856,-117.0064772904008 L96.09754090669797,-116.9569207541108 L96.12918846809518,-116.9106842605519 L96.16353911147274,-116.86787919748694 L96.20051008312201,-116.82860868606211 L96.24001231673402,-116.79296733237913 L96.281950647968,-116.76104099958084 L96.32622404371065,-116.73290660099937 " />
			<path d="M96.32622404371065,-116.73290660099937 L96.36089751918718,-116.71433537992846 L96.39677759261255,-116.69796060614254 L96.43381563820532,-116.68380447123982 L96.47196146086443,-116.67188616005063 L96.51116336419528,-116.66222182463765 L96.55136822057011,-116.65482456240615 L96.59252154312834,-116.64970439835388 L96.63456755961873,-116.64686827148499 L96.67744928798376,-116.64632002540606 L96.72110861358338,-116.64806040311703 L96.76548636795381,-116.65208704600441 L96.81052240899447,-116.65839449703765 L96.85615570247438,-116.66697420816467 L96.90232440474765,-116.67781455189652 L96.94896594656586,-116.69090083706521 L96.99601711787393,-116.70621532873376 L97.09109281944312,-116.74344292127897 L97.1870362859908,-116.78929558998266 L97.28332759155897,-116.84352485526031 L97.37944492521981,-116.90583684402485 L97.47486741881436,-116.97589388221024 L97.56907796958217,-117.05331632465668 L97.66156604238599,-117.13768461244044 L97.75183043634588,-117.22854154650013 L97.83938200089024,-117.325394765238 L97.92374628650508,-117.4277194126701 L98.00446611581714,-117.53496098266632 L98.08110406107758,-117.64653832386715 L98.15324481462095,-117.76184678899328 L98.2204974394533,-117.88026151148156 L98.28249748777372,-118.00114079169107 L98.33890897594856,-118.12382957432905 L98.38942620523571,-118.2476629982523 L98.43377541839274,-118.37196999940734 L98.47171628319103,-118.49607694738462 L98.50304319479693,-118.61931129588011 L98.5275863899622,-118.74100522728196 L98.54521286698575,-118.86049927163202 L98.5558271064614,-118.97714588035068 L98.55937158890576,-119.09031293535871 " />
			<path d="M42.69793587516849,-86.83869798871353 L42.69636015416021,-86.9119058841617 L42.69163678718528,-86.98311792948087 L42.68377715324848,-87.05216256861644 L42.67280018689637,-87.11887346698514 L42.65873233260236,-87.1830899121896 L42.64160748105965,-87.24465720118864 L42.621466887535576,-87.3034270129904 L42.59835907248403,-87.35925776597063 L42.57233970465548,-87.41201495895517 L42.54347146698605,-87.46157149524518 L42.51182390558885,-87.50780798880407 L42.477473262211284,-87.55061305186904 L42.44050229056201,-87.58988356329387 L42.401000056950004,-87.62552491697684 L42.359061725716025,-87.65745124977514 L42.31478832997339,-87.68558564835661 " />
			<path d="M42.314788329973375,-87.68558564835661 L42.268286528210304,-87.7098603344908 L42.21966834734032,-87.73021682833262 L42.16905091281959,-87.74660608930535 L42.116556166481445,-87.7589886342438 L42.062310572767814,-87.76733463251263 L42.00644481406529,-87.77162397787099 L41.94909347587987,-87.77184633691019 L41.89039472260861,-87.76800117394785 L41.830489964689555,-87.76009775231833 L41.76952351793156,-87.74815511205661 L41.7076422558449,-87.7322020240291 L41.6449952558101,-87.71227692062222 L41.58173343993747,-87.68842780315529 L41.518009211482536,-87.66071212624122 L41.45397608769322,-87.62919665937332 L41.38978832997338,-87.59395732607169 L41.325600572253535,-87.55507902097686 L41.26156744846422,-87.51265540533113 L41.19784322000928,-87.46678868134047 L41.134581404136654,-87.41758934596044 L41.07193440410185,-87.3651759246993 L41.010053142015195,-87.30967468607975 L40.9490866952572,-87.25121933744695 L40.889181937338144,-87.18995070285585 L40.830483184066885,-87.12601638381368 L40.773131845881466,-87.05957040369499 L40.71726608717894,-86.99077283668588 L40.66302049346531,-86.91978942215121 L40.61052574712716,-86.84679116535402 L40.55990831260644,-86.77195392548882 L40.51129013173645,-86.69545799202142 L40.46478832997338,-86.6174876503558 L40.42051493423073,-86.53823073787441 L40.37857660299675,-86.45787819142151 L40.33907436938475,-86.37662358731957 L40.30210339773547,-86.29466267502693 L40.26775275435791,-86.21219290556022 L40.23610519296071,-86.12941295581759 L40.20723695529128,-86.04652224994864 L40.181217587462726,-85.96372047892416 L40.15810977241118,-85.88120711946316 L40.137969178887104,-85.79918095347585 L40.12084432734439,-85.7178395891808 L40.10677647305039,-85.63737898504921 L40.09579950669828,-85.55799297772396 L40.087939872761474,-85.47987281505009 L40.083216505786545,-85.403206695342 L40.081640784778266,-85.32817931399725 L40.083216505786545,-85.25497141854909 L40.087939872761474,-85.18375937322992 L40.09579950669828,-85.11471473409435 L40.10677647305039,-85.04800383572565 L40.12084432734439,-84.98378739052119 L40.137969178887104,-84.92222010152214 L40.15810977241118,-84.86345028972039 L40.181217587462726,-84.80761953674016 L40.20723695529128,-84.7548623437556 L40.23610519296071,-84.7053058074656 L40.26775275435791,-84.65906931390671 L40.30210339773547,-84.61626425084175 L40.33907436938475,-84.57699373941692 L40.37857660299675,-84.54135238573394 L40.42051493423073,-84.50942605293565 L40.46478832997337,-84.48129165435418 " />
			<path d="M40.46478832997338,-84.48129165435418 L40.49946180544991,-84.46272043328327 L40.53534187887528,-84.44634565949735 L40.57237992446804,-84.43218952459463 L40.61052574712716,-84.42027121340544 L40.649727650458004,-84.41060687799246 L40.68993250683285,-84.40320961576096 L40.73108582939106,-84.39808945170869 L40.773131845881466,-84.3952533248398 L40.81601357424649,-84.39470507876086 L40.85967289984611,-84.39644545647184 L40.90405065421654,-84.40047209935922 L40.9490866952572,-84.40677955039246 L40.99471998873711,-84.41535926151948 L41.04088869101037,-84.42619960525133 L41.08753023282859,-84.43928589042002 L41.134581404136654,-84.45460038208857 L41.22965710570585,-84.49182797463378 L41.325600572253535,-84.53768064333747 L41.4218918778217,-84.59190990861512 L41.518009211482536,-84.65422189737966 L41.61343170507708,-84.72427893556505 L41.7076422558449,-84.80170137801149 L41.80013032864872,-84.88606966579525 L41.89039472260861,-84.97692659985493 L41.97794628715296,-85.07377981859281 L42.062310572767814,-85.17610446602491 L42.14303040207987,-85.28334603602113 L42.21966834734032,-85.39492337722196 L42.291809100883675,-85.51023184234809 L42.359061725716025,-85.62864656483637 L42.42106177403646,-85.74952584504588 L42.477473262211284,-85.87221462768386 L42.52799049149844,-85.9960480516071 L42.57233970465548,-86.12035505276215 L42.61028056945376,-86.24446200073943 L42.64160748105965,-86.36769634923492 L42.66615067622492,-86.48939028063677 L42.68377715324848,-86.60888432498683 L42.69439139272412,-86.72553093370549 L42.69793587516849,-86.83869798871352 " />
			<path d="M38.97557476760027,-81.90189810100334 L38.934489257446224,-81.92765337043258 L38.89523810095161,-81.95641506866515 L38.85789045718344,-81.98813251866649 L38.822512131290594,-82.02274983547811 L38.7891654585577,-82.06020602468492 L38.75790919457259,-82.10043508988501 L38.72879841170125,-82.1433661489729 L38.70188440205231,-82.18892355903108 " />
			<path d="M98.55937158890576,-194.20799838070954 L98.55779586789748,-194.2812062761577 L98.55307250092255,-194.35241832147688 L98.54521286698575,-194.42146296061244 L98.53423590063363,-194.48817385898113 L98.52016804633963,-194.5523903041856 L98.50304319479693,-194.61395759318464 L98.48290260127284,-194.6727274049864 L98.4597947862213,-194.7285581579666 L98.43377541839274,-194.78131535095116 L98.40490718072333,-194.8308718872412 L98.37325961932612,-194.87710838080008 L98.33890897594856,-194.91991344386503 L98.30193800429929,-194.95918395528986 L98.26243577068728,-194.99482530897282 L98.2204974394533,-195.0267516417711 L98.17622404371066,-195.05488604035259 " />
			<path d="M98.17622404371065,-195.05488604035259 L98.12972224194758,-195.0791607264868 L98.08110406107758,-195.0995172203286 L98.03048662655686,-195.11590648130135 L97.97799188021872,-195.1282890262398 L97.92374628650508,-195.13663502450862 L97.86788052780257,-195.14092436986698 L97.81052918961714,-195.1411467289062 L97.75183043634588,-195.13730156594383 L97.69192567842683,-195.12939814431434 L97.63095923166883,-195.1174555040526 L97.56907796958217,-195.10150241602508 L97.50643096954737,-195.0815773126182 L97.44316915367475,-195.05772819515127 L97.37944492521981,-195.0300125182372 L97.3154118014305,-194.9984970513693 L97.25122404371065,-194.96325771806767 L97.1870362859908,-194.92437941297285 L97.12300316220148,-194.88195579732712 L97.05927893374655,-194.83608907333647 L96.99601711787393,-194.78688973795644 L96.93337011783913,-194.7344763166953 L96.87148885575247,-194.67897507807575 L96.81052240899447,-194.62051972944295 L96.75061765107542,-194.55925109485185 L96.69191889780416,-194.49531677580967 L96.63456755961873,-194.42887079569098 L96.57870180091622,-194.36007322868187 L96.52445620720258,-194.2890898141472 L96.47196146086443,-194.21609155735 L96.42134402634372,-194.14125431748482 L96.37272584547372,-194.0647583840174 L96.32622404371065,-193.98678804235178 L96.281950647968,-193.9075311298704 L96.24001231673402,-193.82717858341752 L96.20051008312201,-193.74592397931556 L96.16353911147274,-193.66396306702293 L96.12918846809518,-193.58149329755622 L96.09754090669797,-193.49871334781358 L96.06867266902856,-193.41582264194463 L96.0426533012,-193.33302087092017 L96.01954548614846,-193.25050751145915 L95.99940489262437,-193.16848134547186 L95.98228004108167,-193.0871399811768 L95.96821218678767,-193.0066793770452 L95.95723522043555,-192.92729336971996 L95.94937558649875,-192.84917320704608 L95.94465221952382,-192.772507087338 L95.94307649851554,-192.69747970599323 L95.94465221952382,-192.62427181054508 L95.94937558649875,-192.5530597652259 L95.95723522043555,-192.48401512609033 L95.96821218678767,-192.41730422772164 L95.98228004108167,-192.35308778251718 L95.99940489262437,-192.29152049351814 L96.01954548614846,-192.23275068171637 L96.0426533012,-192.17691992873617 L96.06867266902856,-192.1241627357516 L96.09754090669797,-192.07460619946158 L96.12918846809518,-192.0283697059027 L96.16353911147274,-191.98556464283774 L96.20051008312201,-191.9462941314129 L96.24001231673402,-191.91065277772995 L96.281950647968,-191.87872644493166 L96.32622404371065,-191.8505920463502 " />
			<path d="M96.32622404371065,-191.8505920463502 L96.36089751918718,-191.83202082527924 L96.39677759261255,-191.81564605149336 L96.43381563820532,-191.8014899165906 L96.47196146086443,-191.78957160540142 L96.51116336419528,-191.77990726998846 L96.55136822057011,-191.77251000775695 L96.59252154312834,-191.76738984370468 L96.63456755961873,-191.7645537168358 L96.67744928798376,-191.76400547075684 L96.72110861358338,-191.76574584846782 L96.76548636795381,-191.7697724913552 L96.81052240899447,-191.77607994238844 L96.85615570247438,-191.78465965351546 L96.90232440474765,-191.79549999724733 L96.94896594656586,-191.80858628241603 L96.99601711787393,-191.82390077408456 L97.09109281944312,-191.86112836662977 L97.1870362859908,-191.90698103533347 L97.28332759155897,-191.96121030061113 L97.37944492521981,-192.02352228937565 L97.47486741881436,-192.09357932756106 L97.56907796958217,-192.17100177000748 L97.66156604238599,-192.25537005779123 L97.75183043634588,-192.34622699185093 L97.83938200089024,-192.4430802105888 L97.92374628650508,-192.5454048580209 L98.00446611581714,-192.65264642801714 L98.08110406107758,-192.76422376921795 L98.15324481462095,-192.87953223434408 L98.2204974394533,-192.99794695683238 L98.28249748777372,-193.11882623704187 L98.33890897594856,-193.24151501967984 L98.38942620523571,-193.3653484436031 L98.43377541839274,-193.48965544475814 L98.47171628319103,-193.61376239273542 L98.50304319479693,-193.7369967412309 L98.5275863899622,-193.85869067263278 L98.54521286698575,-193.9781847169828 L98.5558271064614,-194.09483132570148 L98.55937158890576,-194.2079983807095 " />
			<path d="M98.66543760608374,-197.53522194799 L98.73482977659168,-197.5733185245323 L98.80405477528284,-197.60738929952464 L98.87294583307195,-197.6373521934858 L98.94133698536669,-197.6631350231798 L99.00906347189078,-197.68467567551156 L99.0759621336061,-197.7019222571629 L99.1418718057769,-197.714833219608 L99.20663370622994,-197.72337745920748 L99.27009181787454,-197.72753439213975 L99.33209326456148,-197.72729400398924 L99.39248867937502,-197.72265687387213 L99.45113256447084,-197.71363417304096 L99.50788364159315,-197.70024763797235 L99.56260519242637,-197.68252951800181 L99.6151653879615,-197.66052249763231 L99.66543760608373,-197.63427959370344 " />
			<path d="M38.70188440205219,-161.99191507634796 L38.74804331421176,-162.11980294430825 L38.800227868820734,-162.2471892252811 L38.85818190505602,-162.37344861212677 L38.92162094116371,-162.4979613293447 L38.99023357090824,-162.6201161753951 L39.06368299218714,-162.73931352293351 L39.14160866030763,-162.85496826222993 L39.22362805780963,-162.9665126733252 L39.309338572147524,-163.07339921282514 L39.398319472013675,-163.17510320165297 L39.49013397260234,-163.27112540056663 L39.58433137967615,-163.36099446079845 L39.68044930191055,-163.44426923778738 L39.77801592065618,-163.52054095664633 L39.87655230597774,-163.58943521873522 L39.97557476760027,-163.65061383948938 " />
			<path d="M42.69793587516849,-161.95638343406435 L42.69636015416021,-162.0295913295125 L42.69163678718528,-162.10080337483168 L42.68377715324848,-162.16984801396725 L42.67280018689637,-162.23655891233594 L42.65873233260236,-162.3007753575404 L42.64160748105965,-162.36234264653945 L42.621466887535576,-162.4211124583412 L42.59835907248403,-162.4769432113214 L42.57233970465548,-162.52970040430597 L42.54347146698605,-162.579256940596 L42.51182390558885,-162.6254934341549 L42.477473262211284,-162.66829849721984 L42.44050229056201,-162.70756900864467 L42.401000056950004,-162.74321036232763 L42.359061725716025,-162.77513669512592 L42.31478832997339,-162.8032710937074 " />
			<path d="M42.314788329973375,-162.8032710937074 L42.268286528210304,-162.8275457798416 L42.21966834734032,-162.84790227368342 L42.16905091281959,-162.86429153465616 L42.116556166481445,-162.8766740795946 L42.062310572767814,-162.88502007786343 L42.00644481406529,-162.8893094232218 L41.94909347587987,-162.889531782261 L41.89039472260861,-162.88568661929864 L41.830489964689555,-162.87778319766915 L41.76952351793156,-162.8658405574074 L41.7076422558449,-162.8498874693799 L41.6449952558101,-162.82996236597302 L41.58173343993747,-162.80611324850608 L41.518009211482536,-162.77839757159202 L41.45397608769322,-162.7468821047241 L41.38978832997338,-162.71164277142248 L41.325600572253535,-162.67276446632766 L41.26156744846422,-162.63034085068193 L41.19784322000928,-162.58447412669128 L41.134581404136654,-162.53527479131125 L41.07193440410185,-162.4828613700501 L41.010053142015195,-162.42736013143056 L40.9490866952572,-162.36890478279776 L40.889181937338144,-162.30763614820665 L40.830483184066885,-162.24370182916448 L40.773131845881466,-162.1772558490458 L40.71726608717894,-162.10845828203668 L40.66302049346531,-162.037474867502 L40.61052574712716,-161.96447661070482 L40.55990831260644,-161.88963937083963 L40.51129013173645,-161.81314343737222 L40.46478832997338,-161.73517309570659 L40.42051493423073,-161.6559161832252 L40.37857660299675,-161.57556363677233 L40.33907436938475,-161.49430903267037 L40.30210339773547,-161.41234812037774 L40.26775275435791,-161.32987835091103 L40.23610519296071,-161.2470984011684 L40.20723695529128,-161.16420769529944 L40.181217587462726,-161.08140592427497 L40.15810977241118,-160.99889256481396 L40.137969178887104,-160.91686639882667 L40.12084432734439,-160.8355250345316 L40.10677647305039,-160.7550644304 L40.09579950669828,-160.67567842307477 L40.087939872761474,-160.5975582604009 L40.083216505786545,-160.5208921406928 L40.081640784778266,-160.44586475934804 L40.083216505786545,-160.3726568638999 L40.087939872761474,-160.3014448185807 L40.09579950669828,-160.23240017944514 L40.10677647305039,-160.16568928107645 L40.12084432734439,-160.101472835872 L40.137969178887104,-160.03990554687294 L40.15810977241118,-159.98113573507118 L40.181217587462726,-159.92530498209098 L40.20723695529128,-159.87254778910642 L40.23610519296071,-159.8229912528164 L40.26775275435791,-159.7767547592575 L40.30210339773547,-159.73394969619255 L40.33907436938475,-159.69467918476772 L40.37857660299675,-159.65903783108476 L40.42051493423073,-159.62711149828647 L40.46478832997337,-159.598977099705 " />
			<path d="M40.46478832997338,-159.598977099705 L40.49946180544991,-159.58040587863405 L40.53534187887528,-159.56403110484817 L40.57237992446804,-159.54987496994542 L40.61052574712716,-159.53795665875623 L40.649727650458004,-159.52829232334327 L40.68993250683285,-159.52089506111176 L40.73108582939106,-159.5157748970595 L40.773131845881466,-159.5129387701906 L40.81601357424649,-159.51239052411165 L40.85967289984611,-159.51413090182263 L40.90405065421654,-159.51815754471002 L40.9490866952572,-159.52446499574324 L40.99471998873711,-159.53304470687027 L41.04088869101037,-159.54388505060214 L41.08753023282859,-159.55697133577084 L41.134581404136654,-159.57228582743937 L41.22965710570585,-159.60951341998458 L41.325600572253535,-159.65536608868828 L41.4218918778217,-159.70959535396594 L41.518009211482536,-159.77190734273046 L41.61343170507708,-159.84196438091587 L41.7076422558449,-159.9193868233623 L41.80013032864872,-160.00375511114603 L41.89039472260861,-160.09461204520574 L41.97794628715296,-160.1914652639436 L42.062310572767814,-160.2937899113757 L42.14303040207987,-160.40103148137194 L42.21966834734032,-160.51260882257276 L42.291809100883675,-160.6279172876989 L42.359061725716025,-160.7463320101872 L42.42106177403646,-160.86721129039668 L42.477473262211284,-160.98990007303465 L42.52799049149844,-161.1137334969579 L42.57233970465548,-161.23804049811295 L42.61028056945376,-161.36214744609023 L42.64160748105965,-161.48538179458572 L42.66615067622492,-161.60707572598758 L42.68377715324848,-161.72656977033762 L42.69439139272412,-161.8432163790563 L42.69793587516849,-161.95638343406432 " />
			<path d="M96.32622404371064,-116.73290660099937 L92.7906901377779,-118.77414805331868 " />
			<path d="M98.17622404371065,-119.9372005950018 L94.64069013777791,-121.97844204732111 " />
			<path d="M40.46478832997337,-84.4812916543542 L36.929254424040636,-86.5225331066735 " />
			<path d="M42.314788329973375,-87.68558564835661 L38.77925442404064,-89.72682710067592 " />
			<path d="M96.32622404371064,-191.85059204635016 L92.7906901377779,-193.89183349866948 " />
			<path d="M98.17622404371065,-195.0548860403526 L94.64069013777791,-197.09612749267194 " />
			<path d="M40.46478832997337,-159.598977099705 L36.929254424040636,-161.64021855202432 " />
			<path d="M42.314788329973375,-162.80327109370742 L38.77925442404064,-164.84451254602675 " />

       </g>

       <!-- solid lines -->
       <g  stroke="rgb(0,0,0)" fill="none">
			<path d="M81.49547074531199,-200.099837708684 L30.23022910928728,-170.50183665005392 " />
			<path d="M81.49547074531199,-198.8750928372924 L81.49547074531199,-200.099837708684 " />
			<path d="M30.230229109287272,-169.27709177866234 L81.49547074531199,-198.8750928372924 " />
			<path d="M30.23022910928728,-170.5018366500539 L30.23022910928728,-169.2770917786623 " />
			<path d="M25.244228142509847,-160.68294671181957 L86.4814717120894,-196.038285771147 " />
			<path d="M25.24422814250991,-161.9076915832112 L25.24422814250991,-160.68294671181962 " />
			<path d="M86.48147171208942,-197.26303064253858 L25.244228142509854,-161.90769158321115 " />
			<path d="M86.4814717120894,-196.038285771147 L86.4814717120894,-197.26303064253858 " />
			<path d="M86.48147171208942,-191.54755457604452 L25.244228142509925,-156.1922155167171 " />
			<path d="M86.4814717120894,-190.3228097046529 L86.4814717120894,-191.5475545760445 " />
			<path d="M25.244228142509925,-154.9674706453255 L86.4814717120894,-190.3228097046529 " />
			<path d="M25.244228142509915,-156.1922155167171 L25.244228142509915,-154.96747064532553 " />
			<path d="M25.244228142509925,-149.25199457883144 L86.4814717120894,-184.60733363815885 " />
			<path d="M25.244228142509918,-150.47673945022305 L25.244228142509918,-149.25199457883147 " />
			<path d="M86.48147171208942,-185.83207850955043 L25.244228142509925,-150.47673945022302 " />
			<path d="M86.4814717120894,-184.60733363815885 L86.4814717120894,-185.83207850955043 " />
			<path d="M86.48147171208942,-180.11660244305634 L25.244228142509925,-144.76126338372893 " />
			<path d="M86.4814717120894,-178.89185757166476 L86.4814717120894,-180.11660244305634 " />
			<path d="M25.244228142509925,-143.53651851233735 L86.4814717120894,-178.89185757166476 " />
			<path d="M25.24422814250992,-144.76126338372896 L25.24422814250992,-143.53651851233738 " />
			<path d="M25.244228142509925,-137.82104244584326 L86.4814717120894,-173.17638150517067 " />
			<path d="M25.244228142509925,-139.0457873172349 L25.244228142509925,-137.8210424458433 " />
			<path d="M86.48147171208942,-174.40112637656225 L25.244228142509925,-139.04578731723484 " />
			<path d="M86.4814717120894,-173.17638150517067 L86.4814717120894,-174.40112637656227 " />
			<path d="M86.4814717120894,-168.6856503100682 L25.244228142509925,-133.3303112507408 " />
			<path d="M86.48147171208942,-167.4609054386766 L86.48147171208942,-168.68565031006818 " />
			<path d="M25.244228142509925,-132.10556637934917 L86.4814717120894,-167.46090543867658 " />
			<path d="M25.24422814250993,-133.3303112507408 L25.244228142509932,-132.10556637934923 " />
			<path d="M25.244228142509925,-126.39009031285512 L86.4814717120894,-161.7454293721825 " />
			<path d="M25.244228142509936,-127.61483518424673 L25.244228142509936,-126.39009031285514 " />
			<path d="M86.4814717120894,-162.97017424357412 L25.244228142509925,-127.61483518424672 " />
			<path d="M86.48147171208942,-161.7454293721825 L86.48147171208942,-162.9701742435741 " />
			<path d="M86.4814717120894,-157.25469817708003 L25.244228142509925,-121.89935911775262 " />
			<path d="M86.48147171208942,-156.02995330568842 L86.48147171208942,-157.25469817708003 " />
			<path d="M25.244228142509925,-120.67461424636103 L86.4814717120894,-156.02995330568842 " />
			<path d="M25.24422814250994,-121.89935911775265 L25.24422814250994,-120.67461424636106 " />
			<path d="M25.244228142509925,-114.95913817986694 L86.4814717120894,-150.31447723919433 " />
			<path d="M25.244228142509943,-116.18388305125856 L25.244228142509943,-114.95913817986698 " />
			<path d="M86.4814717120894,-151.53922211058594 L25.244228142509925,-116.18388305125855 " />
			<path d="M86.48147171208942,-150.31447723919436 L86.48147171208942,-151.53922211058594 " />
			<path d="M86.4814717120894,-145.82374604409185 L25.244228142509925,-110.46840698476446 " />
			<path d="M86.48147171208942,-144.59900117270027 L86.48147171208942,-145.82374604409188 " />
			<path d="M25.244228142509925,-109.24366211337285 L86.4814717120894,-144.59900117270024 " />
			<path d="M25.244228142509947,-110.46840698476448 L25.244228142509947,-109.24366211337289 " />
			<path d="M25.244228142509925,-103.52818604687879 L86.4814717120894,-138.88352510620618 " />
			<path d="M25.24422814250995,-104.75293091827041 L25.244228142509954,-103.52818604687882 " />
			<path d="M86.4814717120894,-140.10826997759779 L25.244228142509925,-104.75293091827038 " />
			<path d="M86.48147171208943,-138.8835251062062 L86.48147171208943,-140.10826997759779 " />
			<path d="M86.4814717120894,-134.3927939111037 L25.24422814250992,-99.03745485177629 " />
			<path d="M86.48147171208943,-133.16804903971212 L86.48147171208943,-134.3927939111037 " />
			<path d="M25.244228142509932,-97.81270998038471 L86.4814717120894,-133.1680490397121 " />
			<path d="M25.244228142509954,-99.03745485177632 L25.244228142509957,-97.81270998038474 " />
			<path d="M30.230229109287272,-94.97590291423927 L81.49547074531199,-124.57390397286935 " />
			<path d="M30.23022910928728,-96.20064778563085 L30.23022910928728,-94.97590291423927 " />
			<path d="M81.49547074531199,-125.79864884426092 L30.23022910928728,-96.20064778563085 " />
			<path d="M81.49547074531199,-124.57390397286933 L81.49547074531199,-125.79864884426092 " />
			<path d="M81.49547074531199,-122.94091081101388 L30.23022910928728,-93.3429097523838 " />
			<path d="M81.49547074531199,-121.71616593962229 L81.49547074531199,-122.94091081101388 " />
			<path d="M30.230229109287272,-92.11816488099223 L81.49547074531199,-121.7161659396223 " />
			<path d="M30.23022910928728,-93.3429097523838 L30.23022910928728,-92.11816488099223 " />
			<path d="M86.48147171208939,-131.53505587785662 L25.244228142509925,-96.17971681852924 " />
			<path d="M86.48147171208943,-130.31031100646507 L86.48147171208943,-131.53505587785665 " />
			<path d="M25.244228142509925,-94.95497194713765 L86.4814717120894,-130.31031100646504 " />
			<path d="M25.244228142509957,-96.17971681852929 L25.244228142509957,-94.9549719471377 " />
			<path d="M25.244228142509925,-100.67044801363174 L86.4814717120894,-136.02578707295913 " />
			<path d="M25.244228142509954,-101.89519288502336 L25.244228142509954,-100.67044801363178 " />
			<path d="M86.4814717120894,-137.25053194435074 L25.244228142509925,-101.89519288502333 " />
			<path d="M86.48147171208943,-136.02578707295913 L86.48147171208943,-137.25053194435074 " />
			<path d="M86.4814717120894,-142.96600801084483 L25.244228142509925,-107.61066895151743 " />
			<path d="M86.48147171208943,-141.74126313945322 L86.48147171208943,-142.9660080108448 " />
			<path d="M25.244228142509925,-106.38592408012583 L86.4814717120894,-141.74126313945322 " />
			<path d="M25.24422814250995,-107.61066895151745 L25.24422814250995,-106.38592408012585 " />
			<path d="M25.244228142509925,-112.1014001466199 L86.4814717120894,-147.4567392059473 " />
			<path d="M25.244228142509947,-113.32614501801153 L25.244228142509947,-112.10140014661994 " />
			<path d="M86.4814717120894,-148.6814840773389 L25.244228142509925,-113.3261450180115 " />
			<path d="M86.48147171208942,-147.45673920594731 L86.48147171208942,-148.6814840773389 " />
			<path d="M86.4814717120894,-154.39696014383298 L25.244228142509925,-119.04162108450558 " />
			<path d="M86.48147171208942,-153.1722152724414 L86.48147171208942,-154.39696014383298 " />
			<path d="M25.244228142509925,-117.81687621311399 L86.4814717120894,-153.17221527244138 " />
			<path d="M25.24422814250994,-119.0416210845056 L25.244228142509943,-117.81687621311401 " />
			<path d="M25.244228142509925,-123.53235227960808 L86.4814717120894,-158.88769133893547 " />
			<path d="M25.244228142509936,-124.75709715099968 L25.244228142509936,-123.53235227960809 " />
			<path d="M86.4814717120894,-160.11243621032708 L25.244228142509925,-124.75709715099967 " />
			<path d="M86.48147171208942,-158.88769133893547 L86.48147171208942,-160.11243621032708 " />
			<path d="M86.4814717120894,-165.82791227682117 L25.244228142509925,-130.47257321749376 " />
			<path d="M86.48147171208942,-164.60316740542956 L86.48147171208942,-165.82791227682114 " />
			<path d="M25.244228142509925,-129.24782834610212 L86.4814717120894,-164.60316740542953 " />
			<path d="M25.244228142509932,-130.47257321749376 L25.244228142509932,-129.24782834610218 " />
			<path d="M25.244228142509925,-134.96330441259622 L86.4814717120894,-170.31864347192362 " />
			<path d="M25.24422814250993,-136.18804928398785 L25.24422814250993,-134.96330441259627 " />
			<path d="M86.48147171208942,-171.54338834331523 L25.244228142509925,-136.18804928398782 " />
			<path d="M86.48147171208942,-170.31864347192365 L86.4814717120894,-171.54338834331523 " />
			<path d="M86.48147171208942,-177.25886440980932 L25.244228142509925,-141.9035253504819 " />
			<path d="M86.4814717120894,-176.0341195384177 L86.4814717120894,-177.25886440980932 " />
			<path d="M25.244228142509925,-140.6787804790903 L86.4814717120894,-176.0341195384177 " />
			<path d="M25.244228142509925,-141.90352535048194 L25.244228142509925,-140.67878047909034 " />
			<path d="M25.244228142509925,-146.3942565455844 L86.4814717120894,-181.7495956049118 " />
			<path d="M25.244228142509918,-147.619001416976 L25.24422814250992,-146.39425654558443 " />
			<path d="M86.48147171208942,-182.9743404763034 L25.244228142509925,-147.619001416976 " />
			<path d="M86.4814717120894,-181.7495956049118 L86.4814717120894,-182.97434047630338 " />
			<path d="M86.48147171208942,-188.68981654279744 L25.244228142509925,-153.33447748347004 " />
			<path d="M86.4814717120894,-187.46507167140587 L86.4814717120894,-188.68981654279747 " />
			<path d="M25.244228142509925,-152.10973261207846 L86.4814717120894,-187.46507167140587 " />
			<path d="M25.244228142509915,-153.33447748347007 L25.244228142509918,-152.1097326120785 " />
			<path d="M25.244228142509925,-157.82520867857255 L86.4814717120894,-193.18054773789996 " />
			<path d="M25.24422814250991,-159.04995354996416 L25.24422814250991,-157.82520867857258 " />
			<path d="M86.48147171208942,-194.40529260929154 L25.244228142509854,-159.0499535499641 " />
			<path d="M86.4814717120894,-193.18054773789996 L86.4814717120894,-194.40529260929154 " />
			<path d="M86.4814717120894,-200.12076867578563 L25.244228142509918,-164.76542961645822 " />
			<path d="M86.4814717120894,-198.89602380439402 L86.48147171208939,-200.12076867578563 " />
			<path d="M25.244228142509925,-163.5406847450666 L86.4814717120894,-198.89602380439402 " />
			<path d="M25.244228142509908,-164.76542961645825 L25.244228142509908,-163.54068474506664 " />
			<path d="M30.230229109287272,-172.13482981190938 L81.49547074531199,-201.73283087053946 " />
			<path d="M30.23022910928728,-173.35957468330093 L30.23022910928728,-172.13482981190936 " />
			<path d="M81.49547074531199,-202.95757574193104 L30.23022910928728,-173.35957468330096 " />
			<path d="M81.49547074531199,-201.73283087053946 L81.49547074531199,-202.95757574193104 " />
			<path d="M81.49547074531199,-200.099837708684 L83.97034447946491,-198.67096869206048 " />
			<path d="M82.90968430768511,-198.0585962563647 L81.49547074531199,-198.8750928372924 " />
			<path d="M96.40359406569904,-190.30974575935807 L86.4814717120894,-196.038285771147 " />
			<path d="M96.40359406569904,-190.3097457593581 L94.98938050332593,-189.49324917843037 " />
			<path d="M25.244228142509925,-160.68294671181962 L26.65844170488304,-159.86645013089188 " />
			<path d="M86.4814717120894,-191.54755457604455 L96.40359406569904,-185.8190145642556 " />
			<path d="M96.40359406569904,-178.87879362636994 L86.4814717120894,-184.60733363815888 " />
			<path d="M96.40359406569904,-178.87879362636994 L94.98938050332596,-178.06229704544222 " />
			<path d="M25.244228142509925,-149.2519945788315 L26.65844170488304,-148.43549799790375 " />
			<path d="M86.4814717120894,-180.11660244305637 L96.40359406569904,-174.38806243126743 " />
			<path d="M96.40359406569904,-167.44784149338176 L86.4814717120894,-173.1763815051707 " />
			<path d="M96.40359406569904,-167.44784149338176 L94.98938050332596,-166.63134491245404 " />
			<path d="M25.244228142509925,-137.82104244584332 L26.65844170488304,-137.00454586491557 " />
			<path d="M86.4814717120894,-168.68565031006818 L96.40359406569904,-162.95711029827925 " />
			<path d="M96.40359406569904,-156.01688936039358 L86.4814717120894,-161.7454293721825 " />
			<path d="M96.40359406569904,-156.0168893603936 L94.98938050332593,-155.2003927794659 " />
			<path d="M25.244228142509925,-126.39009031285512 L26.658441704883025,-125.5735937319274 " />
			<path d="M86.4814717120894,-157.25469817708006 L96.40359406569904,-151.52615816529112 " />
			<path d="M96.40359406569904,-144.58593722740545 L86.4814717120894,-150.3144772391944 " />
			<path d="M96.40359406569904,-144.58593722740545 L94.9893805033259,-143.7694406464777 " />
			<path d="M25.244228142509925,-114.95913817986695 L26.658441704883025,-114.14264159893924 " />
			<path d="M86.4814717120894,-145.82374604409188 L96.40359406569904,-140.09520603230294 " />
			<path d="M96.40359406569904,-133.15498509441727 L86.4814717120894,-138.8835251062062 " />
			<path d="M96.40359406569904,-133.15498509441727 L94.98938050332593,-132.33848851348955 " />
			<path d="M25.244228142509925,-103.52818604687879 L26.658441704883025,-102.71168946595107 " />
			<path d="M86.4814717120894,-134.3927939111037 L96.40359406569904,-128.66425389931476 " />
			<path d="M30.23022910928728,-94.97590291423927 L31.644442671660386,-94.15940633331154 " />
			<path d="M91.41759309892163,-118.84536396108042 L81.49547074531199,-124.57390397286936 " />
			<path d="M91.41759309892163,-118.84536396108042 L90.00337953654852,-118.02886738015269 " />
			<path d="M81.49547074531199,-122.9409108110139 L91.41759309892163,-117.21237079922496 " />
			<path d="M91.41759309892163,-115.98762592783338 L91.41759309892163,-117.21237079922497 " />
			<path d="M91.41759309892163,-115.98762592783338 L81.49547074531199,-121.71616593962231 " />
			<path d="M86.4814717120894,-131.53505587785665 L96.40359406569904,-125.80651586606773 " />
			<path d="M96.40359406569904,-130.2972470611702 L86.4814717120894,-136.02578707295913 " />
			<path d="M96.40359406569904,-130.29724706117022 L94.98938050332593,-129.4807504802425 " />
			<path d="M25.244228142509925,-100.67044801363176 L26.65844170488304,-99.85395143270402 " />
			<path d="M86.4814717120894,-142.9660080108448 L96.40359406569904,-137.23746799905587 " />
			<path d="M96.40359406569904,-141.72819919415838 L86.4814717120894,-147.45673920594731 " />
			<path d="M96.40359406569904,-141.72819919415838 L94.98938050332596,-140.91170261323066 " />
			<path d="M25.244228142509925,-112.10140014661991 L26.658441704883025,-111.28490356569219 " />
			<path d="M86.4814717120894,-154.39696014383298 L96.40359406569904,-148.66842013204405 " />
			<path d="M96.40359406569904,-153.15915132714656 L86.4814717120894,-158.8876913389355 " />
			<path d="M96.40359406569904,-153.15915132714656 L94.98938050332596,-152.34265474621884 " />
			<path d="M25.244228142509925,-123.53235227960808 L26.658441704883025,-122.71585569868036 " />
			<path d="M86.4814717120894,-165.82791227682117 L96.40359406569904,-160.09937226503223 " />
			<path d="M96.40359406569904,-164.59010346013474 L86.4814717120894,-170.31864347192368 " />
			<path d="M96.40359406569904,-164.59010346013474 L94.9893805033259,-163.773606879207 " />
			<path d="M25.244228142509925,-134.96330441259624 L26.658441704883003,-134.14680783166853 " />
			<path d="M86.4814717120894,-177.25886440980935 L96.40359406569904,-171.5303243980204 " />
			<path d="M96.40359406569904,-176.02105559312287 L86.4814717120894,-181.7495956049118 " />
			<path d="M96.40359406569904,-176.0210555931229 L94.98938050332593,-175.20455901219518 " />
			<path d="M25.244228142509925,-146.39425654558443 L26.65844170488304,-145.57775996465668 " />
			<path d="M86.4814717120894,-188.68981654279747 L96.40359406569904,-182.96127653100854 " />
			<path d="M96.40359406569904,-187.45200772611105 L86.4814717120894,-193.18054773789999 " />
			<path d="M96.40359406569904,-187.45200772611105 L94.98938050332596,-186.63551114518333 " />
			<path d="M25.244228142509925,-157.8252086785726 L26.65844170488304,-157.00871209764486 " />
			<path d="M96.40359406569904,-194.39222866399672 L86.4814717120894,-200.12076867578565 " />
			<path d="M25.244228142509925,-154.96747064532553 L26.65844170488304,-154.1509740643978 " />
			<path d="M25.244228142509925,-152.10973261207852 L26.65844170488304,-151.29323603115077 " />
			<path d="M25.244228142509925,-143.5365185123374 L26.65844170488304,-142.72002193140966 " />
			<path d="M25.244228142509925,-140.67878047909034 L26.65844170488304,-139.8622838981626 " />
			<path d="M25.244228142509925,-132.10556637934923 L26.658441704883025,-131.28906979842148 " />
			<path d="M25.244228142509925,-129.24782834610215 L26.658441704883014,-128.43133176517443 " />
			<path d="M25.244228142509925,-120.67461424636103 L26.658441704883025,-119.85811766543331 " />
			<path d="M25.244228142509925,-117.816876213114 L26.658441704883025,-117.00037963218628 " />
			<path d="M25.244228142509925,-109.24366211337286 L26.658441704883014,-108.42716553244514 " />
			<path d="M25.244228142509925,-106.38592408012582 L26.658441704883014,-105.5694274991981 " />
			<path d="M25.244228142509925,-97.81270998038471 L26.65844170488304,-96.99621339945698 " />
			<path d="M35.16635049611956,-89.22643193534874 L25.244228142509925,-94.95497194713766 " />
			<path d="M35.16635049611959,-84.23016501135041 L35.166350496119584,-89.22643193534876 " />
			<path d="M25.244228142509854,-163.54068474506664 L26.65844170488298,-162.7241881641389 " />
			<path d="M30.23022910928728,-172.13482981190938 L31.644442671660396,-171.31833323098166 " />
			<path d="M85.38455804183803,-199.4874652729882 L81.49547074531199,-201.73283087053946 " />
			<path d="M96.40359406569904,-185.8190145642556 L96.40359406569904,-187.45200772611105 " />
			<path d="M96.40359406569904,-174.38806243126746 L96.40359406569904,-176.0210555931229 " />
			<path d="M96.40359406569905,-162.95711029827928 L96.40359406569905,-164.59010346013474 " />
			<path d="M96.40359406569905,-151.5261581652911 L96.40359406569905,-153.15915132714656 " />
			<path d="M96.40359406569905,-140.09520603230294 L96.40359406569905,-141.72819919415838 " />
			<path d="M96.40359406569905,-128.6642538993148 L96.40359406569905,-130.29724706117025 " />
			<path d="M86.4814717120894,-137.25053194435074 L96.40359406569904,-131.5219919325618 " />
			<path d="M96.40359406569905,-131.52199193256183 L96.40359406569905,-133.15498509441727 " />
			<path d="M86.4814717120894,-148.6814840773389 L96.40359406569904,-142.95294406554996 " />
			<path d="M96.40359406569905,-142.95294406554999 L96.40359406569905,-144.58593722740545 " />
			<path d="M86.4814717120894,-160.11243621032708 L96.40359406569904,-154.38389619853814 " />
			<path d="M96.40359406569905,-154.38389619853817 L96.40359406569905,-156.0168893603936 " />
			<path d="M86.4814717120894,-171.54338834331526 L96.40359406569904,-165.81484833152632 " />
			<path d="M96.40359406569905,-165.81484833152632 L96.40359406569905,-167.4478414933818 " />
			<path d="M86.4814717120894,-182.97434047630344 L96.40359406569904,-177.2458004645145 " />
			<path d="M96.40359406569904,-177.2458004645145 L96.40359406569904,-178.87879362636997 " />
			<path d="M86.4814717120894,-194.40529260929156 L96.40359406569904,-188.67675259750263 " />
			<path d="M96.40359406569904,-188.67675259750263 L96.40359406569904,-190.3097457593581 " />
			<path d="M81.49547074531199,-202.95757574193104 L86.44521821361784,-200.099837708684 " />
			<path d="M30.23022910928728,-169.2770917786623 L31.644442671660375,-168.4605951977346 " />
			<path d="M96.40359406569904,-184.59426969286397 L86.4814717120894,-190.3228097046529 " />
			<path d="M96.40359406569904,-184.594269692864 L94.98938050332593,-183.77777311193628 " />
			<path d="M96.40359406569904,-182.96127653100854 L96.40359406569904,-184.594269692864 " />
			<path d="M96.40359406569904,-173.16331755987585 L86.4814717120894,-178.8918575716648 " />
			<path d="M96.40359406569904,-173.16331755987585 L94.98938050332596,-172.34682097894813 " />
			<path d="M96.40359406569905,-171.53032439802038 L96.40359406569904,-173.16331755987585 " />
			<path d="M96.40359406569904,-161.73236542688767 L86.4814717120894,-167.4609054386766 " />
			<path d="M96.40359406569904,-161.73236542688767 L94.98938050332596,-160.91586884595995 " />
			<path d="M96.40359406569905,-160.09937226503223 L96.40359406569905,-161.73236542688767 " />
			<path d="M96.40359406569904,-150.3014132938995 L86.4814717120894,-156.02995330568842 " />
			<path d="M96.40359406569904,-150.30141329389951 L94.98938050332593,-149.4849167129718 " />
			<path d="M96.40359406569905,-148.66842013204408 L96.40359406569905,-150.30141329389951 " />
			<path d="M96.40359406569904,-138.87046116091136 L86.4814717120894,-144.5990011727003 " />
			<path d="M96.40359406569904,-138.87046116091136 L94.9893805033259,-138.0539645799836 " />
			<path d="M96.40359406569905,-137.23746799905592 L96.40359406569905,-138.8704611609114 " />
			<path d="M96.40359406569904,-127.43950902792318 L86.4814717120894,-133.16804903971212 " />
			<path d="M96.40359406569904,-127.43950902792317 L94.98938050332596,-126.62301244699545 " />
			<path d="M96.40359406569905,-125.80651586606776 L96.40359406569905,-127.43950902792321 " />
			<path d="M81.49547074531199,-125.79864884426094 L91.41759309892163,-120.070108832472 " />
			<path d="M86.4814717120894,-140.10826997759779 L96.40359406569904,-134.37972996580885 " />
			<path d="M96.40359406569904,-136.0127231276643 L86.4814717120894,-141.74126313945322 " />
			<path d="M96.40359406569904,-136.01272312766432 L94.98938050332593,-135.1962265467366 " />
			<path d="M96.40359406569905,-134.37972996580888 L96.40359406569905,-136.01272312766432 " />
			<path d="M86.4814717120894,-151.53922211058597 L96.40359406569904,-145.81068209879703 " />
			<path d="M96.40359406569904,-147.44367526065247 L86.4814717120894,-153.1722152724414 " />
			<path d="M96.40359406569904,-147.44367526065247 L94.98938050332596,-146.62717867972475 " />
			<path d="M96.40359406569905,-145.81068209879703 L96.40359406569905,-147.4436752606525 " />
			<path d="M86.4814717120894,-162.97017424357415 L96.40359406569904,-157.2416342317852 " />
			<path d="M96.40359406569904,-158.87462739364065 L86.4814717120894,-164.6031674054296 " />
			<path d="M96.40359406569904,-158.87462739364065 L94.98938050332596,-158.05813081271293 " />
			<path d="M96.40359406569905,-157.2416342317852 L96.40359406569905,-158.87462739364068 " />
			<path d="M86.4814717120894,-174.40112637656227 L96.40359406569904,-168.67258636477334 " />
			<path d="M96.40359406569904,-170.30557952662878 L86.4814717120894,-176.0341195384177 " />
			<path d="M96.40359406569904,-170.3055795266288 L94.98938050332593,-169.48908294570109 " />
			<path d="M96.40359406569905,-168.67258636477337 L96.40359406569905,-170.3055795266288 " />
			<path d="M86.4814717120894,-185.83207850955046 L96.40359406569904,-180.10353849776152 " />
			<path d="M96.40359406569904,-181.73653165961696 L86.4814717120894,-187.4650716714059 " />
			<path d="M96.40359406569904,-181.73653165961696 L94.98938050332596,-180.92003507868924 " />
			<path d="M96.40359406569904,-180.10353849776152 L96.40359406569904,-181.736531659617 " />
			<path d="M86.4814717120894,-197.26303064253858 L96.40359406569904,-191.53449063074964 " />
			<path d="M96.40359406569904,-193.16748379260514 L86.4814717120894,-198.89602380439408 " />
			<path d="M96.40359406569904,-193.16748379260514 L94.9893805033259,-192.3509872116774 " />
			<path d="M96.40359406569904,-191.53449063074967 L96.40359406569904,-193.1674837926051 " />
			<path d="M91.41759309892163,-115.98762592783338 L40.15235146289691,-86.38962486920329 " />
			<path d="M30.23022910928728,-92.11816488099224 L40.15235146289692,-86.3896248692033 " />
			<path d="M91.27706990209656,-197.35202876985974 L95.129903700151,-199.57646340030936 " />
			<path d="M95.129903700151,-117.92680530753674 L36.44004086166754,-84.04219719903607 " />
			<path d="M98.66543760608374,-115.88556385521741 L39.97557476760028,-82.00095574671676 " />
			<path d="M91.41759309892163,-118.84536396108042 L91.41759309892163,-120.07010883247202 " />
			<path d="M96.40359406569904,-124.58177099467613 L86.4814717120894,-130.31031100646507 " />
			<path d="M35.16635049611955,-89.22643193534873 L35.20260399459108,-89.24736290245033 " />
			<path d="M90.00337953654854,-120.88660541339974 L96.40359406569904,-124.58177099467613 " />
			<path d="M95.129903700151,-199.57646340030934 L95.19929587065894,-199.61455997685164 L95.2685208693501,-199.64863075184397 L95.33741192713921,-199.67859364580514 L95.40580307943395,-199.70437647549912 L95.47352956595805,-199.72591712783088 L95.54042822767336,-199.74316370948222 L95.60633789984416,-199.75607467192734 L95.6710998002972,-199.7646189115268 L95.7345579119418,-199.76877584445907 L95.79655935862874,-199.76853545630857 L95.85695477344228,-199.76389832619145 L95.9155986585381,-199.75487562536028 L95.97234973566042,-199.74148909029168 L96.02707128649364,-199.72377097032114 L96.07963148202876,-199.70176394995164 L96.12990370015099,-199.67552104602277 " />
			<path d="M96.129903700151,-199.67552104602277 L96.17098921030507,-199.6497657765935 L96.21024036679971,-199.6210040783609 L96.2475880105679,-199.58928662835956 L96.28296633646076,-199.5546693115479 L96.31631300919366,-199.51721312234108 L96.34756927317879,-199.47698405714095 L96.37668005605013,-199.43405299805303 L96.40359406569908,-199.3884955879948 " />
			<path d="M96.40359406569904,-194.39222866399672 L96.40359406569902,-199.38849558799473 " />
			<path d="M95.02383768297302,-196.24923983302887 L95.02226196196474,-196.32244772847702 L95.01753859498982,-196.3936597737962 L95.00967896105301,-196.46270441293177 L94.9987019947009,-196.52941531130045 L94.9846341404069,-196.59363175650492 L94.96750928886419,-196.65519904550396 L94.9473686953401,-196.71396885730573 L94.92426088028856,-196.76979961028593 L94.89824151246,-196.8225568032705 L94.86937327479059,-196.8721133395605 L94.83772571339338,-196.9183498331194 L94.80337507001582,-196.96115489618435 L94.76640409836655,-197.00042540760919 L94.72690186475454,-197.03606676129215 L94.68496353352056,-197.06799309409044 L94.64069013777792,-197.0961274926719 " />
			<path d="M94.64069013777791,-197.0961274926719 L94.60059940493727,-197.1173491819898 L94.55891407099294,-197.13564557083336 L94.51570925266249,-197.1509836892215 L94.47106280476513,-197.16333589795843 L94.42505517992771,-197.1726799384393 L94.3777692836097,-197.17899897276013 L94.3292903247079,-197.1822816140596 L94.27970566201067,-197.18252194703814 L94.22910464677784,-197.17971953861718 L94.17757846173033,-197.17387943871958 L94.12521995673943,-197.16501217116974 L94.07212348151185,-197.15313371472976 L94.01838471557221,-197.13826547430568 L93.96410049584905,-197.1204342423761 L93.90936864217534,-197.09967215071222 L93.85428778101765,-197.07601661247665 L93.79895716775194,-197.049510254805 L93.74347650780592,-197.02020084199225 L93.68794577699056,-196.9881411894215 L93.63246504134415,-196.95338906839123 L93.57713427681406,-196.91600710201163 L93.52205318910059,-196.8760626523582 L93.46732103398793,-196.8336276990856 L93.41303643848588,-196.788778709721 L93.35929722310452,-196.74159650186962 L93.3062002255823,-196.6921660975824 L93.253841126385,-196.64057657014646 L93.20231427629012,-196.58692088357566 L93.15171252636735,-196.53129572509005 L93.10212706066149,-196.473801330886 L93.00636040037695,-196.3536224351705 " />
			<path d="M94.81482676424373,-195.30950389317164 L94.86277882856945,-195.43013260270632 L94.90484661702443,-195.55108883583966 L94.94081433245671,-195.67175211758155 L94.97049746955146,-195.79150347570874 L94.99374376129674,-195.90972861593622 L95.01043396007489,-196.02582107309217 L95.02048244937282,-196.13918532213145 L95.02383768297302,-196.24923983302884 " />
			<path d="M96.40359406569907,-119.5855040706779 L96.40359406569907,-124.58177099467616 " />
			<path d="M96.40359406569904,-119.58550407067787 L96.35743515353946,-119.45761620271762 L96.30525059893048,-119.33022992174479 L96.24729656269518,-119.20397053489913 L96.1838575265875,-119.07945781768123 L96.11524489684297,-118.95730297163081 L96.04179547556407,-118.83810562409244 L95.96386980744359,-118.72245088479603 L95.88185040994159,-118.61090647370077 L95.7961398956037,-118.50401993420084 L95.70715899573756,-118.40231594537303 L95.6153444951489,-118.30629374645937 L95.5211470880751,-118.21642468622755 L95.42502916584071,-118.13314990923867 L95.32746254709508,-118.05687819037972 L95.22892616177353,-117.98798392829084 L95.12990370015102,-117.9268053075367 " />
			<path d="M36.44004086166753,-84.04219719903607 L36.370648691159595,-84.00410062249377 L36.30142369246844,-83.97002984750144 L36.23253263467932,-83.94006695354028 L36.16414148238459,-83.91428412384631 L36.096414995860485,-83.89274347151454 L36.02951633414518,-83.87549688986319 L35.963606661974374,-83.86258592741808 L35.89884476152134,-83.8540416878186 L35.83538664987674,-83.84988475488633 L35.77338520318979,-83.85012514303683 L35.712989788376255,-83.85476227315397 L35.654345903280436,-83.86378497398513 L35.597594826158115,-83.87717150905374 L35.5428732753249,-83.89488962902426 L35.49031307978978,-83.91689664939379 L35.44004086166755,-83.94313955332264 " />
			<path d="M35.44004086166753,-83.94313955332265 L35.398955351513486,-83.96889482275189 L35.35970419501887,-83.99765652098446 L35.3223565512507,-84.0293739709858 L35.286978225357856,-84.06399128779742 L35.25363155262496,-84.10144747700423 L35.22237528863985,-84.14167654220432 L35.19326450576851,-84.18460760129221 L35.16635049611957,-84.2301650113504 " />
			<path d="M95.02383768297302,-121.13155438767804 L95.02226196196474,-121.2047622831262 L95.01753859498982,-121.27597432844537 L95.00967896105301,-121.34501896758094 L94.9987019947009,-121.41172986594964 L94.9846341404069,-121.4759463111541 L94.96750928886419,-121.53751360015315 L94.9473686953401,-121.5962834119549 L94.92426088028856,-121.65211416493513 L94.89824151246,-121.70487135791967 L94.86937327479059,-121.75442789420968 L94.83772571339338,-121.80066438776858 L94.80337507001582,-121.84346945083354 L94.76640409836655,-121.88273996225837 L94.72690186475454,-121.91838131594135 L94.68496353352056,-121.95030764873964 L94.64069013777792,-121.97844204732111 " />
			<path d="M94.64069013777791,-121.97844204732111 L94.59418833601484,-122.0027167334553 L94.54557015514484,-122.02307322729712 L94.49495272062413,-122.03946248826985 L94.44245797428599,-122.05184503320831 L94.38821238057234,-122.06019103147713 L94.33234662186983,-122.06448037683549 L94.2749952836844,-122.06470273587469 L94.21629653041315,-122.06085757291235 L94.15639177249409,-122.05295415128283 L94.09542532573609,-122.04101151102111 L94.03354406364943,-122.02505842299361 L93.97089706361463,-122.00513331958672 L93.90763524774201,-121.9812842021198 L93.84391101928708,-121.95356852520572 L93.77987789549776,-121.92205305833782 L93.71569013777791,-121.88681372503619 L93.65150238005806,-121.84793541994136 L93.58746925626875,-121.80551180429563 L93.52374502781382,-121.75964508030498 L93.4604832119412,-121.71044574492494 L93.3978362119064,-121.6580323236638 L93.33595494981974,-121.60253108504425 L93.27498850306173,-121.54407573641146 L93.21508374514268,-121.48280710182036 L93.15638499187142,-121.41887278277818 L93.09903365368599,-121.3524268026595 L93.04316789498348,-121.28362923565038 L92.98892230126984,-121.21264582111571 L92.9364275549317,-121.13964756431852 L92.88581012041098,-121.06481032445332 L92.83719193954099,-120.98831439098592 L92.79069013777791,-120.9103440493203 L92.74641674203527,-120.83108713683892 L92.70447841080129,-120.75073459038602 L92.66497617718927,-120.66947998628407 L92.62800520554,-120.58751907399143 L92.59365456216244,-120.50504930452472 L92.56200700076523,-120.42226935478209 L92.53313876309582,-120.33937864891314 L92.50711939526727,-120.25657687788866 L92.48401158021572,-120.17406351842766 L92.46387098669163,-120.09203735244036 L92.44674613514893,-120.0106959881453 L92.43267828085493,-119.93023538401371 L92.42170131450281,-119.85084937668846 L92.41384168056601,-119.77272921401459 L92.40911831359108,-119.69606309430651 L92.4075425925828,-119.62103571296176 L92.40911831359108,-119.54782781751359 L92.41384168056601,-119.47661577219442 L92.42170131450281,-119.40757113305885 L92.43267828085493,-119.34086023469015 L92.44674613514893,-119.27664378948569 L92.46387098669163,-119.21507650048665 L92.48401158021572,-119.1563066886849 L92.50711939526727,-119.10047593570467 L92.53313876309582,-119.04771874272012 L92.56200700076523,-118.99816220643011 L92.59365456216244,-118.95192571287122 L92.62800520554,-118.90912064980625 L92.66497617718927,-118.86985013838142 L92.70447841080129,-118.83420878469845 L92.74641674203527,-118.80228245190015 L92.79069013777791,-118.77414805331868 " />
			<path d="M92.79069013777791,-118.77414805331868 L92.82536361325444,-118.75557683224777 L92.86124368667981,-118.73920205846186 L92.89828173227258,-118.72504592355914 L92.9364275549317,-118.71312761236995 L92.97562945826255,-118.70346327695697 L93.01583431463737,-118.69606601472546 L93.0569876371956,-118.69094585067319 L93.09903365368599,-118.6881097238043 L93.14191538205102,-118.68756147772537 L93.18557470765064,-118.68930185543634 L93.22995246202107,-118.69332849832372 L93.27498850306173,-118.69963594935696 L93.32062179654164,-118.70821566048399 L93.36679049881491,-118.71905600421583 L93.41343204063313,-118.73214228938453 L93.4604832119412,-118.74745678105307 L93.55555891351038,-118.78468437359828 L93.65150238005806,-118.83053704230197 L93.74779368562623,-118.88476630757962 L93.84391101928708,-118.94707829634416 L93.93933351288162,-119.01713533452956 L94.03354406364943,-119.09455777697599 L94.12603213645325,-119.17892606475975 L94.21629653041315,-119.26978299881944 L94.3038480949575,-119.36663621755731 L94.38821238057234,-119.46896086498941 L94.4689322098844,-119.57620243498563 L94.54557015514484,-119.68777977618646 L94.61771090868821,-119.8030882413126 L94.68496353352056,-119.92150296380088 L94.74696358184099,-120.04238224401038 L94.80337507001582,-120.16507102664836 L94.85389229930297,-120.28890445057161 L94.89824151246,-120.41321145172665 L94.93618237725829,-120.53731839970393 L94.96750928886419,-120.66055274819942 L94.99205248402946,-120.78224667960127 L95.00967896105301,-120.90174072395133 L95.02029320052866,-121.01838733266999 L95.02383768297302,-121.13155438767802 " />
			<path d="M36.76952673887725,-88.34269963423738 L36.73904510930683,-88.27037745379114 L36.7106326919309,-88.19778493957925 L36.684342204494655,-88.12505678319155 L36.660222427613995,-88.05232792789482 L36.63831811426558,-87.97973331825266 L36.6186699067501,-87.90740764974286 L36.60131426128259,-87.83548511883717 L36.586283380349855,-87.76409917400667 L36.573605152960454,-87.69338226811524 L36.5633031028981,-87.62346561266021 L36.55539634507453,-87.55447893431635 L36.54989955006278,-87.48655023423483 L36.546822916876735,-87.41980555054383 L36.54617215404735,-87.35436872449145 L36.5479484690308,-87.29036117066474 L36.552148565968125,-87.22790165171136 L36.558764651800495,-87.16710605798175 L36.56778445072881,-87.10808719250063 L36.57919122699085,-87.05095456166698 L36.59296381591355,-86.99581417207067 L36.609076663182954,-86.94276833380275 L36.627499872258916,-86.89191547062454 L36.64819925984653,-86.8433499373475 L36.671136419321456,-86.7971618447628 L36.69626879199138,-86.75343689244555 L36.72354974606142,-86.7122562097437 L36.752928663157,-86.67369620524681 L36.784351032243535,-86.637828425014 L36.81775855076882,-86.60471941982391 L36.85308923284034,-86.57443062169324 L36.890277524236815,-86.54701822989298 L36.92925442404063,-86.52253310667349 " />
			<path d="M36.929254424040636,-86.52253310667349 L36.96994761266541,-86.50102068289237 L37.01228158604117,-86.4825208737198 L37.05617779570817,-86.46706800457818 L37.101554794559476,-86.45469074745293 L37.14832838796172,-86.44541206769331 L37.196411789973844,-86.4392491814013 L37.24571578437386,-86.43621352348809 L37.29614889019482,-86.4363107264572 L37.34761753146298,-86.4395406099536 L37.40002621082305,-86.44589718109846 L37.453277686728526,-86.45536864560856 L37.50727315386829,-86.4679374296799 L37.56191242649463,-86.48358021259513 L37.61709412431262,-86.50226796999374 L37.67271586058596,-86.52396602772535 L37.72867443211015,-86.5486341261857 L37.78486601070059,-86.57622649501631 L37.84118633584035,-86.60669193802887 L37.89753090813004,-86.63997392819715 L37.95379518318097,-86.67601071253989 L38.00987476559175,-86.71473542670023 L38.06566560264846,-86.75607621900895 L38.12106417738898,-86.79995638380151 L38.17596770067329,-86.8462945037414 L38.23027430190329,-86.89500460088567 L38.28388321803834,-86.94599629621246 L38.33669498055577,-86.99917497731458 L38.3886116000095,-87.05444197394785 L38.43953674784429,-87.11169474110848 L38.48937593512833,-87.17082704929999 L38.53803668787245,-87.23172918163641 L38.585428718610736,-87.29428813741625 " />
			<path d="M99.93912797163178,-197.3472541356754 L96.40359406569904,-199.38849558799473 " />
			<path d="M99.9391279716318,-117.54426261835854 L99.93912797163176,-197.3472541356754 " />
			<path d="M99.93912797163178,-117.54426261835854 L96.40359406569904,-119.58550407067786 " />
			<path d="M99.93912797163178,-117.54426261835856 L99.8929690594722,-117.4163747503983 L99.84078450486322,-117.28898846942548 L99.78283046862792,-117.16272908257982 L99.71939143252024,-117.03821636536192 L99.6507788027757,-116.9160615193115 L99.57732938149681,-116.79686417177312 L99.49940371337632,-116.68120943247672 L99.41738431587433,-116.56966502138145 L99.33167380153644,-116.46277848188153 L99.2426929016703,-116.36107449305372 L99.15087840108164,-116.26505229414006 L99.05668099400783,-116.17518323390824 L98.96056307177345,-116.09190845691936 L98.86299645302782,-116.01563673806041 L98.76446006770627,-115.94674247597153 L98.66543760608376,-115.88556385521738 " />
			<path d="M39.97557476760027,-82.00095574671676 L39.90618259709233,-81.96285917017445 L39.83695759840118,-81.92878839518212 L39.76806654061206,-81.89882550122098 L39.69967538831733,-81.873042671527 L39.63194890179322,-81.85150201919522 L39.565050240077916,-81.83425543754387 L39.49914056790711,-81.82134447509877 L39.43437866745408,-81.81280023549928 L39.37092055580948,-81.80864330256702 L39.30891910912253,-81.80888369071752 L39.24852369430899,-81.81352082083465 L39.189879809213174,-81.82254352166582 L39.13312873209085,-81.83593005673443 L39.07840718125764,-81.85364817670495 L39.02584698572252,-81.87565519707448 L38.975574767600285,-81.90189810100333 " />
			<path d="M99.66543760608374,-197.63427959370344 L99.7065231162378,-197.60852432427419 L99.74577427273245,-197.57976262604157 L99.78312191650063,-197.54804517604023 L99.8185002423935,-197.51342785922859 L99.8518469151264,-197.47597167002175 L99.88310317911153,-197.43574260482163 L99.91221396198287,-197.3928115457337 L99.93912797163182,-197.34725413567548 " />
			<path d="M98.66543760608374,-115.88556385521741 L95.129903700151,-117.92680530753672 " />
			<path d="M39.97557476760028,-82.00095574671677 L36.44004086166754,-84.04219719903608 " />
			<path d="M38.97557476760027,-81.90189810100334 L35.44004086166753,-83.94313955332265 " />
			<path d="M99.66543760608373,-197.6342795937034 L96.12990370015099,-199.67552104602274 " />

       </g>
    </g>
    
</svg>
