<?xml version="1.0" encoding="UTF-8" standalone="no"?>
<svg
   xmlns:svg="http://www.w3.org/2000/svg"
   xmlns="http://www.w3.org/2000/svg"
   width="300.0"
   height="240.0"

>
    <g transform="scale(31.31753751528838, -31.31753751528838)   translate(6.161629808507412,-2.099213301224819)" stroke-width="0.0798275"  fill="none">
       <!-- hidden lines -->
       <g  stroke="rgb(160,160,160)" fill="none" stroke-dasharray="0.0798275,0.0798275" >
			<path d="M-1.308147545195113,0.3878358759406697 L-1.3069551076753305,0.4432364454690082 L-1.303380667802414,0.49712664192676037 L-1.297432836715101,0.5493766391104352 L-1.2891259432594495,0.5998605622002577 L-1.278479999469392,0.6484567910036356 L-1.2655206523559932,0.6950482529488544 L-1.2502791221215541,0.7395227051231581 L-1.2327921269474098,0.781773004675757 L-1.2131017945366147,0.8216973669343399 L-1.191255560624616,0.859199610613264 L-1.1673060547024119,0.8941893895226984 L-1.1413109732274975,0.926582410220508 L-1.1133329406280466,0.956300635082538 L-1.0834393584351767,0.9832724703020868 L-1.0517022429067595,1.0074329383656568 L-1.0181980515339495,1.028723834589474 " />
			<path d="M0.3818019484660534,-1.3961472960069525 L0.3284100736213694,-1.42259291373644 L0.27151417332264693,-1.4423249269951892 L0.21142257138321463,-1.4552364062937182 L0.14846090940047607,-1.4612573832070233 L0.08297038207587909,-1.460355229539538 L0.015305888251266497,-1.4525348341401516 L-0.05416589231869723,-1.4378385764091133 L-0.12506848603588638,-1.4163460966403891 L-0.1970176656017607,-1.3881738644440111 L-0.26962353217838786,-1.3534745475871672 L-0.3424926282840262,-1.3124361846743442 L-0.41523006997331025,-1.2652811661498384 L-0.48744168674756305,-1.212265029144668 L-0.5587361575988814,-1.153675072698721 L-0.6287271316125823,-1.0898288008623658 L-0.697035321636284,-1.0210722021144911 L-0.7632905596698476,-0.9477778744209642 L-0.8271338028378421,-0.8703430060939685 L-0.888219079073994,-0.7891872233941277 L-0.9462153619737914,-0.7047503165394421 L-1.0008083646552504,-0.617489856443992 L-1.0517022429067593,-0.5278787151015094 L-1.0986211983924945,-0.4364025030510732 L-1.141310973227497,-0.3435569378115235 L-1.1795402278231828,-0.24984515754527645 L-1.2131017945366147,-0.15577499450902874 L-1.2418138003299106,-0.06185622306675917 L-1.265520652355993,0.031402202821717934 L-1.2840938811297091,0.12349490766635865 L-1.2974328367151011,0.21392283312045732 L-1.3054652341561293,0.3021959424210653 L-1.308147545195113,0.3878358759406638 " />
			<path d="M-1.4495689014324225,0.46948553403344273 L-1.447677041901828,0.39287540901286666 L-1.4420077903821695,0.31433696512920795 L-1.432580106929771,0.23413286374340372 L-1.4194255211757743,0.1525313367859711 L-1.4025880268794875,0.06980528969105518 L-1.3821239347971215,-0.013768611299432382 L-1.3581016843579652,-0.09791086440919586 L-1.3306016147778357,-0.18234006708400533 L-1.2997156963752756,-0.2667738571050443 L-1.2655472229890754,-0.35092985691172796 L-1.2282104665257942,-0.43452661797583014 L-1.1878302947925932,-0.5172845620685852 L-1.1445417538934928,-0.598926916272822 L-1.0984896165856712,-0.6791806386131083 L-1.0498278981062685,-0.7577773312082562 L-0.9987193410889462,-0.8344541378922745 L-0.9453348712928342,-0.908954623301792 L-0.8898530259641038,-0.981029630489962 L-0.8324593567419355,-1.0504381141986736 L-0.7733458091057865,-1.1169479470022992 L-0.7127100804393094,-1.1803366956269408 L-0.6507549588577932,-1.2403923648488773 L-0.5876876450103334,-1.296914106484343 L-0.5237190591248677,-1.349712891099517 L-0.45906313561357737,-1.3986121401942786 L-0.3939361075977508,-1.4434483167454708 L-0.3285557837449208,-1.4840714721346884 L-0.26314081983679816,-1.5203457476314484 L-0.1979099875041419,-1.552149828754615 L-0.1330814425741919,-1.5793773509925162 L-0.06887199547757084,-1.601937255524881 L-0.005496386154692612,-1.6197540937569304 " />
			<path d="M-1.4054963861546879,0.8051170368394973 L-1.4247070580744736,0.7274984966197715 L-1.4384965923107043,0.6454156492215117 L-1.4467974295726338,0.5592706444822468 L-1.4495689014324225,0.46948553403344406 " />
			<path d="M-1.131370849898476,0.6531972647421811 L-1.128305351568209,0.5553230550054911 L-1.1191254687784626,0.45443950151908236 L-1.1038809481094436,0.3510933010001126 L-1.0826544009394823,0.24584449546338022 L-1.0555608557668168,0.13926343730512053 L-1.0227471348601929,0.03192769851395544 L-0.9843910586162709,-0.07558105924175662 L-0.9407004819354872,-0.1826802366888962 L-0.8919121678383413,-0.28878945410552453 L-0.8382905044260726,-0.39333369644888044 L-0.7801260721386336,-0.49574642941171776 L-0.7177340690741093,-0.5954726695208037 L-0.6514526029029122,-0.6919719916404443 L-0.5816408586330243,-0.7847214575831194 L-0.5086771521553165,-0.873218449956829 L-0.4329568801169578,-0.9569833958922885 L-0.35489037723272715,-1.0355623658898596 L-0.2749006926456406,-1.108529533702837 L-0.19342129738699093,-1.1754894839267764 L-0.11089373535927316,-1.2360793547898286 L-0.02776523057152014,-1.289970804532121 L0.0555137364063526,-1.3368717907182044 L0.13849186963678367,-1.376528152840312 L0.22071950342635432,-1.4087249896361724 L0.30175103910314155,-1.4332878236575715 L0.38114735975452885,-1.450083546778758 L0.4584782098398007,-1.4590211415209138 L0.533324526782197,-1.460052174283754 L0.5696886491522698,-1.457599307802558 L0.6052807119053266,-1.4531710578114057 L0.6400524795808602,-1.446773425611178 L0.6739568284075352,-1.43841508147023 L0.7069478101667782,-1.4281073528741721 L0.7389807144632182,-1.4158642091745162 L0.7700121293175926,-1.4017022426569787 L0.7999999999999963,-1.385640646055104 " />
			<path d="M-0.8000000000000006,1.3856406460551016 L-0.838290504426073,1.36130819322788 L-0.8745614936014066,1.3336962297266575 L-0.9087255875361147,1.30287127519003 L-0.9407004819354874,1.268907589633424 L-0.9704091464782466,1.231886994550213 L-0.9977800103893373,1.1918986757965737 L-1.0227471348601929,1.149038968734946 L-1.0452503719011015,1.103411126153709 L-1.0652355092429806,1.0551250695221677 L-1.0826544009394823,1.0042971241801057 L-1.0974650833547952,0.9510497390998556 L-1.109631876257718,0.8955111918959953 L-1.1191254687784626,0.837815279793341 L-1.125922990021106,0.7781009972977129 L-1.130008064161582,0.7165122013459966 L-1.131370849898476,0.6531972647421824 " />

       </g>

       <!-- solid lines -->
       <g  stroke="rgb(0,0,0)" fill="none">
			<path d="M-5.692209588551708,-2.1433035249352814 L-5.658933980102696,-2.061796283818206 L-5.622648321675558,-1.9823437948592266 L-5.5834667813761065,-1.905196044983199 L-5.541512638825899,-1.8305957695531514 L-5.496917897278934,-1.7587776886350295 L-5.449822868290584,-1.6899677684815337 L-5.400375730245529,-1.6243825105586844 L-5.348732062133739,-1.5622282703521162 L-5.29505435404141,-1.503700608096373 L-5.239511495897039,-1.4489836734700599 L-5.182278246081227,-1.3982496261928286 L-5.123534681572158,-1.3516580943472023 L-5.063465631356804,-1.3093556721295738 L-5.002260094890551,-1.2714754586106307 " />
			<path d="M-5.002260094890541,-1.2714754586106247 L-4.749965441193143,-1.1663441270060444 L-4.495278642231953,-1.138861402613178 L-4.250970757586344,-1.1904053839909474 L-4.0292924047333285,-1.3183914406841484 L-3.841359461933148,-1.5164018173869525 L-3.69659567167743,-1.7745074469921551 L-3.6022600948905414,-2.0797658354761004 L-3.5630831113036407,-2.4168700525921802 L-3.5810292184626134,-2.76891628526957 L-3.655198523618089,-3.1182514653847795 L-3.781871868105526,-3.4473584683101537 L-3.954697321490502,-3.7397344946878492 L-4.165008693884049,-3.9807185896993236 L-4.402260094890524,-4.1582268045587405 " />
			<path d="M-4.402260094890543,-4.158226804558755 L-4.590755634970281,-4.2442141158315945 L-4.782402063948717,-4.286984744537795 L-4.9717838441336815,-4.285330079835449 L-5.153549432194742,-4.239296879178431 L-5.322562502876425,-4.150185947046 L-5.474047091087056,-4.020515376858002 L-5.603722550943433,-3.8539493947842676 L-5.707924518103656,-3.655194816177219 L-5.783708457238983,-3.4298680405579662 L-5.828932868604102,-3.184336343606651 L-5.842319802457606,-2.925537950922095 L-5.823490971318469,-2.660785977899799 L-5.772978439599667,-2.397561775987948 L-5.692209588551717,-2.143303524935309 " />
			<path d="M-1.0181980515339464,1.0287238345894758 L-0.9830074988483746,1.047093867339678 L-0.9462153619737917,1.0624987815983438 L-0.9079102763905396,1.0749014655777127 L-0.8681845224049177,1.0842720401257315 L-0.8271338028378424,1.0905879307075488 L-0.7848570124683691,1.0938339217895465 L-0.7414559997875072,1.0940021934948922 L-0.6970353216362842,1.0910923404423096 L-0.651701991319159,1.0851113727226747 L-0.6055652207995965,1.076073699011096 L-0.5587361575988816,1.0640010918551501 L-0.5113276170320067,1.0489226352229124 L-0.4634538104256949,1.0308746544371263 L-0.4152300699733105,1.0099006286643204 L-0.36677257088950477,0.9860510861696903 L-0.3181980515339464,0.9593834825900782 L-0.2696235321783876,0.9299620625183134 L-0.22116603309458177,0.8978577047323608 L-0.17294229264219796,0.8631477514421375 L-0.12506848603588622,0.8259158219653513 L-0.07765994546901106,0.786251611281244 L-0.030830882268296333,0.7442506739475283 L0.01530588825126622,0.7000141939010884 L0.06063921856839105,0.6536487406970146 L0.10505989671961347,0.6052660127732092 L0.14846090940047552,0.5549825683590675 L0.23178841933702488,0.44920236610971653 L0.30981925890589923,0.3373268551219645 L0.38180194846605353,0.22043345772399983 L0.4470432553672836,0.09964792123319491 L0.5049148701596048,-0.02386652360595415 L0.5548594575567238,-0.14892036516978172 L0.5767056914687223,-0.21164846690844966 L0.5963960238795173,-0.2743092666026433 L0.6138830190536614,-0.3367518088974616 L0.6291245492881004,-0.39882566423919574 L0.6420838964014992,-0.46038129127329974 L0.6527298401915567,-0.521270397102612 L0.6610367336472083,-0.5813462945379345 L0.6669845647345212,-0.6404642554803182 L0.6705590046074378,-0.6984818595837305 L0.6717514421272202,-0.7552593373581463 L0.6705590046074377,-0.8106599068864859 L0.6669845647345212,-0.8645501033442375 L0.6610367336472083,-0.9168001005279119 L0.6527298401915567,-0.9672840236177345 L0.6420838964014992,-1.0158802524211124 L0.6291245492881004,-1.062471714366331 L0.6138830190536615,-1.1069461665406348 L0.5963960238795173,-1.1491964660932334 L0.5767056914687224,-1.189120828351816 L0.5548594575567237,-1.2266230720307398 L0.5309099516345196,-1.2616128509401743 L0.5049148701596047,-1.2940058716379843 L0.47693683756015315,-1.323724096500015 L0.4470432553672836,-1.350695931719564 L0.4153061398388668,-1.3748563997831336 L0.38180194846605986,-1.3961472960069488 " />
			<path d="M-0.005496386154687893,-1.6197540937569317 L0.06251894372906536,-1.633724501942767 L0.1290155439660114,-1.6419106204558995 L0.19372815096285578,-1.644279793804106 L0.256398617707537,-1.6408225710465374 L0.3167769435512562,-1.631552743494753 L0.3746222714936046,-1.6165072896973829 L0.4297038489924889,-1.5957462279278851 L0.48180194846604985,-1.5693523767638424 " />
			<path d="M0.4818019484660534,-1.5693523767638404 L0.5200924528921257,-1.5450199239366191 L0.5563634420674595,-1.517407960435396 L0.5905275360021678,-1.4865830058987686 L0.6225024304015405,-1.4526193203421631 L0.6522110949442999,-1.415598725258952 L0.6795819588553904,-1.3756104065053127 L0.704549083326246,-1.332750699443685 L0.7270523203671548,-1.287122856862448 L0.747037457709034,-1.238836800230906 L0.7644563494055359,-1.1880088548888448 L0.7792670318208486,-1.1347614698085946 L0.7914338247237716,-1.0792229226047345 L0.8009274172445162,-1.0215270105020802 L0.8077249384871596,-0.9618127280064516 L0.8118100126276355,-0.9002239320547349 L0.8131727983645296,-0.8369089954509195 L0.8118100126276357,-0.7720204494230165 L0.8077249384871596,-0.7057146161619727 L0.8009274172445162,-0.6381512322278202 L0.7914338247237716,-0.5694930637303088 L0.7792670318208488,-0.49990551421109464 L0.7644563494055361,-0.42955622617211875 L0.7470374577090342,-0.35861467721013696 L0.7270523203671553,-0.28725177173034455 L0.7045490833262467,-0.2156394292226946 L0.6795819588553913,-0.1439501700927884 L0.6522110949443007,-0.07235670004510744 L0.622502430401541,-0.001031494019842677 L0.5905275360021678,0.06985361931433962 L0.5563634420674597,0.14012787151061354 L0.5200924528921262,0.20962196574014189 L0.48180194846605395,0.27816848464296196 L0.44158417396825766,0.3456022936510711 L0.3995360175401633,0.41176093881206455 L0.3557587768735898,0.4764850381549366 L0.3103579151757354,0.5396186656552098 L0.2634428070990772,0.6010097268743821 L0.21512647524825046,0.6605103253687538 L0.1655253178986939,0.7179771189849158 L0.11475882858301106,0.7732716651835505 L0.06294930822058281,0.826260754559635 L0.010221570483939846,0.8768167317555662 L-0.04329735888830566,0.9248178029940985 L-0.09747854810759238,0.970148329490222 L-0.15219146994337834,1.012699106035121 L-0.20730431617467415,1.0523676240810906 L-0.2626843151275945,1.0890583186936071 L-0.318198051533947,1.1226827987756238 L-0.37371178794029924,1.1531600600094662 L-0.4290917868932198,1.180416680003329 L-0.4842046331245157,1.2043869951722497 L-0.5389175549603016,1.2250132589274343 L-0.5930987441795883,1.242245780792849 L-0.6466176735518337,1.2560430461139298 L-0.6993454112884766,1.26637181607002 L-0.751154931650905,1.2732072077496024 L-0.8019214209665879,1.2765327540954112 L-0.8515225783161442,1.2763404435750156 L-0.8998389101669709,1.2726307394813041 L-0.9467540182436285,1.2654125788163701 L-0.9921548799414819,1.2547033507614915 L-1.0359321206080554,1.24052885478507 L-1.0779802770361497,1.2229232384894522 L-1.1181980515339398,1.2019289153463675 " />
			<path d="M-1.118198051533947,1.2019289153463633 L-1.1671048468824976,1.17000756329539 L-1.2126252425338626,1.1326860487855834 L-1.2545776517050244,1.090113252195953 L-1.2927947207754298,1.0424590019532105 L-1.3271239968823663,0.9899133970640732 L-1.3574285360752727,0.9326860487855841 L-1.383587449602983,0.8710052444585246 L-1.4054963861546874,0.8051170368394986 " />
			<path d="M0.7999999999999998,-1.385640646055102 L0.8382905044260721,-1.3613081932278808 L0.8745614936014059,-1.3336962297266577 L0.9087255875361142,-1.3028712751900302 L0.9407004819354869,-1.2689075896334248 L0.9704091464782463,-1.2318869945502136 L0.9977800103893368,-1.1918986757965744 L1.0227471348601924,-1.1490389687349467 L1.0452503719011013,-1.1034111261537096 L1.0652355092429804,-1.0551250695221677 L1.0826544009394823,-1.0042971241801064 L1.097465083354795,-0.9510497390998562 L1.109631876257718,-0.8955111918959962 L1.1191254687784626,-0.8378152797933418 L1.125922990021106,-0.7781009972977132 L1.130008064161582,-0.7165122013459966 L1.131370849898476,-0.6531972647421811 L1.1300080641615822,-0.5883087187142781 L1.125922990021106,-0.5220028854532344 L1.1191254687784626,-0.4544395015190818 L1.109631876257718,-0.38578133302157047 L1.0974650833547952,-0.3161937835023562 L1.0826544009394825,-0.24584449546338033 L1.0652355092429806,-0.1749029465013986 L1.0452503719011017,-0.10354004102160613 L1.022747134860193,-0.031927698513956215 L0.9977800103893377,0.03976156061594999 L0.9704091464782472,0.11135503066363095 L0.9407004819354874,0.18268023668889571 L0.9087255875361142,0.253565350023078 L0.8745614936014061,0.32383960221935193 L0.8382905044260727,0.3933336964488803 L0.8000000000000004,0.4618802153517004 L0.7597822255022041,0.5293140243598095 L0.7177340690741097,0.5954726695208029 L0.6739568284075362,0.660196768863675 L0.6285559667096818,0.7233303963639481 L0.5816408586330236,0.7847214575831205 L0.5333245267821969,0.8442220560774921 L0.4837233694326403,0.9016888496936541 L0.4329568801169575,0.9569833958922889 L0.38114735975452924,1.0099724852683734 L0.32841962201788627,1.0605284624643045 L0.27490069264564077,1.108529533702837 L0.22071950342635405,1.1538600601989604 L0.16600658159056808,1.1964108367438593 L0.11089373535927227,1.236079354789829 L0.05551373640635193,1.2727700494023455 L-5.551115123125783e-16,1.3063945294843622 L-0.05551373640635282,1.3368717907182046 L-0.11089373535927338,1.3641284107120675 L-0.1660065815905693,1.388098725880988 L-0.22071950342635516,1.4087249896361727 L-0.2749006926456418,1.4259575115015874 L-0.3284196220178873,1.4397547768226682 L-0.3811473597545302,1.4500835467787583 L-0.4329568801169586,1.4569189384583408 L-0.48372336943264144,1.4602444848041496 L-0.5333245267821978,1.460052174283754 L-0.5816408586330245,1.4563424701900425 L-0.6285559667096821,1.4491243095251085 L-0.6739568284075355,1.43841508147023 L-0.717734069074109,1.4242405854938083 L-0.7597822255022034,1.4066349691981905 L-0.7999999999999934,1.3856406460551058 " />
			<path d="M-1.0181980515339464,1.028723834589476 L-5.002261503717802,-1.271476271997423 " />
			<path d="M0.38180194846605364,-1.3961472960069528 L-4.4022567494775915,-4.158224873083687 " />
			<path d="M-0.8000000000000002,1.3856406460551023 L-1.1181980515339467,1.201928915346364 " />
			<path d="M0.8000000000000002,-1.3856406460551023 L0.4818019484660537,-1.5693523767638407 " />

       </g>
    </g>
    
</svg>
