<?xml version="1.0" encoding="UTF-8" standalone="no"?>
<svg
   xmlns:svg="http://www.w3.org/2000/svg"
   xmlns="http://www.w3.org/2000/svg"
   width="300.0"
   height="240.0"

>
    <g transform="scale(27.947805662386493, -27.947805662386493)   translate(3.884504915733272,-3.9341953416458146)" stroke-width="0.035780984456530995"  fill="none">
       <!-- hidden lines -->
       <g  stroke="rgb(160,160,160)" fill="none" stroke-dasharray="0.035780984456530995,0.035780984456530995" >
			<path d="M3.0461528796081643,3.161658339165326 L3.0170760278096154,3.1431808827996544 L2.9895327454045963,3.1222130480159134 L2.9635893865729273,3.098805348164662 L2.9393084511384036,3.073014174445114 L2.9167484340012457,3.044901660053801 L2.895963684218761,3.0145355305002557 L2.877004274073705,2.981988940450332 L2.859915878445765,2.9473402974902054 L2.8447396647767755,2.9106730732356283 L2.8315121938947447,2.8720756022415004 L2.8202653319356163,2.8316408691961854 L2.8110261735749593,2.789466284913254 L2.803816976754519,2.7456534516603 L2.7986551090608867,2.7003079183901826 L2.7955530058854627,2.653538926464348 L2.7945181404665087,2.605459146480826 L2.7955530058854627,2.5561844068408868 L2.7986551090608867,2.5058334147082824 L2.8110261735749598,2.402390173330487 L2.8315121938947447,2.296125637309736 L2.859915878445766,2.1880631922180136 L2.8959636842187617,2.079243538474494 L2.9393084511384044,1.9707146688316015 L2.9895327454045972,1.863521775631912 L3.046152879608165,1.7586971850345345 L3.1086235709050136,1.657250415149872 L3.176343192388001,1.5601584538283595 L3.2486595670829344,1.4683563497333878 L3.3248762487693506,1.3827282073115261 L3.404259229138334,1.3040986723834014 L3.4860440066937777,1.2332249903536479 L3.569442949319718,1.1707897135237073 L3.6114971360245924,1.1429277173023273 L3.653652879608166,1.117394127740046 L3.69580862319174,1.0942504574905971 L3.7378628098966145,1.0735524616827574 L3.779714127503505,1.0553500036013583 L3.8212617525225543,1.039686934562265 L3.8624055930859496,1.0266009882707159 L3.9030465300779986,1.0161236899175206 L3.943086655921762,1.0082802802321145 L3.9824295104469813,1.0030896546754315 L4.020980313271078,1.000564317919083 L4.058646192133398,1.0007103537205084 L4.09533640663262,1.0035274102666705 L4.130962566828331,1.009008701021605 L4.165438846180139,1.0171410210757785 L4.198682188311318,1.027904778957874 L4.230612507098903,1.0412740438323587 L4.261152879608164,1.0572166079691399 " />
			<path d="M4.498966895299367,1.780983167148579 L4.496964013446678,1.7207284451843532 L4.4909667142250385,1.6631277952966195 L4.481008972366685,1.6085075254757215 L4.467147198532617,1.5571770598429473 L4.449459919745899,1.5094271857612287 L4.428047334535661,1.4655284065231695 L4.4030307453118835,1.4257294089484416 L4.374551871186606,1.3902556545716211 L4.342772045134387,1.3593081024013856 L4.307871300040149,1.333062070486652 L4.27004734881191,1.3116662427388914 L4.229514464336108,1.2952418266369725 L4.186502265620547,1.2838818665861442 L4.1412544170014876,1.2776507168209816 L4.094027247783877,1.2765836768383023 L4.045088300134461,1.2806867914253273 L3.9947148134539776,1.289936816415929 L3.9431921538144636,1.3042813503689576 L3.8908121973589296,1.3236391314226847 L3.8378716768214414,1.3479004976436877 L3.7846705005345957,1.3769280082622877 L3.7315100534472063,1.4105572222752478 L3.6786914897769516,1.44859763000494 L3.626514026970122,1.490833732337685 L3.5752732506331792,1.5370262615273909 L3.5252594400387136,1.5869135366486142 L3.4767559236918064,1.6402129460204076 L3.430037474272533,1.6966225482030048 L3.385368752047255,1.7558227824976966 L3.3430028055667953,1.8174782792599016 L3.303179638145039,1.8812397597699995 L3.2661248482388743,1.9467460148991524 L3.232048351431727,2.013625951360952 L3.2011431912606527,2.081500693956878 L3.173584445623667,2.149985731906329 L3.1495282349625113,2.218693097102256 L3.1291108378395194,2.287233561952565 L3.112447918918826,2.3552188443565125 L3.099633873725427,2.422263807324894 L3.0907412938940237,2.4879886407831475 L3.0858205559370235,2.5520210131974563 L3.084899535861328,2.613998180834892 L3.0879834512506004,2.6735690427086034 L3.0950548317076327,2.7303961295667873 L3.1060736178242347,2.7841575156578102 L3.1209773881179967,2.834548642441317 L3.139681712650324,2.8812840439139906 L3.162080631322488,2.924098963775994 L3.1880472541401574,2.962750855276831 L3.217434480045895,2.997020755243983 L3.2500758302474337,3.0267145245104548 L3.28578639132093,3.0516639477141982 L3.3243638627465018,3.0717276862390412 L3.365589702941755,3.0867920788987027 L3.4092303673010202,3.096771785828023 L3.455038631226798,3.101610271933758 L3.5027549906584245,3.101280127166186 L3.5521091321639675,3.0957832217971846 L3.6028214642672705,3.085150695825131 L3.6546047013351597,3.0694427825666457 L3.7071654910520975,3.0487484674345295 L3.760206076262622,3.023184983834923 L3.8134259817672285,2.992897149039433 L3.866523716515969,2.958056543794523 " />
			<path d="M4.495013971014838,1.8694794909406038 L4.498966895299368,1.7809831671485863 " />
			<path d="M-0.4867009357884631,-2.9945431814835795 L-0.5457707920821022,-3.025378593599991 L-0.6075290218358667,-3.05123684253418 L-0.6718268440648972,-3.0720556334995495 L-0.7385093596836204,-3.087784812205153 L-0.8074159246712119,-3.0983864856817753 L-0.8783805370771147,-3.1038351135694144 L-0.9512322369342767,-3.104117569646245 L-1.025795518116687,-3.0992331734508385 L-1.1018907511490046,-3.0891936919214515 L-1.1793346159497,-3.0740233110484443 L-1.2579405434651862,-3.0537585776081073 L-1.3375191651310134,-3.0284483111182787 L-1.4178787690773236,-2.9981534862278516 L-1.4988257619795404,-2.9629470858234996 L-1.5801651354416437,-2.9229139252075127 L-1.6617009357884747,-2.8781504477703064 L-1.743236736135306,-2.828764492649844 L-1.824576109597409,-2.7748750349377103 L-1.9055231024996258,-2.7166118990576913 L-1.9858827064459361,-2.654115446007371 L-2.0654613281117635,-2.5875362352161906 L-2.1440672556272493,-2.517034661834596 L-2.221511120427945,-2.442780570328071 L-2.2976063534602624,-2.364952845306946 L-2.372169634642673,-2.2837389805777004 L-2.4450213344998355,-2.199334627453961 L-2.5159859469057375,-2.111943123415352 L-2.5848925118933295,-2.0217750022496936 L-2.6515750275120524,-1.9290474868586678 L-2.7158728497410833,-1.8339839659488237 L-2.7776310794948476,-1.7368134558686135 L-2.836700935788487,-1.637770048887952 L-2.892940114164281,-1.5370923492494337 L-2.9462131295155536,-1.4350228983498128 L-2.9963916424821564,-1.3318075904365347 L-3.043354768631236,-1.227695080226955 L-3.086989369678414,-1.122936183877348 L-3.1271903260478293,-1.017783274744816 L-3.1638607901143985,-0.9124896753977646 L-3.1969124195182337,-0.8073090473396524 L-3.2262655899891186,-0.7024947799162056 L-3.2518495871683566,-0.5982993798782941 L-3.2736027769658476,-0.4949738630710472 L-3.2914727540420152,-0.3927671497147004 L-3.305416468056859,-0.29192546473398007 L-3.315400327381992,-0.19269174458069138 L-3.3214002800258164,-0.09530505197853278 L-3.3234018715768796,-5.0182080713057076e-14 L-3.3214002800258164,0.09299381313680466 L-3.315400327381992,0.18345235719088948 L-3.30541646805686,0.27115770960634444 L-3.291472754042016,0.35589858050711864 L-3.273602776965848,0.43747082171278917 L-3.251849587168357,0.5156779185494074 L-3.22626558998912,0.5903314632705605 L-3.1969124195182346,0.6612516089481384 L-3.1638607901143994,0.7282675027393313 L-3.12719032604783,0.7912176974860976 L-3.086989369678416,0.8499505406555059 L-3.0433547686312377,0.9043245396839725 L-2.9963916424821586,0.954208702845238 L-2.9462131295155554,0.9994828548209098 L-2.892940114164283,1.0400379262133312 L-2.8367009357884942,1.0757762163033102 " />
			<path d="M0.42566290110948424,-1.0677152718668126 L0.39499368208241703,-1.083607834444957 L0.36283794421219007,-1.0967350128067785 L0.32928452194885194,-1.1070605413975823 L0.29442611102919714,-1.1145558945882095 L0.25835901239261405,-1.1192003654808333 L0.2211828661370903,-1.1209811231144857 L0.1830003762503525,-1.119893247912272 L0.14391702687660826,-1.1159397452723487 " />
			<path d="M0.14391702687660793,-1.1159397452723485 L0.08920398125228843,-1.1059145705125164 L0.03329088643416486,-1.090602863984169 L-0.02353340247270133,-1.0700837281696907 L-0.08097532300327978,-1.0444631678815637 L-0.13873812191857035,-1.0138735426262298 L-0.19652338827559776,-0.9784728828158074 L-0.2540325950613447,-0.9384440733602104 L-0.31096864142632064,-0.8939939088573483 L-0.3670373875503624,-0.8453520252624342 L-0.42194917421133216,-0.7927697135555496 L-0.47542031920639904,-0.7365186215362285 L-0.5271745828951788,-0.6768893504517804 L-0.5769445952935228,-0.6141899537093705 L-0.6244732373453848,-0.5487443454277262 L-0.6695149692369162,-0.4808906270501237 L-0.7118370988905276,-0.4109793406636098 L-0.7512209840856924,-0.33937165804806685 L-0.7874631619961658,-0.26643751481075173 L-0.8203764003082641,-0.19255369924563986 L-0.8497906644899785,-0.11810190579080264 L-0.8755539962138698,-0.043466763139936845 L-0.8975332983956847,0.03096615280489269 L-0.915615022793074,0.10481231087392624 L-0.9297057566121745,0.17769021117314382 L-0.9397327050915626,0.24922335596769263 L-0.9456440675704831,0.3190421947234406 L-0.9474093050985262,0.38678603325828764 L-0.9450192982042463,0.45210489714028845 L-0.938486394007666,0.5146613397059999 L-0.9278443424332743,0.5741321853585715 L-0.9131481218530535,0.6302101991394483 L-0.8944736550602885,0.6826056739484387 " />
			<path d="M-0.8944736550602872,0.6826056739484418 L-0.8783558140935179,0.7184295986910487 L-0.8602066967114133,0.7520405425138132 L-0.8400764422349253,0.7833456507690765 L-0.818020663136484,0.8122584389828449 L-0.7941002914032367,0.8386990317795093 L-0.7683814102044292,0.8625943835480645 L-0.740935071327969,0.8838784802402037 L-0.7118370988905312,0.9024925217427995 " />
			<path d="M-1.1271651795372948,0.0003932702622274631 L-1.0938153342212147,-0.006957935892935474 L-1.0616502849322946,-0.013665561054670317 L-1.03077060893928,-0.019708631071422622 L-1.0012728642621262,-0.025068249796891928 L-0.9732492877435983,-0.029727658176612992 L-0.9467875066328073,-0.03367228665203792 L-0.9219702645825404,-0.036889800718260035 L-0.8988751629171668,-0.039370139492921785 L-0.8775744179801479,-0.04110554717570453 L-0.8581346353199084,-0.04209059730003195 L-0.840616601420169,-0.04232220970115147 L-0.825075093625979,-0.041799660147537665 L-0.8115587088597954,-0.04052458260550024 L-0.8001097116631993,-0.03850096412991581 " />
			<path d="M-0.8001097116631974,-0.038500964129914605 L-0.8034396156414475,-0.040095444590338924 L-0.8067860016924461,-0.04168404033420259 L-0.8101487874060078,-0.04326671223975814 L-0.8135278899680786,-0.04484342133114211 L-0.8169232261627757,-0.04641412877933526 L-0.8203347123744368,-0.04797879590311821 L-0.8237622645896788,-0.04953738417002457 L-0.8272057983994681,-0.0510898551972897 L-0.8306652290011971,-0.0526361707527957 L-0.8341404712007754,-0.05417629275601332 L-0.8376314394147255,-0.05571018327893956 L-0.8411380476722912,-0.05723780454703181 L-0.8446602096175551,-0.058759118940137745 L-0.8481978385115638,-0.06027408899342206 " />
			<path d="M-0.8481978385115646,-0.0602740889934224 L-0.8854023672866089,-0.07545646762357189 L-0.9241319921987313,-0.08992651726070883 L-0.9642861431784672,-0.10364666320844856 L-1.0057605510581578,-0.11658127806182245 L-1.0484475183299933,-0.12869677422174447 L-1.0922361988065008,-0.1399616911126692 L-1.1370128854572799,-0.1503467768769604 L-1.1826613056745514,-0.15982506433383392 L-1.2290629232007957,-0.1683719410056293 L-1.276097245934464,-0.1759652130295727 L-1.3236421388144688,-0.18258516278906844 L-1.3715741409709856,-0.18821460011486824 L-1.4197687863190116,-0.1928389069231619 L-1.4681009267621856,-0.19644607517467721 " />
			<path d="M-1.1271651795372954,0.0003932702622255202 L-2.0358782741621924,0.20582517977162237 " />
			<path d="M-1.4681009267754004,-0.4539297743967748 L-1.4150678215963515,-0.44603936760627527 L-1.3622149842851237,-0.4394129677241867 L-1.3097076809967432,-0.434071294917787 L-1.2577100974318611,-0.4300310521262374 L-1.2063848254425629,-0.42730487283196783 L-1.155892354622008,-0.425901281556892 L-1.1063905704676422,-0.4258246672069813 L-1.0580342606871906,-0.42707526934854223 L-1.0109746311911632,-0.42964917745911424 L-0.9653588332853265,-0.4335383431553284 L-0.9213295035415635,-0.43873060535949093 L-0.8790243177859103,-0.4452097283261994 L-0.8385755605984044,-0.45295545241008534 L-0.8001097116708917,-0.46194355741593435 " />
			<path d="M-0.800109711670884,-0.46194355741593873 L-0.8115587088675352,-0.4997500122681854 L-0.8250750936337847,-0.5386525255859864 L-0.8406166014280522,-0.5785294526455388 L-0.8581346353278797,-0.6192561018173162 L-0.8775744179882179,-0.6607051244657831 L-0.8988751629253451,-0.7027469131573332 L-0.9219702645908359,-0.745250006931288 L-0.9467875066412279,-0.7880815023667123 L-0.9732492877521517,-0.8311074691596758 L-1.0012728642708184,-0.8741933689114867 L-1.0307706089481163,-0.9172044758183822 L-1.06165028494128,-0.960006297947222 L-1.0938153342303525,-1.0024649977798852 L-1.1271651795465858,-1.0444478107113688 " />
			<path d="M-1.4681009267753984,-0.4539297743967773 L-1.6941099965902735,-0.4901918811035113 " />
			<path d="M-1.954318271749922,-0.5319410916442351 L-2.3542429779824023,-0.5961071553510597 " />
			<path d="M-0.904177754958868,-1.1731896603167593 L-0.876887785395706,-1.1331363829993302 L-0.8487856955507753,-1.093710749205586 L-0.8199444587393155,-1.0550151363465736 L-0.7904389676357632,-1.0171500261719113 L-0.7603458397982947,-0.9802137438466163 L-0.7297432187143288,-0.9443022026279866 L-0.6987105708836105,-0.9095086548055327 L-0.6673284794658039,-0.8759234495507062 L-0.6356784350284268,-0.8436337983052167 L-0.6038426239385009,-0.8127235483171626 L-0.5719037149474028,-0.7832729649130357 L-0.5399446445230989,-0.7553585230709812 L-0.5080484014871929,-0.7290527088365393 L-0.47629781151602923,-0.7044238310965375 " />
			<path d="M-0.4762978115160237,-0.7044238310965332 L-0.4732169945168223,-0.7021176396317408 L-0.47013841663253875,-0.6998280151073932 L-0.46706215367814774,-0.6975550139092088 L-0.46398828141161585,-0.6952986920135297 L-0.4609168755320341,-0.6930591049859431 L-0.45784801167775596,-0.6908363079799136 L-0.4547817654245323,-0.6886303557354233 L-0.45171821228365183,-0.6864413025776253 L-0.4486574277000811,-0.6842692024155049 L-0.44559948705060615,-0.6821141087405529 L-0.4425444656419767,-0.6799760746254472 L-0.4394924387090514,-0.6778551527227468 L-0.4364434814129451,-0.6757513952635943 L-0.43339766883918096,-0.6736648540564328 " />
			<path d="M-0.4333976688391772,-0.6736648540564292 L-0.4408746724449234,-0.6825681672388315 L-0.4487371143712378,-0.6936361610427404 L-0.4569604094565214,-0.7068342268289061 L-0.46551884418321243,-0.7221210954110895 L-0.474385657081685,-0.7394489661011625 L-0.48353312241100277,-0.7587636561776405 L-0.49293263685486083,-0.7800047703102655 L-0.502554808961631,-0.803105889410872 L-0.5123695510488346,-0.8279947783200099 L-0.5223461732846706,-0.8545936116799094 L-0.5324534796524072,-0.8828192172875025 L-0.5426598654975727,-0.9125833361665567 L-0.5529334163529187,-0.9437928985457009 L-0.5632420077321411,-0.9763503148793791 " />
			<path d="M-0.9041777549588706,-1.1731896603167562 L-1.6941099965924211,-2.359334911971139 " />
			<path d="M-0.563242007733926,-0.7188666156648676 L-0.5529334163546018,-0.6901866768961546 L-0.542659865499156,-0.660367039576922 L-0.5324534796538931,-0.6295009470798026 L-0.5223461732860625,-0.5976849149503627 L-0.5123695510501367,-0.5650184291115122 L-0.5025548089628482,-0.5316036347798105 L-0.4929326368559997,-0.49754501706639354 L-0.4835331224120701,-0.46294907426125814 L-0.47438565708268876,-0.4279239848225136 L-0.4655188441841608,-0.39257926911189656 L-0.4569604094574241,-0.3570254469342701 L-0.4487371143721048,-0.32137369195195464 L-0.4408746724457652,-0.28573548405450294 L-0.4333976688400059,-0.250222260770932 " />
			<path d="M-0.433397668840004,-0.2502222607709296 L-0.46789152417586555,-0.23894092419631857 L-0.5026863385226691,-0.22793089469197692 L-0.5376733115685619,-0.21722659964790642 L-0.572743042138409,-0.206861510449451 L-0.6077858702816052,-0.1968680378152285 L-0.6426922201690581,-0.18727743045167727 L-0.6773529427271292,-0.1781196773411095 L-0.7116596569371486,-0.16942341396881244 L-0.7455050887332889,-0.16121583278241425 L-0.7787834064390972,-0.15352259816350128 L-0.8113905516938009,-0.14636776617736424 L-0.8432245648336132,-0.13977370935180505 L-0.8741859037105979,-0.1337610467202187 L-0.9041777549521745,-0.12834857934769706 " />
			<path d="M-0.5632420077339229,-0.718866615664868 L-0.8396893026602823,-1.4713948802132055 " />
			<path d="M-0.4254062797337513,-0.24560843011923716 L-0.7589975787526498,-0.05300940383145272 " />
			<path d="M-0.42540627973374984,-0.245608430119235 L-0.43339766884000236,-0.25022226077092435 " />
			<path d="M-1.6941099965914974,0.008505172715804893 L-0.9041777549521745,-0.12834857934769517 " />
			<path d="M-0.7589975787526488,-0.05300940383145125 L-0.800109711663197,-0.03850096412991311 " />
			<path d="M-2.8902989680976794,-0.28747483787212674 L-1.468100926762187,-0.1964460751746812 " />
			<path d="M-0.7589975787526501,-0.05300940383145282 L-0.7589975787526501,-0.43820745640862074 " />
			<path d="M-0.7589975787526528,-0.43820745640861714 L-0.8001097116708882,-0.4619435574159342 " />
			<path d="M-1.6933654289014213,-1.740780647945752 L-1.4378336345518514,-1.4265187245965847 " />
			<path d="M-1.2715736200580592,-1.2220463533056674 L-1.127165179546587,-1.0444478107113706 " />
			<path d="M-0.7589975787526495,-0.4382074564086203 L-0.42540627973375034,-0.6308064826962139 " />
			<path d="M-0.4254062797337525,-0.6308064826962116 L-0.433397668839178,-0.6736648540564265 " />
			<path d="M-0.8396893026602861,-1.8660348943284693 L-0.5632420077321417,-0.9763503148793808 " />
			<path d="M-0.4254062797337508,-0.6308064826962134 L-0.4254062797337508,-0.24560843011923822 " />
			<path d="M0.30708662989764024,-1.1361753139704736 L0.2583888816595115,-1.131541561986477 " />
			<path d="M0.2583888816595111,-1.1315415619864768 L0.19994813402562314,-1.1208333533419088 L0.14022557560450685,-1.1044784316434986 L0.07952974173915159,-1.0825612887735285 L0.018174195853742893,-1.0551951518503864 L-0.043524090460171326,-1.0225213982809531 L-0.1052463749645999,-0.9847088253845465 L-0.16667379144344133,-0.9419527783616454 L-0.22748899701130512,-0.8944741411124347 L-0.287377811552589,-0.8425181951187468 L-0.34603084082122865,-0.7863533522845804 L-0.40314507481595907,-0.7262697682815258 L-0.4584254531736441,-0.6625778435627533 L-0.5115863894936331,-0.5956066197895423 L-0.5623532467182588,-0.5257020799546438 L-0.6104637559474547,-0.4532253609842821 L-0.6556693713576853,-0.3785508880527536 L-0.6977365542254873,-0.30206444024802054 L-0.7364479794221684,-0.22416115758135047 L-0.771603658146739,-0.14524349963707786 L-0.8030219710968777,-0.06571916640839526 L-0.8305406067404185,0.014001007939561712 L-0.8540173998401152,0.09350517749821419 L-0.873331065899744,0.17238261227085155 L-0.8883818277372886,0.2502258200629821 L-0.8990919309482392,0.3266326516457304 L-0.9054060455960531,0.4012083783167045 L-0.9072915520545783,0.4735677311253536 L-0.9047387095257431,0.5433368912278856 L-0.8977607063619233,0.6101554210892823 L-0.8863935919330126,0.6736781265555449 L-0.8706960903901837,0.7335768401764372 L-0.850749297288461,0.7895421165658201 " />
			<path d="M-0.8507492972884598,0.7895421165658236 L-0.830413370102375,0.834032479639137 " />
			<path d="M-3.963496197911809e-14,-1.072252647848176 L-0.0014894150704862577,-1.1271275651365378 L-0.005776334629878411,-1.1759696950560365 L-0.012148089927107064,-1.218373428044661 L-0.019907332928564114,-1.254157417599925 L-0.028372036318142394,-1.2833645802788705 L-0.036875493497235665,-1.3062620956980644 L-0.051408446417046894,-1.3353182185211006 L-0.06201674217057096,-1.3494906136341238 " />
			<path d="M-0.06201674217057096,-1.3494906136341238 L-0.05984803231166847,-1.3480251399720227 " />
			<path d="M-1.1973480323116819,0.6221826536375907 L-1.1997015246610898,0.6210372326373942 " />
			<path d="M-1.1997015246610898,0.6210372326373942 L-1.1928670337261786,0.6223607976595155 L-1.1645023245955708,0.6226862347895101 L-1.1276020731909477,0.6174979920903446 L-1.0751741142712106,0.6034657662473716 L-1.008057289947375,0.577143138912679 L-0.9696649230541137,0.558581013690499 L-0.9285980323117193,0.5361263239240783 " />
			<path d="M-0.05984803231166888,-1.3480251399720231 L-4.546363285840016e-14,-1.3134718624064379 " />
			<path d="M-1.197348032311682,0.6221826536375907 L-1.1375000000000615,0.6567359312031743 " />
			<path d="M-1.6941099965904431,-0.4209842251752817 L-0.8481978392415028,-0.06027408930467937 " />
			<path d="M-1.2116380318879196,-1.2566501812696182 L-0.47629781215054834,-0.704423831573049 " />
			<path d="M0.14391702687660782,-1.1159397452723498 L0.2583888816595109,-1.131541561986477 " />
			<path d="M-0.8944736550602886,0.6826056739484424 L-0.8507492972884603,0.7895421165658234 " />

       </g>

       <!-- solid lines -->
       <g  stroke="rgb(0,0,0)" fill="none">
			<path d="M4.512787618749822,1.6134158006536405 L4.511586077792194,1.6665579291663057 L4.507984815744119,1.7209388340609415 " />
			<path d="M4.507984815744118,1.7209388340609508 L4.497206725078658,1.8104873397332497 L4.480344594808272,1.9021919904624536 L4.457520041198406,1.995391376511663 L4.428897683838994,2.0894133075293984 L4.394683958343714,2.1835796606487983 L4.355125627455765,2.2772112713744295 L4.310508001298644,2.369632831981733 L4.261152879608168,2.4601777620999306 L4.20741623078716,2.548193016349855 L4.149685624522392,2.6330437943621305 L4.088377436480714,2.7141181192052204 L4.023933845245218,2.7908312512019404 L3.9568196431506966,2.862629905300256 L3.8875188840199004,2.928996241581044 L3.8165313919784243,2.9894516001217224 L3.7443691565280157,3.043559953278448 " />
			<path d="M3.744369156528008,3.0435599532784527 L3.696667553004686,3.0754021045282354 L3.6488325356841083,3.104248231415731 L3.6010124690846737,3.1300088651383122 L3.5533556713538017,3.1526041068221007 L3.5060099542461414,3.1719638753353587 L3.4591221646723946,3.1880281246512903 L3.412837729240694,3.200747030086083 L3.367300203203172,3.2100811428345497 L3.3226508252067037,3.2160015123240724 L3.2790280792288082,3.2184897760073525 L3.236567265057398,3.2175382163154707 L3.1954000786465713,3.2131497845946 L3.1556542036500153,3.2053380919521537 L3.117452915398911,3.1941273670407306 L3.0809146985526366,3.1795523809108204 L3.0461528796081696,3.161658339165329 " />
			<path d="M4.261152879608167,1.0572166079691414 L4.290229731406716,1.0756940643348127 L4.317773013811735,1.0966618991185537 L4.343716372643403,1.1200695989698053 L4.3679973080779275,1.1458607726893528 L4.390557325215085,1.1739732870806665 L4.41134207499757,1.2043394166342114 L4.430301485142626,1.2368860066841347 L4.447389880770565,1.2715346496442617 L4.4625660944395555,1.3082018738988384 L4.475793565321586,1.3467993448929663 L4.487040427280714,1.387234077938281 L4.496279585641371,1.429408662221213 L4.503488782461812,1.4732214954741663 L4.508650650155444,1.5185670287442838 L4.511752753330868,1.5653360206701183 L4.512787618749822,1.6134158006536363 " />
			<path d="M3.866523716515982,2.9580565437945143 L3.9259165028949248,2.913522919797206 L3.984342422270626,2.863765423055906 L4.041380084106672,2.809142924059373 L4.0966181105219155,2.750049381591624 L4.149658103308332,2.68691100134741 L4.200117517334404,2.620183161970381 L4.247632419609934,2.5503471306845578 L4.29186011411282,2.477906592207254 L4.3324816134465465,2.4033840159782844 L4.36920393950179,2.32731688790643 L4.401762236528908,2.25025383381126 L4.429921681380991,2.172750662519573 L4.453479177150054,2.0953663571551817 L4.472264817981219,2.0186590435344334 L4.486143114500055,1.943181964744965 L4.495013971014837,1.8694794909406114 " />
			<path d="M-3.6605361248821665e-14,-1.0722526478481762 L-6.769663626205402e-14,-1.918766965180218 " />
			<path d="M-7.238654120556021e-14,-1.9187669651802175 L-0.002001591551135551,-2.0117607783170723 L-0.008001544194959687,-2.102219322371156 L-0.017985403520091925,-2.18992467478661 L-0.03192911753493588,-2.2746655456873848 L-0.04979909461110377,-2.3562377868930553 L-0.07155228440859474,-2.4344448837296735 L-0.09713628158783183,-2.5090984284508266 L-0.12648945205871742,-2.580018574128405 L-0.15954108146255286,-2.6470344679195987 L-0.19621154552912246,-2.709984662666365 L-0.2364125018985368,-2.768717505835773 L-0.280047102945715,-2.8230915048642395 L-0.32701022909479427,-2.8729756680255045 L-0.3771887420613971,-2.918249820001176 L-0.4304617574126688,-2.9588048913935974 L-0.4867009357884524,-2.9945431814835732 " />
			<path d="M-2.836700935788489,1.0757762163033133 L-2.7776310794948538,1.1066116284197234 L-2.7158728497410927,1.1324698773539117 L-2.651575027512066,1.1532886683192802 L-2.5848925118933472,1.1690178470248838 L-2.5159859469057606,1.1796195205015065 L-2.445021334499862,1.185068148389147 L-2.372169634642705,1.1853506044659796 L-2.2976063534602993,1.1804662082705755 L-2.2215111204279863,1.1704267267411916 L-2.144067255627296,1.155256345868188 L-2.065461328111814,1.134991612427855 L-1.9858827064459925,1.1096813459380317 L-1.9055231024996875,1.0793865210476095 L-1.824576109597476,1.0441801206432633 L-1.7432367361353776,1.0041469600272825 L-1.6617009357885588,0.9593834825900873 " />
			<path d="M-1.6617009357885513,0.9593834825900829 L-1.5801651354417179,0.9099975274696237 L-1.4988257619796128,0.8561080697574919 L-1.4178787690773929,0.7978449338774751 L-1.3375191651310794,0.735348480827156 L-1.2579405434652493,0.6687692700359766 L-1.179334615949759,0.5982676966543821 L-1.1018907511490605,0.5240136051478572 L-1.0257955181167393,0.44618588012673244 L-0.9512322369343256,0.36497201539748625 L-0.8783805370771598,0.2805676622737465 L-0.807415924671254,0.1931761582351359 L-0.7385093596836599,0.10300803706947748 L-0.6718268440649343,0.010280521678451837 L-0.6075290218359002,-0.08478299923139432 L-0.5457707920821326,-0.1819535093116066 L-0.48670093578849016,-0.2809969162922704 L-0.43046175741269277,-0.3816746159307912 L-0.37718874206141795,-0.483744066830415 L-0.3270102290948118,-0.5869593747436963 L-0.28004710294573076,-0.6910718849532771 L-0.23641250189855056,-0.7958307813028855 L-0.19621154552913356,-0.9009836904354217 L-0.15954108146256174,-1.0062772897824759 L-0.12648945205872497,-1.1114579178405917 L-0.09713628158783805,-1.2162721852640415 L-0.07155228440859918,-1.320467585301957 L-0.049799094611106876,-1.4237931021092072 L-0.03192911753493788,-1.5259998154655563 L-0.01798540352009348,-1.6268415004462788 L-0.008001544194960575,-1.72607522059957 L-0.002001591551135773,-1.8234619132017311 L-7.238654120556021e-14,-1.9187669651802004 " />
			<path d="M0.661246864709184,-0.5469938054646533 L0.6573737768276162,-0.6357925528283522 L0.6525411640691745,-0.6782456755400881 L0.6457918131364575,-0.7192638630505693 L0.6371419838070357,-0.7587482989533141 L0.6266125142773991,-0.7966038617838047 L0.6142287709619174,-0.8327393541754269 L0.600020587382925,-0.8670677225619143 L0.5840221922991535,-0.8995062668970134 L0.5662721272456545,-0.9299768398861393 L0.5468131536838633,-0.9584060352500552 L0.5256921499854952,-0.9847253645670256 L0.5029599984984409,-1.008871422267425 L0.47867146296673413,-1.0307860383833087 L0.4528850565998953,-1.0504164186849596 L0.42566290110948946,-1.0677152718668097 " />
			<path d="M-0.7118370988905287,0.9024925217428009 L-0.6684562005792225,0.9239795861480096 L-0.6222282815865099,0.9400118469207439 L-0.5734038550107206,0.9505024238507986 L-0.5222475046497451,0.9553944675928592 L-0.46903645119850945,0.9546614677380276 L-0.41405904996601084,0.948307396476026 L-0.35761322825291497,0.9363666870695575 L-0.3000048708576982,0.9189040472574692 L-0.2415461624604244,0.8960141085979118 L-0.18255389586691448,0.867820913651726 L-0.12334775528108241,0.8344772437850572 L-0.06424858390853835,0.7961637912338957 L-0.005576645279457532,0.7530881799171947 L0.0523501122872391,0.7054838403048624 L0.1092177786733721,0.6536087444378229 L0.16471818306763022,0.5977440079551746 L0.2185505639699011,0.5381923667041837 L0.27042319904389756,0.4752765361884985 L0.3200549859857713,0.4093374627448776 L0.3671769658418571,0.3407324759254452 L0.41153378052054335,0.2698333520978907 L0.45288505659989464,0.1970242997571232 L0.4910067079320547,0.12269987746614351 L0.5256921499854952,0.04726285570900805 L0.5567534193444899,-0.0288779657573182 L0.5840221922991534,-0.10530997322426987 L0.6073506970062067,-0.18161897502111513 L0.626612514277399,-0.25739144605550335 L0.6417032626560435,-0.33221676874177447 L0.6525411640691743,-0.40568945817323065 L0.6590674869900097,-0.4774113594799748 L0.661246864709184,-0.5469938054646449 " />
			<path d="M-2.3768140213887334,-0.5839355100793557 L-2.359363690395106,-0.593496826978103 L-2.3419630020388285,-0.6020035436620098 L-2.324657141070352,-0.6094335705526264 L-2.3074910459997624,-0.6157676139355879 L-2.290509292403962,-0.6209892260610269 L-2.273755977176289,-0.6250848478538079 L-2.257274604019143,-0.6280438441226748 L-2.2411079704769623,-0.6298585311768876 L-2.2252980568029,-0.6305241967786306 L-2.209885916947777,-0.630039112379384 L-2.194911571954383,-0.6284045376084845 L-2.180413906033952,-0.6256247170022173 L-2.1664305655946814,-0.6217068689819356 L-2.1529978614844696,-0.6166611671098279 " />
			<path d="M-2.1529978614844674,-0.616661167109827 L-2.1377196939460203,-0.609172602332192 L-2.123333855073403,-0.6001207175215952 L-2.1098936627792186,-0.5895390614760944 L-2.0974489301473254,-0.5774668527506334 L-2.0860457808117148,-0.5639488343021892 L-2.075726478009525,-0.5490351076599526 L-2.066529267941745,-0.5327809472351512 L-2.0584882380221807,-0.5152465954587375 L-2.0516331905400347,-0.49649703950621493 L-2.0459895322043478,-0.4766017704371234 L-2.041578179979682,-0.45563452564188156 L-2.0384154835620456,-0.4336730155505474 L-2.0365131647823778,-0.41079863561638974 L-2.0358782741621906,-0.3870961646417478 " />
			<path d="M-2.0358782741621906,-0.3870961646417448 L-2.0358782741621906,0.2058251797716254 " />
			<path d="M-2.035878274164971,-1.5690935605057388 L-2.038019176910887,-1.523713140554602 L-2.0444151284262806,-1.4764518359251169 L-2.0549861929457185,-1.4279003122206477 L-2.069600254687558,-1.3786653600337953 L-2.0880746690197047,-1.3293623113569377 L-2.1101785451283344,-1.2806073492434793 L-2.1356356316610823,-1.2330098068326456 L-2.1641277692803107,-1.1871645519836111 L-2.195298866976897,-1.1436445526948082 L-2.228759352449085,-1.1029937162248253 L-2.2640910409261568,-1.0657200914106353 L-2.3008523615869976,-1.0322895191396846 L-2.3385838762544586,-1.0031198103314145 L-2.3768140213935984,-0.9785755241910429 " />
			<path d="M-1.6941099965902735,-0.4901918811035113 L-1.954318271749922,-0.5319410916442351 " />
			<path d="M-2.3542429779824023,-0.5961071553510597 L-2.8902989680976794,-0.6821148519902533 " />
			<path d="M-2.3768140213936,-0.9785755241910395 L-2.890298968097679,-0.6821148519902516 " />
			<path d="M-1.353174249365966,-1.5695742221217621 L-1.374018636672628,-1.5582728180400593 L-1.3947795901813222,-1.5484830844621902 L-1.4153801640347687,-1.5402413048585832 L-1.4357440067872131,-1.533578025552501 L-1.4557956443840825,-1.5285179425068858 L-1.4754607598897829,-1.5250798097942662 L-1.4946664689268958,-1.5232763700889558 L-1.5133415898059135,-1.5231143074391673 L-1.531416907344342,-1.5245942224940716 L-1.548825429397383,-1.5277106302776273 L-1.5655026351494201,-1.5324519805174226 L-1.581386714246074,-1.5388007004531936 L-1.5964187958805343,-1.5467332599663508 L-1.6105431669851134,-1.5562202587891305 " />
			<path d="M-1.6105431669851153,-1.5562202587891318 L-1.6216292250414124,-1.5653304708540663 L-1.6320138511747966,-1.5754814748941286 L-1.6416700793980177,-1.5866469115737 L-1.6505728351707105,-1.5987977873575991 L-1.658699000511007,-1.6119025497992312 L-1.666027474026507,-1.6259271694735236 L-1.6725392257087308,-1.640835228341879 L-1.678217346348758,-1.6565880143197023 L-1.6830470914457452,-1.673144621800919 L-1.6870159194942942,-1.690462057878464 L-1.6901135245512557,-1.7084953539849117 L-1.692331862997399,-1.7271976826633413 L-1.6936651744244537,-1.7465204791652271 L-1.6941099965932913,-1.7664135675595865 " />
			<path d="M-1.6941099965932904,-1.7664135675595898 L-1.6941099965924182,-2.359334911971142 " />
			<path d="M-1.6941099965900424,-0.5844161716985736 L-1.6919690938439782,-0.6297965916495333 L-1.6855731423284865,-0.6770578962788005 L-1.6750020778090011,-0.7256094199830194 L-1.6603880160671636,-0.7748443721696001 L-1.6419136017350666,-0.8241474208461742 L-1.6198097256265311,-0.8729023829593484 L-1.5943526390939173,-0.9204999253699075 L-1.5658605014748572,-0.9663451802186869 L-1.5346894037784682,-1.0098651795072644 L-1.501228918306499,-1.0505160159770601 L-1.4658972298296604,-1.0877896407911094 L-1.429135909169059,-1.1212202130619726 L-1.3914043945018355,-1.150389921870215 L-1.3531742493629235,-1.1749342080106222 " />
			<path d="M-1.3531742493629189,-1.1749342080106238 L-0.8396893026602819,-1.4713948802132037 " />
			<path d="M-2.03587827416219,0.2058251797716225 L-1.6941099965914952,0.008505172715802978 " />
			<path d="M-2.89029896809768,-0.2874748378721247 L-2.3768140213887325,-0.5839355100793551 " />
			<path d="M-2.89029896809768,-0.6821148519902522 L-2.89029896809768,-0.28747483787212463 " />
			<path d="M-2.0358782741658343,-2.1620149049139417 L-2.0358782741649715,-1.5690935605057392 " />
			<path d="M-2.0358782741658326,-2.1620149049139434 L-1.6933654289014213,-1.740780647945752 " />
			<path d="M-1.4378336345518514,-1.4265187245965847 L-1.2715736200580592,-1.2220463533056674 " />
			<path d="M-1.694109996592417,-2.3593349119711373 L-2.0358782741658334,-2.1620149049139425 " />
			<path d="M-0.8396893026602814,-1.8660348943284673 L-1.3531742493659642,-1.569574222121761 " />
			<path d="M-0.8396893026602841,-1.4713948802132049 L-0.8396893026602841,-1.866034894328469 " />
			<path d="M-1.6941099965914965,0.008505172715808085 L-1.6941099965900424,-0.5844161716985729 " />
			<path d="M-0.20329319959115488,-2.03613834868855 L-0.20529479114221805,-2.129132161825405 L-0.21129474378604218,-2.2195907058794884 L-0.22127860311117442,-2.3072960582949427 L-0.23522231712601838,-2.392036929195717 L-0.25309229420218626,-2.473609170401388 L-0.27484548399967723,-2.5518162672380056 L-0.3004294811789143,-2.6264698119591587 L-0.3297826516497999,-2.6973899576367373 L-0.36283428105363535,-2.764405851427931 L-0.39950474512020495,-2.827356046174697 L-0.4397057014896193,-2.886088889344105 L-0.4833403025367975,-2.940462888372572 L-0.5303034286858768,-2.9903470515338366 L-0.5804819416524796,-3.0356212035095087 L-0.6337549570037513,-3.07617627490193 L-0.6899941353795349,-3.1119145649919053 " />
			<path d="M-0.6899941353795456,-3.1119145649919115 L-0.7490639916731847,-3.1427499771083234 L-0.8108222214269492,-3.1686082260425126 L-0.8751200436559797,-3.1894270170078816 L-0.9418025592747029,-3.205156195713485 L-1.0107091242622945,-3.2157578691901074 L-1.0816737366681972,-3.2212064970777465 L-1.1545254365253592,-3.2214889531545774 L-1.2290887177077694,-3.2166045569591706 L-1.305183950740087,-3.2065650754297836 L-1.3826278155407823,-3.1913946945567764 L-1.4612337430562687,-3.1711299611164394 L-1.540812364722096,-3.145819694626611 L-1.6211719686684058,-3.115524869736184 L-1.7021189615706231,-3.080318469331832 L-1.783458335032726,-3.040285308715845 L-1.8649941353795572,-2.995521831278639 L-1.9465299357263883,-2.946135876158176 L-2.0278693091884916,-2.8922464184460424 L-2.108816302090708,-2.833983282566024 L-2.1891759060370184,-2.7714868295157036 L-2.268754527702846,-2.7049076187245227 L-2.3473604552183316,-2.634406045342928 L-2.4248043200190272,-2.560151953836403 L-2.500899553051345,-2.482324228815278 L-2.5754628342337558,-2.4011103640860325 L-2.6483145340909178,-2.3167060109622932 L-2.7192791464968202,-2.2293145069236844 L-2.7881857114844117,-2.1391463857580257 L-2.854868227103135,-2.046418870367 L-2.9191660493321656,-1.951355349457156 L-2.9809242790859303,-1.8541848393769458 L-3.03999413537957,-1.7551414323962844 L-3.0962333137553637,-1.654463732757766 L-3.149506329106636,-1.552394281858145 L-3.199684842073239,-1.449178973944867 L-3.2466479682223186,-1.3450664637352874 L-3.290282569269497,-1.2403075673856803 L-3.3304835256389116,-1.135154658253148 L-3.367153989705481,-1.0298610589060968 L-3.400205619109316,-0.9246804308479847 L-3.4295587895802013,-0.8198661634245379 L-3.455142786759439,-0.7156707633866264 L-3.47689597655693,-0.6123452465793795 L-3.494765953633098,-0.5101385332230327 L-3.508709667647942,-0.4092968482423124 L-3.518693526973075,-0.3100631280890237 L-3.5246934796168987,-0.2126764354868651 L-3.5266950711679623,-0.1173713835083825 L-3.524693479616899,-0.024377570371527657 L-3.518693526973075,0.06608097368255716 L-3.5087096676479423,0.15378632609801213 L-3.494765953633099,0.23852719699878633 L-3.4768959765569303,0.32009943820445685 L-3.4551427867594393,0.39830653504107505 L-3.429558789580202,0.4729600797622282 L-3.4002056191093173,0.5438802254398061 L-3.367153989705482,0.610896119230999 L-3.330483525638913,0.6738463139777653 L-3.290282569269498,0.7325791571471736 L-3.2466479682223204,0.7869531561756402 L-3.199684842073241,0.8368373193369056 L-3.1495063291066376,0.8821114713125775 L-3.0962333137553655,0.9226665427049989 L-3.039994135379577,0.9584048327949779 " />
			<path d="M-3.0399941353795716,0.958404832794981 L-2.9959494503147854,0.9819953028039878 L-2.950372059747423,1.0027956911266214 L-2.9033237315620264,1.0207778084354915 L-2.8548682271031374,1.035917284810951 L-2.8050712147639585,1.048193602767969 L-2.7540001809905177,1.0575901250620536 L-2.7017243388219647,1.0640941172365588 L-2.64831453409092,1.0676967648808156 L-2.5938431494110206,1.0683931855756914 L-2.538384006081774,1.0661824355103946 L-2.482012264043653,1.0610675107615555 L-2.42480432001903,1.053055343232853 L-2.366837703976986,1.0421567912606837 L-2.308190974062304,1.0283866248986102 L-2.248943610131049,1.0117635059005268 L-2.189175906037021,0.9923099624296803 L-2.1289688608150454,0.9700523585278045 L-2.0684040689085874,0.9450208583857596 L-2.0075636095904454,0.9172493854640924 L-1.946529935726391,0.8867755765189143 L-1.8853857620325032,0.8536407305954108 L-1.8242139529776389,0.8178897530581037 L-1.7630974104829455,0.7795710947337144 L-1.702118961570625,0.7387366862491109 L-1.6413612461142006,0.6954418676533234 L-1.580906604842414,0.6497453134190037 L-1.5208369677485267,0.6017089529249666 L-1.4612337430562716,0.5513978865275921 L-1.402177706892921,0.49888029733481654 L-1.343748893818986,0.4442273588022796 L-1.2290887177077714,0.32881449661834683 L-1.1178745681514315,0.20578473227564031 L-1.0107091242622959,0.07580477472675229 L-0.9081731248658971,-0.06042100337655243 L-0.8108222214269509,-0.20215438273977537 L-0.7191839669259288,-0.3486272978999977 L-0.6337549570037526,-0.49904599943916583 L-0.5549981388669822,-0.65259535538097 L-0.4833403025367977,-0.8084432684616454 L-0.4191697680368962,-0.9657451853371326 L-0.3628342810536356,-1.1236486732908348 L-0.3146391284720309,-1.2812980396403613 L-0.2748454839996777,-1.4378389688103064 L-0.25816842855895983,-1.5154283122641474 L-0.24366899284379695,-1.5924231519423828 L-0.23136682693639155,-1.668719142065044 L-0.22127860311117464,-1.744212883954622 L-0.21341799324002642,-1.818802066165142 L-0.20779565026373437,-1.8923856031377857 L-0.204419193754799,-1.9648637721951623 L-0.20329319959115488,-2.0361383486885325 " />
			<path d="M0.8109653677839721,-0.5238322724336472 L0.8099305023650181,-0.5719120524171695 L0.8068283991895941,-0.618681044343004 L0.8016665314959619,-0.6640265776131214 L0.7944573346755214,-0.7078394108660745 L0.7852181763148643,-0.750013995149006 L0.7739713143557362,-0.790448728194321 L0.7607438434737053,-0.8290461991884489 L0.7455676298047156,-0.8657134234430264 L0.7284792341767754,-0.9003620664031539 L0.7095198240317194,-0.9329086564530772 L0.6887350742492349,-0.963274786006622 L0.666175057112077,-0.9913873003979354 L0.6418941216775533,-1.0171784741174825 L0.6159507628458845,-1.040586173968734 L0.5884074804408655,-1.061554008752475 L0.5593306286423223,-1.0800314651181435 " />
			<path d="M0.5593306286423168,-1.0800314651181466 L0.5314588223427346,-1.0947101039413476 L0.5024193356917287,-1.1072394380864874 L0.47227066970485754,-1.1175942267915449 L0.44107355987649,-1.1257536099889025 L0.40889085382612356,-1.1317011503286467 L0.3757873846897568,-1.1354248662921604 L0.34182984051137116,-1.1369172563292906 L0.3070866298976408,-1.1361753139704736 " />
			<path d="M-0.8304133701023735,0.8340324796391401 L-0.8136843057263876,0.8644919538190728 L-0.7954130859526851,0.8931538547091221 L-0.7756365187636212,0.9199604419528534 L-0.7543944447141867,0.9448577127851258 L-0.7317296566718795,0.9677955108224666 L-0.7076878136090438,0.9887276271047803 L-0.682317348621346,1.007611893184841 L-0.655669371357689,1.0244102660780363 " />
			<path d="M-0.6556693713576863,1.0244102660780379 L-0.6093328514031927,1.047361284321843 L-0.5599553379296583,1.0644858529714005 L-0.5078044119607938,1.0756911725054812 L-0.45316268388291725,1.0809165203266708 L-0.3963262619547845,1.0801335798223892 L-0.33760314767128125,1.073346593815065 L-0.2773115666766343,1.0605923415699137 L-0.2157782442720735,1.041939939484914 L-0.1533366348631179,1.0174904665430573 L-0.09032511494125942,0.9873764165565823 L-0.02708514939243719,0.9517609801715251 L0.03604055893076317,0.9108371605234717 L0.09870992634556111,0.8648267273368421 L0.16058334212009792,0.8139790151355383 L0.22132550885341754,0.758569572077558 L0.2806072594811301,0.6988986667356528 L0.3381073410602586,0.6352896609159137 L0.3935141556667687,0.5680872573321275 L0.44652744897171476,0.4976556316319089 L0.4968599373454674,0.424376458897307 L0.5442388646725912,0.34864684531446927 L0.588407480440865,0.270877176220815 L0.6291264310945563,0.19148889219132956 L0.6661750571120769,0.11091220521557682 L0.699352588779047,0.029583767341655517 L0.7284792341767752,-0.052055695579087846 L0.7533971534902429,-0.13356377222362953 L0.773971314355736,-0.21449876326255773 L0.7900902236129252,-0.29442207496701384 L0.8016665314959617,-0.37290059598610686 L0.8086375049894254,-0.4495090444148483 L0.810965367783972,-0.5238322724336382 " />
			<path d="M0.17573593128803078,-0.827303673569864 L0.17375819102723555,-0.7610709562207477 L0.16783469619629832,-0.6928802543702535 L0.15799457682016382,-0.6230669100592868 L0.1442862237442818,-0.5519742450124879 L0.12677705066250156,-0.4799518722818304 L0.10555316259613023,-0.4073539769513058 L0.08071893245447992,-0.33453757435768183 L0.05239648775925054,-0.2618607543929006 L0.02072511005689648,-0.18968092052212954 L-0.014139450027514378,-0.11835303217745646 L-0.05202573872658134,-0.048227859170627385 L-0.09274744229033705,0.020349743290876132 L-0.13610430322308686,0.08704253050145955 L-0.1818831050915365,0.151522526728803 L-0.22985872106120248,0.21347263810313039 L-0.279795221004715,0.27258821199264743 L-0.3314470317375743,0.32857853519658936 L-0.3845601446756547,0.3811682635881967 L-0.43887336497555085,0.4300987761770562 L-0.4941195960148593,0.4751294469319221 L-0.5500271528956944,0.5160388281095618 L-0.6063210985120036,0.5526257392703549 L-0.6627245956103005,0.5847102566251905 L-0.7189602681947701,0.612134597848337 L-0.774751565581749,0.634763898005035 L-0.8298241223955652,0.6524868727780253 L-0.8839071078176669,0.6652163657314603 L-0.9367345574538251,0.6728897769209063 L-0.9880466812696789,0.6754693707416675 L-1.037591141162575,0.6729424615015149 L-1.0851242918869703,0.6653214758052313 L-1.1304123792308913,0.6526438914441857 " />
			<path d="M-4.574118861455645e-14,-1.3052877828884555 L0.03998194032248603,-1.2652643899126481 L0.07522517211588597,-1.2188454401736928 L0.10547990117463024,-1.1663599382515117 L0.13053169041040402,-1.1081798867573025 L0.1502029797224257,-1.0447176496826978 L0.16435434449395891,-0.9764230296787084 L0.1728854837951429,-0.9037800799798803 L0.17573593128803078,-0.827303673569868 " />
			<path d="M-0.9285980323117173,0.5361263239240778 L-0.8830338864811678,0.5085282767899645 L-0.8375795086688715,0.47841356522179457 L-0.7923444024523121,0.445854738197473 L-0.7474375431644922,0.4109302327831176 L-0.7029671153628125,0.37372418517129724 L-0.6590402522029971,0.33432622798957357 L-0.5732389500192197,0.24933928928333193 L-0.49085995005695326,0.1567878873427212 L-0.41269660711877765,0.05756334276217323 L-0.33950167692561617,-0.047378757852348796 L-0.27198006666764807,-0.15702776470473895 L-0.21078204636272424,-0.27032769791876454 L-0.15649698640062226,-0.3861874172015307 L-0.1096476815840094,-0.5034911301209792 L-0.07068531632870445,-0.6211091377969646 L-0.03998511951111183,-0.7379087145190226 L-0.027828919314432765,-0.795649472514848 L-0.017842750809020202,-0.8527650165141751 L-0.010050671549488688,-0.9091177501687788 L-0.004471453337280162,-0.9645719148073686 L-0.001118536997749331,-1.018993916490119 L-3.9190872769268026e-14,-1.072252647848162 " />
			<path d="M-2.035878274162191,-0.38709616464174557 L-1.6941099965908837,-0.24136084121837612 " />
			<path d="M-2.376814021393602,-0.9785755241910401 L-1.6941099965921813,-0.5844161716948686 " />
			<path d="M-1.353174249363534,-1.1749342080095586 L-2.035878274164971,-1.5690935605057397 " />
			<path d="M-1.0560796182663075,-1.3464618732484617 L-1.3531742493659664,-1.5695742221217617 " />
			<path d="M3.866523716515983,2.9580565437945165 L3.7443691565280184,3.043559953278448 " />
			<path d="M4.4950139710148385,1.8694794909406045 L4.507984815744124,1.7209388340609513 " />
			<path d="M-0.9285980323117078,0.5361263239240722 L-1.6617009357885504,0.9593834825900837 " />
			<path d="M-4.546363285840016e-14,-1.3134718624064379 L0.42566290110948446,-1.0677152718668128 " />
			<path d="M-1.1375000000000615,0.6567359312031743 L-0.7118370988905287,0.902492521742801 " />
			<path d="M-2.1529978615060292,-0.6166611671190209 L-1.6941099965904431,-0.4209842251752817 " />
			<path d="M-1.6105431670038577,-1.556220258803208 L-1.2116380318879196,-1.2566501812696182 " />
			<path d="M-0.6899941353795449,-3.1119145649919124 L-0.48670093578846235,-2.9945431814835803 " />
			<path d="M-3.039994135379572,0.9584048327949816 L-2.8367009357884894,1.0757762163033138 " />
			<path d="M0.5593306286423168,-1.0800314651181468 L4.261152879608168,1.057216607969141 " />
			<path d="M-0.6556693713576867,1.0244102660780383 L3.046152879608164,3.1616583391653257 " />

       </g>
    </g>
    
</svg>
