<?xml version="1.0" encoding="UTF-8" standalone="no"?>
<svg
   xmlns:svg="http://www.w3.org/2000/svg"
   xmlns="http://www.w3.org/2000/svg"
   width="300.0"
   height="240.0"

>
    <g transform="scale(23.80021464572408, -23.80021464572408)   translate(3.9468593490475414,-4.875400789202115)" stroke-width="0.04201642778795942"  fill="none">
       <!-- hidden lines -->
       <g  stroke="rgb(160,160,160)" fill="none" stroke-dasharray="0.04201642778795942,0.04201642778795942" >
			<path d="M4.4603664419812645,3.9781549200930577 L4.431289590182716,3.959677463727386 L4.403746307777697,3.938709628943645 L4.377802948946028,3.9153019290923936 L4.353522013511505,3.8895107553728456 L4.330961996374346,3.8613982409815324 L4.310177246591862,3.8310321114279873 L4.291217836446806,3.7984855213780637 L4.274129440818866,3.763836878417937 L4.258953227149877,3.72716965416336 L4.245725756267845,3.688572183169232 L4.234478894308717,3.648137450123917 L4.22523973594806,3.6059628658409855 L4.21803053912762,3.5621500325880318 L4.212868671433988,3.516804499317914 L4.209766568258564,3.4700355073920797 L4.20873170283961,3.4219557274085575 L4.209766568258564,3.3726809877686184 L4.212868671433988,3.322329995636014 L4.22523973594806,3.2188867542582185 L4.245725756267846,3.1126222182374677 L4.274129440818866,3.004559773145745 L4.310177246591863,2.8957401194022254 L4.353522013511505,2.787211249759333 L4.4037463077776975,2.6800183565596436 L4.460366441981265,2.575193765962266 L4.522837133278114,2.4737469960776037 L4.590556754761101,2.376655034756091 L4.662873129456035,2.2848529306611196 L4.739089811142452,2.199224788239258 L4.818472791511434,2.1205952533111327 L4.900257569066879,2.0497215712813794 L4.983656511692819,1.987286294451439 L5.025710698397693,1.959424298230059 L5.067866441981267,1.9338907086677777 L5.110022185564841,1.9107470384183287 L5.152076372269715,1.890049042610489 L5.193927689876606,1.87184658452909 L5.235475314895655,1.8561835154899966 L5.27661915545905,1.8430975691984475 L5.317260092451099,1.8326202708452521 L5.357300218294863,1.824776861159846 L5.396643072820082,1.8195862356031631 L5.435193875644179,1.8170608988468147 L5.472859754506499,1.81720693464824 L5.50954996900572,1.820023991194402 L5.545176129201432,1.8255052819493365 L5.5796524085532395,1.8336376020035101 L5.612895750684419,1.8444013598856055 L5.644826069472003,1.8577706247600903 L5.675366441981265,1.8737131888968714 " />
			<path d="M5.913180457672468,2.5974797480763105 L5.911177575819778,2.537225026112084 L5.905180276598139,2.4796243762243506 L5.895222534739785,2.425004106403452 L5.881360760905716,2.3736736407706776 L5.863673482118998,2.325923766688959 L5.84226089690876,2.2820249874508995 L5.817244307684983,2.2422259898761716 L5.788765433559704,2.2067522354993514 L5.7569856075074854,2.175804683329116 L5.722084862413246,2.1495586514143827 L5.6842609111850075,2.1281628236666226 L5.643728026709205,2.111738407564704 L5.600715827993643,2.100378447513876 L5.555467979374583,2.094147297748714 L5.508240810156972,2.0930802577660357 L5.459301862507556,2.0971833723530615 L5.408928375827071,2.1064333973436637 L5.357405716187558,2.1207779312966935 L5.305025759732024,2.140135712350421 L5.2520852391945345,2.164397078571425 L5.1988840629076885,2.193424589190026 L5.145723615820298,2.2270538032029874 L5.092905052150044,2.2650942109326806 L5.040727589343214,2.307330313265427 L4.9894868130062715,2.353522842455134 L4.939473002411805,2.403410117576358 L4.890969486064899,2.456709526948152 L4.844251036645625,2.51311912913075 L4.7995823144203476,2.5723193634254433 L4.757216367939888,2.6339748601876494 L4.717393200518132,2.697736340697749 L4.680338410611968,2.763242595826902 L4.646261913804822,2.8301225322887023 L4.615356753633748,2.8979972748846294 L4.587798007996763,2.9664823128340823 L4.5637417973356085,3.035189678030009 L4.543324400212618,3.1037301428803175 L4.526661481291926,3.171715425284265 L4.513847436098528,3.2387603882526474 L4.504954856267126,3.3044852217109 L4.500034118310127,3.368517594125208 L4.4991130982344325,3.430494761762644 L4.502197013623707,3.490065623636354 L4.509268394080741,3.5468927104945385 L4.520287180197345,3.6006540965855613 L4.535190950491108,3.651045223369065 L4.553895275023437,3.6977806248417364 L4.5762941936956025,3.7405955447037393 L4.602260816513274,3.7792474362045754 L4.6316480424190125,3.8135173361717247 L4.664289392620552,3.843211105438194 L4.699999953694051,3.868160528641936 L4.738577425119625,3.8882242671667773 L4.779803265314879,3.903288659826436 L4.823443929674146,3.913268366755754 L4.869252193599925,3.918106852861487 L4.916968553031552,3.9177767080939123 L4.966322694537097,3.9122798027249077 L5.0170350266404,3.9016472767528514 L5.068818263708291,3.8859393634943635 L5.12137905342523,3.8652450483622443 L5.1744196386357535,3.8396815647626354 L5.227639544140359,3.8093937299671428 L5.280737278889101,3.7745531247222304 " />
			<path d="M5.909227533387934,2.6859760718683727 L5.913180457672468,2.5974797480763177 " />
			<path d="M-0.48670093578846085,-2.994543181483566 L-0.5457707920820998,-3.025378593599978 L-0.6075290218358638,-3.051236842534167 L-0.671826844064894,-3.072055633499536 L-0.738509359683617,-3.0877848122051397 L-0.8074159246712083,-3.098386485681762 L-0.8783805370771107,-3.103835113569401 L-0.9512322369342725,-3.104117569646231 L-1.0257955181166822,-3.099233173450825 L-1.1018907511489995,-3.0891936919214382 L-1.1793346159496947,-3.074023311048431 L-1.2579405434651807,-3.053758577608093 L-1.3375191651310074,-3.0284483111182654 L-1.4178787690773174,-2.9981534862278387 L-1.498825761979534,-2.9629470858234868 L-1.5801651354416364,-2.9229139252075003 L-1.6617009357884673,-2.878150447770294 L-1.7432367361352983,-2.8287644926498317 L-1.824576109597401,-2.774875034937698 L-1.9055231024996173,-2.7166118990576793 L-1.9858827064459272,-2.65411544600736 L-2.065461328111754,-2.587536235216179 L-2.14406725562724,-2.5170346618345842 L-2.2215111204279347,-2.4427805703280603 L-2.297606353460252,-2.3649528453069353 L-2.3721696346426624,-2.2837389805776898 L-2.445021334499824,-2.1993346274539514 L-2.5159859469057264,-2.111943123415343 L-2.584892511893318,-2.0217750022496848 L-2.651575027512041,-1.9290474868586593 L-2.7158728497410713,-1.8339839659488155 L-2.777631079494835,-1.7368134558686057 L-2.8367009357884747,-1.637770048887945 L-2.8929401141642686,-1.537092349249427 L-2.9462131295155403,-1.4350228983498066 L-2.996391642482143,-1.331807590436529 L-3.0433547686312226,-1.2276950802269497 L-3.0869893696784008,-1.122936183877343 L-3.127190326047815,-1.0177832747448112 L-3.1638607901143847,-0.9124896753977605 L-3.1969124195182195,-0.8073090473396489 L-3.226265589989105,-0.7024947799162025 L-3.2518495871683424,-0.5982993798782912 L-3.273602776965833,-0.49497386307104485 L-3.291472754042001,-0.39276714971469884 L-3.305416468056845,-0.2919254647339786 L-3.315400327381978,-0.19269174458069038 L-3.321400280025802,-0.09530505197853234 L-3.323401871576865,-5.0182080713057076e-14 L-3.321400280025802,0.09299381313680422 L-3.315400327381978,0.1834523571908886 L-3.3054164680568454,0.27115770960634333 L-3.291472754042002,0.3558985805071173 L-3.2736027769658333,0.4374708217127872 L-3.251849587168343,0.5156779185494051 L-3.2262655899891057,0.5903314632705579 L-3.196912419518221,0.6612516089481357 L-3.1638607901143856,0.7282675027393282 L-3.1271903260478164,0.7912176974860943 L-3.0869893696784025,0.8499505406555024 L-3.0433547686312243,0.904324539683969 L-2.9963916424821457,0.9542087028452335 L-2.9462131295155425,0.9994828548209054 L-2.8929401141642703,1.0400379262133272 L-2.836700935788482,1.0757762163033056 " />
			<path d="M0.4256629011095069,-1.0677152718667882 L0.39499368208244,-1.083607834444932 L0.36283794421221316,-1.0967350128067535 L0.3292845219488755,-1.1070605413975574 L0.2944261110292209,-1.1145558945881846 L0.25835901239263814,-1.1192003654808085 L0.22118286613711477,-1.1209811231144609 L0.1830003762503772,-1.119893247912247 L0.1439170268766334,-1.1159397452723236 " />
			<path d="M0.14391702687663296,-1.1159397452723236 L0.08920398125231407,-1.1059145705124915 L0.03329088643419084,-1.090602863984144 L-0.023533402472674797,-1.070083728169666 L-0.0809753230032528,-1.0444631678815393 L-0.13873812191854282,-1.0138735426262058 L-0.19652338827556967,-0.9784728828157835 L-0.25403259506131615,-0.9384440733601869 L-0.31096864142629144,-0.893993908857325 L-0.3670373875503329,-0.8453520252624116 L-0.4219491742113022,-0.7927697135555274 L-0.4754203192063685,-0.7365186215362067 L-0.5271745828951478,-0.6768893504517592 L-0.5769445952934914,-0.6141899537093498 L-0.6244732373453529,-0.5487443454277061 L-0.669514969236884,-0.48089062705010427 L-0.711837098890495,-0.410979340663591 L-0.7512209840856594,-0.33937165804804864 L-0.7874631619961324,-0.26643751481073413 L-0.8203764003082304,-0.19255369924562293 L-0.8497906644899447,-0.11810190579078643 L-0.8755539962138357,-0.04346676313992136 L-0.8975332983956507,0.030966152804907623 L-0.9156150227930396,0.10481231087394051 L-0.9297057566121399,0.17769021117315736 L-0.939732705091528,0.24922335596770562 L-0.9456440675704484,0.3190421947234529 L-0.9474093050984915,0.38678603325829947 L-0.9450192982042116,0.4521048971402996 L-0.9384863940076313,0.5146613397060106 L-0.9278443424332397,0.5741321853585815 L-0.9131481218530192,0.630210199139458 L-0.8944736550602543,0.682605673948448 " />
			<path d="M-0.894473655060253,0.6826056739484511 L-0.8783558140934838,0.7184295986910578 L-0.8602066967113793,0.7520405425138219 L-0.8400764422348916,0.783345650769085 L-0.8180206631364505,0.812258438982853 L-0.7941002914032033,0.8386990317795173 L-0.768381410204396,0.8625943835480722 L-0.7409350713279361,0.8838784802402111 L-0.7118370988904985,0.9024925217428068 " />
			<path d="M-1.1271651795372877,0.0003932702622315709 L-1.0938153342212076,-0.006957935892931366 L-1.0616502849322875,-0.013665561054666209 L-1.0307706089392727,-0.019708631071418514 L-1.0012728642621191,-0.02506824979688782 L-0.9732492877435912,-0.02972765817660894 L-0.9467875066328001,-0.033672286652033756 L-0.9219702645825333,-0.03688980071825593 L-0.8988751629171597,-0.03937013949291768 L-0.8775744179801406,-0.04110554717570036 L-0.8581346353199014,-0.04209059730002784 L-0.8406166014201619,-0.04232220970114742 L-0.8250750936259719,-0.04179966014753361 L-0.8115587088597883,-0.04052458260549613 L-0.8001097116631923,-0.038500964129911705 " />
			<path d="M-0.8001097116631906,-0.038500964129911275 L-0.803439615641441,-0.04009544459033587 L-0.8067860016924401,-0.04168404033419976 L-0.8101487874060023,-0.04326671223975542 L-0.8135278899680736,-0.04484342133113978 L-0.8169232261627712,-0.04641412877933315 L-0.8203347123744323,-0.04797879590311621 L-0.8237622645896749,-0.04953738417002279 L-0.8272057983994646,-0.0510898551972882 L-0.8306652290011942,-0.052636170752794365 L-0.8341404712007731,-0.05417629275601216 L-0.8376314394147234,-0.055710183278938674 L-0.8411380476722895,-0.057237804547031146 L-0.8446602096175538,-0.058759118940137245 L-0.8481978385115637,-0.06027408899342201 " />
			<path d="M-0.8481978385115645,-0.06027408899342235 L-0.8854023672866085,-0.07545646762357178 L-0.9241319921987303,-0.08992651726070838 L-0.9642861431784657,-0.10364666320844801 L-1.005760551058156,-0.11658127806182195 L-1.048447518329991,-0.12869677422174403 L-1.092236198806498,-0.13996169111266854 L-1.1370128854572767,-0.15034677687695974 L-1.1826613056745476,-0.15982506433383326 L-1.2290629232007917,-0.16837194100562852 L-1.2760972459344595,-0.17596521302957202 L-1.3236421388144637,-0.18258516278906778 L-1.37157414097098,-0.18821460011486768 L-1.4197687863190058,-0.1928389069231614 L-1.4681009267621776,-0.19644607517467677 " />
			<path d="M-1.1271651795372886,0.0003932702622297668 L-2.0358782741621853,0.2058251797716266 " />
			<path d="M-1.4681009267753933,-0.4539297743967707 L-1.4150678215963444,-0.4460393676062713 L-1.3622149842851166,-0.4394129677241827 L-1.3097076809967363,-0.434071294917783 L-1.257710097431854,-0.4300310521262334 L-1.2063848254425555,-0.4273048728319636 L-1.1558923546220008,-0.4259012815568879 L-1.1063905704676351,-0.4258246672069772 L-1.0580342606871835,-0.4270752693485381 L-1.010974631191156,-0.42964917745911024 L-0.9653588332853194,-0.43353834315532436 L-0.9213295035415564,-0.4387306053594868 L-0.8790243177859032,-0.4452097283261953 L-0.8385755605983973,-0.4529554524100812 L-0.8001097116708847,-0.4619435574159303 " />
			<path d="M-0.8001097116708769,-0.4619435574159346 L-0.8115587088675282,-0.4997500122681814 L-0.8250750936337776,-0.5386525255859823 L-0.8406166014280452,-0.5785294526455347 L-0.8581346353278726,-0.6192561018173119 L-0.8775744179882109,-0.6607051244657791 L-0.898875162925338,-0.7027469131573292 L-0.9219702645908288,-0.7452500069312837 L-0.9467875066412207,-0.788081502366708 L-0.9732492877521446,-0.8311074691596718 L-1.0012728642708115,-0.8741933689114827 L-1.0307706089481095,-0.9172044758183782 L-1.061650284941273,-0.9600062979472179 L-1.0938153342303454,-1.0024649977798812 L-1.1271651795465787,-1.0444478107113648 " />
			<path d="M-1.4681009267753915,-0.4539297743967731 L-1.6941099965902662,-0.4901918811035071 " />
			<path d="M-1.954318271749914,-0.5319410916442308 L-2.3542429779823952,-0.5961071553510555 " />
			<path d="M-0.9041777549588609,-1.1731896603167553 L-0.8768877853956989,-1.1331363829993262 L-0.8487856955507683,-1.0937107492055818 L-0.8199444587393085,-1.0550151363465694 L-0.790438967635756,-1.017150026171907 L-0.7603458397982877,-0.9802137438466123 L-0.7297432187143217,-0.9443022026279825 L-0.6987105708836034,-0.9095086548055287 L-0.6673284794657968,-0.875923449550702 L-0.6356784350284197,-0.8436337983052125 L-0.6038426239384939,-0.8127235483171587 L-0.5719037149473957,-0.7832729649130317 L-0.5399446445230918,-0.7553585230709771 L-0.5080484014871858,-0.7290527088365353 L-0.47629781151602213,-0.7044238310965334 " />
			<path d="M-0.4762978115160166,-0.7044238310965291 L-0.4732169945168152,-0.7021176396317368 L-0.47013841663253175,-0.6998280151073892 L-0.46706215367814075,-0.6975550139092047 L-0.46398828141160875,-0.6952986920135256 L-0.460916875532027,-0.6930591049859391 L-0.45784801167774886,-0.6908363079799096 L-0.4547817654245252,-0.6886303557354192 L-0.4517182122836447,-0.6864413025776213 L-0.448657427700074,-0.6842692024155008 L-0.44559948705059915,-0.6821141087405487 L-0.4425444656419697,-0.6799760746254431 L-0.4394924387090443,-0.6778551527227427 L-0.436443481412938,-0.6757513952635902 L-0.43339766883917386,-0.6736648540564287 " />
			<path d="M-0.4333976688391702,-0.6736648540564251 L-0.4408746724449163,-0.6825681672388275 L-0.4487371143712307,-0.6936361610427364 L-0.4569604094565143,-0.7068342268289021 L-0.4655188441832053,-0.7221210954110854 L-0.4743856570816779,-0.7394489661011585 L-0.48353312241099566,-0.7587636561776365 L-0.49293263685485383,-0.7800047703102615 L-0.5025548089616239,-0.8031058894108679 L-0.5123695510488275,-0.8279947783200057 L-0.5223461732846636,-0.8545936116799053 L-0.5324534796524001,-0.8828192172874982 L-0.5426598654975656,-0.9125833361665527 L-0.5529334163529116,-0.9437928985456968 L-0.563242007732134,-0.9763503148793748 " />
			<path d="M-0.9041777549588605,-1.1731896603167553 L-1.6941099965924111,-2.359334911971138 " />
			<path d="M-0.5632420077339189,-0.7188666156648635 L-0.5529334163545948,-0.6901866768961507 L-0.5426598654991489,-0.6603670395769179 L-0.532453479653886,-0.6295009470797985 L-0.5223461732860553,-0.5976849149503586 L-0.5123695510501296,-0.5650184291115081 L-0.5025548089628413,-0.5316036347798065 L-0.4929326368559926,-0.49754501706638943 L-0.483533122412063,-0.46294907426125403 L-0.47438565708268166,-0.4279239848225096 L-0.4655188441841537,-0.39257926911189245 L-0.456960409457417,-0.35702544693426597 L-0.4487371143720977,-0.32137369195195065 L-0.44087467244575823,-0.2857354840544989 L-0.4333976688399988,-0.2502222607709273 " />
			<path d="M-0.433397668839996,-0.2502222607709259 L-0.46789152417585744,-0.2389409241963149 L-0.5026863385226609,-0.22793089469197308 L-0.537673311568554,-0.21722659964790267 L-0.5727430421384011,-0.20686151044944717 L-0.6077858702815974,-0.1968680378152246 L-0.6426922201690504,-0.18727743045167328 L-0.6773529427271217,-0.17811967734110568 L-0.7116596569371408,-0.16942341396880856 L-0.7455050887332811,-0.1612158327824103 L-0.7787834064390896,-0.15352259816349745 L-0.8113905516937933,-0.1463677661773603 L-0.8432245648336054,-0.13977370935180106 L-0.8741859037105901,-0.13376104672021472 L-0.9041777549521673,-0.12834857934769306 " />
			<path d="M-0.563242007733916,-0.718866615664864 L-0.8396893026602753,-1.4713948802132013 " />
			<path d="M-0.42540627973374356,-0.2456084301192335 L-0.7589975787526442,-0.05300940383144784 " />
			<path d="M-0.4254062797337434,-0.24560843011923125 L-0.43339766883999525,-0.25022226077092025 " />
			<path d="M-1.69410999659149,0.008505172715808855 L-0.9041777549521672,-0.12834857934769117 " />
			<path d="M-0.7589975787526435,-0.05300940383144637 L-0.8001097116631903,-0.03850096412990878 " />
			<path d="M-2.890298968097672,-0.2874748378721227 L-1.4681009267621796,-0.19644607517467721 " />
			<path d="M-0.7589975787526444,-0.05300940383144792 L-0.7589975787526444,-0.43820745640861747 " />
			<path d="M-0.7589975787526471,-0.4382074564086139 L-0.8001097116708811,-0.4619435574159302 " />
			<path d="M-1.693365428901414,-1.7407806479457475 L-1.4378336345518445,-1.4265187245965807 " />
			<path d="M-1.2715736200580519,-1.2220463533056627 L-1.12716517954658,-1.0444478107113666 " />
			<path d="M-0.7589975787526446,-0.43820745640861747 L-0.42540627973374395,-0.6308064826962118 " />
			<path d="M-0.42540627973374595,-0.6308064826962094 L-0.43339766883917114,-0.6736648540564225 " />
			<path d="M-0.8396893026602763,-1.8660348943284641 L-0.563242007732132,-0.9763503148793757 " />
			<path d="M-0.42540627973374373,-0.6308064826962119 L-0.42540627973374373,-0.2456084301192334 " />
			<path d="M0.3070866298976608,-1.13617531397045 L0.25838888165955076,-1.1315415619864544 " />
			<path d="M0.2583888816595503,-1.1315415619864542 L0.1999481340256624,-1.1208333533418862 L0.1402255756045461,-1.104478431643476 L0.07952974173919083,-1.0825612887735059 L0.018174195853782132,-1.0551951518503637 L-0.04352409046013209,-1.0225213982809305 L-0.10524637496456066,-0.9847088253845238 L-0.16667379144340208,-0.9419527783616226 L-0.22748899701126588,-0.894474141112412 L-0.2873778115525498,-0.8425181951187241 L-0.3460308408211894,-0.7863533522845576 L-0.4031450748159199,-0.726269768281503 L-0.45842545317360484,-0.6625778435627305 L-0.5115863894935938,-0.5956066197895196 L-0.5623532467182196,-0.525702079954621 L-0.6104637559474155,-0.4532253609842595 L-0.6556693713576461,-0.37855088805273096 L-0.6977365542254481,-0.3020644402479979 L-0.7364479794221293,-0.22416115758132782 L-0.7716036581466998,-0.1452434996370552 L-0.8030219710968385,-0.06571916640837261 L-0.8305406067403793,0.014001007939584368 L-0.854017399840076,0.09350517749823684 L-0.8733310658997048,0.1723826122708742 L-0.8883818277372494,0.25022582006300476 L-0.8990919309482001,0.32663265164575306 L-0.9054060455960139,0.4012083783167271 L-0.9072915520545392,0.47356773112537626 L-0.9047387095257039,0.5433368912279084 L-0.8977607063618841,0.6101554210893051 L-0.8863935919329734,0.6736781265555677 L-0.8706960903901445,0.73357684017646 L-0.8507492972884219,0.7895421165658428 " />
			<path d="M-0.8507492972884206,0.7895421165658464 L-0.8304133701023441,0.8340324796391436 " />
			<path d="M-3.985700658404312e-14,-1.0722526478481678 L-0.0014894150704863364,-1.1271275651365296 L-0.005776334629878366,-1.1759696950560277 L-0.012148089927106889,-1.2183734280446512 L-0.019907332928563788,-1.2541574175999148 L-0.028372036318141905,-1.2833645802788598 L-0.03687549349723501,-1.3062620956980537 L-0.051408446417046116,-1.3353182185210888 L-0.062016742170569406,-1.3494906136341118 " />
			<path d="M-0.062016742170569406,-1.3494906136341118 L-0.05984803231166625,-1.3480251399720102 " />
			<path d="M-1.19734803231167,0.6221826536375863 L-1.1997015246610783,0.6210372326373894 " />
			<path d="M-1.1997015246610783,0.6210372326373894 L-1.1928670337261675,0.6223607976595104 L-1.1645023245955604,0.622686234789505 L-1.1276020731909377,0.6174979920903395 L-1.0751741142712012,0.6034657662473668 L-1.008057289947367,0.5771431389126741 L-0.9696649230541062,0.5585810136904941 L-0.9285980323117122,0.5361263239240739 " />
			<path d="M-0.0598480323116668,-1.3480251399720105 L-4.533873276812983e-14,-1.3134718624064263 " />
			<path d="M-1.19734803231167,0.6221826536375863 L-1.1375000000000517,0.6567359312031688 " />
			<path d="M-1.6941099965904358,-0.42098422517527767 L-0.8481978392415028,-0.06027408930467837 " />
			<path d="M-1.2116380318879123,-1.2566501812696138 L-0.47629781215054146,-0.7044238315730449 " />
			<path d="M0.14391702687663313,-1.1159397452723236 L0.2583888816595505,-1.1315415619864526 " />
			<path d="M-0.8944736550602533,0.6826056739484511 L-0.8507492972884195,0.7895421165658456 " />

       </g>

       <!-- solid lines -->
       <g  stroke="rgb(0,0,0)" fill="none">
			<path d="M5.927001181122923,2.429912381581372 L5.925799640165294,2.4830545100940604 L5.922198378117216,2.53743541498872 " />
			<path d="M5.922198378117215,2.5374354149887295 L5.911420287451752,2.626983920661025 L5.894558157181365,2.718688571390223 L5.871733603571498,2.811887957439426 L5.843111246212087,2.9059098884571557 L5.8088975207168065,3.0000762415765494 L5.769339189828861,3.093707852302174 L5.724721563671742,3.1861294129094704 L5.675366441981268,3.276674343027663 L5.621629793160263,3.364689597277583 L5.5638991868955,3.4495403752898524 L5.502590998853827,3.5306147001329373 L5.438147407618335,3.6073278321296534 L5.371033205523819,3.6791264862279656 L5.3017324463930295,3.7454928225087505 L5.230744954351558,3.8059481810494273 L5.158582718901155,3.860056534206153 " />
			<path d="M5.158582718901147,3.860056534206158 L5.110881115377824,3.891898685455944 L5.063046098057243,3.920744812343443 L5.015226031457805,3.9465054460660283 L4.967569233726931,3.96910068774982 L4.920223516619267,3.9884604562630805 L4.873335727045518,4.004524705579015 L4.827051291613815,4.01724361101381 L4.78151376557629,4.026577723762278 L4.7368643875798195,4.032498093251802 L4.693241641601921,4.034986356935084 L4.650780827430508,4.034034797243203 L4.6096136410196795,4.029646365522333 L4.569867766023122,4.021834672879887 L4.531666477772015,4.0106239479684636 L4.495128260925739,3.996048961838553 L4.46036644198127,3.9781549200930604 " />
			<path d="M5.675366441981268,1.873713188896873 L5.704443293779816,1.8921906452625443 L5.731986576184835,1.9131584800462853 L5.757929935016504,1.9365661798975369 L5.782210870451028,1.9623573536170844 L5.804770887588186,1.990469868008398 L5.8255556373706705,2.020835997561943 L5.844515047515727,2.0533825876118663 L5.861603443143666,2.0880312305719935 L5.876779656812656,2.1246984548265697 L5.890007127694687,2.163295925820698 L5.901253989653815,2.2037306588660126 L5.9104931480144725,2.2459052431489446 L5.917702344834913,2.289718076401898 L5.922864212528545,2.3350636096720154 L5.925966315703969,2.38183260159785 L5.927001181122923,2.429912381581368 " />
			<path d="M5.280737278889114,3.7745531247222215 L5.340130065268053,3.730019500724913 L5.39855598464375,3.6802620039836147 L5.455593646479791,3.6256395049870838 L5.510831672895031,3.566545962519337 L5.563871665681443,3.5034075822751265 L5.614331079707512,3.436679742898102 L5.661845981983037,3.366843711612284 L5.706073676485921,3.294403173134984 L5.746695175819645,3.2198805969060187 L5.783417501874886,3.1438134688341703 L5.815975798902002,3.066750414739006 L5.844135243754084,2.9892472434473243 L5.8676927395231475,2.911862938082938 L5.886478380354313,2.8351556244621943 L5.90035667687315,2.75967854567273 L5.909227533387934,2.6859760718683807 " />
			<path d="M-3.6165995768604434e-14,-1.072252647848168 L-6.831535082155411e-14,-1.9187669651802097 " />
			<path d="M-7.238654120556021e-14,-1.9187669651802093 L-0.002001591551135551,-2.011760778317063 L-0.008001544194959465,-2.102219322371147 L-0.017985403520091925,-2.189924674786601 L-0.03192911753493566,-2.274665545687375 L-0.04979909461110377,-2.356237786893045 L-0.07155228440859474,-2.434444883729663 L-0.09713628158783161,-2.509098428450815 L-0.12648945205871698,-2.5800185741283936 L-0.15954108146255197,-2.647034467919587 L-0.19621154552912135,-2.709984662666353 L-0.2364125018985359,-2.7687175058357605 L-0.28004710294571367,-2.8230915048642276 L-0.3270102290947925,-2.872975668025492 L-0.3771887420613953,-2.9182498200011633 L-0.4304617574126668,-2.9588048913935845 L-0.4867009357884502,-2.99454318148356 " />
			<path d="M-2.8367009357884765,1.0757762163033087 L-2.7776310794948413,1.1066116284197183 L-2.715872849741081,1.1324698773539066 L-2.6515750275120546,1.1532886683192751 L-2.584892511893336,1.1690178470248787 L-2.515985946905749,1.1796195205015019 L-2.4450213344998515,1.1850681483891419 L-2.372169634642695,1.185350604465975 L-2.2976063534602895,1.1804662082705704 L-2.2215111204279765,1.1704267267411865 L-2.144067255627286,1.1552563458681828 L-2.0654613281118053,1.1349916124278498 L-1.985882706445984,1.1096813459380266 L-1.9055231024996793,1.0793865210476048 L-1.8245761095974677,1.0441801206432586 L-1.74323673613537,1.004146960027278 L-1.6617009357885515,0.9593834825900831 " />
			<path d="M-1.661700935788544,0.9593834825900789 L-1.5801651354417112,0.9099975274696199 L-1.4988257619796064,0.8561080697574883 L-1.4178787690773866,0.7978449338774716 L-1.3375191651310736,0.7353484808271531 L-1.257940543465244,0.6687692700359735 L-1.1793346159497542,0.5982676966543792 L-1.1018907511490559,0.5240136051478552 L-1.0257955181167349,0.44618588012673066 L-0.9512322369343211,0.3649720153974847 L-0.8783805370771561,0.2805676622737454 L-0.8074159246712505,0.19317615823513523 L-0.7385093596836567,0.10300803706947703 L-0.6718268440649315,0.010280521678451837 L-0.6075290218358977,-0.08478299923139399 L-0.54577079208213,-0.1819535093116058 L-0.48670093578848816,-0.2809969162922692 L-0.43046175741269077,-0.38167461593078955 L-0.37718874206141617,-0.4837440668304129 L-0.3270102290948105,-0.5869593747436939 L-0.28004710294572965,-0.6910718849532742 L-0.23641250189854968,-0.7958307813028822 L-0.19621154552913267,-0.9009836904354177 L-0.15954108146256107,-1.0062772897824717 L-0.12648945205872453,-1.1114579178405868 L-0.09713628158783738,-1.2162721852640361 L-0.07155228440859895,-1.3204675853019512 L-0.049799094611106876,-1.423793102109201 L-0.0319291175349381,-1.5259998154655494 L-0.01798540352009348,-1.6268415004462717 L-0.008001544194960353,-1.7260752205995624 L-0.002001591551135551,-1.8234619132017236 L-7.238654120556021e-14,-1.918766965180192 " />
			<path d="M0.6612468647092046,-0.5469938054646333 L0.6573737768276368,-0.6357925528283315 L0.652541164069195,-0.678245675540067 L0.6457918131364783,-0.7192638630505477 L0.6371419838070566,-0.7587482989532921 L0.62661251427742,-0.7966038617837823 L0.6142287709619384,-0.8327393541754042 L0.6000205873829461,-0.8670677225618914 L0.584022192299175,-0.8995062668969903 L0.5662721272456759,-0.929976839886116 L0.5468131536838848,-0.9584060352500314 L0.5256921499855169,-0.9847253645670018 L0.502959998498463,-1.0088714222674013 L0.47867146296675644,-1.0307860383832848 L0.45288505659991773,-1.0504164186849352 L0.4256629011095121,-1.067715271866785 " />
			<path d="M-0.7118370988904961,0.9024925217428083 L-0.6684562005791902,0.9239795861480167 L-0.6222282815864781,0.940011846920751 L-0.5734038550106891,0.9505024238508055 L-0.5222475046497143,0.9553944675928658 L-0.46903645119847903,0.9546614677380345 L-0.41405904996598086,0.9483073964760331 L-0.35761322825288555,0.9363666870695644 L-0.30000487085766925,0.9189040472574763 L-0.24154616246039592,0.8960141085979192 L-0.18255389586688656,0.8678209136517336 L-0.12334775528105499,0.8344772437850652 L-0.06424858390851143,0.7961637912339039 L-0.005576645279431164,0.7530881799172032 L0.052350112287264966,0.7054838403048715 L0.10921777867339741,0.6536087444378325 L0.1647181830676551,0.5977440079551846 L0.2185505639699256,0.5381923667041942 L0.27042319904392165,0.47527653618850957 L0.32005498598579496,0.4093374627448892 L0.3671769658418803,0.3407324759254574 L0.4115337805205661,0.26983335209790354 L0.45288505659991707,0.1970242997571367 L0.4910067079320768,0.12269987746615761 L0.5256921499855168,0.04726285570902285 L0.5567534193445115,-0.028877965757302712 L0.5840221922991747,-0.10530997322425371 L0.6073506970062278,-0.1816189750210983 L0.6266125142774198,-0.2573914460554858 L0.6417032626560643,-0.33221676874175643 L0.652541164069195,-0.4056894581732118 L0.6590674869900303,-0.47741135947995544 L0.6612468647092046,-0.5469938054646248 " />
			<path d="M-2.3768140213887263,-0.5839355100793515 L-2.359363690395099,-0.5934968269780988 L-2.3419630020388214,-0.6020035436620056 L-2.3246571410703445,-0.6094335705526222 L-2.307491045999755,-0.6157676139355837 L-2.290509292403955,-0.6209892260610227 L-2.273755977176282,-0.6250848478538037 L-2.257274604019136,-0.6280438441226706 L-2.241107970476955,-0.6298585311768834 L-2.225298056802893,-0.6305241967786264 L-2.20988591694777,-0.6300391123793798 L-2.1949115719543757,-0.6284045376084803 L-2.180413906033945,-0.6256247170022131 L-2.1664305655946743,-0.6217068689819314 L-2.1529978614844625,-0.6166611671098237 " />
			<path d="M-2.1529978614844603,-0.6166611671098228 L-2.1377196939460132,-0.6091726023321877 L-2.123333855073396,-0.600120717521591 L-2.1098936627792115,-0.5895390614760904 L-2.097448930147318,-0.5774668527506294 L-2.0860457808117077,-0.5639488343021852 L-2.0757264780095173,-0.5490351076599486 L-2.0665292679417377,-0.5327809472351472 L-2.0584882380221736,-0.5152465954587335 L-2.0516331905400276,-0.49649703950621094 L-2.04598953220434,-0.4766017704371194 L-2.0415781799796746,-0.45563452564187756 L-2.038415483562038,-0.4336730155505434 L-2.03651316478237,-0.41079863561638574 L-2.035878274162183,-0.3870961646417438 " />
			<path d="M-2.0358782741621835,-0.38709616464174057 L-2.0358782741621835,0.20582517977162962 " />
			<path d="M-2.0358782741649635,-1.5690935605057348 L-2.03801917691088,-1.523713140554598 L-2.0444151284262735,-1.4764518359251129 L-2.0549861929457114,-1.4279003122206437 L-2.069600254687551,-1.3786653600337913 L-2.0880746690196976,-1.3293623113569337 L-2.110178545128327,-1.2806073492434753 L-2.135635631661075,-1.2330098068326414 L-2.1641277692803036,-1.187164551983607 L-2.19529886697689,-1.1436445526948038 L-2.228759352449078,-1.102993716224821 L-2.2640910409261497,-1.065720091410631 L-2.3008523615869905,-1.0322895191396804 L-2.338583876254451,-1.0031198103314103 L-2.3768140213935913,-0.9785755241910387 " />
			<path d="M-1.6941099965902662,-0.4901918811035071 L-1.954318271749914,-0.5319410916442308 " />
			<path d="M-2.3542429779823952,-0.5961071553510555 L-2.8902989680976723,-0.6821148519902491 " />
			<path d="M-2.376814021393593,-0.9785755241910354 L-2.890298968097672,-0.6821148519902475 " />
			<path d="M-1.3531742493659586,-1.569574222121758 L-1.3740186366726206,-1.558272818040055 L-1.394779590181315,-1.5484830844621862 L-1.4153801640347614,-1.540241304858579 L-1.4357440067872058,-1.5335780255524967 L-1.4557956443840754,-1.5285179425068816 L-1.4754607598897758,-1.5250798097942617 L-1.4946664689268887,-1.5232763700889516 L-1.5133415898059064,-1.523114307439163 L-1.5314169073443349,-1.5245942224940676 L-1.548825429397376,-1.5277106302776229 L-1.565502635149413,-1.5324519805174184 L-1.581386714246067,-1.5388007004531894 L-1.5964187958805272,-1.5467332599663466 L-1.610543166985106,-1.5562202587891263 " />
			<path d="M-1.610543166985108,-1.5562202587891276 L-1.621629225041405,-1.5653304708540619 L-1.6320138511747895,-1.5754814748941244 L-1.6416700793980104,-1.5866469115736956 L-1.6505728351707034,-1.5987977873575947 L-1.6586990005109996,-1.611902549799227 L-1.6660274740265,-1.625927169473519 L-1.6725392257087235,-1.6408352283418746 L-1.6782173463487509,-1.6565880143196978 L-1.683047091445738,-1.6731446218009143 L-1.687015919494287,-1.6904620578784595 L-1.6901135245512486,-1.7084953539849073 L-1.6923318629973918,-1.7271976826633366 L-1.6936651744244466,-1.7465204791652225 L-1.6941099965932842,-1.766413567559582 " />
			<path d="M-1.694109996593283,-1.7664135675595858 L-1.694109996592411,-2.359334911971138 " />
			<path d="M-1.6941099965900352,-0.5844161716985694 L-1.691969093843971,-0.6297965916495291 L-1.6855731423284794,-0.6770578962787963 L-1.675002077808994,-0.7256094199830152 L-1.6603880160671565,-0.7748443721695959 L-1.6419136017350595,-0.82414742084617 L-1.619809725626524,-0.8729023829593442 L-1.5943526390939102,-0.9204999253699033 L-1.5658605014748501,-0.9663451802186827 L-1.534689403778461,-1.0098651795072602 L-1.501228918306492,-1.050516015977056 L-1.4658972298296533,-1.087789640791105 L-1.4291359091690516,-1.1212202130619686 L-1.3914043945018282,-1.1503899218702107 L-1.3531742493629162,-1.174934208010618 " />
			<path d="M-1.3531742493629113,-1.1749342080106195 L-0.8396893026602741,-1.4713948802131995 " />
			<path d="M-2.035878274162182,0.2058251797716268 L-1.6941099965914876,0.008505172715807308 " />
			<path d="M-2.8902989680976727,-0.28747483787212047 L-2.3768140213887254,-0.5839355100793509 " />
			<path d="M-2.8902989680976727,-0.682114851990248 L-2.8902989680976727,-0.2874748378721204 " />
			<path d="M-2.0358782741658272,-2.1620149049139377 L-2.0358782741649644,-1.569093560505735 " />
			<path d="M-2.0358782741658255,-2.162014904913939 L-1.693365428901414,-1.7407806479457475 " />
			<path d="M-1.4378336345518445,-1.4265187245965807 L-1.2715736200580519,-1.2220463533056627 " />
			<path d="M-1.6941099965924094,-2.3593349119711333 L-2.035878274165826,-2.1620149049139386 " />
			<path d="M-0.8396893026602736,-1.8660348943284633 L-1.3531742493659564,-1.5695742221217568 " />
			<path d="M-0.8396893026602767,-1.4713948802132009 L-0.8396893026602767,-1.866034894328465 " />
			<path d="M-1.6941099965914892,0.008505172715812304 L-1.694109996590035,-0.5844161716985686 " />
			<path d="M-0.20329319959115488,-2.0361383486885414 L-0.20529479114221805,-2.1291321618253956 L-0.21129474378604196,-2.2195907058794795 L-0.22127860311117442,-2.3072960582949333 L-0.23522231712601815,-2.392036929195707 L-0.25309229420218626,-2.473609170401377 L-0.27484548399967723,-2.551816267237995 L-0.3004294811789141,-2.6264698119591476 L-0.3297826516497995,-2.6973899576367257 L-0.36283428105363447,-2.7644058514279193 L-0.39950474512020384,-2.8273560461746854 L-0.4397057014896184,-2.886088889344093 L-0.48334030253679616,-2.9404628883725596 L-0.530303428685875,-2.9903470515338246 L-0.5804819416524778,-3.0356212035094954 L-0.6337549570037493,-3.076176274901917 L-0.6899941353795327,-3.1119145649918925 " />
			<path d="M-0.6899941353795433,-3.1119145649918987 L-0.7490639916731823,-3.1427499771083105 L-0.8108222214269463,-3.1686082260424993 L-0.8751200436559765,-3.1894270170078687 L-0.9418025592746995,-3.205156195713472 L-1.0107091242622908,-3.215757869190094 L-1.0816737366681932,-3.221206497077733 L-1.154525436525355,-3.2214889531545636 L-1.2290887177077647,-3.2166045569591573 L-1.305183950740082,-3.2065650754297708 L-1.3826278155407772,-3.191394694556763 L-1.4612337430562632,-3.1711299611164256 L-1.54081236472209,-3.145819694626598 L-1.6211719686683996,-3.115524869736171 L-1.7021189615706165,-3.080318469331819 L-1.7834583350327189,-3.0402853087158324 L-1.8649941353795496,-2.9955218312786265 L-1.9465299357263808,-2.946135876158164 L-2.027869309188483,-2.89224641844603 L-2.1088163020906996,-2.833983282566012 L-2.1891759060370095,-2.771486829515692 L-2.2687545277028365,-2.7049076187245116 L-2.3473604552183223,-2.634406045342917 L-2.4248043200190175,-2.5601519538363924 L-2.500899553051335,-2.482324228815268 L-2.575462834233745,-2.4011103640860223 L-2.6483145340909067,-2.316706010962284 L-2.7192791464968087,-2.229314506923675 L-2.7881857114844006,-2.139146385758017 L-2.8548682271031236,-2.0464188703669914 L-2.9191660493321536,-1.951355349457148 L-2.980924279085918,-1.8541848393769382 L-3.039994135379557,-1.755141432396277 L-3.0962333137553513,-1.6544637327577592 L-3.1495063291066225,-1.5523942818581387 L-3.199684842073226,-1.4491789739448613 L-3.246647968222305,-1.345066463735282 L-3.290282569269483,-1.2403075673856754 L-3.330483525638898,-1.1351546582531435 L-3.367153989705467,-1.0298610589060928 L-3.400205619109302,-0.9246804308479812 L-3.429558789580187,-0.8198661634245348 L-3.4551427867594247,-0.7156707633866235 L-3.476895976556915,-0.6123452465793772 L-3.4947659536330837,-0.5101385332230312 L-3.5087096676479277,-0.40929684824231094 L-3.51869352697306,-0.3100631280890227 L-3.524693479616884,-0.21267643548686466 L-3.5266950711679472,-0.1173713835083825 L-3.524693479616884,-0.0243775703715281 L-3.5186935269730606,0.06608097368255628 L-3.5087096676479277,0.15378632609801102 L-3.4947659536330846,0.238527196998785 L-3.476895976556916,0.32009943820445486 L-3.455142786759425,0.39830653504107283 L-3.429558789580188,0.47296007976222554 L-3.400205619109303,0.5438802254398034 L-3.367153989705468,0.6108961192309958 L-3.3304835256388987,0.673846313977762 L-3.290282569269485,0.73257915714717 L-3.246647968222307,0.7869531561756367 L-3.199684842073228,0.8368373193369012 L-3.1495063291066248,0.8821114713125731 L-3.096233313755353,0.9226665427049949 L-3.0399941353795645,0.9584048327949732 " />
			<path d="M-3.039994135379559,0.9584048327949763 L-2.9959494503147734,0.9819953028039832 L-2.950372059747411,1.0027956911266163 L-2.903323731562014,1.0207778084354864 L-2.854868227103126,1.0359172848109464 L-2.805071214763947,1.048193602767964 L-2.7540001809905066,1.0575901250620485 L-2.701724338821954,1.0640941172365537 L-2.6483145340909093,1.0676967648808104 L-2.59384314941101,1.0683931855756863 L-2.5383840060817633,1.066182435510389 L-2.4820122640436426,1.0610675107615504 L-2.42480432001902,1.053055343232848 L-2.3668377039769766,1.042156791260679 L-2.3081909740622946,1.028386624898605 L-2.24894361013104,1.011763505900522 L-2.189175906037012,0.9923099624296756 L-2.1289688608150374,0.9700523585277998 L-2.068404068908579,0.9450208583857553 L-2.0075636095904374,0.9172493854640877 L-1.9465299357263832,0.88677557651891 L-1.8853857620324956,0.8536407305954068 L-1.824213952977632,0.8178897530581002 L-1.7630974104829389,0.7795710947337104 L-1.7021189615706183,0.7387366862491072 L-1.6413612461141944,0.6954418676533201 L-1.5809066048424079,0.6497453134189999 L-1.520836967748521,0.6017089529249633 L-1.461233743056266,0.5513978865275893 L-1.4021777068929158,0.49888029733481387 L-1.343748893818981,0.44422735880227693 L-1.229088717707767,0.32881449661834505 L-1.1178745681514273,0.20578473227563876 L-1.0107091242622923,0.0758047747267514 L-0.908173124865894,-0.06042100337655265 L-0.8108222214269483,-0.20215438273977504 L-0.7191839669259263,-0.3486272978999967 L-0.6337549570037506,-0.49904599943916417 L-0.5549981388669807,-0.6525953553809677 L-0.4833403025367966,-0.8084432684616425 L-0.4191697680368953,-0.9657451853371289 L-0.3628342810536349,-1.1236486732908304 L-0.31463912847203046,-1.2812980396403564 L-0.27484548399967745,-1.4378389688103006 L-0.2581684285589596,-1.5154283122641412 L-0.24366899284379673,-1.5924231519423762 L-0.23136682693639155,-1.6687191420650371 L-0.22127860311117464,-1.7442128839546147 L-0.21341799324002664,-1.8188020661651345 L-0.2077956502637346,-1.892385603137778 L-0.204419193754799,-1.964863772195154 L-0.20329319959115488,-2.0361383486885245 " />
			<path d="M0.8109653677840113,-0.5238322724336244 L0.8099305023650573,-0.5719120524171467 L0.8068283991896333,-0.6186810443429812 L0.8016665314960011,-0.6640265776130987 L0.7944573346755606,-0.7078394108660517 L0.7852181763149035,-0.7500139951489833 L0.7739713143557754,-0.7904487281942982 L0.7607438434737445,-0.8290461991884261 L0.7455676298047548,-0.8657134234430036 L0.7284792341768146,-0.9003620664031311 L0.7095198240317586,-0.9329086564530544 L0.688735074249274,-0.9632747860065992 L0.6661750571121162,-0.9913873003979127 L0.6418941216775925,-1.0171784741174599 L0.6159507628459236,-1.0405861739687114 L0.5884074804409047,-1.0615540087524524 L0.5593306286423615,-1.0800314651181209 " />
			<path d="M0.5593306286423559,-1.080031465118124 L0.5314588223427719,-1.0947101039413258 L0.502419335691764,-1.107239438086466 L0.4722706697048906,-1.1175942267915242 L0.44107355987652075,-1.1257536099888819 L0.40889085382615187,-1.1317011503286258 L0.37578738468978257,-1.135424866292139 L0.3418298405113943,-1.1369172563292684 L0.3070866298976611,-1.13617531397045 " />
			<path d="M-0.8304133701023425,0.8340324796391466 L-0.8136843057263561,0.8644919538190825 L-0.7954130859526531,0.8931538547091342 L-0.7756365187635887,0.9199604419528675 L-0.7543944447141532,0.9448577127851425 L-0.7317296566718446,0.9677955108224854 L-0.7076878136090077,0.9887276271048004 L-0.6823173486213086,1.0076118931848623 L-0.6556693713576498,1.024410266078059 " />
			<path d="M-0.6556693713576471,1.0244102660780605 L-0.6093328514031535,1.0473612843218656 L-0.5599553379296192,1.0644858529714232 L-0.5078044119607545,1.0756911725055038 L-0.45316268388287806,1.0809165203266935 L-0.3963262619547453,1.0801335798224119 L-0.337603147671242,1.0733465938150877 L-0.27731156667659507,1.0605923415699363 L-0.21577824427203426,1.0419399394849367 L-0.15333663486307866,1.01749046654308 L-0.09032511494122017,0.987376416556605 L-0.02708514939239795,0.9517609801715479 L0.03604055893080241,0.9108371605234945 L0.09870992634560036,0.8648267273368648 L0.16058334212013717,0.813979015135561 L0.22132550885345678,0.7585695720775808 L0.28060725948116927,0.6988986667356756 L0.33810734106029783,0.6352896609159364 L0.3935141556668079,0.5680872573321503 L0.446527448971754,0.49765563163193155 L0.4968599373455066,0.42437645889732967 L0.5442388646726304,0.3486468453144919 L0.5884074804409042,0.2708771762208376 L0.6291264310945955,0.1914888921913522 L0.6661750571121161,0.11091220521559947 L0.6993525887790862,0.029583767341678172 L0.7284792341768144,-0.0520556955790652 L0.7533971534902821,-0.13356377222360688 L0.7739713143557752,-0.21449876326253509 L0.7900902236129644,-0.2944220749669912 L0.8016665314960009,-0.3729005959860842 L0.8086375049894646,-0.44950904441482564 L0.8109653677840112,-0.5238322724336154 " />
			<path d="M0.17573593128803067,-0.8273036735698558 L0.17375819102723544,-0.7610709562207401 L0.16783469619629843,-0.6928802543702465 L0.15799457682016382,-0.6230669100592804 L0.1442862237442819,-0.5519742450124822 L0.12677705066250167,-0.4799518722818253 L0.10555316259613068,-0.4073539769513004 L0.08071893245447992,-0.33453757435767617 L0.0523964877592511,-0.2618607543928964 L0.0207251100568977,-0.18968092052212696 L-0.014139450027513156,-0.11835303217745358 L-0.05202573872658045,-0.048227859170624277 L-0.09274744229033571,0.02034974329087863 L-0.13610430322308542,0.08704253050146138 L-0.18188310509153466,0.15152252672880423 L-0.22985872106120026,0.21347263810313094 L-0.2797952210047123,0.27258821199264743 L-0.3314470317375712,0.3285785351965888 L-0.38456014467565114,0.3811682635881955 L-0.43887336497554685,0.43009877617705466 L-0.49411959601485494,0.4751294469319199 L-0.5500271528956896,0.5160388281095591 L-0.606321098511999,0.5526257392703524 L-0.6627245956102961,0.5847102566251878 L-0.7189602681947644,0.6121345978483335 L-0.7747515655817421,0.6347638980050307 L-0.8298241223955585,0.6524868727780209 L-0.8839071078176602,0.6652163657314556 L-0.936734557453818,0.6728897769209015 L-0.9880466812696713,0.6754693707416624 L-1.0375911411625662,0.6729424615015096 L-1.0851242918869606,0.6653214758052262 L-1.1304123792308816,0.6526438914441801 " />
			<path d="M-4.5075054799781356e-14,-1.305287782888444 L0.039981940322486254,-1.265264389912637 L0.07522517211588631,-1.218845440173682 L0.10547990117463046,-1.1663599382515009 L0.13053169041040413,-1.1081798867572923 L0.1502029797224258,-1.0447176496826884 L0.1643543444939588,-0.9764230296786991 L0.1728854837951428,-0.9037800799798714 L0.17573593128803067,-0.8273036735698598 " />
			<path d="M-0.9285980323117102,0.5361263239240732 L-0.8830338864811605,0.5085282767899599 L-0.8375795086688647,0.47841356522179024 L-0.7923444024523054,0.4458547381974689 L-0.747437543164486,0.4109302327831138 L-0.7029671153628068,0.3737241851712936 L-0.6590402522029917,0.33432622798957023 L-0.5732389500192157,0.24933928928332993 L-0.49085995005694993,0.15678788734271998 L-0.412696607118775,0.057563342762172676 L-0.33950167692561406,-0.04737875785234846 L-0.2719800666676464,-0.15702776470473778 L-0.21078204636272313,-0.27032769791876254 L-0.15649698640062137,-0.3861874172015278 L-0.10964768158400873,-0.5034911301209755 L-0.07068531632870423,-0.62110913779696 L-0.03998511951111183,-0.7379087145190171 L-0.027828919314432765,-0.7956494725148417 L-0.017842750809020314,-0.8527650165141686 L-0.010050671549488799,-0.9091177501687718 L-0.004471453337280273,-0.9645719148073612 L-0.001118536997749442,-1.018993916490111 L-3.930189507173054e-14,-1.072252647848154 " />
			<path d="M-2.0358782741621835,-0.38709616464174146 L-1.6941099965908764,-0.24136084121837204 " />
			<path d="M-2.3768140213935944,-0.9785755241910359 L-1.6941099965921742,-0.5844161716948645 " />
			<path d="M-1.3531742493635264,-1.1749342080095544 L-2.0358782741649635,-1.5690935605057355 " />
			<path d="M-1.0560796182663,-1.3464618732484575 L-1.353174249365959,-1.5695742221217577 " />
			<path d="M5.280737278889116,3.7745531247222215 L5.158582718901161,3.860056534206153 " />
			<path d="M5.909227533387934,2.6859760718683736 L5.9221983781172245,2.537435414988729 " />
			<path d="M-0.9285980323117007,0.5361263239240681 L-1.6617009357885428,0.9593834825900794 " />
			<path d="M-4.533873276812983e-14,-1.3134718624064263 L0.4256629011095071,-1.0677152718667884 " />
			<path d="M-1.1375000000000517,0.6567359312031688 L-0.7118370988904963,0.9024925217428085 " />
			<path d="M-2.1529978615060217,-0.6166611671190166 L-1.6941099965904358,-0.42098422517527767 " />
			<path d="M-1.6105431670038506,-1.5562202588032037 L-1.2116380318879123,-1.2566501812696138 " />
			<path d="M-0.6899941353795428,-3.111914564991899 L-0.48670093578846024,-2.994543181483567 " />
			<path d="M-3.0399941353795596,0.9584048327949768 L-2.836700935788477,1.075776216303309 " />
			<path d="M0.5593306286423556,-1.0800314651181242 L5.675366441981268,1.8737131888968728 " />
			<path d="M-0.6556693713576474,1.024410266078061 L4.4603664419812645,3.9781549200930577 " />

       </g>
    </g>
    
</svg>
