<?xml version="1.0" encoding="UTF-8" standalone="no"?>
<svg
   xmlns:svg="http://www.w3.org/2000/svg"
   xmlns="http://www.w3.org/2000/svg"
   width="300.0"
   height="240.0"

>
    <g transform="scale(12.479985198166375, -12.479985198166375)   translate(4.9072180169589235,-10.627007478554054)" stroke-width="0.0801283001639237"  fill="none">
       <!-- hidden lines -->
       <g  stroke="rgb(160,160,160)" fill="none" stroke-dasharray="0.0801283001639237,0.0801283001639237" >
			<path d="M11.564245871124584,8.93290531866188 L11.517483592594242,8.903189310646637 L11.473187647063867,8.869468200220767 L11.431464747346103,8.831823224492911 L11.39241540756087,8.790345073506906 L11.356133700988025,8.745133671761534 L11.322707033436606,8.696297937483653 L11.292215932676573,8.64395552023464 L11.264733854440363,8.588232517482304 L11.240327005461593,8.529263170821034 L11.21905418397724,8.467189542572042 L11.200966638077539,8.402161173542785 L11.186107942244846,8.33433472277007 L11.174513892378885,8.263873590114704 L11.166212419561308,8.190947522616918 L11.161223522767251,8.115732205560883 L11.15955922068607,8.038408839233474 L11.161223522767251,7.959163702396898 L11.166212419561308,7.878187703526849 L11.174513892378886,7.795675920897265 L11.186107942244846,7.711827132619679 L11.20096663807754,7.626843337769338 L11.21905418397724,7.5409292697517385 L11.240327005461594,7.454291903081918 L11.264733854440363,7.367139954764721 L11.292215932676573,7.279683381477254 L11.322707033436606,7.192132873764855 L11.356133700988025,7.104699348469125 L11.39241540756087,7.017593440610772 L11.431464747346105,6.931024995951402 L11.473187647063867,6.845202565456703 L11.517483592594242,6.760332902878891 L11.564245871124584,6.676620466668822 L11.613361828230019,6.594266927417668 L11.664713139267828,6.513470682014805 L11.718176094431882,6.434426375692323 L11.773621896780385,6.357324433107615 L11.830916972519004,6.282350599593702 L11.889923292791826,6.209685493682451 L11.950498706204973,6.139504171978713 L12.012497281281751,6.07197570743363 L12.075769658024367,6.007262782033086 L12.140163407735242,5.945521294882555 L12.205523400231097,5.886899986632498 L12.27169217756515,5.831540081149108 L12.338510333357103,5.779574945293652 L12.405816896817074,5.73112976763001 L12.473449720538328,5.686321256834474 L12.541245871124586,5.645257360534312 L12.609042021710845,5.6080370052524815 L12.6766748454321,5.574749858084976 L12.74398140889207,5.545476110684932 L12.810799564684023,5.5202862860739135 L12.876968342018076,5.499241068745776 L12.942328334513931,5.482391158472406 L13.006722084224805,5.469777148163531 L13.069994460967422,5.461429426074841 L13.1319930360442,5.457368102600022 L13.192568449457346,5.457602961823055 L13.25157476973017,5.4621334379475 L13.308869845468786,5.470948616659551 L13.36431564781729,5.484027261421572 L13.417778602981343,5.501337864632777 L13.469129914019154,5.5228387235338 L13.518245871124584,5.548478040672294 " />
			<path d="M13.922932521563146,6.658529617465597 L13.919694588951801,6.55888882596077 L13.90999833775513,6.463526839067804 L13.893896312798478,6.372960431656081 L13.871475772350207,6.287680390934279 L13.842858215261579,6.208148856831954 L13.826272728247048,6.170674745534278 L13.808198722553955,6.134796817623226 L13.788660692631918,6.100563695972581 L13.767685117021312,6.068021774363981 L13.745300422468741,6.03721515461264 L13.721536945402232,6.008185586799206 L13.696426890818376,5.980972412688766 L13.67000428863712,5.955612512413677 L13.642304947583371,5.932140254492466 L13.61336640665791,5.91058744925256 L13.58322788426338,5.890983305719949 L13.551930225054301,5.873354392034213 L13.519515844583127,5.857724599442561 L13.486028671817396,5.844115109921673 L13.45151408960582,5.832544367471239 L13.416018873174067,5.823028053118075 L13.379591126733526,5.8155790636647176 L13.342280218288995,5.810207494211276 L13.304136712733646,5.806920624474243 L13.265212303321913,5.805722908920798 L13.225559741613214,5.806615970731977 L13.185232765981395,5.809598599602888 L13.102775022309924,5.8218135635539365 L13.01828591796481,5.84230160682596 L12.93222330672286,5.870951702937329 L12.845053569331082,5.907608594534893 L12.757249086149017,5.952073634747039 L12.669285677278635,6.004105863668292 L12.581640024053991,6.063423314141913 L12.494787085863754,6.129704539764371 L12.409197526305144,6.202590356831238 L12.325335162617117,6.281685790784808 L12.243654452214548,6.366562216615453 L12.16459802994414,6.456759681617682 L12.088594309407831,6.551789397913701 L12.016055161352373,6.651136391237281 L11.947373681706056,6.754262291623915 L11.88292206135783,6.86060825088431 L11.823049569222617,6.969597971051142 L11.76808065952281,7.080640827387673 L11.718313213542718,7.193135069034371 L11.674016925384091,7.306471079948956 L11.635431840470408,7.420034682468554 L11.60276705471993,7.533210465591662 L11.5761995814368,7.645385119943691 L11.555873392060615,7.7559507613535965 L11.54189863597272,7.864308225030887 L11.534351043587161,7.969870312491521 L11.533271515961022,8.072064973637373 L11.538665903148042,8.170338406745278 L11.55050497249667,8.264158059566558 L11.568724567064336,8.353015515273794 L11.593225953289489,8.436429247615667 L11.623876356037306,8.513947230349428 L11.641456811480946,8.550362730139833 L11.660509678119666,8.585149386810286 L11.681009134921325,8.618260056411428 L11.702927400390202,8.649649866343236 L11.72623477021734,8.679276276167753 L11.750899657536742,8.707099135261199 L11.776888635732858,8.733080737227342 L11.80416648374137,8.757185870998354 L11.832696233781864,8.779381868553953 L11.862439221457704,8.799638649194094 L11.893355138155215,8.817928760305277 L11.925402085671157,8.83422741456516 L11.958536632994466,8.848512523535108 L11.992713875165292,8.860764727595138 L12.027887494131587,8.87096742218065 L12.064009821520763,8.879106780285461 L12.101031903241333,8.885171771200588 L12.13890356582701,8.889154175463398 L12.177573484433323,8.891048595996883 L12.216989252394644,8.890852465423944 L12.257097452247306,8.88856604954678 L12.297843728122606,8.88419244698666 L12.381028835601484,8.869210211368499 L12.466093787526473,8.845986948602375 L12.552577609552843,8.814648507561344 L12.640011638355846,8.77536471397265 L12.727922061357866,8.728348450117412 " />
			<path d="M-0.4974442874130981,-0.6618731059531908 L-0.5338288393387696,-0.6385137163851928 L-0.5697388326086463,-0.6107522004159801 L-0.6047254688239533,-0.5789355178408642 L-0.6383514895816063,-0.543461309396972 L-0.6701966412725386,-0.5047729271013246 L-0.6998629273563384,-0.46335389329532184 L-0.7269795824699505,-0.4197218576457635 L-0.7512077062046871,-0.37442212762702454 L-0.7722444986392076,-0.32802085333956776 L-0.7898270446933273,-0.2810979518400416 L-0.8037356000063003,-0.23423985941376085 L-0.8137963372730967,-0.18803220237072005 L-0.8198835187153247,-0.1430524779645727 L-0.8219210675355366,-0.0998628369074974 " />
			<path d="M-0.2689762809484191,-0.7937791709840386 L-0.49744428741309804,-0.6618731059531905 " />
			<path d="M-0.26897628094842024,-0.793779170984038 L-0.5897794157254358,-1.667050245450029 " />
			<path d="M-0.26897628094841886,-0.7937791709840383 L-0.26897628094841913,-1.345123515378575 " />
			<path d="M-0.5897794157254203,-2.3775575716628015 L-0.268976280948418,-1.3451235153785752 " />
			<path d="M-0.49744428742434665,-1.2132174503360835 L-0.2689762809484191,-1.3451235153785754 " />
			<path d="M-0.8219210675463499,-1.4005542066868122 L-0.8214977195513573,-1.3816214742835045 L-0.8202287748830008,-1.3632315024399393 L-0.8181175286378307,-1.3454320448007762 L-0.8151694631354415,-1.328269321609441 L-0.8113922336824116,-1.311787899687006 L-0.8067956486936005,-1.2960305767045408 L-0.8013916442224217,-1.2810382700494607 L-0.7951942529662306,-1.2668499105744453 L-0.7882195678273094,-1.2535023415048365 L-0.7804857001240753,-1.2410302227670238 L-0.7720127325610189,-1.2294659409862514 L-0.7628226670795062,-1.2188395253875548 L-0.7529393677248506,-1.2091785698182123 L-0.7423884986780235,-1.2005081610941943 " />
			<path d="M-0.7423884986780216,-1.2005081610941928 L-0.7289459937645859,-1.1914791553179418 L-0.7146395988295939,-1.1839295469536342 L-0.6995223373443629,-1.1778873169457618 L-0.6836502380767543,-1.173374859476155 L-0.6670821274330072,-1.1704088989649282 L-0.6498794114307445,-1.1690004280851345 L-0.6321058481112241,-1.1691546670208692 L-0.6138273112343386,-1.1708710441198171 L-0.5951115461321731,-1.174143198011955 L-0.5760279186259969,-1.1789590011865558 L-0.5566471579372736,-1.185300604940109 L-0.5370410945455298,-1.1931445055285717 L-0.5172823939646575,-1.2024616312787686 L-0.49744428742434954,-1.2132174503360817 " />
			<path d="M-0.821921067543354,-1.664366336761716 L-0.8219210675463499,-1.4005542066868122 " />
			<path d="M-0.8219210675433541,-1.6643663367617163 L-1.7385975698078318,-3.0408280421709852 " />
			<path d="M-0.821921067543354,-1.6643663367617205 L-1.1261605542576303,-1.4887135872089987 " />
			<path d="M-1.1410757301695487,-1.480102306381236 L-1.2993992760232471,-1.3886941645634843 " />
			<path d="M-1.9191488780550428,-2.1508838655536087 L-1.7799597121752213,-1.979704169148472 " />
			<path d="M-1.3180302526891807,-1.4116071902235303 L-1.2993992760232493,-1.3886941645634803 " />
			<path d="M-1.2993992760220914,-1.1248820344919457 L-1.2993992760232471,-1.3886941645634818 " />
			<path d="M-1.2993992760238324,0.17580933530681297 L-1.3000035167519508,0.15325112155150433 L-1.30181399945255,0.13148102202783607 L-1.3048240139741223,0.11057972276837535 L-1.3090224043672218,0.09062468979071758 L-1.3143936102315108,0.07168988198691806 L-1.3209177243869221,0.05384547701130782 L-1.3285705666551957,0.037157611182622396 L-1.3373237734783328,0.021688134364444944 L-1.3471449030418143,0.0074943807324413525 L-1.3579975555129733,-0.0053710437220122476 L-1.3698415079488795,-0.016860456164237037 L-1.3826328633737321,-0.026931273642075038 L-1.396324213473239,-0.035546170910131125 L-1.4108648143029892,-0.04267321876749404 " />
			<path d="M-1.4108648143029914,-0.04267321876749508 L-1.4236490430423703,-0.04747533503198276 L-1.436957325667335,-0.05120404556162805 L-1.450755104267472,-0.053849667931728185 L-1.465006549847396,-0.0554053321964435 L-1.4796746553646893,-0.05586699872813694 L-1.4947213318269037,-0.05523346870716406 L-1.5101075071980863,-0.053506387234875 L-1.5257932278579944,-0.05069023906174219 L-1.5417377623505417,-0.0467923369417117 L-1.557899707152065,-0.04182280264301286 L-1.5742370941847676,-0.03579454066474075 L-1.5907074997961486,-0.028723204727458818 L-1.6072681549214365,-0.020627157124838535 L-1.6238760561429595,-0.01152742104188745 " />
			<path d="M-1.2993992760245783,0.439621465374913 L-1.2993992760238322,0.1758093353068126 " />
			<path d="M-1.2993992760245763,0.4396214653749165 L-2.353914963883581,0.6780148291842585 " />
			<path d="M-1.623876056144181,-0.56287176544574 L-1.5874915042184932,-0.5862311550137954 L-1.5515815109486046,-0.6139926709830665 L-1.5165948747332918,-0.645809353558241 L-1.4829688539756394,-0.681283562002191 L-1.4511237022847139,-0.7199719442978938 L-1.4214574162009281,-0.7613909781039487 L-1.3943407610873373,-0.8050230137535548 L-1.3701126373526291,-0.8503227437723355 L-1.3490758449181444,-0.8967240180598275 L-1.3314932988640675,-0.9436469195593811 L-1.3175847435511439,-0.9905050119856804 L-1.3075240062844031,-1.0367126690287303 L-1.3014368248422368,-1.081692393434876 L-1.2993992760220916,-1.1248820344919424 " />
			<path d="M-1.8523440626107783,-0.43096570041350085 L-1.623876056144181,-0.5628717654457402 " />
			<path d="M-1.8523440626107774,-0.4309657004135032 L-1.8815028132360752,-0.43564408667245097 " />
			<path d="M-2.604453958624675,-0.5516382438961219 L-2.8222945071564203,-0.5865897492602912 " />
			<path d="M-1.7385975698058553,0.32276116607616456 L-0.8219210675348113,0.16394929317098306 " />
			<path d="M-0.8219210675355366,-0.09986283690749381 L-0.8219210675348139,0.16394929317097945 " />
			<path d="M-1.2993992760245787,0.43962146537491786 L-0.8219210675348136,0.16394929317098172 " />
			<path d="M-3.5027331179638814,0.014744358675015659 L-1.8523440626107774,0.12037864399358347 " />
			<path d="M-1.6238760561429624,-0.011527421041886615 L-1.8523440626107783,0.12037864399358539 " />
			<path d="M-1.8523440626107783,-0.4309657004135007 L-1.8523440626107783,-0.2481494168109759 " />
			<path d="M-1.8523440626107783,-0.2309268551026642 L-1.8523440626107783,0.12037864399358573 " />
			<path d="M2.0824294705924817,-0.28781504477811926 L2.0808750431113374,-0.36003364434184626 L2.0762155054198566,-0.43028336472427287 L2.0684620827524665,-0.4983949681958483 L2.0576334537834926,-0.5642043679379384 L2.0437557056285964,-0.6275530233423418 L2.02686227099863,-0.6882883219495021 L2.0069938476573075,-0.7462639471052909 L1.9841983003767265,-0.8013402304506437 L1.95853054562694,-0.8533844883948684 L1.9300524192773698,-0.9022713417620368 L1.898832527628782,-0.9478830178404071 L1.8649460821346975,-0.9901096341071945 L1.828474718210413,-1.0288494629451979 L1.7895062985661365,-1.0640091767135385 L1.7481347015380218,-1.0955040725821208 L1.7044595949270411,-1.1232582765881656 " />
			<path d="M1.704459594927033,-1.1232582765881705 L1.6585861958904835,-1.1472049264232558 L1.6106250174646883,-1.1672863325104452 L1.5606916023293778,-1.183454116983551 L1.5089062444552632,-1.1956693302336472 L1.4553936993053256,-1.2039025447420877 L1.4002828832879761,-1.2081339259739772 L1.343706563186138,-1.2083532801613037 L1.2858010363104369,-1.2045600788606152 L1.2267058021470418,-1.1967634602260917 L1.1665632262911831,-1.1849822069949263 L1.1055181974759656,-1.169244701238069 L1.0437177785227174,-1.1495888559853302 L0.9813108520537748,-1.126062023889573 L0.9184477618212026,-1.0987208831500235 L0.8552799505155274,-1.067631300969523 L0.7919595949270315,-1.0328681748746722 L0.7286392393385352,-0.9945152522811215 L0.6654714280328602,-0.9526649287387202 L0.6026083378002881,-0.9074180253425356 L0.5402014113313454,-0.8588835458460108 L0.47840099237809725,-0.807178414061371 L0.41735596356287974,-0.75242719217992 L0.3572133877070209,-0.694761780690811 L0.2981181535436257,-0.6343211006212143 L0.24021262666792464,-0.5712507588633967 L0.18363630656608643,-0.5057026973949613 L0.12852549054873696,-0.4378348272373188 L0.07501294539879921,-0.3678106480342015 L0.02322758752468468,-0.2957988541667035 L-0.026705827610625787,-0.22197292835374016 L-0.07466700603642129,-0.14651072371698182 L-0.12054040507297048,-0.06959403531710717 L-0.16421551168395943,0.008591837806422309 L-0.20558710871207475,0.08785853903697832 L-0.2445555283563512,0.16801510794835317 L-0.2810268922806358,0.24886844034515382 L-0.31491333777472086,0.3302237534677203 L-0.3461332294233086,0.4118850552408564 L-0.3746113557728785,0.493655616435906 L-0.40027911052266507,0.5753384446086947 L-0.42307465780324605,0.6567367586715833 L-0.4429430811445687,0.737654462956344 L-0.45983651577453477,0.8178966196258008 L-0.4737142639294314,0.8972699182961545 L-0.48454289289840546,0.9755831417386284 L-0.492296315565796,1.0526476265385218 L-0.4969558532572764,1.1282777176018999 L-0.4985102807384212,1.2022912154149763 L-0.4969558532572764,1.2745098149787029 L-0.4922963155657962,1.34475953536113 L-0.4845428928984059,1.4128711388327062 L-0.47371426392943183,1.4786805385747965 L-0.4598365157745352,1.5420291939791997 L-0.44294308114456915,1.6027644925863598 L-0.4230746578032467,1.6607401177421486 L-0.40027911052266574,1.7158164010875012 L-0.3746113557728794,1.7678606590317254 L-0.3461332294233097,1.8167475123988943 L-0.31491333777472197,1.8623591884772641 L-0.28102689228063715,1.9045858047440518 L-0.24455552835635275,1.943325633582055 L-0.20558710871207597,1.978485347350396 L-0.16421551168396076,2.0099802432189784 L-0.12054040507297625,2.037734447225026 " />
			<path d="M-0.12054040507297215,2.037734447225028 L-0.08633549007585128,2.0560547058490437 L-0.05094028250758054,2.07220819890811 L-0.014402751044453654,2.08617303469053 L0.02322758752468279,2.0979302876204087 L0.06189973540510896,2.107464023906178 L0.10156128291001476,2.1147613231345623 L0.1421584794877202,2.119812295780721 L0.18363630656608443,2.122610096610835 L0.22593855211536762,2.1231509339589834 L0.26900788682850585,2.121434074865721 L0.3127859418155571,2.11746184607141 L0.35721338770701916,2.1112396308629497 L0.4022300150588186,2.10277586177818 L0.4477748159500074,2.092082009177846 L0.5402014113313436,2.064065026622188 L0.6339923061225732,2.0273405096519097 L0.7286392393385335,1.9821074716063811 L0.8236293110476698,1.9286110342378802 L0.9184477618212011,1.8671410993755773 L1.0125807622590663,1.7980307779224094 L1.1055181974759634,1.721654584698229 L1.19675643145811,1.6384264089115508 L1.2858010363104355,1.548797271258072 L1.3721694716041881,1.4532528798004387 L1.4553936993053247,1.3523109978741756 L1.5350227201131654,1.246518638283312 L1.610625017464687,1.1364490989905978 L1.6817908959601608,1.0226988563661705 L1.7481347015380209,0.9058843328304347 L1.8092969113676396,0.7866385564075451 L1.8649460821346973,0.6656077302917024 L1.914780646161216,0.5434477310160591 L1.9585305456269395,0.42082055420095094 L1.9959586960360578,0.2983907271422773 L2.0268622709986293,0.17682170768051259 L2.0510738013643666,0.056772288865177545 L2.0684620827524665,-0.06110697110177321 L2.078932886559521,-0.17617727429720775 L2.0824294705924817,-0.28781504477810593 " />
			<path d="M1.2904698756657356,-0.745053130096385 L1.2889154481845908,-0.817271729660112 L1.2842559104931104,-0.8875214500425386 L1.2765024878257203,-0.955633053514114 L1.265673858856746,-1.021442453256204 L1.2517961107018498,-1.0847911086606075 L1.2349026760718835,-1.1455264072677678 L1.2150342527305613,-1.2035020324235566 L1.1922387054499801,-1.2585783157689094 L1.1665709507001936,-1.310622573713134 L1.1380928243506234,-1.3595094270803025 L1.1068729327020357,-1.4051211031586728 L1.072986487207951,-1.4473477194254603 L1.0365151232836667,-1.4860875482634637 L0.9975467036393902,-1.5212472620318043 L0.9561751066112752,-1.5527421579003864 L0.9125000000002947,-1.5804963619064312 " />
			<path d="M0.9125000000002864,-1.580496361906436 L0.8666266009637372,-1.6044430117415214 L0.818665422537942,-1.6245244178287108 L0.7687320074026314,-1.6406922023018167 L0.7169466495285168,-1.6529074155519128 L0.6634341043785792,-1.6611406300603533 L0.6083232883612297,-1.665372011292243 L0.5517469682593916,-1.6655913654795693 L0.49384144138369057,-1.661798164178881 L0.4347462072202955,-1.6540015455443575 L0.37460363136443675,-1.642220292313192 L0.3135586025492192,-1.6264827865563345 L0.25175818359597096,-1.6068269413035958 L0.18935125712702844,-1.5833001092078387 L0.12648816689445624,-1.555958968468289 L0.06332035558878106,-1.524869386287789 L2.8515149547999626e-13,-1.4901062601929378 L-0.0633203555882111,-1.4517533375993872 L-0.12648816689388614,-1.409903014056986 L-0.18935125712645823,-1.3646561106608013 L-0.251758183595401,-1.3161216311642765 L-0.3135586025486491,-1.2644164993796367 L-0.3746036313638666,-1.2096652774981858 L-0.43474620721972546,-1.1519998660090767 L-0.49384144138312064,-1.09155918593948 L-0.5517469682588217,-1.0284888441816624 L-0.60832328836066,-0.962940782713227 L-0.6634341043780094,-0.8950729125555845 L-0.7169466495279472,-0.8250487333524672 L-0.7687320074020617,-0.7530369394849692 L-0.8186654225373722,-0.6792110136720059 L-0.8666266009631677,-0.6037488090352475 L-0.9124999999997169,-0.5268321206353729 L-0.9561751066107058,-0.4486462475118434 L-0.9975467036388211,-0.3693795462812874 L-1.0365151232830976,-0.28922297736991254 L-1.0729864872073822,-0.20836964497311186 L-1.1068729327014672,-0.12701433185054536 L-1.138092824350055,-0.04535303007740929 L-1.166570950699625,0.03641753111764032 L-1.1922387054494115,0.11810035929042892 L-1.2150342527299924,0.1994986733533177 L-1.234902676071315,0.2804163776380782 L-1.2517961107012812,0.36065853430753514 L-1.2656738588561778,0.4400318329778888 L-1.2765024878251519,0.5183450564203627 L-1.2842559104925424,0.5954095412202562 L-1.2889154481840228,0.6710396322836341 L-1.2904698756651676,0.7450531300967105 L-1.2889154481840228,0.8172717296604373 L-1.2842559104925426,0.8875214500428643 L-1.2765024878251523,0.9556330535144405 L-1.2656738588561782,1.0214424532565307 L-1.2517961107012816,1.0847911086609339 L-1.2349026760713155,1.1455264072680942 L-1.215034252729993,1.203502032423883 L-1.1922387054494121,1.2585783157692354 L-1.1665709506996258,1.3106225737134596 L-1.138092824350056,1.3595094270806285 L-1.1068729327014684,1.4051211031589985 L-1.0729864872073835,1.447347719425786 L-1.0365151232830991,1.4860875482637894 L-0.9975467036388224,1.5212472620321302 L-0.9561751066107071,1.5527421579007128 L-0.9124999999997226,1.58049636190676 " />
			<path d="M-0.9124999999997185,1.5804963619067625 L-0.8782950850025977,1.5988166205307779 L-0.8428998774343269,1.6149701135898442 L-0.8063623459712,1.6289349493722645 L-0.7687320074020636,1.6406922023021429 L-0.7300598595216374,1.6502259385879123 L-0.6903983120167316,1.6575232378162967 L-0.6498011154390262,1.662574210462455 L-0.608323288360662,1.6653720112925694 L-0.5660210428113788,1.6659128486407175 L-0.5229517080982405,1.6641959895474552 L-0.47917365311118926,1.660223760753144 L-0.4347462072197272,1.654001545544684 L-0.3897295798679277,1.6455377764599144 L-0.34418477897673894,1.6348439238595802 L-0.25175818359540275,1.6068269413039222 L-0.15796728880417316,1.5701024243336439 L-0.06332035558821288,1.5248693862881155 L0.031669716120923445,1.4713729489196143 L0.1264881668944548,1.4099030140573117 L0.2206211673323199,1.3407926926041436 L0.31355860254921697,1.2644164993799631 L0.40479683653136367,1.181188323593285 L0.49384144138368913,1.0915591859398062 L0.5802098766774417,0.9960147944821731 L0.6634341043785783,0.8950729125559099 L0.743063125186419,0.7892805529650464 L0.8186654225379406,0.6792110136723319 L0.8898313010334145,0.5654607710479047 L0.9561751066112744,0.4486462475121689 L1.0173373164408932,0.3294004710892794 L1.0729864872079509,0.2083696449734367 L1.1228210512344696,0.08620964569779346 L1.1665709507001931,-0.036417531117314744 L1.2039991011093114,-0.15884735817598836 L1.234902676071883,-0.2804163776377531 L1.2591142064376202,-0.40046579645308816 L1.2765024878257203,-0.5183450564200389 L1.2869732916327747,-0.6334153596154735 L1.2904698756657356,-0.7450531300963716 " />
			<path d="M2.1736462453652146,-0.34047907424814955 L2.171981943284033,-0.4178024405755591 L2.1669930464899765,-0.49301775763159256 L2.158691573672398,-0.5659438251293782 L2.1470975238064387,-0.6364049577847448 L2.1322388279737443,-0.7042314085574595 L2.114151282074044,-0.7692597775867147 L2.0928784605896906,-0.8313334058357074 L2.0684716116109207,-0.8903027524969782 L2.040989533374711,-0.9460257552493152 L2.010498432614678,-0.9983681724983275 L1.9770717650632585,-1.0472039067762098 L1.9407900584904139,-1.092415308521581 L1.90174071870518,-1.1338934595075858 L1.8600178189874177,-1.171538435235442 L1.8157218734570415,-1.2052595456613104 L1.7689595949267094,-1.2349755536765497 " />
			<path d="M1.7689595949267005,-1.2349755536765548 L1.7198436378212665,-1.2606148708150517 L1.668492326783456,-1.2821157297160752 L1.615029371619403,-1.29942633292728 L1.5595835692708993,-1.3125049776893007 L1.5022884935322809,-1.3213201564013517 L1.4432821732594583,-1.325850632525797 L1.3827067598463123,-1.32608549174883 L1.3207081847695343,-1.3220241682740108 L1.2574358080269183,-1.3136764461853212 L1.1930420583160428,-1.301062435876446 L1.1276820658201878,-1.2842125256030765 L1.0615132884861347,-1.2631673082749388 L0.994695132694182,-1.23797748366392 L0.9273885692342116,-1.208703736263876 L0.8597557455129571,-1.1754165890963706 L0.791959594926699,-1.1381962338145406 L0.7241634443404407,-1.097132337514378 L0.6565306206191863,-1.052323826718842 L0.5892240571592159,-1.0038786490552014 L0.5224059013672632,-0.9519135131997443 L0.45623712403320993,-0.8965536077163543 L0.3908771315373552,-0.8379322994662968 L0.3264833818264795,-0.7761908123157657 L0.2632110050838635,-0.7114778869152223 L0.20121243000708544,-0.6439494223701396 L0.140637016593939,-0.5737681006664015 L0.08163069632111686,-0.50110299475515 L0.024335620582498385,-0.42612916124123695 L-0.03111018176600544,-0.34902721865652936 L-0.08457313693005841,-0.269982912334047 L-0.13592444796786918,-0.18918666693118374 L-0.18504040507330322,-0.10683312768003023 L-0.23180268360364442,-0.023120691469960875 L-0.27609862913402083,0.06174897110785105 L-0.31782152885178294,0.14757140160255044 L-0.3568708686370172,0.23413984626191936 L-0.39315257520986213,0.32124575412027284 L-0.42657924276128156,0.40867927941600296 L-0.45707034352131415,0.4962297871284013 L-0.4845524217575239,0.5836863604158693 L-0.508959270736294,0.6708383087330665 L-0.5302320922206469,0.7574756754028867 L-0.5483196381203479,0.8433897434204861 L-0.5631783339530425,0.9283735382708264 L-0.5747723838190018,1.012222326548412 L-0.5830738566365805,1.0947341091779967 L-0.5880627534306366,1.1757101080480463 L-0.5897270555118186,1.2549552448846222 L-0.5880627534306369,1.3322786112120317 L-0.5830738566365805,1.407493928268066 L-0.5747723838190022,1.4804199957658524 L-0.563178333953043,1.5508811284212192 L-0.5483196381203483,1.6187075791939334 L-0.5302320922206476,1.6837359482231888 L-0.5089592707362947,1.7458095764721813 L-0.4845524217575248,1.8047789231334517 L-0.45707034352131504,1.8605019258857882 L-0.4265792427612827,1.9128443431348008 L-0.39315257520986324,1.961680077412683 L-0.35687086863701856,2.0068914791580545 L-0.3178215288517845,2.0483696301440593 L-0.27609862913402194,2.086014605871916 L-0.23180268360364553,2.1197357162977846 L-0.185040405073309,2.149451724313026 " />
			<path d="M-0.18504040507330466,2.1494517243130287 L-0.14841771800241466,2.1690669491630703 L-0.11052060261151009,2.1863622507726133 L-0.07140041823948262,2.201314190015818 L-0.031110181766007106,2.213902503563754 L0.01029550423856973,2.224110131345887 L0.05276052551231514,2.231923239670415 L0.09622733214948576,2.2373312399721104 L0.14063701659393724,2.240326803162271 L0.18592939347245752,2.2409058695613293 L0.23204308115983951,2.2390676544006527 L0.27891558496515345,2.234814648886086 L0.3264833818264778,2.228152616821795 L0.37468200639930854,2.2190905867989787 L0.42344613842198414,2.207640839960046 L0.47270969123971673,2.1938188933548317 L0.5224059013672613,2.177643478911413 L0.5724674189688523,2.159136518050023 L0.6228263991327752,2.138323091974468 L0.724163444340439,2.0898927597328445 L0.8258678827621662,2.0326149303530907 L0.9273885692342103,1.9667999973553154 L1.02817535436056,1.892804617563814 L1.1276820658201858,1.8110297783528282 L1.2253694681221663,1.7219186246612288 L1.320708184769533,1.6259540575516958 L1.4131815669963783,1.5236561173280163 L1.50228849353228,1.415579165391623 L1.5875460862218806,1.3023088801091314 L1.668492326783455,1.1844590829705206 L1.7446885605260063,1.0626684122372985 L1.8157218734570408,0.937596862106434 L1.8812073298992738,0.8099222061446112 L1.9407900584904139,0.6803363243745529 L1.994147175261821,0.5495414539172341 L2.0409895333747103,0.4182463835080717 L2.081063290031925,0.2871626125093601 L2.114151282074043,0.15700049523358595 L2.1400742028053585,0.02846539147185173 L2.158691573672398,-0.09774615591194086 L2.169902505529376,-0.22095019560721724 L2.1736462453652146,-0.3404790742481351 " />
			<path d="M-2.6040910790093728,-2.9112581389692505 L-2.7012915516006966,-2.7965045559850252 L-2.7963546622486066,-2.6784853592735107 L-2.88912427153213,-2.5573943932072773 L-2.979448007064348,-2.4334305474838933 L-3.067177513761254,-2.306797430453231 L-3.152168697512269,-2.1777030346944746 L-3.234281961852179,-2.0463593953921166 L-3.313382437245778,-1.9129822420720402 L-3.3893402026086172,-1.7777906442697193 L-3.4620304987000052,-1.6410066517125124 L-3.531333933037783,-1.5028549296070441 L-3.5971366759982923,-1.3635623896307152 L-3.6593306477794494,-1.2233578172334156 L-3.717813695919846,-1.0824714958616113 L-3.772489763082296,-0.9411348287219932 L-3.8232690448262567,-0.7995799587059491 " />
			<path d="M1.8724415436048332,-3.528900666280225 L1.8219461524553677,-3.5500369979400275 L1.7704380810483984,-3.5692001360581997 L1.7179459587739578,-3.5863794293146594 L1.664498961980551,-3.601565329056667 L1.6101267977582598,-3.6147493946061924 L1.5548596874268483,-3.62592429795144 L1.4987283497380455,-3.6350838278199302 L1.4417639838013472,-3.6422228931308687 L1.3839982517428195,-3.6473375258248866 L1.3254632611065502,-3.6504248830695842 L1.266191547008526,-3.6514832488396425 L1.206216054052853,-3.650512034870627 L1.0842874473398734,-3.6424841547968865 L0.959948486377262,-3.626359088701786 L0.8334755747549397,-3.602172682358217 L0.7051498598021875,-3.569978701773945 L0.5752566076014753,-3.5298487136706034 L0.4440845688463651,-3.4818719263919764 L0.311925336953181,-3.4261549915952263 L0.17907269985334612,-3.3628217671659124 L0.045821986907347775,-3.2920130418838176 L-0.08753058760786599,-3.213886222451669 L-0.22068858297865396,-3.12861498358247 L-0.3533559910378074,-3.036388881923292 L-0.48523789418613433,-2.937412934673778 L-0.6160411209897292,-2.8319071638360724 L-0.7454748978955394,-2.7201061071093102 L-0.873251495616488,-2.6022582965159313 L-0.9990868687492301,-2.4786257059188372 L-1.1227012872027016,-2.3494831686575357 L-1.2438199580337888,-2.215117766597873 L-1.3621736363077992,-2.075828191953479 L-1.4774992236257911,-1.9319240832975926 L-1.5895403529882512,-1.783725337241292 L-1.6980479586949784,-1.6315613973082679 L-1.802780830014284,-1.475770521586963 L-1.9035061473907264,-1.3166990307880628 L-1.9999999999993863,-1.154700538378901 L-2.0920478834961713,-0.99013516450619 L-2.179445176857661,-0.8233687354544909 L-2.261997597250483,-0.6547719704200334 L-2.3395216319190477,-0.4847196574076705 L-2.4118449461315734,-0.31358982008293096 L-2.4788067662775317,-0.14176287743124633 L-2.5402582372649016,0.030379201907573764 L-2.596062753422736,0.2024537487497316 L-2.6460962621734665,0.37407824403512896 L-2.69024753979986,0.5448711691613249 L-2.728418438693629,0.7144528540934997 L-2.760524105536046,0.8824463213650798 L-2.7864931699255617,1.0484781240928223 L-2.806267903033106,1.212179176143469 L-2.8198043459323845,1.373185572606521 L-2.8270724073198883,1.5311393987492343 L-2.8280559304074018,1.6856895256555424 L-2.822752728838291,1.836492390780212 L-2.811174591547741,1.983212761683081 L-2.7933472565561352,2.125524481245592 L-2.769310353753835,2.263111192713027 L-2.7391173168045393,2.395667042950695 L-2.7028352643630855,2.522897362350715 L-2.660544850871709,2.6445193198780146 L-2.612340087266464,2.760262551799348 L-2.5583281319923685,2.8698697626976997 L-2.5291814814842097,2.9222956701863154 L-2.498629052791832,2.973097297436024 L-2.4666878276692312,3.0222464077149676 L-2.433375559795921,3.0697156827988494 L-2.3987107649090227,3.1154787381550353 L-2.362712710511787,3.159510137607696 L-2.3254014051642606,3.201785407475832 L-2.286797587362067,3.2422810501763126 L-2.246922714009462,3.2809745572843845 L-2.205798948493085,3.3178444220443795 L-2.1634491483630334,3.352870151323671 L-2.119896852628108,3.386032277003233 " />
			<path d="M-1.1234568253794248,-1.4866831388683415 L-0.7423884986958584,-1.2005081611075885 " />
			<path d="M-1.8492337783181987,-0.22960058137551015 L-1.4108648143235107,-0.042673218776244526 " />
			<path d="M0.9125000000002867,-1.5804963619064356 L1.7044595949270331,-1.12325827658817 " />
			<path d="M-0.9124999999997185,1.5804963619067622 L-0.12054040507297226,2.037734447225028 " />
			<path d="M1.7689595949267005,-1.2349755536765548 L2.722127789017815,-0.6846636402350583 " />
			<path d="M-0.18504040507330366,2.149451724313029 L0.76812778901781,2.699763637754525 " />

       </g>

       <!-- solid lines -->
       <g  stroke="rgb(0,0,0)" fill="none">
			<path d="M13.922932521563101,6.442974520100702 L13.92126821948192,6.522219656937276 L13.916279322687865,6.6031956558073235 L13.907977849870287,6.685707438436907 L13.896383800004328,6.769556226714491 L13.881525104171633,6.85454002156483 L13.863437558271933,6.940454089582429 L13.84216473678758,7.027091456252248 L13.817757887808812,7.114243404569443 L13.790275809572604,7.201699977856909 L13.759784708812571,7.289250485569305 L13.726358041261154,7.376684010865035 L13.69007633468831,7.4637899187233865 L13.651026994903077,7.550358363382754 L13.609304095185315,7.636180793877454 L13.56500814965494,7.721050456455264 L13.518245871124602,7.804762892665332 L13.469129914019168,7.887116431916484 L13.41777860298136,7.967912677319346 L13.364315647817309,8.046956983641829 L13.308869845468806,8.124058926226535 L13.251574769730189,8.199032759740447 L13.192568449457367,8.2716978656517 L13.131993036044223,8.341879187355437 L13.069994460967447,8.40940765190052 L13.006722084224831,8.474120577301065 L12.942328334513958,8.535862064451596 L12.876968342018106,8.594483372701653 L12.810799564684054,8.649843278185044 L12.743981408892102,8.701808414040503 L12.676674845432133,8.750253591704144 L12.609042021710879,8.795062102499681 L12.541245871124634,8.836125998799838 " />
			<path d="M12.541245871124621,8.836125998799846 L12.47344972053836,8.87334635408168 L12.405816896817104,8.906633501249187 L12.338510333357132,8.935907248649233 L12.271692177565175,8.961097073260255 L12.20552340023112,8.982142290588396 L12.140163407735262,8.998992200861768 L12.075769658024385,9.011606211170644 L12.012497281281766,9.019953933259336 L11.950498706204986,9.024015256734156 L11.889923292791838,9.023780397511123 L11.830916972519013,9.01924992138668 L11.773621896780393,9.010434742674628 L11.718176094431886,8.997356097912608 L11.664713139267832,8.980045494701402 L11.613361828230019,8.95854463580038 L11.564245871124593,8.932905318661886 " />
			<path d="M13.518245871124588,5.548478040672297 L13.565008149654929,5.578194048687541 L13.609304095185305,5.61191515911341 L13.651026994903066,5.649560134841266 L13.690076334688301,5.691038285827271 L13.726358041261147,5.736249687572643 L13.759784708812566,5.785085421850525 L13.790275809572599,5.837427839099537 L13.817757887808808,5.893150841851873 L13.842164736787579,5.952120188513144 L13.863437558271931,6.014193816762136 L13.881525104171631,6.079222185791391 L13.896383800004326,6.147048636564106 L13.907977849870285,6.217509769219474 L13.916279322687863,6.290435836717259 L13.92126821948192,6.3656511537732925 L13.922932521563101,6.4429745201006945 " />
			<path d="M13.92293252156313,6.4429745201007 L13.922932521563125,6.658529617465595 " />
			<path d="M12.727922061357887,8.7283484501174 L12.786558445437096,8.692832593030769 L12.84505356933112,8.654078046846296 L12.903266513162926,8.612178174660238 L12.961057036851974,8.567233916934688 L13.018285917964844,8.519353548323158 L13.07481528711428,8.468652416827457 L13.130508960098608,8.415252665914252 L13.185232765981423,8.359282940260762 L13.238854870321113,8.300878075838453 L13.291246092771582,8.24017877508138 L13.342280218289018,8.1773312679217 L13.391834301194987,8.11248695950895 L13.439788961363345,8.045802065461785 L13.486028671817412,7.977437235530877 L13.530442037044587,7.9075571665795765 L13.572922061357884,7.836330205814761 L13.613366406657923,7.763927945223657 L13.651677638974368,7.690524808193716 L13.687763463192903,7.6162976293114015 L13.72153694540224,7.541425228352173 L13.75291672232553,7.4660879794879875 L13.78182719733162,7.3904673767501246 L13.80819872255396,7.314745596794161 L13.83196776667842,7.239105060020455 L13.85307706799578,7.163727991107423 L13.871475772350209,7.0887959800163305 L13.887119555651383,7.014489544525161 L13.899970730655095,6.940987695345491 L13.909998337755132,6.868467504869995 L13.917178219567674,6.7971036805895455 L13.921493079128552,6.727068144207568 L13.922932521563146,6.658529617465608 " />
			<path d="M-1.9190373086739507,-0.7332831940603765 L-1.9214108566131747,-0.7721210594836055 L-1.9203767406481584,-0.8130268936484897 L-1.9158259319771724,-0.8553033897349451 L-1.9076494017984864,-0.8982532409228885 L-1.8957773142049523,-0.9413356914701032 L-1.8805743830649624,-0.9836931011530565 L-1.8624737213203348,-1.024623854183135 L-1.841908441912889,-1.063426334771724 L-1.8185871476967765,-1.1006376294686258 L-1.7921904066487626,-1.1367786388796244 L-1.76310927939458,-1.1711234683000937 L-1.7317348265599608,-1.2029462230254069 L-1.6986274294316013,-1.2315022314686626 L-1.6642903141730778,-1.256581595428443 L-1.62938188060568,-1.277930083206754 L-1.5945605285506976,-1.2952934631056015 " />
			<path d="M-1.5945605285506979,-1.295293463105601 L-1.4753972565845235,-1.3468636947941186 L-1.35426427801755,-1.3970280318065362 L-1.2312260192181341,-1.445759793497393 L-1.1063479199061397,-1.4930330611576235 L-0.85133881603043,-1.5831043315308646 L-0.5897794157254874,-1.6670502454500151 " />
			<path d="M-0.5897794157254405,-1.667050245450029 L-0.5927065888597934,-2.0309982264355497 L-0.5897794157254285,-2.37755757166276 " />
			<path d="M-0.589779415725419,-2.3775575716628055 L-0.7213434418363289,-2.341588967889584 L-0.8513388160336124,-2.303696186581943 L-0.9796963983525719,-2.263899381576726 L-1.1063479199123547,-2.2222197193939786 L-1.2312260192257964,-2.1786793679792154 L-1.354264278026608,-2.133301484913071 L-1.475397256594921,-2.086110205094601 L-1.5945605285623383,-2.037130627904792 " />
			<path d="M-1.5945605285623872,-2.037130627904771 L-1.6293818806176519,-2.023953731280024 L-1.664290314185335,-2.013796656049635 L-1.6986274294441257,-2.0069665195666127 L-1.7317348265727137,-2.0037704391839637 L-1.7631092794071588,-2.0044312586665725 L-1.7921904066611518,-2.0088009468460046 L-1.8185871477089652,-2.016616341620265 L-1.8419084419248715,-2.0276142808873607 L-1.857140263564195,-2.0377209257209494 " />
			<path d="M-1.857140263564195,-2.0377209257209494 L-1.8743105547139334,-2.052939707625789 L-1.8892266358073375,-2.0709551370384864 L-1.9015653764878988,-2.091608544812045 L-1.9110079097830848,-2.1147379986734727 L-1.9174029694159824,-2.1400526555739994 L-1.9208180653048765,-2.1670930255459826 L-1.9213354331580879,-2.195388228477133 L-1.919037308683937,-2.224467384255159 " />
			<path d="M-1.9190373086839414,-2.2244673842551625 L-1.904116803421879,-2.3336315508630685 L-1.8869939043548434,-2.440873078079692 L-1.8676777185502558,-2.54613492791077 L-1.8461785196075673,-2.649361115282774 L-1.8225077421940887,-2.750496737819405 L-1.796677975963299,-2.8494880050422293 L-1.768702958858848,-2.946282266979931 L-1.7385975698078453,-3.0408280421709537 " />
			<path d="M-1.7385975698078349,-3.04082804217099 L-1.8990754466883335,-2.9612162233477597 L-2.0552493535647773,-2.8753976853376764 L-2.2069253204569934,-2.7834790158572758 L-2.353914963883482,-2.685574379064048 " />
			<path d="M-1.1261605542576303,-1.4887135872089987 L-1.1410757301695487,-1.480102306381236 " />
			<path d="M-2.3539149638835157,-2.6855743790640187 L-1.9191488780550428,-2.1508838655536087 " />
			<path d="M-1.7799597121752213,-1.979704169148472 L-1.3180302526891807,-1.4116071902235303 " />
			<path d="M-2.353914963883515,-2.685574379064025 L-2.388547252332799,-2.5884149972867916 L-2.420728828199115,-2.4891920775155842 L-2.450442575234799,-2.3879583929295554 L-2.4776726897434997,-2.2847677861628917 L-2.502404688985596,-2.179675140667825 L-2.5246254188810653,-2.072736351524053 L-2.5443230610056746,-1.9640082957100988 L-2.561487138876779,-1.8535488018524924 " />
			<path d="M-2.885963918997156,-0.5497013679884071 L-2.8619296936102123,-0.5662311800524342 L-2.8371666451404125,-0.57993072781342 L-2.8120414498729556,-0.5904933530027381 L-2.7869207840930406,-0.5976123973517617 L-2.762168822826267,-0.6009996505724511 L-2.7381130766798236,-0.6006406915789757 L-2.715053216602064,-0.5967307011334729 L-2.6932882192833225,-0.589470183759906 " />
			<path d="M-2.693288219283323,-0.5894701837599061 L-2.676919697290076,-0.5813323616907282 L-2.6557345553875598,-0.5666344980840116 L-2.6357678544485608,-0.5476819471464571 L-2.6174430298515827,-0.524681796263371 L-2.601183516975128,-0.49784113282005904 L-2.587397705215072,-0.46757124566284275 L-2.576144219291484,-0.4344193633153251 L-2.5674862876853726,-0.39910923542505666 L-2.5614871388777467,-0.3623646116395887 " />
			<path d="M-2.561487138877745,-0.36236461163958933 L-2.5443230610064567,-0.23467640232456666 L-2.5246254188816857,-0.1061765257409022 L-2.5024046889860743,0.023066673549246186 L-2.4776726897438563,0.15298445563653496 L-2.4504425752350545,0.2835077218247697 L-2.4207288281992887,0.41456705138207206 L-2.3885472523329123,0.5460927384633227 L-2.353914963883598,0.6780148291842003 " />
			<path d="M-2.5614871388767817,-1.8535488018524693 L-2.56748628768443,-1.819544915149916 L-2.5761442192906383,-1.783040692997737 L-2.5873977052143973,-1.7446339894274576 L-2.601183516974699,-1.7049226584706025 L-2.635767854448252,-1.623818305436465 L-2.6769196972898603,-1.5455203078274418 L-2.7241518308640247,-1.4707327677096516 L-2.7770980922123765,-1.4002296763675972 L-2.8045962077589692,-1.3684351476930636 L-2.8322306457645725,-1.3394859912169341 L-2.8595152636906374,-1.3137358914257657 L-2.8859639189986135,-1.2915385328061155 " />
			<path d="M-2.8859639189986064,-1.2915385328061137 L-2.973042607832621,-1.2214442584090344 L-3.057355045209002,-1.150021572028143 L-3.138856388309443,-1.0773084608768049 L-3.2175032894377686,-1.0033435984999028 L-3.2932539190750285,-0.9281663242047451 L-3.3660679881271554,-0.8518166221378725 L-3.4359067693533074,-0.7743351000188976 L-3.50273311796351,-0.6957629675427166 " />
			<path d="M-1.8815028132360752,-0.43564408667245097 L-2.604453958624675,-0.5516382438961219 " />
			<path d="M-2.8222945071564203,-0.5865897492602912 L-3.502733117963536,-0.6957629675426856 " />
			<path d="M-1.7385975698058522,0.32276116607615757 L-1.7966779759595033,0.054271123850009095 L-1.8461785196018283,-0.21160887349304103 L-1.867677718543499,-0.3433931137055095 L-1.8869939043470376,-0.4743132523104687 L-1.904116803412994,-0.6042996574935613 L-1.9190373086739418,-0.733283194060327 " />
			<path d="M-2.3539149638835855,0.678014829184258 L-2.055249353563877,0.5022001502741573 L-1.7385975698058993,0.32276116607618344 " />
			<path d="M-3.502733117963881,0.014744358675019997 L-3.435906769353464,-0.058600560627847464 L-3.366067988127114,-0.13122476707879116 L-3.2932539190747785,-0.20308963441820782 L-3.2175032894372984,-0.2741569402522446 L-3.1388563883087435,-0.34438888638194687 L-3.0573550452080602,-0.4137481189067902 L-2.9730426078314323,-0.48219774809189886 L-2.8859639189971706,-0.5497013679883922 " />
			<path d="M-3.502733117963536,-0.6957629675426872 L-3.5140261988617185,-0.5195138838434344 L-3.5177921182677245,-0.3421993086289695 " />
			<path d="M-1.8523440626107783,-0.2481494168109759 L-1.8523440626107783,-0.2309268551026642 " />
			<path d="M-3.5177921182677245,-0.3421993086289473 L-3.514026198861803,-0.16403946886057186 L-3.502733117963877,0.014744358674993685 " />
			<path d="M1.3059525065876914,-2.3705626863699285 L1.3021591534119397,-2.5337602634921907 L1.2907897293816384,-2.692120093487329 L1.2822731245601724,-2.7693465402640527 L1.2718761111687096,-2.845198179866804 L1.2596059780611126,-2.9196218363020945 L1.2454713272468014,-2.9925653346678214 L1.2294820678602871,-3.0639775377306346 L1.2116494092143473,-3.133808381775829 L1.1919858529417109,-3.202008911704631 L1.170505184230751,-3.268531315354319 L1.147222462161345,-3.333328957017054 L1.122154009147664,-3.396356410133972 L1.0953173994953045,-3.4575694891415933 L1.0667314470807714,-3.516925280448227 L1.0364161921619628,-3.5743821725186624 L1.004392887328891,-3.6298998850460418 L0.9706839826044984,-3.683439497190478 L0.935313109706013,-3.7349634748646166 L0.8983050654778642,-3.7844356970470034 L0.8596857945077945,-3.8318214811048206 L0.8194823709383332,-3.8770876071082476 L0.777722979486402,-3.920202341119367 L0.7344368956843375,-3.9611354574393403 L0.6896544653562042,-3.9998582597982058 L0.643407083343781,-4.036343601472479 L0.5957271714971115,-4.070565904316432 L0.5466481559450875,-4.102501176693721 L0.49620444366197214,-4.132127030296791 L0.4444313983462975,-4.159422695842255 L0.39136531562906796,-4.184369037631243 " />
			<path d="M0.39136531562904997,-4.18436903763125 L0.31507429881629334,-4.215276157074698 L0.23643304529656994,-4.241514513337089 L0.15554932095693919,-4.263048150738531 L0.07253396464993722,-4.279847560701376 L-0.012499263694225604,-4.291889722187227 L-0.09943383895836444,-4.29915813324378 L-0.18815063051828051,-4.301642833618243 L-0.2785280654931823,-4.299340418406345 L-0.3704422953428399,-4.292254042718244 L-0.4637673655831903,-4.280393417354921 L-0.5583753883878165,-4.263774795501015 L-0.6541367178387789,-4.242420950452288 L-0.7509201275866438,-4.216361144408296 L-0.8485929906762539,-4.185631088372989 L-0.9470214612918131,-4.150272893218203 L-1.0460706581722397,-4.110335011977112 L-1.1456048494454363,-4.06587217344671 L-1.2454876386281932,-4.01694530719031 L-1.34558215153684,-3.963621460042841 L-1.4457512238525168,-3.905973704233343 L-1.5458575890840254,-3.844081037250586 L-1.645764066670698,-3.7780282735890145 L-1.7453337499675075,-3.7079059285233775 L-1.8444301938548195,-3.6338100940712907 L-1.9429176017156926,-3.5558423073137373 L-2.0406610115245067,-3.474109411253923 L-2.137526480791909,-3.3887234084051805 L-2.233381270112641,-3.2998013073085453 L-2.3280940250647197,-3.207464962190328 L-2.4215349562107136,-3.111840905979421 L-2.513576016954441,-3.013060176913143 L-2.6040910790093674,-2.9112581389692567 " />
			<path d="M-3.82326904482626,-0.7995799587059416 L-3.8886152681379755,-0.5983338126042379 L-3.9456943745256474,-0.3977851176695275 L-3.9943167493091085,-0.19860008924845074 L-4.015405074109578,-0.09972596383006382 L-4.034320870757783,-0.0014404126379267135 L-4.05104842659654,0.09617492213225343 L-4.065573846659897,0.1930389550089242 L-4.0778850652151695,0.28907122459940804 L-4.087971855785497,0.3841919604262214 L-4.095825839644612,0.4783221491894869 L-4.101440492776728,0.5713836004003718 L-4.104811151295811,0.663299011331054 L-4.1059350153196865,0.7539920312272461 " />
			<path d="M-4.1059350153196865,0.7539920312272603 L-4.103169056938512,0.8936344054736367 L-4.094876836403097,1.0297974471354785 L-4.081075305977726,1.1622027902602292 L-4.061792680926371,1.2905797509749914 L-4.037068381830598,1.4146658808611676 L-4.006952953999804,1.5342075034928844 L-3.9715079641385236,1.6489602330423294 L-3.9308058744820737,1.758689473891781 L-3.8849298946578226,1.8631709002309502 L-3.833973811574961,1.9621909146591585 L-3.778041797690512,2.0555470848548145 L-3.71724819804358,2.143048557419477 L-3.651717296493196,2.2245164480504487 L-3.5815830616376614,2.2997842072442722 L-3.506988872934824,2.3686979607834715 L-3.4280872275831964,2.4311168243104806 " />
			<path d="M-3.4280872275831884,2.431116824310486 L-3.3589734803201052,2.4781980470233176 L-3.287063543412639,2.5205882466851373 L-3.2124600588440853,2.558226916857576 L-3.135269513282991,2.5910603332860855 L-3.0556020860874322,2.6190416305842463 L-2.9735714920384693,2.642130869127951 L-2.889294819027232,2.6602950920639605 L-2.802892360927352,2.673508372351491 L-2.714487445891271,2.681751849769647 L-2.624206260315506,2.6850137578379147 L-2.5321776687261575,2.6832894406112633 L-2.4385330298417403,2.676581359325893 L-2.3434060090758693,2.6648990888861492 L-2.2469323877474565,2.648259304197598 L-2.1492498692707267,2.626685756365796 L-2.050497882601686,2.6002092387947053 L-1.9508173832216165,2.568867543233159 L-1.8503506519416595,2.5327054058321066 L-1.7492410918156478,2.4917744432896374 L-1.6476330234511016,2.4461330791749285 L-1.5456714790105317,2.395846460536281 L-1.443501995197085,2.3409863649122675 L-1.3412704055200313,2.2816310978787335 L-1.2391226321366018,2.2178653812778784 L-1.1372044775672807,2.149780232288961 L-1.0356614165818765,2.0774728335132417 L-0.9346383885534102,2.001046394258588 L-0.834279590576209,1.9206100032217617 L-0.7347282716435027,1.8362784727786303 L-0.6361265281783165,1.7481721751045967 L-0.5386151012095114,1.6564168703591469 L-0.44233317548245477,1.5611435271797436 L-0.3474181807910939,1.4624881357413118 L-0.25400559581498783,1.360591513648141 L-0.16222875474130038,1.2555991049352604 L-0.07221865694777407,1.1476607724662005 L0.0158962199816699,1.0369305840234448 L0.10199010364179073,0.9235665923969247 L0.18594010632960178,0.807730609784443 L0.26762640045042074,0.6895879768260194 L0.346932389556009,0.5693073266018638 L0.42374487477067446,0.44706034393082006 L0.497954216367795,0.3230215203128459 L0.569454490266111,0.19736790486533518 L0.6381436392224282,0.070278851608781 L0.7039236185049216,-0.05806423653752413 L0.7667005358391021,-0.18747816668430928 L0.8263847854266984,-0.31777821745609336 L0.8828911758461557,-0.4487784026566789 L0.9361390516521944,-0.5802917367399942 L0.9860524085008535,-0.7121305017073785 L1.0325600016357033,-0.8441065150503613 L1.0755954475803726,-0.976031398356455 L1.115097318892233,-1.1077168461945759 L1.1510092318420044,-1.238974894896307 L1.1832799268941132,-1.3696181908493221 L1.2118633418729425,-1.499460257920036 L1.2367186777105341,-1.6283157636237844 L1.257810456681896,-1.7560007836625853 L1.2751085730447906,-1.882333064452892 L1.2885883360117276,-2.0071322832686436 L1.2982305049928131,-2.130220305628245 L1.3040213170591666,-2.251421439558122 L1.3059525065876914,-2.3705626863699 " />
			<path d="M2.8284271247468245,-1.6329931618550946 L2.8274356865711594,-1.718887999480269 L2.824462067094533,-1.8035778061060828 L2.8195083509807795,-1.8870032097185665 L2.8125780110457437,-1.9691057247168462 L2.8036759058226517,-2.049827792914624 L2.792808276156025,-2.129112823891499 L2.7799827408265174,-2.2069052346658373 L2.765208291209751,-2.2831504886613545 L2.7484952849728876,-2.357795133940146 L2.7298554388133582,-2.4307868406752995 L2.709301820244842,-2.5020744378368547 L2.68684883843625,-2.5716079490654025 L2.66251223411014,-2.639338627708136 L2.6363090685076402,-2.705218990992823 L2.608257711427622,-2.769202853315729 L2.578377828348503,-2.8312453586201594 L2.5466903666417102,-2.891303011842914 L2.5132175408864716,-2.9493337094066194 L2.477982817296225,-3.005296768736554 L2.441010897267566,-3.059152956781271 L2.4023277000632715,-3.11086451751704 L2.3619603446415276,-3.1603951984168024 L2.319937130644113,-3.2077102758651033 L2.276287518556865,-3.252776579501173 L2.231042109056319,-3.295562515473101 L2.1842326215570274,-3.3360380885867875 L2.135891871974584,-3.3741749233341496 L2.08605374971993,-3.4099462837858536 L2.0347531939410985,-3.443327092334605 L1.982026169029032,-3.474293947275874 L1.9279096394046475,-3.5028251392137206 L1.872441543604852,-3.528900666280217 " />
			<path d="M-2.1198968526280995,3.3860322770032383 L-2.047654701748045,3.4352446107216075 L-1.9724897929192744,3.479553584277156 L-1.8945094141696759,3.5188959524339802 L-1.81382487224039,3.553215559132589 L-1.7305513337100682,3.5824634176452923 L-1.6448076606097226,3.6065977804983214 L-1.556716240762794,3.6255841990608566 L-1.4664028130926205,3.6393955727159217 L-1.3739962881466594,3.6480121875429528 L-1.2796285640936134,3.6514217444568287 L-1.183434338456136,3.6496193767631966 L-1.085550915847826,3.642607657105041 L-0.9861180119889312,3.6303965937905742 L-0.8852775542805249,3.6130036165076875 L-0.7831734792217997,3.590453551445369 L-0.6799515269596252,3.5627785858575782 L-0.5757590332636482,3.530018222120169 L-0.470744719223852,3.492219221346448 L-0.3650584789707369,3.4494355366418223 L-0.25885116572115957,3.4017282360928403 L-0.1522743764551912,3.3491654156005217 L-0.04548023553135257,3.2918221016824076 L0.061378822450914014,3.22978014438207 L0.16815027023159296,3.1631281004389353 L0.2746817056027207,3.0919611068851713 L0.38082106894250095,3.016380745250084 L0.4864168602604267,2.9364948965658377 L0.5913183554436068,2.8524175873814555 L0.69537582139563,2.7642688270049103 L0.7984407297608752,2.672174436205609 L0.900365968929213,2.57626586762179 L1.0010060540185006,2.476680018129152 L1.1002173345351256,2.3735590334385583 L1.1978581994162043,2.267050105201719 L1.293789279160763,2.157305260914457 L1.3878736447613775,2.0444811469174375 L1.4799770031523423,1.9287388048041012 L1.569967888895365,1.8102434415549618 L1.657717851829198,1.689164193726359 L1.7431016404153619,1.565673886030249 L1.825997380518259,1.4399487846496464 L1.9062867493644746,1.3121683456418172 L1.9838551444329944,1.1825149587883377 L2.058591847035234,1.0511736872576578 L2.1303901803514096,0.9183320034517598 L2.1991476616976864,0.7841795214139359 L2.264766148806734,0.6489077261796657 L2.3271519799129137,0.5127097004569023 L2.3862161074421437,0.3757798490258722 L2.4418742251156007,0.23831362125181127 L2.4940468882858537,0.10050723210669271 L2.5426596273336557,-0.037442617901866704 L2.587643053963539,-0.17533902349472424 L2.628932960246485,-0.31298515567761237 L2.666470410268306,-0.4501845426886672 L2.7002018242529147,-0.5867413504360389 L2.7300790550404104,-0.7224606620253121 L2.7560594568108243,-0.8571487559777604 L2.7781059459554194,-0.9906133827422949 L2.7961870540086715,-1.122664039106425 L2.810276972565366,-1.2531122401145656 L2.8203555901187025,-1.3817717881055267 L2.8264085207668286,-1.5084590384852024 L2.8284271247468245,-1.632993161855065 " />
			<path d="M-0.9465245525730069,-1.55046808465193 L-1.5945605285623878,-2.0371306279047716 " />
			<path d="M-1.5945605285558175,-1.2952934630967343 L-2.5614871388767817,-1.8535488018524688 " />
			<path d="M-2.5614871388777467,-0.3623646116395882 L-1.816007025343755,-0.04448026548683737 " />
			<path d="M-2.885963918998614,-1.2915385328061157 L-1.9190373086792034,-0.7332831940512784 " />
			<path d="M12.727922061357878,8.728348450117382 L12.541245871124659,8.836125998799831 " />
			<path d="M-1.8571668458976336,-2.037685240333982 L-1.1234568253794248,-1.4866831388683415 " />
			<path d="M-2.6932706059983813,-0.589511047429442 L-1.8492337783181987,-0.22960058137551015 " />
			<path d="M2.722127789017815,-0.6846636402350583 L13.518245871124588,5.548478040672298 " />
			<path d="M0.76812778901781,2.699763637754525 L11.564245871124582,8.93290531866188 " />
			<path d="M-3.823269044826262,-0.7995799587059402 L-3.7469309067068264,-1.0091285986893095 L-3.6633380944746876,-1.2158902624317582 L-3.5725921157304277,-1.4196138771458313 L-3.4748031642373403,-1.6200520591778609 L-3.370089986112037,-1.8169614144084354 L-3.258579735629825,-2.010102833808358 L-3.1404078208199846,-2.1992417837911633 L-3.0157177390384198,-2.3841485910096356 L-2.884660902717368,-2.5645987212504844 L-2.747396455503741,-2.740373052088521 L-2.604091079009382,-2.9112581389692442 " />
			<path d="M0.39136531562904864,-4.184369037631244 L1.872441543604836,-3.528900666280217 " />
			<path d="M-3.4280872275831804,2.431116824310484 L-2.119896852628088,3.386032277003242 " />

       </g>
    </g>
    
</svg>
