<?xml version="1.0" encoding="UTF-8" standalone="no"?>
<svg
   xmlns:svg="http://www.w3.org/2000/svg"
   xmlns="http://www.w3.org/2000/svg"
   width="300.0"
   height="240.0"

>
    <g transform="scale(19.47292783696519, -19.47292783696519)   translate(4.619468474888121,-5.9690254897693675)" stroke-width="0.128383"  fill="none">
       <!-- hidden lines -->
       <g  stroke="rgb(160,160,160)" fill="none" stroke-dasharray="0.128383,0.128383" >
			<path d="M4.49317805925913,4.850422414023238 L4.44641578072879,4.820706406007994 L4.402119835198413,4.7869852955821255 L4.360396935480651,4.749340319854269 L4.321347595695417,4.707862168868265 L4.285065889122572,4.662650767122893 L4.2516392215711525,4.613815032845011 L4.221148120811121,4.561472615595998 L4.193666042574911,4.505749612843662 L4.16925919359614,4.446780266182392 L4.147986372111788,4.3847066379334 L4.129898826212087,4.319678268904144 L4.115040130379392,4.2518518181314295 L4.103446080513433,4.181390685476062 L4.095144607695855,4.108464617978277 L4.090155710901799,4.033249300922243 L4.088491408820617,3.955925934594833 L4.090155710901799,3.8766807977582567 L4.095144607695855,3.7957047988882078 L4.103446080513433,3.713193016258624 L4.115040130379392,3.629344227981038 L4.129898826212087,3.544360433130697 L4.147986372111788,3.458446365113098 L4.16925919359614,3.371808998443277 L4.193666042574911,3.2846570501260803 L4.221148120811121,3.1972004768386126 L4.2516392215711525,3.109649969126214 L4.285065889122572,3.0222164438304837 L4.321347595695417,2.9351105359721306 L4.360396935480651,2.8485420913127615 L4.402119835198413,2.762719660818062 L4.44641578072879,2.67784999824025 L4.49317805925913,2.5941375620301805 L4.542294016364565,2.511784022779027 L4.593645327402375,2.4309877773761635 L4.647108282566428,2.3519434710536813 L4.702554084914932,2.274841528468974 L4.75984916065355,2.1998676949550604 L4.818855480926372,2.127202589043809 L4.879430894339518,2.0570212673400707 L4.941429469416296,1.9894928027949876 L5.004701846158913,1.9247798773944442 L5.069095595869787,1.863038390243913 L5.134455588365642,1.8044170819938554 L5.200624365699695,1.7490571765104659 L5.267442521491647,1.6970920406550085 L5.334749084951618,1.6486468629913675 L5.402381908672873,1.6038383521958313 L5.470178059259131,1.5627744558956684 L5.537974209845388,1.5255541006138384 L5.605607033566644,1.4922669534463329 L5.672913597026614,1.462993206046289 L5.7397317528185665,1.4378033814352695 L5.805900530152619,1.416758164107132 L5.871260522648473,1.3999082538337624 L5.935654272359349,1.3872942435248872 L5.998926649101965,1.378946521436197 L6.060925224178743,1.3748851979613779 L6.12150063759189,1.3751200571844107 L6.180506957864711,1.3796505333088558 L6.237802033603329,1.3884657120209065 L6.293247835951833,1.401544356782927 L6.346710791115886,1.418854959994132 L6.3980621021536965,1.4403558188951555 L6.447178059259127,1.4659951360336494 " />
			<path d="M6.8518647096976455,2.576046712826975 L6.848626777086301,2.4764059213221508 L6.838930525889632,2.3810439344291874 L6.82282850093298,2.2904775270174675 L6.8004079604847085,2.205197486295666 L6.77179040339608,2.1256659521933416 L6.755204916381549,2.0881918408956657 L6.7371309106884585,2.0523139129846157 L6.717592880766421,2.0180807913339724 L6.696617305155816,1.985538869725373 L6.674232610603245,1.954732249974032 L6.650469133536737,1.9257026821605985 L6.625359078952882,1.89848950805016 L6.598936476771627,1.873129607775071 L6.571237135717878,1.8496573498538598 L6.542298594792418,1.8281045446139548 L6.51216007239789,1.8085004010813446 L6.48086241318881,1.7908714873956089 L6.448448032717638,1.7752416948039562 L6.414960859951906,1.7616322052830689 L6.38044627774033,1.7500614628326345 L6.344951061308579,1.7405451484794712 L6.308523314868039,1.7330961590261136 L6.27121240642351,1.7277245895726718 L6.233068900868161,1.7244377198356386 L6.19414449145643,1.723240004282194 L6.1544919297477305,1.7241330660933734 L6.114164954115914,1.7271156949642827 L6.031707210444446,1.7393306589153321 L5.947218106099334,1.7598187021873544 L5.861155494857386,1.7884687982987213 L5.77398575746561,1.825125689896285 L5.686181274283545,1.869590730108431 L5.598217865413167,1.92162295902968 L5.510572212188524,1.9809404095033 L5.42371927399829,2.047221635125757 L5.338129714439682,2.120107452192621 L5.254267350751655,2.19920288614619 L5.172586640349087,2.284079311976833 L5.09353021807868,2.37427677697906 L5.017526497542374,2.4693064932750772 L4.944987349486917,2.5686534865986532 L4.8763058698406025,2.671779386985284 L4.811854249492376,2.778125346245678 L4.751981757357164,2.887115066412509 L4.697012847657356,2.998157922749038 L4.647245401677265,3.1106521643957343 L4.6029491135186404,3.2239881753103146 L4.564364028604959,3.3375517778299075 L4.53169924285448,3.450727560953014 L4.505131769571349,3.5629022153050407 L4.4848055801951645,3.673467856714948 L4.470830824107267,3.781825320392239 L4.463283231721709,3.887387407852872 L4.46220370409557,3.9895820689987214 L4.467598091282588,4.087855502106623 L4.479437160631214,4.1816751549279 L4.49765675519888,4.270532610635135 L4.52215814142403,4.353946342977006 L4.552808544171846,4.431464325710768 L4.570388999615487,4.467879825501172 L4.589441866254205,4.502666482171625 L4.609941323055862,4.535777151772767 L4.631859588524739,4.567166961704576 L4.655166958351876,4.596793371529092 L4.679831845671277,4.6246162306225385 L4.705820823867392,4.65059783258868 L4.7330986718759025,4.674702966359692 L4.761628421916394,4.69689896391529 L4.791371409592234,4.7171557445554315 L4.822287326289744,4.735445855666614 L4.854334273805685,4.751744509926496 L4.8874688211289925,4.7660296188964475 L4.921646063299817,4.778281822956477 L4.956819682266112,4.788484517541989 L4.992942009655288,4.796623875646802 L5.029964091375859,4.80268886656193 L5.067835753961534,4.806671270824739 L5.106505672567845,4.8085656913582255 L5.145921440529164,4.808369560785287 L5.1860296403818245,4.806083144908123 L5.226775916257123,4.8017095423480045 L5.309961023735998,4.786727306729845 L5.395025975660986,4.7635040439637235 L5.4815097976873535,4.732165602922693 L5.568943826490355,4.692881809334001 L5.656854249492371,4.645865545478768 " />
			<path d="M-0.4974442874145498,-0.6618731059366916 L-0.5338288393399448,-0.6385137163684254 L-0.5697388326095107,-0.6107522003990352 L-0.6047254688244827,-0.5789355178238298 L-0.6383514895817867,-0.5434613093799312 L-0.6701966412723663,-0.5047729270843553 L-0.6998629273558195,-0.4633538932784933 L-0.7269795824691005,-0.41972185762913683 L-0.7512077062035308,-0.3744221276106504 L-0.7722444986377774,-0.3280208533234859 L-0.7898270446916629,-0.28109795182427977 L-0.8037356000044472,-0.23423985939833492 L-0.8137963372711056,-0.18803220235563345 L-0.8198835187132492,-0.1430524779498168 L-0.8219210675334327,-0.09986283689305152 " />
			<path d="M-0.26897628094894227,-0.7937791709709661 L-0.4974442874145497,-0.6618731059366909 " />
			<path d="M-0.2689762809489455,-0.7937791709709663 L-0.5897794157264499,-1.667050245446697 " />
			<path d="M-0.268976280948942,-0.7937791709709663 L-0.26897628094894227,-1.3451235153873207 " />
			<path d="M-0.5897794157264238,-2.377557571668939 L-0.2689762809489432,-1.345123515387321 " />
			<path d="M-0.4974442874101904,-1.213217450354729 L-0.2689762809489422,-1.3451235153873204 " />
			<path d="M-0.8219210675304408,-1.4005542067016803 L-0.8214977195352503,-1.3816214742988184 L-0.8202287748667249,-1.363231502455693 L-0.8181175286214155,-1.345432044816959 L-0.8151694631189165,-1.328269321626041 L-0.8113922336658067,-1.3117878997040076 L-0.8067956486769452,-1.2960305767219262 L-0.8013916442057454,-1.28103827006721 L-0.795194252949562,-1.2668499105925364 L-0.7882195678106771,-1.2535023415232445 L-0.7804857001075066,-1.2410302227857226 L-0.772012732544541,-1.2294659410052127 L-0.7628226670631445,-1.2188395254067488 L-0.75293936770863,-1.2091785698376074 L-0.7423884986619688,-1.2005081611137585 " />
			<path d="M-0.7423884986619669,-1.200508161113757 L-0.7289459937486199,-1.1914791553375803 L-0.7146395988137291,-1.1839295469733258 L-0.6995223373286102,-1.177887316965485 L-0.6836502380611242,-1.1733748594958882 L-0.6670821274175086,-1.1704088989846488 L-0.6498794114153847,-1.1690004281048205 L-0.6321058480960093,-1.1691546670404982 L-0.6138273112192736,-1.1708710441393673 L-0.5951115461172609,-1.1741431980314045 L-0.576027918611239,-1.1789590012058837 L-0.5566471579226699,-1.185300604959295 L-0.5370410945310788,-1.193144505547596 L-0.5172823939503562,-1.2024616312976129 L-0.4974442874101933,-1.2132174503547282 " />
			<path d="M-0.8219210675303663,-1.664366336770317 L-0.8219210675304406,-1.4005542067016803 " />
			<path d="M-0.8219210675303679,-1.6643663367703154 L-1.7385975698043252,-3.04082804217612 " />
			<path d="M-0.8219210675303661,-1.6643663367703174 L-1.1261605542352475,-1.4887135872231403 " />
			<path d="M-1.1410757302184407,-1.4801023063542331 L-1.299399276030865,-1.3886941645603736 " />
			<path d="M-1.919148878032436,-2.150883865517515 L-1.779959712256746,-1.979704169239505 " />
			<path d="M-1.3180302526902459,-1.4116071902124987 L-1.2993992760308626,-1.3886941645603763 " />
			<path d="M-1.299399276031055,-1.1248820344884198 L-1.2993992760308648,-1.3886941645603739 " />
			<path d="M-1.2993992760292525,0.17580933531128617 L-1.300003516757371,0.15325112155597764 L-1.30181399945797,0.13148102203230927 L-1.3048240139795424,0.11057972277284867 L-1.309022404372642,0.09062468979519067 L-1.3143936102369307,0.07168988199139126 L-1.320917724392342,0.05384547701578102 L-1.3285705666606158,0.037157611187095596 L-1.3373237734837529,0.021688134368918144 L-1.3471449030472344,0.007494380736914552 L-1.3579975555183934,-0.005371043717539048 L-1.3698415079542996,-0.016860456159763837 L-1.382632863379152,-0.026931273637601838 L-1.3963242134786589,-0.035546170905657926 L-1.4108648143084088,-0.04267321876302073 " />
			<path d="M-1.410864814308411,-0.04267321876302177 L-1.4236490430477902,-0.04747533502750945 L-1.436957325672755,-0.051204045557154854 L-1.4507551042728926,-0.053849667927254985 L-1.4650065498528169,-0.05540533219197019 L-1.4796746553701101,-0.05586699872366352 L-1.4947213318323247,-0.05523346870269086 L-1.5101075072035075,-0.053506387230401464 L-1.5257932278634163,-0.05069023905726866 L-1.5417377623559636,-0.046792336937237944 L-1.5578997071574874,-0.04182280263853888 L-1.5742370941901902,-0.03579454066026655 L-1.5907074998015716,-0.028723204722984286 L-1.6072681549268597,-0.02062715712036367 L-1.6238760561483796,-0.011527421037414252 " />
			<path d="M-1.2993992760299988,0.43962146537701363 L-1.2993992760292528,0.17580933531128623 " />
			<path d="M-1.2993992760300002,0.4396214653770108 L-2.353914963890615,0.6780148291866903 " />
			<path d="M-1.6238760561516756,-0.5628717654452714 L-1.5874915042262385,-0.586231155013341 L-1.5515815109566098,-0.6139926709825576 L-1.5165948747415563,-0.6458093535576135 L-1.4829688539841537,-0.681283562001388 L-1.4511237022934602,-0.7199719442968662 L-1.4214574162098803,-0.7613909781026568 L-1.3943407610964615,-0.8050230137519688 L-1.3701126373618848,-0.850322743770437 L-1.3490758449274858,-0.8967240180576089 L-1.331493298873444,-0.9436469195568468 L-1.317584743560502,-0.9905050119828464 L-1.3075240062936864,-1.0367126690256239 L-1.3014368248513886,-1.0816923934315366 L-1.299399276031056,-1.1248820344884163 " />
			<path d="M-1.8523440626113017,-0.43096570041586146 L-1.6238760561516756,-0.5628717654452706 " />
			<path d="M-1.8523440626113001,-0.4309657004158672 L-1.8815028132355511,-0.43564408667458565 " />
			<path d="M-2.6044539586527966,-0.5516382439013299 L-2.8222945071536847,-0.5865897492600893 " />
			<path d="M-1.7385975698052798,0.3227611660743967 L-0.8219210675327102,0.16394929316892218 " />
			<path d="M-0.8219210675334323,-0.09986283689304831 L-0.8219210675327095,0.16394929316892354 " />
			<path d="M-1.2993992760299988,0.43962146537701385 L-0.8219210675327101,0.16394929316892365 " />
			<path d="M-3.502733117966676,0.01474435867651682 L-1.852344062611301,0.12037864399523006 " />
			<path d="M-1.6238760561483827,-0.01152742103741261 L-1.8523440626113017,0.12037864399523229 " />
			<path d="M-1.852344062611302,-0.43096570041586185 L-1.852344062611302,-0.24814941681934433 " />
			<path d="M-1.852344062611302,-0.2309268550961036 L-1.8523440626113017,0.12037864399523181 " />
			<path d="M2.0824294705936754,-0.28781504477743103 L2.0808750431125307,-0.36003364434115914 L2.0762155054210503,-0.43028336472358564 L2.06846208275366,-0.49839496819516116 L2.057633453784686,-0.5642043679372513 L2.0437557056297893,-0.6275530233416544 L2.026862270999823,-0.6882883219488145 L2.006993847658501,-0.7462639471046033 L1.9841983003779202,-0.8013402304499553 L1.958530545628134,-0.8533844883941786 L1.9300524192785644,-0.9022713417613475 L1.8988325276299767,-0.9478830178397175 L1.8649460821358914,-0.9901096341065057 L1.8284747182116063,-1.02884946294451 L1.78950629856733,-1.0640091767128503 L1.748134701539215,-1.0955040725814322 L1.7044595949282346,-1.123258276587477 " />
			<path d="M1.7044595949282262,-1.1232582765874821 L1.658586195891677,-1.1472049264225672 L1.6106250174658818,-1.1672863325097562 L1.560691602330571,-1.1834541169828623 L1.508906244456457,-1.1956693302329582 L1.4553936993065193,-1.2039025447413987 L1.4002828832891698,-1.2081339259732884 L1.3437065631873317,-1.2083532801606143 L1.2858010363116308,-1.204560078859926 L1.2267058021482358,-1.1967634602254023 L1.1665632262923773,-1.1849822069942366 L1.1055181974771595,-1.169244701237379 L1.0437177785239116,-1.1495888559846403 L0.9813108520549689,-1.1260620238888832 L0.9184477618223971,-1.0987208831493331 L0.8552799505167219,-1.067631300968833 L0.791959594928226,-1.0328681748739814 L0.72863923933973,-0.994515252280431 L0.665471428034055,-0.9526649287380293 L0.602608337801483,-0.9074180253418447 L0.5402014113325404,-0.8588835458453197 L0.47840099237929246,-0.8071784140606799 L0.41735596356407473,-0.7524271921792285 L0.3572133877082164,-0.6947617806901194 L0.29811815354482113,-0.6343211006205229 L0.24021262666912024,-0.5712507588627049 L0.18363630656728236,-0.5057026973942701 L0.128525490549933,-0.43783482723662703 L0.07501294539999526,-0.3678106480335095 L0.023227587525880833,-0.2957988541660115 L-0.026705827609429855,-0.22197292835304783 L-0.0746670060352248,-0.1465107237162897 L-0.12054040507177399,-0.06959403531641495 L-0.16421551168276283,0.008591837807114644 L-0.2055871087108777,0.08785853903767032 L-0.24455552835515415,0.16801510794904567 L-0.2810268922794388,0.2488684403458462 L-0.3149133377735236,0.33022375346841243 L-0.34613322942211133,0.41188505524154884 L-0.37461135577168125,0.49365561643659855 L-0.4002791105214676,0.5753384446093868 L-0.42307465780204856,0.6567367586722757 L-0.4429430811433708,0.7376544629570361 L-0.45983651577333706,0.817896619626493 L-0.4737142639282337,0.8972699182968467 L-0.48454289289720776,0.9755831417393206 L-0.4922963155645981,1.052647626539214 L-0.4969558532560785,1.1282777176025918 L-0.49851028073722325,1.2022912154156682 L-0.4969558532560785,1.274509814979395 L-0.4922963155645981,1.344759535361822 L-0.484542892897208,1.412871138833398 L-0.4737142639282337,1.4786805385754884 L-0.45983651577333706,1.5420291939798914 L-0.442943081143371,1.6027644925870517 L-0.42307465780204856,1.6607401177428402 L-0.4002791105214678,1.7158164010881927 L-0.37461135577168125,1.7678606590324166 L-0.34613322942211155,1.8167475123995855 L-0.31491333777352404,1.8623591884779553 L-0.2810268922794392,1.9045858047447428 L-0.24455552835515482,1.9433256335827465 L-0.20558710871087793,1.9784853473510868 L-0.16421551168276283,2.0099802432196694 L-0.12054040507177832,2.0377344472257164 " />
			<path d="M-0.12054040507177421,2.037734447225719 L-0.08633549007465335,2.0560547058497343 L-0.05094028250638272,2.0722081989088004 L-0.014402751043255835,2.0861730346912206 L0.02322758752588061,2.0979302876210992 L0.061899735406306666,2.1074640239068683 L0.10156128291121225,2.1147613231352524 L0.1421584794889177,2.119812295781411 L0.18363630656728192,2.122610096611525 L0.22593855211656466,2.123150933959673 L0.2690078868297028,2.1214340748664107 L0.3127859418167544,2.1174618460720995 L0.3572133877082158,2.1112396308636394 L0.4022300150600151,2.10277586177887 L0.4477748159512045,2.0920820091785357 L0.54020141133254,2.0640650266228775 L0.6339923061237689,2.027340509652599 L0.7286392393397296,1.9821074716070703 L0.8236293110488657,1.928611034238569 L0.9184477618223963,1.867141099376267 L1.0125807622602614,1.7980307779230984 L1.1055181974771593,1.721654584698917 L1.1967564314593049,1.6384264089122398 L1.2858010363116301,1.548797271258761 L1.3721694716053823,1.4532528798011277 L1.455393699306518,1.3523109978748658 L1.5350227201143594,1.246518638284001 L1.610625017465881,1.136449098991286 L1.6817908959613541,1.0226988563668606 L1.7481347015392146,0.9058843328311232 L1.8092969113688333,0.7866385564082337 L1.8649460821358903,0.6656077302923924 L1.9147806461624097,0.5434477310167476 L1.958530545628133,0.4208205542016395 L1.9959586960372508,0.29839072714296716 L2.026862270999823,0.17682170768120115 L2.0510738013655603,0.05677228886586588 L2.06846208275366,-0.06110697110108354 L2.0789328865607146,-0.1761772742965193 L2.0824294705936754,-0.28781504477741804 " />
			<path d="M1.2904698756657305,-0.7450531300963872 L1.2889154481845857,-0.8172717296601153 L1.2842559104931053,-0.8875214500425418 L1.2765024878257152,-0.9556330535141173 L1.2656738588567409,-1.0214424532562074 L1.2517961107018445,-1.0847911086606106 L1.2349026760718782,-1.1455264072677707 L1.215034252730556,-1.2035020324235595 L1.1922387054499752,-1.2585783157689114 L1.166570950700189,-1.3106225737131347 L1.1380928243506194,-1.3595094270803036 L1.1068729327020317,-1.4051211031586737 L1.0729864872079464,-1.4473477194254618 L1.0365151232836614,-1.4860875482634661 L0.997546703639385,-1.5212472620318065 L0.9561751066112701,-1.5527421579003884 L0.9125000000002896,-1.5804963619064332 " />
			<path d="M0.9125000000002811,-1.5804963619064383 L0.866626600963732,-1.6044430117415234 L0.8186654225379367,-1.6245244178287124 L0.7687320074026261,-1.6406922023018184 L0.7169466495285118,-1.6529074155519143 L0.6634341043785742,-1.6611406300603548 L0.6083232883612248,-1.6653720112922445 L0.5517469682593867,-1.6655913654795704 L0.4938414413836859,-1.6617981641788822 L0.4347462072202907,-1.6540015455443584 L0.37460363136443225,-1.6422202923131928 L0.31355860254921464,-1.6264827865563352 L0.25175818359596663,-1.6068269413035965 L0.189351257127024,-1.5833001092078394 L0.12648816689445214,-1.5559589684682893 L0.06332035558877697,-1.5248693862877891 L2.810493964249195e-13,-1.4901062601929376 L-0.06332035558821497,-1.4517533375993872 L-0.12648816689388992,-1.4099030140569855 L-0.1893512571264619,-1.3646561106608008 L-0.2517581835954045,-1.3161216311642758 L-0.3135586025486525,-1.264416499379636 L-0.3746036313638702,-1.2096652774981846 L-0.4347462072197285,-1.1519998660090756 L-0.4938414413831238,-1.091559185939479 L-0.5517469682588247,-1.028488844181661 L-0.6083232883606626,-0.9629407827132263 L-0.663434104378012,-0.8950729125555832 L-0.7169466495279497,-0.8250487333524656 L-0.7687320074020642,-0.7530369394849676 L-0.8186654225373748,-0.679211013672004 L-0.8666266009631698,-0.6037488090352459 L-0.912499999999719,-0.5268321206353711 L-0.9561751066107078,-0.4486462475118415 L-0.9975467036388227,-0.36937954628128583 L-1.0365151232830991,-0.2892229773699105 L-1.0729864872073838,-0.20836964497310995 L-1.1068729327014686,-0.12701433185054373 L-1.1380928243500563,-0.045353030077407305 L-1.1665709506996262,0.03641753111764241 L-1.1922387054494126,0.11810035929043063 L-1.2150342527299935,0.19949867335331944 L-1.2349026760713158,0.28041637763807986 L-1.251796110701282,0.3606585343075368 L-1.2656738588561787,0.44003183297789045 L-1.2765024878251527,0.5183450564203644 L-1.284255910492543,0.5954095412202578 L-1.2889154481840235,0.6710396322836357 L-1.2904698756651682,0.7450531300967121 L-1.2889154481840235,0.8172717296604388 L-1.284255910492543,0.8875214500428659 L-1.276502487825153,0.955633053514442 L-1.2656738588561787,1.0214424532565323 L-1.251796110701282,1.0847911086609352 L-1.234902676071316,1.1455264072680955 L-1.2150342527299935,1.203502032423884 L-1.1922387054494128,1.2585783157692365 L-1.1665709506996262,1.3106225737134605 L-1.1380928243500565,1.3595094270806294 L-1.106872932701469,1.4051211031589992 L-1.0729864872073842,1.4473477194257867 L-1.0365151232830998,1.4860875482637903 L-0.9975467036388229,1.5212472620321307 L-0.9561751066107078,1.5527421579007132 L-0.9124999999997233,1.5804963619067602 " />
			<path d="M-0.9124999999997192,1.5804963619067627 L-0.8782950850025983,1.598816620530778 L-0.8428998774343277,1.6149701135898444 L-0.8063623459712008,1.6289349493722645 L-0.7687320074020644,1.640692202302143 L-0.7300598595216383,1.6502259385879121 L-0.6903983120167327,1.6575232378162965 L-0.6498011154390273,1.6625742104624548 L-0.6083232883606631,1.665372011292569 L-0.5660210428113803,1.665912848640717 L-0.5229517080982422,1.6641959895474547 L-0.47917365311119053,1.6602237607531434 L-0.4347462072197291,1.6540015455446833 L-0.38972957986792983,1.6455377764599137 L-0.34418477897674044,1.6348439238595793 L-0.25175818359540497,1.6068269413039216 L-0.15796728880417604,1.570102424333643 L-0.0633203555882153,1.5248693862881142 L0.03166971612092078,1.4713729489196128 L0.12648816689445136,1.4099030140573108 L0.22062116733231646,1.3407926926041422 L0.31355860254921436,1.264416499379961 L0.4047968365313599,1.1811883235932836 L0.49384144138368513,1.0915591859398048 L0.5802098766774374,0.9960147944821716 L0.6634341043785729,0.8950729125559096 L0.7430631251864145,0.7892805529650448 L0.818665422537936,0.67921101367233 L0.8898313010334091,0.5654607710479045 L0.9561751066112696,0.4486462475121671 L1.0173373164408883,0.3294004710892775 L1.0729864872079453,0.2083696449734363 L1.1228210512344647,0.0862096456977915 L1.166570950700188,-0.036417531117316645 L1.2039991011093059,-0.158847358175989 L1.234902676071878,-0.280416377637755 L1.259114206437615,-0.4004657964530903 L1.2765024878257152,-0.5183450564200397 L1.2869732916327696,-0.6334153596154755 L1.2904698756657305,-0.7450531300963742 " />
			<path d="M2.173646245366408,-0.34047907424746265 L2.1719819432852256,-0.4178024405748721 L2.1669930464911697,-0.49301775763090544 L2.1586915736735914,-0.565943825128691 L2.1470975238076324,-0.6364049577840578 L2.1322388279749376,-0.7042314085567722 L2.1141512820752366,-0.7692597775860273 L2.092878460590884,-0.8313334058350199 L2.0684716116121136,-0.890302752496291 L2.040989533375904,-0.9460257552486278 L2.0104984326158712,-0.9983681724976399 L1.9770717650644518,-1.0472039067755217 L1.9407900584916071,-1.0924153085208932 L1.901740718706373,-1.133893459506898 L1.860017818988611,-1.171538435234754 L1.8157218734582348,-1.205259545660622 L1.7689595949279027,-1.2349755536758613 " />
			<path d="M1.7689595949278938,-1.2349755536758664 L1.71984363782246,-1.260614870814363 L1.6684923267846496,-1.2821157297153867 L1.6150293716205963,-1.2994263329265914 L1.5595835692720927,-1.312504977688612 L1.5022884935334746,-1.3213201564006627 L1.4432821732606522,-1.3258506325251076 L1.3827067598475062,-1.3260854917481406 L1.3207081847707283,-1.3220241682733216 L1.2574358080281125,-1.3136764461846315 L1.193042058317237,-1.3010624358757563 L1.1276820658213822,-1.2842125256023866 L1.0615132884873293,-1.2631673082742487 L0.9946951326953766,-1.2379774836632296 L0.9273885692354064,-1.2087037362631856 L0.8597557455141519,-1.17541658909568 L0.7919595949278939,-1.13819623381385 L0.7241634443416356,-1.0971323375136872 L0.6565306206203814,-1.0523238267181512 L0.5892240571604112,-1.0038786490545104 L0.5224059013684585,-0.9519135131990533 L0.4562371240344054,-0.8965536077156631 L0.3908771315385508,-0.8379322994656058 L0.3264833818276752,-0.7761908123150743 L0.26321100508505935,-0.7114778869145308 L0.20121243000828126,-0.643949422369448 L0.14063701659513517,-0.5737681006657096 L0.08163069632231301,-0.5011029947544583 L0.024335620583694872,-0.4261291612405452 L-0.031110181764808953,-0.3490272186558376 L-0.0845731369288617,-0.2699829123333551 L-0.13592444796667236,-0.18918666693049174 L-0.18504040507210628,-0.10683312767933811 L-0.23180268360244738,-0.023120691469268706 L-0.27609862913282357,0.061748971108543216 L-0.3178215288505857,0.1475714016032426 L-0.35687086863581974,0.23413984626261158 L-0.39315257520866487,0.32124575412096507 L-0.4265792427600841,0.40867927941669535 L-0.45707034352011666,0.49622978712909366 L-0.4845524217563262,0.5836863604165616 L-0.5089592707350963,0.6708383087337588 L-0.5302320922194492,0.7574756754035792 L-0.54831963811915,0.8433897434211785 L-0.5631783339518444,0.9283735382715187 L-0.5747723838178038,1.0122223265491046 L-0.5830738566353821,1.094734109178689 L-0.5880627534294385,1.1757101080487387 L-0.5897270555106202,1.2549552448853143 L-0.5880627534294385,1.332278611212724 L-0.5830738566353821,1.4074939282687582 L-0.5747723838178038,1.4804199957665445 L-0.5631783339518448,1.5508811284219113 L-0.54831963811915,1.6187075791946255 L-0.5302320922194492,1.683735948223881 L-0.5089592707350965,1.7458095764728732 L-0.4845524217563264,1.8047789231341438 L-0.45707034352011666,1.86050192588648 L-0.4265792427600843,1.9128443431354922 L-0.39315257520866487,1.9616800774133747 L-0.3568708686358204,2.006891479158746 L-0.31782152885058634,2.0483696301447503 L-0.2760986291328238,2.086014605872607 L-0.23180268360244738,2.119735716298475 L-0.18504040507211095,2.149451724313717 " />
			<path d="M-0.18504040507210662,2.1494517243137197 L-0.14841771800121673,2.1690669491637613 L-0.11052060261031216,2.186362250773304 L-0.07140041823828469,2.2013141900165087 L-0.031110181764809286,2.2139025035644444 L0.01029550423976755,2.2241101313465776 L0.05276052551351296,2.2319232396711053 L0.09622733215068358,2.2373312399728005 L0.14063701659513483,2.240326803162961 L0.1859293934736551,2.2409058695620194 L0.232043081161037,2.2390676544013424 L0.27891558496635094,2.234814648886776 L0.32648338182767517,2.2281526168224848 L0.3746820064005058,2.2190905867996684 L0.4234461384231813,2.2076408399607352 L0.4727096912409138,2.1938188933555205 L0.5224059013684582,2.1776434789121017 L0.5724674189700493,2.1591365180507123 L0.622826399133972,2.138323091975157 L0.7241634443416356,2.0898927597335333 L0.8258678827633628,2.032614930353779 L0.9273885692354066,1.966799997356004 L1.0281753543617562,1.8928046175645024 L1.1276820658213818,1.8110297783535165 L1.225369468123362,1.7219186246619167 L1.3207081847707287,1.6259540575523836 L1.4131815669975738,1.5236561173287042 L1.5022884935334753,1.4155791653923104 L1.5875460862230755,1.3023088801098188 L1.6684923267846496,1.1844590829712078 L1.7446885605272007,1.0626684122379855 L1.8157218734582352,0.9375968621071209 L1.881207329900468,0.8099222061452982 L1.940790058491608,0.6803363243752398 L1.9941471752630149,0.5495414539179209 L2.040989533375904,0.4182463835087585 L2.0810632900331187,0.287162612510047 L2.1141512820752366,0.15700049523427273 L2.1400742028065523,0.028465391472538515 L2.1586915736735914,-0.09774615591125396 L2.169902505530569,-0.22095019560653045 L2.173646245366408,-0.3404790742474482 " />
			<path d="M-2.6040910790171745,-2.9112581389642043 L-2.7012915516077087,-2.7965045559806097 L-2.796354662254851,-2.67848535926978 L-2.889124271537632,-2.5573943932042837 L-2.979448007069137,-2.4334305474816835 L-3.0671775137653636,-2.306797430451846 L-3.152168697515733,-2.177703034693956 L-3.234281961855034,-2.0463593953924977 L-3.313382437248067,-1.9129822420733507 L-3.3893402026103843,-1.7777906442719846 L-3.4620304987012958,-1.6410066517157536 L-3.5313339330386473,-1.5028549296112774 L-3.5971366759987804,-1.3635623896359501 L-3.6593306477796155,-1.2233578172396595 L-3.7178136959197436,-1.082471495868866 L-3.7724897630819836,-0.9411348287302551 L-3.8232690448257927,-0.7995799587152105 " />
			<path d="M1.8724415436048163,-3.5289006662802223 L1.8219461524553506,-3.5500369979400244 L1.7704380810483817,-3.569200136058196 L1.7179459587739412,-3.5863794293146554 L1.6644989619805346,-3.6015653290566627 L1.6101267977582439,-3.614749394606188 L1.5548596874268326,-3.625924297951436 L1.49872834973803,-3.635083827819926 L1.4417639838013319,-3.6422228931308642 L1.3839982517428042,-3.6473375258248812 L1.3254632611065358,-3.6504248830695794 L1.2661915470085117,-3.6514832488396363 L1.2062160540528384,-3.650512034870621 L1.0842874473398594,-3.6424841547968807 L0.9599484863772487,-3.6263590887017796 L0.8334755747549272,-3.6021726823582103 L0.7051498598021756,-3.569978701773938 L0.5752566076014637,-3.5298487136705963 L0.4440845688463542,-3.4818719263919693 L0.311925336953171,-3.426154991595219 L0.1790726998533359,-3.3628217671659044 L0.04582198690733892,-3.2920130418838096 L-0.0875305876078744,-3.2138862224516616 L-0.22068858297866217,-3.128614983582462 L-0.3533559910378145,-3.0363888819232843 L-0.4852378941861412,-2.9374129346737696 L-0.6160411209897348,-2.831907163836064 L-0.7454748978955446,-2.720106107109302 L-0.8732514956164922,-2.6022582965159233 L-0.9990868687492344,-2.4786257059188292 L-1.1227012872027051,-2.3494831686575277 L-1.2438199580337914,-2.215117766597865 L-1.3621736363078016,-2.0758281919534713 L-1.4774992236257927,-1.9319240832975848 L-1.5895403529882521,-1.7837253372412838 L-1.6980479586949784,-1.6315613973082608 L-1.8027808300142838,-1.4757705215869563 L-1.903506147390726,-1.3166990307880553 L-1.9999999999993847,-1.1547005383788949 L-2.0920478834961687,-0.9901351645061848 L-2.179445176857658,-0.8233687354544851 L-2.2619975972504798,-0.6547719704200279 L-2.3395216319190437,-0.48471965740766615 L-2.4118449461315694,-0.3135898200829272 L-2.4788067662775273,-0.14176287743124374 L-2.540258237264896,0.03037920190757511 L-2.5960627534227303,0.20245374874973363 L-2.646096262173461,0.3740782440351305 L-2.6902475397998544,0.5448711691613254 L-2.728418438693623,0.7144528540934995 L-2.7605241055360397,0.8824463213650793 L-2.7864931699255555,1.0484781240928227 L-2.8062679030331,1.2121791761434693 L-2.8198043459323774,1.3731855726065207 L-2.827072407319881,1.5311393987492323 L-2.8280559304073947,1.6856895256555382 L-2.8227527288382843,1.8364923907802073 L-2.8111745915477346,1.9832127616830761 L-2.793347256556129,2.1255244812455882 L-2.769310353753828,2.263111192713024 L-2.739117316804533,2.39566704295069 L-2.7028352643630797,2.522897362350709 L-2.660544850871703,2.644519319878008 L-2.6123400872664586,2.760262551799341 L-2.558328131992363,2.869869762697692 L-2.529181481484205,2.9222956701863074 L-2.498629052791827,2.973097297436016 L-2.4666878276692263,3.02224640771496 L-2.433375559795916,3.0697156827988414 L-2.3987107649090182,3.115478738155027 L-2.362712710511782,3.1595101376076875 L-2.325401405164256,3.2017854074758234 L-2.286797587362063,3.2422810501763037 L-2.246922714009458,3.2809745572843756 L-2.2057989484930816,3.3178444220443706 L-2.1634491483630303,3.3528701513236623 L-2.119896852628104,3.3860322770032245 " />
			<path d="M-1.123456825344306,-1.4866831388729236 L-0.7423884986798055,-1.200508161127154 " />
			<path d="M-1.8492337783160209,-0.22960058136779776 L-1.4108648143289304,-0.04267321877177166 " />
			<path d="M0.9125000000002814,-1.5804963619064385 L1.7044595949282264,-1.1232582765874823 " />
			<path d="M-0.9124999999997192,1.580496361906763 L-0.12054040507177427,2.037734447225719 " />
			<path d="M1.7689595949278938,-1.2349755536758664 L2.722127789017799,-0.68466364023507 " />
			<path d="M-0.18504040507210595,2.14945172431372 L0.7681277890177982,2.6997636377545158 " />

       </g>

       <!-- solid lines -->
       <g  stroke="rgb(0,0,0)" fill="none">
			<path d="M6.851864709697645,2.360491615462057 L6.850200407616462,2.4397367522986317 L6.845211510822407,2.5207127511686798 L6.836910038004829,2.603224533798264 L6.825315988138869,2.6870733220758494 L6.810457292306175,2.77205711692619 L6.792369746406474,2.857971184943789 L6.771096924922121,2.944608551613609 L6.746690075943352,3.031760499930806 L6.719207997707143,3.119217073218273 L6.688716896947111,3.2067675809306713 L6.655290229395691,3.294201106226401 L6.619008522822847,3.381307014084753 L6.579959183037614,3.46787545874412 L6.538236283319852,3.5536978892388196 L6.493940337789477,3.638567551816631 L6.447178059259136,3.7222799880267003 L6.398062102153703,3.8046335272778538 L6.346710791115893,3.885429772680717 L6.29324783595184,3.9644740790031996 L6.237802033603336,4.0415760215879075 L6.180506957864719,4.1165498551018205 L6.121500637591897,4.189214961013072 L6.060925224178751,4.259396282716811 L5.998926649101975,4.326924747261892 L5.93565427235936,4.391637672662434 L5.871260522648486,4.453379159812966 L5.805900530152631,4.512000468063024 L5.739731752818579,4.567360373546414 L5.672913597026627,4.619325509401873 L5.605607033566656,4.667770687065514 L5.537974209845403,4.71257919786105 L5.4701780592591565,4.753643094161207 " />
			<path d="M5.470178059259144,4.753643094161214 L5.4023819086728855,4.790863449443045 L5.33474908495163,4.8241505966105525 L5.267442521491659,4.853424344010597 L5.200624365699705,4.878614168621617 L5.13445558836565,4.8996593859497555 L5.069095595869795,4.9165092962231265 L5.00470184615892,4.929123306532002 L4.941429469416303,4.937471028620693 L4.8794308943395235,4.941532352095512 L4.818855480926378,4.941297492872479 L4.7598491606535545,4.936767016748035 L4.702554084914935,4.927951838035984 L4.647108282566431,4.914873193273964 L4.593645327402377,4.897562590062758 L4.542294016364566,4.876061731161736 L4.493178059259139,4.850422414023243 " />
			<path d="M6.447178059259131,1.465995136033652 L6.493940337789471,1.4957111440488964 L6.538236283319847,1.5294322544747643 L6.57995918303761,1.5670772302026204 L6.619008522822844,1.6085553811886253 L6.655290229395689,1.653766782933997 L6.688716896947108,1.702602517211879 L6.719207997707141,1.7549449344608914 L6.74669007594335,1.8106679372132273 L6.77109692492212,1.869637283874497 L6.792369746406473,1.9317109121234894 L6.8104572923061735,1.9967392811527445 L6.825315988138868,2.06456573192546 L6.836910038004828,2.135026864580827 L6.8452115108224065,2.207952932078612 L6.850200407616462,2.283168249134646 L6.851864709697645,2.3604916154620486 " />
			<path d="M6.851864709697647,2.360491615462056 L6.8518647096976455,2.576046712826976 " />
			<path d="M5.656854249492392,4.645865545478755 L5.715490633571601,4.610349688392125 L5.773985757465624,4.571595142207653 L5.83219870129743,4.529695270021596 L5.889989224986478,4.484751012296047 L5.947218106099348,4.436870643684518 L6.003747475248782,4.386169512188817 L6.059441148233112,4.332769761275614 L6.1141649541159255,4.276800035622125 L6.167787058455614,4.218395171199819 L6.220178280906083,4.157695870442748 L6.271212406423518,4.094848363283067 L6.320766489329488,4.030004054870317 L6.368721149497845,3.9633191608231546 L6.414960859951913,3.8949543308922454 L6.459374225179088,3.825074261940946 L6.501854249492385,3.753847301176131 L6.542298594792424,3.681445040585027 L6.580609827108869,3.6080419035550877 L6.6166956513274044,3.5338147246727734 L6.650469133536742,3.4589423237135444 L6.681848910460031,3.3836050748493602 L6.710759385466121,3.3079844721114973 L6.737130910688461,3.2322626921555337 L6.7608999548129205,3.1566221553818297 L6.782009256130279,3.0812450864688006 L6.800407960484709,3.006313075377707 L6.816051743785883,2.9320066398865388 L6.828902918789596,2.858504790706869 L6.838930525889632,2.7859846002313726 L6.846110407702174,2.714620775950924 L6.850425267263052,2.644585239568947 L6.8518647096976455,2.5760467128269875 " />
			<path d="M-1.9190373086717285,-0.7332831940469048 L-1.9214108566110264,-0.7721210594696625 L-1.9203767406461758,-0.8130268936340079 L-1.9158259319754507,-0.8553033897198871 L-1.907649401797125,-0.8982532409072461 L-1.8957773142038539,-0.9413356914545142 L-1.8805743830641122,-0.9836931011375422 L-1.8624737213197142,-1.0246238541677128 L-1.8419084419124734,-1.063426334756409 L-1.8185871476965536,-1.100637629453431 L-1.7921904066487162,-1.1367786388645682 L-1.76310927939469,-1.1711234682851928 L-1.731734826560204,-1.2029462230106758 L-1.69862742943244,-1.2315022314537287 L-1.664290314174513,-1.2565815954134214 L-1.6293818806076825,-1.2779300831917617 L-1.5945605285532083,-1.2952934630907573 " />
			<path d="M-1.5945605285532047,-1.2952934630907555 L-1.4753972565868732,-1.346863694780755 L-1.3542642780197331,-1.3970280317946435 L-1.2312260192201414,-1.44575979348696 L-1.1063479199079636,-1.4930330611486382 L-0.8513388160318609,-1.583104331524734 L-0.5897794157264946,-1.6670502454466787 " />
			<path d="M-0.5897794157264421,-1.667050245446696 L-0.5927065888608681,-2.0309982264371818 L-0.5897794157264212,-2.377557571668901 " />
			<path d="M-0.5897794157264182,-2.377557571668939 L-0.7213434418352946,-2.3415889678968727 L-0.8513388160305948,-2.3036961865904493 L-0.9796963983476235,-2.263899381586512 L-1.1063479199055317,-2.222219719405105 L-1.2312260192171558,-2.1786793679917418 L-1.3542642780162129,-2.1333014849270553 L-1.475397256582835,-2.0861102051101 L-1.5945605285486302,-2.0371306279218606 " />
			<path d="M-1.5945605285486808,-2.03713062792184 L-1.629381880603255,-2.0239537312975875 L-1.6642903141702061,-2.0137966560675706 L-1.6986274294282684,-2.0069665195847683 L-1.7317348265561756,-2.0037704392021602 L-1.7631092793907537,-2.004431258684677 L-1.7921904066448826,-2.008800946864012 L-1.818587147692832,-2.0166163416381724 L-1.841908441908871,-2.0276142809051665 L-1.857140263548923,-2.0377209257391593 " />
			<path d="M-1.8571402635489231,-2.0377209257391593 L-1.874310554698422,-2.052939707643709 L-1.889226635791658,-2.070955137056012 L-1.9015653764721383,-2.091608544829082 L-1.9110079097673454,-2.114737998689938 L-1.917402969400368,-2.140052655589831 L-1.9208180652894806,-2.167093025561148 L-1.9213354331429928,-2.1953882284916255 L-1.919037308669214,-2.2244673842690013 " />
			<path d="M-1.919037308669214,-2.224467384269003 L-1.904116803408522,-2.333631550875765 L-1.8869939043428676,-2.440873078091255 L-1.8676777185396718,-2.5461349279212184 L-1.8461785195983822,-2.6493611152921233 L-1.8225077421863123,-2.750496737827672 L-1.7966779759569382,-2.8494880050494285 L-1.7687029588539112,-2.946282266986083 L-1.7385975698043352,-3.040828042176085 " />
			<path d="M-1.7385975698043208,-3.0408280421761273 L-1.899075446687075,-2.961216223351998 L-2.055249353565663,-2.875397685340848 L-2.206925320459904,-2.7834790158592173 L-2.3539149638882906,-2.6855743790646005 " />
			<path d="M-1.1261605542352475,-1.4887135872231403 L-1.1410757302184407,-1.4801023063542331 " />
			<path d="M-2.3539149638883226,-2.685574379064569 L-1.919148878032436,-2.150883865517515 " />
			<path d="M-1.779959712256746,-1.979704169239505 L-1.3180302526902459,-1.4116071902124987 " />
			<path d="M-2.3539149638883323,-2.6855743790645703 L-2.388547252338218,-2.588414997286912 L-2.420728828205136,-2.4891920775152756 L-2.450442575241424,-2.387958392928809 L-2.4776726897507277,-2.284767786161701 L-2.502404688993426,-2.1796751406661863 L-2.5246254188894985,-2.07273635152196 L-2.5443230610147083,-1.9640082957075506 L-2.5614871388864104,-1.8535488018494815 " />
			<path d="M-2.8859639190036135,-0.549701367984375 L-2.861929693616707,-0.5662311800484175 L-2.8371666451469433,-0.5799307278094186 L-2.8120414498795205,-0.5904933529987514 L-2.7869207840996384,-0.5976123973477891 L-2.7621688228328956,-0.6009996505684922 L-2.7381130766864814,-0.6006406915750301 L-2.715053216608749,-0.5967307011295392 L-2.6932882192900296,-0.5894701837559818 " />
			<path d="M-2.693288219290029,-0.5894701837559818 L-2.676919697296797,-0.5813323616868094 L-2.655734555394306,-0.566634498080104 L-2.6357678544553256,-0.5476819471425578 L-2.6174430298583604,-0.5246817962594776 L-2.6011835169819153,-0.49784113281617065 L-2.5873977052218646,-0.46757124565895625 L-2.576144219298278,-0.4344193633114385 L-2.567486287692163,-0.399109235421168 L-2.561487138884529,-0.3623646116356962 " />
			<path d="M-2.561487138884532,-0.3623646116356969 L-2.5443230610132446,-0.2346764023208454 L-2.5246254188884834,-0.10617652573735681 L-2.5024046889928915,0.023066673552612604 L-2.4776726897507,0.15298445563972107 L-2.450442575241934,0.2835077218277733 L-2.42072882820621,0.4145670513848916 L-2.388547252339885,0.5460927384659509 L-2.353914963890631,0.6780148291866361 " />
			<path d="M-2.5614871388864096,-1.853548801849457 L-2.5674862876941362,-1.8195449151472394 L-2.576144219300346,-1.7830406929954836 L-2.5873977052240287,-1.7446339894256928 L-2.6011835169841735,-1.704922658469369 L-2.6357678544577308,-1.6238183054352182 L-2.6769196972993146,-1.545520307826178 L-2.7241518308734327,-1.470732767708368 L-2.7770980922217015,-1.4002296763662891 L-2.8045962077678617,-1.3684351476921586 L-2.832230645773031,-1.339485991216349 L-2.8595152636986803,-1.313735891425406 L-2.88596391900628,-1.2915385328058764 " />
			<path d="M-2.88596391900628,-1.2915385328058784 L-2.9730426078395804,-1.221444258408664 L-3.0573550452152776,-1.150021572027662 L-3.1388563883150735,-1.0773084608762333 L-3.217503289442791,-1.0033435984992616 L-3.293253919079483,-0.9281663242040554 L-3.366067988131077,-0.8518166221371548 L-3.435906769356738,-0.7743351000181706 L-3.502733117966494,-0.6957629675419978 " />
			<path d="M-1.8815028132355511,-0.43564408667458565 L-2.6044539586527966,-0.5516382439013299 " />
			<path d="M-2.8222945071536847,-0.5865897492600893 L-3.5027331179665198,-0.6957629675419683 " />
			<path d="M-1.7385975698052838,0.3227611660743934 L-1.7966779759581306,0.05427112385220467 L-1.846178519599912,-0.2116088734869681 L-1.8676777185414095,-0.34339311369754055 L-1.8869939043448407,-0.47431325230062926 L-1.9041168034107563,-0.6042996574818864 L-1.9190373086717316,-0.7332831940468634 " />
			<path d="M-2.3539149638906123,0.6780148291866905 L-2.055249353567329,0.5022001502745389 L-1.7385975698053204,0.32276116607441807 " />
			<path d="M-3.5027331179666708,0.014744358676516134 L-3.4359067693566137,-0.05860056062600161 L-3.3660679881306517,-0.1312247670766049 L-3.2932539190787344,-0.20308963441569006 L-3.2175032894417,-0.27415694024940396 L-3.1388563883136205,-0.34438888637879317 L-3.057355045213438,-0.4137481189033332 L-2.973042607837337,-0.48219774808814875 L-2.8859639190036313,-0.5497013679843603 " />
			<path d="M-3.5027331179665193,-0.695762967541966 L-3.5140261988646513,-0.5195138838430543 L-3.5177921182706413,-0.34219930862893533 " />
			<path d="M-1.852344062611302,-0.24814941681934433 L-1.852344062611302,-0.2309268550961036 " />
			<path d="M-3.517792118270642,-0.3421993086289131 L-3.5140261988646913,-0.16403946885980758 L-3.5027331179666774,0.01474435867649404 " />
			<path d="M1.3059525065850102,-2.3705626863712106 L1.302159153409259,-2.533760263493462 L1.290789729378958,-2.692120093488587 L1.282273124557493,-2.769346540265304 L1.2718761111660306,-2.8451981798680497 L1.2596059780584354,-2.9196218363033313 L1.2454713272441256,-2.9925653346690506 L1.2294820678576126,-3.063977537731859 L1.2116494092116754,-3.1338083817770452 L1.19198585293904,-3.202008911705844 L1.1705051842280818,-3.268531315355526 L1.1472224621586775,-3.3333289570182556 L1.1221540091449975,-3.3963564101351706 L1.0953173994926406,-3.457569489142786 L1.0667314470781102,-3.5169252804494153 L1.0364161921593043,-3.5743821725198455 L1.0043928873262347,-3.62989988504722 L0.9706839826018443,-3.6834394971916535 L0.9353131097033611,-3.734963474865788 L0.8983050654752158,-3.78443569704817 L0.8596857945051484,-3.831821481105985 L0.8194823709356911,-3.8770876071094063 L0.7777229794837635,-3.920202341120522 L0.7344368956817025,-3.961135457440491 L0.689654465353575,-3.9998582597993533 L0.6434070833411554,-4.0363436014736225 L0.5957271714944896,-4.070565904317572 L0.5466481559424701,-4.102501176694859 L0.4962044436593591,-4.1321270302979265 L0.4444313983436867,-4.159422695843388 L0.3913653156264618,-4.184369037632375 " />
			<path d="M0.39136531562644383,-4.184369037632382 L0.3150742988135464,-4.215276157075881 L0.2364330452936736,-4.241514513338305 L0.15554932095388563,-4.263048150739765 L0.07253396464671957,-4.279847560702608 L-0.012499263697614449,-4.291889722188439 L-0.09943383896192981,-4.299158133244956 L-0.1881506305220284,-4.301642833619364 L-0.27852806549711695,-4.299340418407394 L-0.3704422953469646,-4.292254042719201 L-0.46376736558750886,-4.280393417355771 L-0.558375388392331,-4.26377479550174 L-0.6541367178434908,-4.24242095045287 L-0.750920127591554,-4.21636114440872 L-0.8485929906813621,-4.1856310883732375 L-0.9470214612971186,-4.1502728932182595 L-1.0460706581777413,-4.110335011976963 L-1.1456048494511317,-4.065872173446339 L-1.2454876386340787,-4.016945307189703 L-1.3455821515429123,-3.9636214600419826 L-1.4457512238587709,-3.9059737042322205 L-1.5458575890904558,-3.8440810372491865 L-1.6457640666772988,-3.7780282735873283 L-1.7453337499742716,-3.7079059285213916 L-1.844430193861739,-3.6338100940689952 L-1.9429176017227585,-3.555842307311122 L-2.040661011531711,-3.474109411250979 L-2.137526480799242,-3.388723408401901 L-2.2333812701200912,-3.299801307304922 L-2.328094025072276,-3.2074649621863567 L-2.4215349562183643,-3.1118409059750944 L-2.513576016962174,-3.0130601769084575 L-2.604091079017169,-2.9112581389642105 " />
			<path d="M-3.8232690448257953,-0.7995799587152027 L-3.888615268138123,-0.5983338126125216 L-3.945694374526333,-0.39778511767681857 L-3.994316749310256,-0.19860008925474193 L-4.015405074110927,-0.09972596383585641 L-4.034320870759313,-0.001440412643221367 L-4.05104842659823,0.09617492212745327 L-4.065573846661727,0.19303895500461266 L-4.077885065217117,0.2890712245955781 L-4.087971855787543,0.38419196042286907 L-4.095825839646732,0.4783221491866033 L-4.101440492778903,0.5713836003979459 L-4.104811151298018,0.6632990113290761 L-4.105935015321905,0.7539920312257079 " />
			<path d="M-4.105935015321905,0.753992031225721 L-4.103169056940731,0.8936344054720858 L-4.094876836405316,1.0297974471339164 L-4.0810753059799465,1.162202790258656 L-4.061792680928593,1.2905797509734076 L-4.037068381832823,1.4146658808595736 L-4.00695295400203,1.53420750349128 L-3.971507964140754,1.6489602330407158 L-3.9308058744843066,1.7586894738901595 L-3.8849298946600594,1.8631709002293202 L-3.8339738115772013,1.96219091465752 L-3.778041797692757,2.0555470848531683 L-3.717248198045831,2.143048557417823 L-3.651717296495452,2.224516448048788 L-3.5815830616399236,2.2997842072426047 L-3.506988872937092,2.368697960781798 L-3.428087227585473,2.4311168243088006 " />
			<path d="M-3.428087227585465,2.431116824308806 L-3.358973480322386,2.4781980470216345 L-3.287063543414927,2.52058824668345 L-3.21246005884638,2.5582269168558858 L-3.1352695132852912,2.591060333284393 L-3.05560208608974,2.6190416305825512 L-2.973571492040784,2.642130869126253 L-2.889294819029553,2.660295092062261 L-2.8028923609296816,2.6735083723497897 L-2.7144874458936084,2.6817518497679456 L-2.62420626031785,2.685013757836213 L-2.53217766872851,2.683289440609561 L-2.4385330298441006,2.6765813593241923 L-2.3434060090782367,2.664899088884449 L-2.2469323877498337,2.648259304195898 L-2.1492498692731123,2.626685756364098 L-2.0504978826040783,2.6002092387930085 L-1.9508173832240177,2.5688675432314647 L-1.8503506519440693,2.532705405830416 L-1.7492410918180659,2.4917744432879494 L-1.6476330234535286,2.4461330791732445 L-1.5456714790129673,2.3958464605346013 L-1.4435019951995294,2.3409863649105924 L-1.3412704055224842,2.2816310978770624 L-1.2391226321390636,2.217865381276212 L-1.1372044775697512,2.1497802322873008 L-1.0356614165843556,2.077472833511587 L-0.9346383885558982,2.0010463942569405 L-0.8342795905787059,1.9206100032201205 L-0.7347282716460077,1.836278472776995 L-0.63612652818083,1.7481721751029689 L-0.5386151012120334,1.656416870357527 L-0.44233317548498496,1.5611435271781313 L-0.34741818079363207,1.462488135739708 L-0.2540055958175367,1.3605915136465474 L-0.162228754743859,1.2555991049336783 L-0.0722186569503378,1.1476607724646248 L0.015896219979100623,1.0369305840218757 L0.1019901036392139,0.9235665923953648 L0.18594010632701763,0.8077306097828924 L0.2676264004478275,0.6895879768244816 L0.3469323895534073,0.5693073266003389 L0.4237448747680681,0.4470603439293025 L0.4979542163651842,0.3230215203113357 L0.5694544902634944,0.1973679048638356 L0.6381436392198052,0.07027885160729175 L0.7039236185022915,-0.058064236538999614 L0.7667005358364654,-0.1874781666857711 L0.8263847854240576,-0.31777821745754753 L0.8828911758435118,-0.4487784026581251 L0.936139051649546,-0.5802917367414293 L0.9860524084982007,-0.7121305017088029 L1.0325600016330452,-0.8441065150517714 L1.0755954475777096,-0.9760313983578509 L1.1150973188895683,-1.107716846195964 L1.151009231839337,-1.2389748948976873 L1.1832799268914436,-1.3696181908506913 L1.2118633418702702,-1.4994602579213945 L1.2367186777078591,-1.628315763625129 L1.2578104566792188,-1.7560007836639158 L1.2751085730421126,-1.8823330644542153 L1.2885883360090478,-2.00713228326996 L1.2982305049901324,-2.1302203056295506 L1.3040213170564854,-2.251421439559417 L1.3059525065850106,-2.3705626863711835 " />
			<path d="M2.828427124746807,-1.632993161855095 L2.827435686571142,-1.7188879994802702 L2.8244620670945153,-1.8035778061060859 L2.8195083509807617,-1.8870032097185696 L2.8125780110457264,-1.969105724716849 L2.803675905822635,-2.0498277929146265 L2.792808276156008,-2.129112823891502 L2.7799827408265,-2.2069052346658373 L2.765208291209734,-2.283150488661354 L2.748495284972871,-2.3577951339401455 L2.7298554388133422,-2.4307868406752964 L2.7093018202448254,-2.5020744378368533 L2.6868488384362337,-2.571607949065401 L2.6625122341101237,-2.6393386277081343 L2.636309068507623,-2.7052189909928233 L2.608257711427605,-2.7692028533157296 L2.578377828348486,-2.8312453586201594 L2.5466903666416933,-2.8913030118429135 L2.5132175408864548,-2.9493337094066194 L2.477982817296207,-3.005296768736555 L2.441010897267548,-3.059152956781272 L2.4023277000632537,-3.1108645175170406 L2.3619603446415085,-3.1603951984168037 L2.319937130644095,-3.207710275865103 L2.276287518556847,-3.2527765795011723 L2.2310421090563013,-3.2955625154731 L2.1842326215570114,-3.3360380885867853 L2.135891871974568,-3.374174923334147 L2.0860537497199143,-3.409946283785851 L2.0347531939410834,-3.443327092334602 L1.9820261690290168,-3.474293947275871 L1.9279096394046304,-3.5028251392137175 L1.8724415436048354,-3.5289006662802143 " />
			<path d="M-2.1198968526280955,3.38603227700323 L-2.04765470174804,3.435244610721599 L-1.972489792919271,3.479553584277147 L-1.8945094141696728,3.518895952433971 L-1.8138248722403862,3.553215559132579 L-1.730551333710066,3.5824634176452825 L-1.6448076606097208,3.6065977804983116 L-1.556716240762791,3.625584199060847 L-1.4664028130926194,3.639395572715912 L-1.3739962881466588,3.6480121875429425 L-1.279628564093612,3.6514217444568184 L-1.1834343384561359,3.6496193767631855 L-1.0855509158478267,3.6426076571050303 L-0.9861180119889308,3.6303965937905627 L-0.8852775542805262,3.6130036165076764 L-0.7831734792218014,3.5904535514453584 L-0.679951526959626,3.5627785858575662 L-0.5757590332636499,3.530018222120157 L-0.470744719223854,3.492219221346436 L-0.36505847897073934,3.4494355366418104 L-0.25885116572116224,3.4017282360928283 L-0.15227437645519432,3.3491654156005093 L-0.04548023553135609,3.2918221016823956 L0.06137882245091027,3.2297801443820577 L0.16815027023158852,3.1631281004389225 L0.2746817056027158,3.091961106885159 L0.3808210689424954,3.0163807452500717 L0.4864168602604209,2.9364948965658253 L0.5913183554436005,2.852417587381443 L0.6953758213956233,2.764268827004898 L0.798440729760868,2.672174436205597 L0.9003659689292054,2.576265867621778 L1.0010060540184924,2.4766800181291395 L1.100217334535117,2.373559033438546 L1.1978581994161932,2.26705010520171 L1.2937892791607488,2.1573052609144505 L1.387873644761365,2.044481146917428 L1.4799770031523318,1.92873880480409 L1.5699678888953543,1.8102434415549504 L1.6577178518291866,1.6891641937263477 L1.7431016404153483,1.565673886030241 L1.825997380518243,1.4399487846496415 L1.9062867493644604,1.3121683456418096 L1.9838551444329817,1.182514958788327 L2.058591847035221,1.0511736872576476 L2.1303901803513963,0.9183320034517498 L2.199147661697671,0.784179521413929 L2.264766148806717,0.6489077261796627 L2.327151979912898,0.5127097004568961 L2.386216107442129,0.375779849025863 L2.441874225115586,0.23831362125180275 L2.494046888285838,0.10050723210668451 L2.542659627333639,-0.037442617901871575 L2.587643053963521,-0.17533902349472555 L2.628932960246468,-0.3129851556776166 L2.66647041026829,-0.4501845426886745 L2.7002018242528987,-0.5867413504360458 L2.730079055040394,-0.7224606620253186 L2.7560594568108066,-0.857148755977763 L2.7781059459554016,-0.9906133827422943 L2.796187054008654,-1.1226640391064275 L2.810276972565349,-1.2531122401145702 L2.820355590118685,-1.3817717881055316 L2.826408520766811,-1.5084590384852066 L2.8284271247468067,-1.6329931618550662 " />
			<path d="M-0.9465245525410747,-1.5504680846564427 L-1.5945605285486808,-2.0371306279218393 " />
			<path d="M-1.5945605285550246,-1.2952934630876065 L-2.5614871388864096,-1.853548801849457 " />
			<path d="M-2.5614871388845284,-0.3623646116356956 L-1.8160070253413623,-0.04448026547903228 " />
			<path d="M-2.885963919006281,-1.2915385328058753 L-1.9190373086737764,-0.7332831940433784 " />
			<path d="M5.656854249492391,4.645865545478753 L5.470178059259146,4.753643094161213 " />
			<path d="M-1.857166845882363,-2.037685240352188 L-1.123456825344306,-1.4866831388729236 " />
			<path d="M-2.6932706060050866,-0.5895110474255179 L-1.8492337783160209,-0.22960058136779776 " />
			<path d="M2.722127789017799,-0.68466364023507 L6.447178059259132,1.4659951360336518 " />
			<path d="M0.7681277890177982,2.6997636377545158 L4.493178059259131,4.850422414023238 " />
			<path d="M-3.823269044825807,-0.7995799587152059 L-3.746930906706628,-1.009128598697043 L-3.663338094474854,-1.2158902624379873 L-3.5725921157310614,-1.4196138771505957 L-3.4748031642385433,-1.6200520591812007 L-3.370089986113909,-1.816961414410399 L-3.258579735632461,-2.010102833808996 L-3.140407820823479,-2.1992417837905345 L-3.0157177390428638,-2.3841485910078015 L-2.884660902722848,-2.5645987212475125 L-2.7473964555103407,-2.7403730520844833 L-2.6040910790171807,-2.9112581389642145 " />
			<path d="M0.3913653156264445,-4.184369037632383 L1.8724415436048147,-3.5289006662802187 " />
			<path d="M-3.4280872275854684,2.4311168243088073 L-2.1198968526280915,3.3860322770032294 " />

       </g>
    </g>
    
</svg>
